G04 #@! TF.GenerationSoftware,KiCad,Pcbnew,9.0.2*
G04 #@! TF.CreationDate,2025-08-11T21:07:56-07:00*
G04 #@! TF.ProjectId,MusicalTeslaCoil,4d757369-6361-46c5-9465-736c61436f69,REV1*
G04 #@! TF.SameCoordinates,Original*
G04 #@! TF.FileFunction,Soldermask,Bot*
G04 #@! TF.FilePolarity,Negative*
%FSLAX46Y46*%
G04 Gerber Fmt 4.6, Leading zero omitted, Abs format (unit mm)*
G04 Created by KiCad (PCBNEW 9.0.2) date 2025-08-11 21:07:56*
%MOMM*%
%LPD*%
G01*
G04 APERTURE LIST*
G04 Aperture macros list*
%AMRoundRect*
0 Rectangle with rounded corners*
0 $1 Rounding radius*
0 $2 $3 $4 $5 $6 $7 $8 $9 X,Y pos of 4 corners*
0 Add a 4 corners polygon primitive as box body*
4,1,4,$2,$3,$4,$5,$6,$7,$8,$9,$2,$3,0*
0 Add four circle primitives for the rounded corners*
1,1,$1+$1,$2,$3*
1,1,$1+$1,$4,$5*
1,1,$1+$1,$6,$7*
1,1,$1+$1,$8,$9*
0 Add four rect primitives between the rounded corners*
20,1,$1+$1,$2,$3,$4,$5,0*
20,1,$1+$1,$4,$5,$6,$7,0*
20,1,$1+$1,$6,$7,$8,$9,0*
20,1,$1+$1,$8,$9,$2,$3,0*%
G04 Aperture macros list end*
%ADD10C,1.700000*%
%ADD11R,1.700000X1.700000*%
%ADD12O,2.190000X1.740000*%
%ADD13RoundRect,0.250000X0.845000X-0.620000X0.845000X0.620000X-0.845000X0.620000X-0.845000X-0.620000X0*%
%ADD14RoundRect,0.250000X-0.845000X0.620000X-0.845000X-0.620000X0.845000X-0.620000X0.845000X0.620000X0*%
%ADD15O,1.804000X1.204000*%
%ADD16O,2.104000X1.204000*%
G04 APERTURE END LIST*
D10*
X115000000Y-92460000D03*
X115000000Y-95000000D03*
X112460000Y-92460000D03*
X112460000Y-95000000D03*
X109920000Y-92460000D03*
D11*
X109920000Y-95000000D03*
D12*
X142500000Y-64500000D03*
D13*
X142500000Y-67040000D03*
D12*
X142500000Y-75000000D03*
D13*
X142500000Y-77540000D03*
D12*
X55540000Y-59265000D03*
D14*
X55540000Y-56725000D03*
D15*
X54825000Y-92850000D03*
X54825000Y-81650000D03*
D16*
X50825000Y-92850000D03*
X50825000Y-81650000D03*
D14*
X55480000Y-134725000D03*
D12*
X55480000Y-137265000D03*
D11*
X96840000Y-83000000D03*
D10*
X99380000Y-83000000D03*
X101920000Y-83000000D03*
X104460000Y-83000000D03*
X107000000Y-83000000D03*
X109540000Y-83000000D03*
D11*
X76000000Y-68920000D03*
D10*
X76000000Y-71460000D03*
X76000000Y-74000000D03*
X76000000Y-76540000D03*
X76000000Y-79080000D03*
D11*
X120380000Y-55500000D03*
D10*
X122920000Y-55500000D03*
X125460000Y-55500000D03*
X128000000Y-55500000D03*
X130540000Y-55500000D03*
X133080000Y-55500000D03*
X135620000Y-55500000D03*
X138160000Y-55500000D03*
X140700000Y-55500000D03*
X143240000Y-55500000D03*
D13*
X142488000Y-90000001D03*
D12*
X142488000Y-87460001D03*
D13*
X142500000Y-136540000D03*
D12*
X142500000Y-134000000D03*
D13*
X142500000Y-107540000D03*
D12*
X142500000Y-105000000D03*
D14*
X55236800Y-106208400D03*
D12*
X55236800Y-108748400D03*
D14*
X55520000Y-63725000D03*
D12*
X55520000Y-66265000D03*
M02*
