G04 #@! TF.GenerationSoftware,KiCad,Pcbnew,9.0.5*
G04 #@! TF.CreationDate,2025-12-03T21:15:56-08:00*
G04 #@! TF.ProjectId,MusicalTeslaCoil,4d757369-6361-46c5-9465-736c61436f69,REV2*
G04 #@! TF.SameCoordinates,Original*
G04 #@! TF.FileFunction,Copper,L4,Bot*
G04 #@! TF.FilePolarity,Positive*
%FSLAX46Y46*%
G04 Gerber Fmt 4.6, Leading zero omitted, Abs format (unit mm)*
G04 Created by KiCad (PCBNEW 9.0.5) date 2025-12-03 21:15:56*
%MOMM*%
%LPD*%
G01*
G04 APERTURE LIST*
G04 Aperture macros list*
%AMRoundRect*
0 Rectangle with rounded corners*
0 $1 Rounding radius*
0 $2 $3 $4 $5 $6 $7 $8 $9 X,Y pos of 4 corners*
0 Add a 4 corners polygon primitive as box body*
4,1,4,$2,$3,$4,$5,$6,$7,$8,$9,$2,$3,0*
0 Add four circle primitives for the rounded corners*
1,1,$1+$1,$2,$3*
1,1,$1+$1,$4,$5*
1,1,$1+$1,$6,$7*
1,1,$1+$1,$8,$9*
0 Add four rect primitives between the rounded corners*
20,1,$1+$1,$2,$3,$4,$5,0*
20,1,$1+$1,$4,$5,$6,$7,0*
20,1,$1+$1,$6,$7,$8,$9,0*
20,1,$1+$1,$8,$9,$2,$3,0*%
G04 Aperture macros list end*
G04 #@! TA.AperFunction,HeatsinkPad*
%ADD10C,0.600000*%
G04 #@! TD*
G04 #@! TA.AperFunction,ComponentPad*
%ADD11RoundRect,0.250000X0.620000X0.845000X-0.620000X0.845000X-0.620000X-0.845000X0.620000X-0.845000X0*%
G04 #@! TD*
G04 #@! TA.AperFunction,ComponentPad*
%ADD12O,1.740000X2.190000*%
G04 #@! TD*
G04 #@! TA.AperFunction,ComponentPad*
%ADD13O,1.800000X1.000000*%
G04 #@! TD*
G04 #@! TA.AperFunction,ComponentPad*
%ADD14O,2.200000X1.000000*%
G04 #@! TD*
G04 #@! TA.AperFunction,ComponentPad*
%ADD15RoundRect,0.250000X0.845000X-0.620000X0.845000X0.620000X-0.845000X0.620000X-0.845000X-0.620000X0*%
G04 #@! TD*
G04 #@! TA.AperFunction,ComponentPad*
%ADD16O,2.190000X1.740000*%
G04 #@! TD*
G04 #@! TA.AperFunction,ComponentPad*
%ADD17R,1.700000X1.700000*%
G04 #@! TD*
G04 #@! TA.AperFunction,ComponentPad*
%ADD18C,1.700000*%
G04 #@! TD*
G04 #@! TA.AperFunction,ComponentPad*
%ADD19RoundRect,0.250000X-0.845000X0.620000X-0.845000X-0.620000X0.845000X-0.620000X0.845000X0.620000X0*%
G04 #@! TD*
G04 #@! TA.AperFunction,ViaPad*
%ADD20C,0.600000*%
G04 #@! TD*
G04 #@! TA.AperFunction,Conductor*
%ADD21C,1.000000*%
G04 #@! TD*
G04 #@! TA.AperFunction,Conductor*
%ADD22C,0.400000*%
G04 #@! TD*
G04 #@! TA.AperFunction,Conductor*
%ADD23C,0.200000*%
G04 #@! TD*
G04 #@! TA.AperFunction,Conductor*
%ADD24C,0.600000*%
G04 #@! TD*
G04 #@! TA.AperFunction,Conductor*
%ADD25C,0.150000*%
G04 #@! TD*
G04 #@! TA.AperFunction,Conductor*
%ADD26C,0.800000*%
G04 #@! TD*
G04 APERTURE END LIST*
D10*
X103200000Y-61400000D03*
X103200000Y-62800000D03*
X103900000Y-60700000D03*
X103900000Y-62100000D03*
X103900000Y-63500000D03*
X104600000Y-61400000D03*
X104600000Y-62800000D03*
X105300000Y-60700000D03*
X105300000Y-62100000D03*
X105300000Y-63500000D03*
X106000000Y-61400000D03*
X106000000Y-62800000D03*
D11*
X94400000Y-77600000D03*
D12*
X91860000Y-77600000D03*
X89320000Y-77600000D03*
D13*
X55400000Y-81200000D03*
X55400000Y-89840000D03*
D14*
X51400000Y-81200000D03*
X51400000Y-89840000D03*
D15*
X142500000Y-67040000D03*
D16*
X142500000Y-64500000D03*
D15*
X142500000Y-77540000D03*
D16*
X142500000Y-75000000D03*
D17*
X121880000Y-55500000D03*
D18*
X124420000Y-55500000D03*
X126960000Y-55500000D03*
X129500000Y-55500000D03*
X132040000Y-55500000D03*
X134580000Y-55500000D03*
X137120000Y-55500000D03*
D11*
X89600000Y-118400000D03*
D12*
X87060000Y-118400000D03*
D11*
X111000000Y-118400000D03*
D12*
X108460000Y-118400000D03*
D19*
X55180000Y-65325000D03*
D16*
X55180000Y-67865000D03*
D15*
X142488000Y-90000001D03*
D16*
X142488000Y-87460001D03*
D15*
X142500000Y-136540000D03*
D16*
X142500000Y-134000000D03*
D15*
X142500000Y-107540000D03*
D16*
X142500000Y-105000000D03*
D19*
X55236800Y-102900000D03*
D16*
X55236800Y-105440000D03*
D11*
X96600000Y-118400000D03*
D12*
X94060000Y-118400000D03*
D11*
X103800000Y-118400000D03*
D12*
X101260000Y-118400000D03*
D17*
X83580000Y-66500000D03*
D18*
X81040000Y-66500000D03*
X78500000Y-66500000D03*
X75960000Y-66500000D03*
X73420000Y-66500000D03*
D19*
X55160000Y-72325000D03*
D16*
X55160000Y-74865000D03*
D19*
X55500000Y-136500000D03*
D16*
X55500000Y-139040000D03*
D20*
X63000000Y-66400000D03*
X63000000Y-73600000D03*
X84000000Y-106400000D03*
X84000000Y-108799400D03*
X57400000Y-82300000D03*
X104299000Y-76600000D03*
X106300003Y-76600000D03*
X83500000Y-87300000D03*
X88900000Y-87300000D03*
X93358200Y-101158200D03*
X126600000Y-68000000D03*
X125200000Y-93000000D03*
X124400000Y-93000000D03*
X123600000Y-93000000D03*
X95799997Y-128600000D03*
X96600000Y-128600000D03*
X94550000Y-146400000D03*
X94550000Y-145600000D03*
X94550000Y-144800000D03*
X100400000Y-125000000D03*
X101200000Y-125000000D03*
X96900000Y-110300000D03*
X54900000Y-133000000D03*
X54900000Y-132200000D03*
X54900000Y-131400000D03*
X125600000Y-147400000D03*
X125600000Y-148200000D03*
X125600000Y-149000000D03*
X125600000Y-134600000D03*
X66000000Y-122400000D03*
X79600000Y-86400000D03*
X82600000Y-81400000D03*
X81800000Y-81400000D03*
X80400000Y-86400000D03*
X92599997Y-81200000D03*
X93400000Y-81200000D03*
X93400000Y-90000000D03*
X69200000Y-84600000D03*
X70200000Y-84000000D03*
X70200000Y-67400000D03*
X69200000Y-68600000D03*
X69800000Y-136200000D03*
X124500000Y-89500000D03*
X122500000Y-139000000D03*
X115000000Y-98400000D03*
X100500000Y-78500000D03*
X100000000Y-90500000D03*
X63000000Y-80800000D03*
X135500000Y-146500000D03*
X66600000Y-131000000D03*
X92300000Y-87200000D03*
X93500000Y-107500000D03*
X118200000Y-61200000D03*
X54900000Y-126600000D03*
X103400000Y-76600000D03*
X94713403Y-63904999D03*
X93200000Y-90800000D03*
X96000000Y-53500000D03*
X74000000Y-115691600D03*
X117202590Y-67551728D03*
X81700000Y-90200000D03*
X86000000Y-61500000D03*
X91000000Y-68400000D03*
X58108200Y-122391800D03*
X72200000Y-136200000D03*
X111500000Y-82000000D03*
X85000000Y-83800000D03*
X117200707Y-69187840D03*
X123099998Y-69700002D03*
X81000000Y-115691600D03*
X106500000Y-96500000D03*
X114200000Y-94600000D03*
X110600000Y-132425000D03*
X100200000Y-80000000D03*
X93400000Y-61400000D03*
X135500000Y-132000000D03*
X96000000Y-54500000D03*
X95000000Y-133500000D03*
X73000000Y-80000000D03*
X91100000Y-87200000D03*
X65600000Y-131000000D03*
X136000000Y-104500000D03*
X68500000Y-107691600D03*
X133450000Y-89950000D03*
X67600000Y-131000000D03*
X93358200Y-96141800D03*
X57400000Y-88700000D03*
X113000000Y-90000000D03*
X133506250Y-77506250D03*
X87500000Y-54500000D03*
X64500000Y-115191600D03*
X75000000Y-96645800D03*
X70600000Y-136200000D03*
X100000000Y-83500000D03*
X68600000Y-131000000D03*
X120500000Y-149000000D03*
X63000000Y-91200000D03*
X83000000Y-145400000D03*
X99600085Y-105019355D03*
X131749999Y-68850001D03*
X74100000Y-124200000D03*
X72300000Y-149300000D03*
X75300000Y-89345800D03*
X117500000Y-96500000D03*
X61350000Y-129250000D03*
X124000000Y-76000000D03*
X121500000Y-106500000D03*
X98500000Y-133500000D03*
X94550000Y-140050000D03*
X121000000Y-119000000D03*
X119000000Y-90500000D03*
X100000000Y-129000000D03*
X77391800Y-80108200D03*
X81500000Y-61000000D03*
X71400000Y-136200000D03*
X99400000Y-69200000D03*
X86249300Y-79749300D03*
X92776327Y-54017354D03*
X101800000Y-105600000D03*
X108000000Y-75200000D03*
X114200000Y-93600000D03*
X116500000Y-55000000D03*
X122500000Y-124500000D03*
X121000000Y-111000000D03*
X120500000Y-134500000D03*
X100000000Y-94000000D03*
X75000000Y-94645800D03*
X116500000Y-54000000D03*
X87400000Y-83800000D03*
X133200000Y-64425000D03*
X144000000Y-115500000D03*
X91050000Y-137050000D03*
X114200000Y-92400000D03*
X119800000Y-61200000D03*
X75000000Y-92645800D03*
X111800000Y-108900000D03*
X120500000Y-98500000D03*
X119500000Y-94500000D03*
X136500000Y-64500000D03*
X100400000Y-110400000D03*
X127100000Y-63500000D03*
X51300000Y-122700000D03*
X92400000Y-128200000D03*
X97000000Y-81848527D03*
X81854200Y-79854200D03*
X84137500Y-147637500D03*
X111000000Y-73600000D03*
X100000000Y-87000000D03*
X70000000Y-115191600D03*
X88000000Y-101000000D03*
X125200000Y-66600000D03*
X125200000Y-80200000D03*
X88500000Y-54500000D03*
X115500000Y-79500000D03*
X91500000Y-57500000D03*
X94000000Y-57501000D03*
X119000000Y-61200000D03*
X117199994Y-68351726D03*
X72000000Y-145500000D03*
X138000000Y-81500000D03*
X71000000Y-143500000D03*
X79200000Y-124400000D03*
X70000000Y-143500000D03*
X71000000Y-144500000D03*
X72000000Y-144500000D03*
X71000000Y-145500000D03*
X126500000Y-106500000D03*
X126000000Y-119000000D03*
X72000000Y-143500000D03*
X70000000Y-145500000D03*
X70000000Y-144500000D03*
X138500000Y-94500000D03*
X117399997Y-61200000D03*
X117198835Y-66751734D03*
X117200000Y-70000000D03*
X120600000Y-61200000D03*
X104000000Y-101500000D03*
X60600000Y-91934700D03*
X60600000Y-90934700D03*
X113400000Y-105400000D03*
X102000000Y-125000000D03*
X108005000Y-74395000D03*
X100400000Y-105200000D03*
X99470000Y-104230000D03*
X101400000Y-67000000D03*
X93000000Y-127600000D03*
X95200000Y-63270000D03*
X95200000Y-64540000D03*
X99400000Y-70000000D03*
X99400000Y-80000000D03*
X95000000Y-95600000D03*
X96600000Y-74200000D03*
X94600000Y-69200000D03*
X73400000Y-134800000D03*
X73400000Y-134000000D03*
X68400000Y-140200000D03*
X67400000Y-140200000D03*
X71000000Y-134800000D03*
X71000000Y-134000000D03*
X68400000Y-139200000D03*
X67400000Y-139200000D03*
X72600000Y-134000000D03*
X71800000Y-134000000D03*
X71800000Y-134800000D03*
X72600000Y-134800000D03*
X67900000Y-139700000D03*
X95600000Y-71397997D03*
X103000000Y-65400000D03*
X97800000Y-81800000D03*
X97400000Y-73800000D03*
X95200000Y-72198000D03*
X103000000Y-64600000D03*
X113500000Y-94000000D03*
X113500000Y-92000000D03*
X105500000Y-76600000D03*
X102600000Y-76600000D03*
X113500000Y-95000000D03*
X113500000Y-93000000D03*
X107100006Y-76600000D03*
X90899997Y-88000000D03*
X92800000Y-60800000D03*
X92500000Y-88000000D03*
X92800000Y-62000000D03*
X91700000Y-88000000D03*
X91800000Y-68400000D03*
X111800000Y-73600000D03*
X115000000Y-97600000D03*
D21*
X59000000Y-71685000D02*
X55180000Y-67865000D01*
X59000000Y-93400000D02*
X59000000Y-71685000D01*
X56400000Y-96000000D02*
X59000000Y-93400000D01*
X51600000Y-96000000D02*
X56400000Y-96000000D01*
X50200000Y-97400000D02*
X51600000Y-96000000D01*
X50200000Y-136186730D02*
X50200000Y-97400000D01*
X62413270Y-148400000D02*
X50200000Y-136186730D01*
X71784372Y-148400000D02*
X62413270Y-148400000D01*
X71885372Y-148299000D02*
X71784372Y-148400000D01*
X72714628Y-148299000D02*
X71885372Y-148299000D01*
X83722872Y-148638500D02*
X83484372Y-148400000D01*
X84552128Y-148638500D02*
X83722872Y-148638500D01*
X83484372Y-148400000D02*
X72815628Y-148400000D01*
X72815628Y-148400000D02*
X72714628Y-148299000D01*
X84790628Y-148400000D02*
X84552128Y-148638500D01*
X91701000Y-148400000D02*
X84790628Y-148400000D01*
X93600000Y-146501000D02*
X91701000Y-148400000D01*
D22*
X84000000Y-108799400D02*
X84000000Y-106400000D01*
D23*
X92600000Y-127200000D02*
X93000000Y-127600000D01*
X92600000Y-117000000D02*
X92600000Y-127200000D01*
X95999000Y-113601000D02*
X92600000Y-117000000D01*
X95999000Y-110816043D02*
X95999000Y-113601000D01*
X95898000Y-110715043D02*
X95999000Y-110816043D01*
X95898000Y-109884957D02*
X95898000Y-110715043D01*
X96199000Y-109583957D02*
X95898000Y-109884957D01*
X96199000Y-82464570D02*
X96199000Y-109583957D01*
X95998000Y-81433484D02*
X95998000Y-82263570D01*
X95998000Y-82263570D02*
X96199000Y-82464570D01*
X96800000Y-76300000D02*
X96800000Y-80631484D01*
X96800000Y-80631484D02*
X95998000Y-81433484D01*
X93400000Y-72900000D02*
X96800000Y-76300000D01*
X94280057Y-63270000D02*
X93400000Y-64150057D01*
X93400000Y-64150057D02*
X93400000Y-72900000D01*
X95200000Y-63270000D02*
X94280057Y-63270000D01*
X93999000Y-65741000D02*
X95200000Y-64540000D01*
X93999000Y-72599000D02*
X93999000Y-65741000D01*
X97600000Y-76200000D02*
X93999000Y-72599000D01*
X97600000Y-80398584D02*
X97600000Y-76200000D01*
X96399000Y-82097470D02*
X96399000Y-81599584D01*
X96600000Y-82298470D02*
X96399000Y-82097470D01*
X96600000Y-109750057D02*
X96600000Y-82298470D01*
X96400000Y-110649943D02*
X96299000Y-110548943D01*
X96299000Y-110548943D02*
X96299000Y-110051057D01*
X96299000Y-110051057D02*
X96600000Y-109750057D01*
X97800000Y-117200000D02*
X97718956Y-117200000D01*
X97718956Y-117200000D02*
X96400000Y-115881044D01*
X97800000Y-127400000D02*
X97800000Y-117200000D01*
X96400000Y-115881044D02*
X96400000Y-110649943D01*
X96600000Y-128600000D02*
X97800000Y-127400000D01*
X96399000Y-81599584D02*
X97600000Y-80398584D01*
X98600000Y-75000000D02*
X97400000Y-73800000D01*
X98600000Y-81000000D02*
X98600000Y-75000000D01*
X97800000Y-81800000D02*
X98600000Y-81000000D01*
D24*
X91900000Y-77600000D02*
X92000000Y-77500000D01*
X93000000Y-93000000D02*
X94201000Y-91799000D01*
X91860000Y-77600000D02*
X91900000Y-77600000D01*
X88900000Y-93000000D02*
X93000000Y-93000000D01*
X94201000Y-91799000D02*
X94201000Y-79941000D01*
X94201000Y-79941000D02*
X91860000Y-77600000D01*
D23*
X95571000Y-80229000D02*
X95000000Y-80800000D01*
X95000000Y-80800000D02*
X95000000Y-95600000D01*
X95571000Y-76519840D02*
X95571000Y-80229000D01*
X95255160Y-76204000D02*
X95571000Y-76519840D01*
X90716000Y-76204000D02*
X95255160Y-76204000D01*
X89320000Y-77600000D02*
X90716000Y-76204000D01*
D25*
X95174000Y-72774000D02*
X96600000Y-74200000D01*
X94961412Y-72774000D02*
X95174000Y-72774000D01*
X94624000Y-72436588D02*
X94961412Y-72774000D01*
X94624000Y-72224000D02*
X94624000Y-72436588D01*
X94600000Y-72200000D02*
X94624000Y-72224000D01*
X94600000Y-69200000D02*
X94600000Y-72200000D01*
D23*
X94540000Y-77500000D02*
X95000000Y-77960000D01*
D21*
X58695000Y-78400000D02*
X55160000Y-74865000D01*
X59000000Y-78400000D02*
X58695000Y-78400000D01*
D24*
X59600000Y-96200000D02*
X59600000Y-116000000D01*
X60600000Y-95200000D02*
X59600000Y-96200000D01*
X59600000Y-116000000D02*
X66000000Y-122400000D01*
X60600000Y-91934700D02*
X60600000Y-95200000D01*
D22*
X60600000Y-91934700D02*
X60600000Y-90934700D01*
D23*
X104299000Y-76600000D02*
X104299000Y-84799000D01*
X104299000Y-84799000D02*
X113500000Y-94000000D01*
X102600000Y-84100000D02*
X113500000Y-95000000D01*
X102600000Y-76600000D02*
X102600000Y-84100000D01*
X100400000Y-104200000D02*
X100400000Y-105200000D01*
X103405000Y-74395000D02*
X101200000Y-76600000D01*
X108005000Y-74395000D02*
X103405000Y-74395000D01*
X101200000Y-76600000D02*
X101200000Y-103400000D01*
X101200000Y-103400000D02*
X100400000Y-104200000D01*
X104899000Y-84399000D02*
X113500000Y-93000000D01*
X104899000Y-76101000D02*
X104899000Y-84399000D01*
X105200000Y-75800000D02*
X104899000Y-76101000D01*
X107100006Y-76300006D02*
X106600000Y-75800000D01*
X106600000Y-75800000D02*
X105200000Y-75800000D01*
X107100006Y-76600000D02*
X107100006Y-76300006D01*
D21*
X88900000Y-93000000D02*
X88900000Y-89000000D01*
D23*
X93400000Y-81200000D02*
X93400000Y-90000000D01*
D21*
X88900000Y-89000000D02*
X85200000Y-89000000D01*
X88900000Y-89000000D02*
X88900000Y-87300000D01*
X85200000Y-89000000D02*
X83500000Y-87300000D01*
X88900000Y-100484372D02*
X88900000Y-93000000D01*
X91399000Y-102983372D02*
X88900000Y-100484372D01*
X91399000Y-103201000D02*
X91399000Y-102983372D01*
X91399000Y-128614628D02*
X93200000Y-130415628D01*
X93358200Y-101241800D02*
X91399000Y-103201000D01*
X93200000Y-130415628D02*
X93200000Y-146101000D01*
X93200000Y-146101000D02*
X93600000Y-146501000D01*
X91399000Y-103201000D02*
X91399000Y-128614628D01*
X93358200Y-101158200D02*
X93358200Y-101241800D01*
X94449000Y-146501000D02*
X93600000Y-146501000D01*
X94550000Y-146400000D02*
X94449000Y-146501000D01*
X126600000Y-91600000D02*
X125200000Y-93000000D01*
X126600000Y-68000000D02*
X126600000Y-91600000D01*
X124400000Y-93800000D02*
X125200000Y-93000000D01*
X124400000Y-93800000D02*
X123600000Y-93000000D01*
X124400000Y-93800000D02*
X124400000Y-93000000D01*
X123600000Y-94600000D02*
X124400000Y-93800000D01*
X97499000Y-139110372D02*
X123600000Y-113009372D01*
X123600000Y-113009372D02*
X123600000Y-94600000D01*
X97499000Y-139200000D02*
X97499000Y-139110372D01*
X97499000Y-139200000D02*
X97499000Y-129901000D01*
X99399000Y-128001000D02*
X99399000Y-122801000D01*
X97499000Y-129901000D02*
X99399000Y-128001000D01*
X97499000Y-142251000D02*
X97499000Y-139200000D01*
X94550000Y-145200000D02*
X97499000Y-142251000D01*
X99399000Y-122801000D02*
X103800000Y-118400000D01*
D24*
X94550000Y-145200000D02*
X94550000Y-144800000D01*
X94550000Y-145600000D02*
X94550000Y-145200000D01*
X94550000Y-146400000D02*
X94550000Y-145600000D01*
D21*
X116499000Y-112901000D02*
X111000000Y-118400000D01*
X115500000Y-79500000D02*
X116499000Y-80499000D01*
X116499000Y-80499000D02*
X116499000Y-112901000D01*
X115641421Y-69625793D02*
X115641421Y-79358579D01*
X115641421Y-79358579D02*
X115500000Y-79500000D01*
D25*
X115000000Y-81000000D02*
X115000000Y-97600000D01*
X111800000Y-77800000D02*
X115000000Y-81000000D01*
X111800000Y-73600000D02*
X111800000Y-77800000D01*
D21*
X90200000Y-57500000D02*
X103515628Y-57500000D01*
X90200000Y-57500000D02*
X91500000Y-57500000D01*
X103515628Y-57500000D02*
X115641421Y-69625793D01*
X88501000Y-56999000D02*
X88501000Y-54500000D01*
X88000000Y-57500000D02*
X88501000Y-56999000D01*
X88000000Y-57500000D02*
X90200000Y-57500000D01*
X93999000Y-57500000D02*
X94000000Y-57501000D01*
X91500000Y-57500000D02*
X93999000Y-57500000D01*
X80226554Y-57500000D02*
X88000000Y-57500000D01*
X71869000Y-117946628D02*
X71869000Y-65857554D01*
X66414628Y-123401000D02*
X71869000Y-117946628D01*
X71869000Y-65857554D02*
X80226554Y-57500000D01*
X63699000Y-123401000D02*
X66414628Y-123401000D01*
X54900000Y-132200000D02*
X63699000Y-123401000D01*
X109800000Y-109000000D02*
X113400000Y-105400000D01*
X106200000Y-109000000D02*
X109800000Y-109000000D01*
X106200000Y-109000000D02*
X106200000Y-103700000D01*
X106200000Y-103700000D02*
X104000000Y-101500000D01*
X106200000Y-120000000D02*
X106200000Y-109000000D01*
X101200000Y-125000000D02*
X106200000Y-120000000D01*
D24*
X101200000Y-125000000D02*
X102000000Y-125000000D01*
X100400000Y-125000000D02*
X101200000Y-125000000D01*
X54900000Y-132200000D02*
X54900000Y-131400000D01*
X54900000Y-133000000D02*
X54900000Y-132200000D01*
D21*
X138540000Y-81500000D02*
X142500000Y-77540000D01*
X138000000Y-81500000D02*
X138540000Y-81500000D01*
X138500000Y-93988001D02*
X138500000Y-82000000D01*
X138500000Y-82000000D02*
X138000000Y-81500000D01*
X138500000Y-93988001D02*
X142488000Y-90000001D01*
X138500000Y-94500000D02*
X138500000Y-93988001D01*
X126500000Y-106500000D02*
X138500000Y-94500000D01*
X126000000Y-107000000D02*
X126500000Y-106500000D01*
X126000000Y-119000000D02*
X126000000Y-107000000D01*
X125600000Y-119400000D02*
X126000000Y-119000000D01*
X125600000Y-134600000D02*
X125600000Y-119400000D01*
X125600000Y-147400000D02*
X125600000Y-134600000D01*
D24*
X125600000Y-148200000D02*
X125600000Y-147400000D01*
X125600000Y-149000000D02*
X125600000Y-148200000D01*
D26*
X82400000Y-127600000D02*
X82600000Y-127400000D01*
X82400000Y-133100000D02*
X82400000Y-127600000D01*
X72000000Y-143500000D02*
X82400000Y-133100000D01*
X82200000Y-127400000D02*
X79200000Y-124400000D01*
X82600000Y-127400000D02*
X82200000Y-127400000D01*
X89600000Y-120400000D02*
X89600000Y-118400000D01*
X82600000Y-127400000D02*
X89600000Y-120400000D01*
D23*
X80400000Y-82800000D02*
X81800000Y-81400000D01*
X80400000Y-86400000D02*
X80400000Y-82800000D01*
D25*
X70200000Y-67400000D02*
X70200000Y-84000000D01*
X69200000Y-68600000D02*
X69200000Y-84600000D01*
X125200000Y-80200000D02*
X125200000Y-66600000D01*
X117199994Y-68351726D02*
X117201720Y-68350000D01*
X119000000Y-67223087D02*
X119000000Y-61200000D01*
X117201720Y-68350000D02*
X117873087Y-68350000D01*
X117873087Y-68350000D02*
X119000000Y-67223087D01*
X117198835Y-66601165D02*
X117200000Y-66600000D01*
X117200000Y-66600000D02*
X117200000Y-61399997D01*
X117200000Y-61399997D02*
X117399997Y-61200000D01*
X117198835Y-66751734D02*
X117198835Y-66601165D01*
X119600000Y-62200000D02*
X120024000Y-61776000D01*
X120024000Y-61776000D02*
X120038588Y-61776000D01*
X120376000Y-61438588D02*
X120376000Y-61424000D01*
X117200000Y-70000000D02*
X117580000Y-69620000D01*
X120376000Y-61424000D02*
X120600000Y-61200000D01*
X117580000Y-69620000D02*
X117994588Y-69620000D01*
X119600000Y-68014588D02*
X119600000Y-62200000D01*
X120038588Y-61776000D02*
X120376000Y-61438588D01*
X117994588Y-69620000D02*
X119600000Y-68014588D01*
X100800000Y-79014588D02*
X100738588Y-79076000D01*
X100261412Y-79076000D02*
X99924000Y-78738588D01*
X100738588Y-79076000D02*
X100261412Y-79076000D01*
X100800000Y-102900000D02*
X100800000Y-79014588D01*
X99924000Y-78261412D02*
X100261412Y-77924000D01*
X99924000Y-78738588D02*
X99924000Y-78261412D01*
X100261412Y-77924000D02*
X100738588Y-77924000D01*
X99470000Y-104230000D02*
X100800000Y-102900000D01*
X100738588Y-77924000D02*
X100800000Y-77985412D01*
X100800000Y-77985412D02*
X100800000Y-67600000D01*
X100800000Y-67600000D02*
X101400000Y-67000000D01*
X99400000Y-70000000D02*
X99400000Y-80000000D01*
D23*
X95602003Y-71397997D02*
X101600000Y-65400000D01*
X101600000Y-65400000D02*
X103000000Y-65400000D01*
X95600000Y-71397997D02*
X95602003Y-71397997D01*
X100948054Y-64600000D02*
X103000000Y-64600000D01*
X95000000Y-71998000D02*
X95000000Y-70548054D01*
X95000000Y-70548054D02*
X100948054Y-64600000D01*
X95200000Y-72198000D02*
X95000000Y-71998000D01*
X105500000Y-84000000D02*
X113500000Y-92000000D01*
X105500000Y-76600000D02*
X105500000Y-84000000D01*
X86850300Y-79500357D02*
X86800000Y-79450057D01*
X90899997Y-88000000D02*
X90499000Y-87599003D01*
X86800000Y-66800000D02*
X92800000Y-60800000D01*
X86800000Y-80048543D02*
X86850300Y-79998243D01*
X90600000Y-86599997D02*
X90600000Y-85800003D01*
X90600000Y-85800003D02*
X86800000Y-82000003D01*
X86800000Y-79450057D02*
X86800000Y-66800000D01*
X90499000Y-87599003D02*
X90499000Y-86700997D01*
X86850300Y-79998243D02*
X86850300Y-79500357D01*
X90499000Y-86700997D02*
X90600000Y-86599997D01*
X86800000Y-82000003D02*
X86800000Y-80048543D01*
D25*
X88000000Y-81200000D02*
X88000000Y-73400000D01*
X92500000Y-88000000D02*
X92876000Y-87624000D01*
X88000000Y-73400000D02*
X92800000Y-68600000D01*
X92876000Y-86076000D02*
X88000000Y-81200000D01*
X92800000Y-68600000D02*
X92800000Y-62000000D01*
X92876000Y-87624000D02*
X92876000Y-86076000D01*
X87400000Y-72814588D02*
X91800000Y-68414588D01*
X91700000Y-88000000D02*
X91700000Y-85700000D01*
X87400000Y-81400000D02*
X87400000Y-72814588D01*
X91700000Y-85700000D02*
X87400000Y-81400000D01*
G04 #@! TA.AperFunction,Conductor*
G36*
X72343039Y-143019685D02*
G01*
X72388794Y-143072489D01*
X72400000Y-143124000D01*
X72400000Y-145876000D01*
X72380315Y-145943039D01*
X72327511Y-145988794D01*
X72276000Y-146000000D01*
X69724000Y-146000000D01*
X69656961Y-145980315D01*
X69611206Y-145927511D01*
X69600000Y-145876000D01*
X69600000Y-143124000D01*
X69619685Y-143056961D01*
X69672489Y-143011206D01*
X69724000Y-143000000D01*
X72276000Y-143000000D01*
X72343039Y-143019685D01*
G37*
G04 #@! TD.AperFunction*
G04 #@! TA.AperFunction,Conductor*
G36*
X74043039Y-133619685D02*
G01*
X74088794Y-133672489D01*
X74100000Y-133724000D01*
X74100000Y-135276000D01*
X74080315Y-135343039D01*
X74027511Y-135388794D01*
X73976000Y-135400000D01*
X68900000Y-135400000D01*
X68900000Y-140576000D01*
X68880315Y-140643039D01*
X68827511Y-140688794D01*
X68776000Y-140700000D01*
X67024000Y-140700000D01*
X66956961Y-140680315D01*
X66911206Y-140627511D01*
X66900000Y-140576000D01*
X66900000Y-133724000D01*
X66919685Y-133656961D01*
X66972489Y-133611206D01*
X67024000Y-133600000D01*
X73976000Y-133600000D01*
X74043039Y-133619685D01*
G37*
G04 #@! TD.AperFunction*
M02*
