M48
; DRILL file {KiCad 9.0.5} date 2025-12-03T21:16:00-0800
; FORMAT={-:-/ absolute / metric / decimal}
; #@! TF.CreationDate,2025-12-03T21:16:00-08:00
; #@! TF.GenerationSoftware,Kicad,Pcbnew,9.0.5
; #@! TF.FileFunction,Plated,1,4,PTH
FMAT,2
METRIC
; #@! TA.AperFunction,Plated,PTH,ComponentDrill
T1C0.250
; #@! TA.AperFunction,Plated,PTH,ViaDrill
T2C0.350
; #@! TA.AperFunction,Plated,PTH,ComponentDrill
T3C0.600
; #@! TA.AperFunction,Plated,PTH,ComponentDrill
T4C1.000
; #@! TA.AperFunction,Plated,PTH,ComponentDrill
T5C1.190
%
G90
G05
T1
X103.2Y-61.4
X103.2Y-62.8
X103.9Y-60.7
X103.9Y-62.1
X103.9Y-63.5
X104.6Y-61.4
X104.6Y-62.8
X105.3Y-60.7
X105.3Y-62.1
X105.3Y-63.5
X106.0Y-61.4
X106.0Y-62.8
T2
X51.3Y-122.7
X54.9Y-126.6
X54.9Y-131.4
X54.9Y-132.2
X54.9Y-133.0
X57.4Y-82.3
X57.4Y-88.7
X58.108Y-122.392
X60.6Y-90.935
X60.6Y-91.935
X61.35Y-129.25
X63.0Y-66.4
X63.0Y-73.6
X63.0Y-80.8
X63.0Y-91.2
X64.5Y-115.192
X65.6Y-131.0
X66.0Y-122.4
X66.6Y-131.0
X67.4Y-139.2
X67.4Y-140.2
X67.6Y-131.0
X67.9Y-139.7
X68.4Y-139.2
X68.4Y-140.2
X68.5Y-107.692
X68.6Y-131.0
X69.2Y-68.6
X69.2Y-84.6
X69.8Y-136.2
X70.0Y-115.192
X70.0Y-143.5
X70.0Y-144.5
X70.0Y-145.5
X70.2Y-67.4
X70.2Y-84.0
X70.6Y-136.2
X71.0Y-134.0
X71.0Y-134.8
X71.0Y-143.5
X71.0Y-144.5
X71.0Y-145.5
X71.4Y-136.2
X71.8Y-134.0
X71.8Y-134.8
X72.0Y-143.5
X72.0Y-144.5
X72.0Y-145.5
X72.2Y-136.2
X72.3Y-149.3
X72.6Y-134.0
X72.6Y-134.8
X73.0Y-80.0
X73.4Y-134.0
X73.4Y-134.8
X74.0Y-115.692
X74.1Y-124.2
X75.0Y-92.646
X75.0Y-94.646
X75.0Y-96.646
X75.3Y-89.346
X77.392Y-80.108
X79.2Y-124.4
X79.6Y-86.4
X80.4Y-86.4
X81.0Y-115.692
X81.5Y-61.0
X81.7Y-90.2
X81.8Y-81.4
X81.854Y-79.854
X82.6Y-81.4
X83.0Y-145.4
X83.5Y-87.3
X84.0Y-106.4
X84.0Y-108.799
X84.138Y-147.637
X85.0Y-83.8
X86.0Y-61.5
X86.249Y-79.749
X87.4Y-83.8
X87.5Y-54.5
X88.0Y-101.0
X88.5Y-54.5
X88.9Y-87.3
X90.9Y-88.0
X91.0Y-68.4
X91.05Y-137.05
X91.1Y-87.2
X91.5Y-57.5
X91.7Y-88.0
X91.8Y-68.4
X92.3Y-87.2
X92.4Y-128.2
X92.5Y-88.0
X92.6Y-81.2
X92.776Y-54.017
X92.8Y-60.8
X92.8Y-62.0
X93.0Y-127.6
X93.2Y-90.8
X93.358Y-96.142
X93.358Y-101.158
X93.4Y-61.4
X93.4Y-81.2
X93.4Y-90.0
X93.5Y-107.5
X94.0Y-57.501
X94.55Y-140.05
X94.55Y-144.8
X94.55Y-145.6
X94.55Y-146.4
X94.6Y-69.2
X94.713Y-63.905
X95.0Y-95.6
X95.0Y-133.5
X95.2Y-63.27
X95.2Y-64.54
X95.2Y-72.198
X95.6Y-71.398
X95.8Y-128.6
X96.0Y-53.5
X96.0Y-54.5
X96.6Y-74.2
X96.6Y-128.6
X96.9Y-110.3
X97.0Y-81.849
X97.4Y-73.8
X97.8Y-81.8
X98.5Y-133.5
X99.4Y-69.2
X99.4Y-70.0
X99.4Y-80.0
X99.47Y-104.23
X99.6Y-105.019
X100.0Y-83.5
X100.0Y-87.0
X100.0Y-90.5
X100.0Y-94.0
X100.0Y-129.0
X100.2Y-80.0
X100.4Y-105.2
X100.4Y-110.4
X100.4Y-125.0
X100.5Y-78.5
X101.2Y-125.0
X101.4Y-67.0
X101.8Y-105.6
X102.0Y-125.0
X102.6Y-76.6
X103.0Y-64.6
X103.0Y-65.4
X103.4Y-76.6
X104.0Y-101.5
X104.299Y-76.6
X105.5Y-76.6
X106.3Y-76.6
X106.5Y-96.5
X107.1Y-76.6
X108.0Y-75.2
X108.005Y-74.395
X110.6Y-132.425
X111.0Y-73.6
X111.5Y-82.0
X111.8Y-73.6
X111.8Y-108.9
X113.0Y-90.0
X113.4Y-105.4
X113.5Y-92.0
X113.5Y-93.0
X113.5Y-94.0
X113.5Y-95.0
X114.2Y-92.4
X114.2Y-93.6
X114.2Y-94.6
X115.0Y-97.6
X115.0Y-98.4
X115.5Y-79.5
X116.5Y-54.0
X116.5Y-55.0
X117.199Y-66.752
X117.2Y-68.352
X117.2Y-70.0
X117.201Y-69.188
X117.203Y-67.552
X117.4Y-61.2
X117.5Y-96.5
X118.2Y-61.2
X119.0Y-61.2
X119.0Y-90.5
X119.5Y-94.5
X119.8Y-61.2
X120.5Y-98.5
X120.5Y-134.5
X120.5Y-149.0
X120.6Y-61.2
X121.0Y-111.0
X121.0Y-119.0
X121.5Y-106.5
X122.5Y-124.5
X122.5Y-139.0
X123.1Y-69.7
X123.6Y-93.0
X124.0Y-76.0
X124.4Y-93.0
X124.5Y-89.5
X125.2Y-66.6
X125.2Y-80.2
X125.2Y-93.0
X125.6Y-134.6
X125.6Y-147.4
X125.6Y-148.2
X125.6Y-149.0
X126.0Y-119.0
X126.5Y-106.5
X126.6Y-68.0
X127.1Y-63.5
X131.75Y-68.85
X133.2Y-64.425
X133.45Y-89.95
X133.506Y-77.506
X135.5Y-132.0
X135.5Y-146.5
X136.0Y-104.5
X136.5Y-64.5
X138.0Y-81.5
X138.5Y-94.5
X144.0Y-115.5
T4
X73.42Y-66.5
X75.96Y-66.5
X78.5Y-66.5
X81.04Y-66.5
X83.58Y-66.5
X121.88Y-55.5
X124.42Y-55.5
X126.96Y-55.5
X129.5Y-55.5
X132.04Y-55.5
X134.58Y-55.5
X137.12Y-55.5
T5
X55.16Y-72.325
X55.16Y-74.865
X55.18Y-65.325
X55.18Y-67.865
X55.237Y-102.9
X55.237Y-105.44
X55.5Y-136.5
X55.5Y-139.04
X87.06Y-118.4
X89.32Y-77.6
X89.6Y-118.4
X91.86Y-77.6
X94.06Y-118.4
X94.4Y-77.6
X96.6Y-118.4
X101.26Y-118.4
X103.8Y-118.4
X108.46Y-118.4
X111.0Y-118.4
X142.488Y-87.46
X142.488Y-90.0
X142.5Y-64.5
X142.5Y-67.04
X142.5Y-75.0
X142.5Y-77.54
X142.5Y-105.0
X142.5Y-107.54
X142.5Y-134.0
X142.5Y-136.54
T3
G00X52.0Y-81.2
M15
G01X50.8Y-81.2
M16
G05
G00X52.0Y-89.84
M15
G01X50.8Y-89.84
M16
G05
G00X55.8Y-81.2
M15
G01X55.0Y-81.2
M16
G05
G00X55.8Y-89.84
M15
G01X55.0Y-89.84
M16
G05
M30
