G04 #@! TF.GenerationSoftware,KiCad,Pcbnew,9.0.5*
G04 #@! TF.CreationDate,2025-12-03T21:15:56-08:00*
G04 #@! TF.ProjectId,MusicalTeslaCoil,4d757369-6361-46c5-9465-736c61436f69,REV2*
G04 #@! TF.SameCoordinates,Original*
G04 #@! TF.FileFunction,Paste,Top*
G04 #@! TF.FilePolarity,Positive*
%FSLAX46Y46*%
G04 Gerber Fmt 4.6, Leading zero omitted, Abs format (unit mm)*
G04 Created by KiCad (PCBNEW 9.0.5) date 2025-12-03 21:15:56*
%MOMM*%
%LPD*%
G01*
G04 APERTURE LIST*
G04 Aperture macros list*
%AMRoundRect*
0 Rectangle with rounded corners*
0 $1 Rounding radius*
0 $2 $3 $4 $5 $6 $7 $8 $9 X,Y pos of 4 corners*
0 Add a 4 corners polygon primitive as box body*
4,1,4,$2,$3,$4,$5,$6,$7,$8,$9,$2,$3,0*
0 Add four circle primitives for the rounded corners*
1,1,$1+$1,$2,$3*
1,1,$1+$1,$4,$5*
1,1,$1+$1,$6,$7*
1,1,$1+$1,$8,$9*
0 Add four rect primitives between the rounded corners*
20,1,$1+$1,$2,$3,$4,$5,0*
20,1,$1+$1,$4,$5,$6,$7,0*
20,1,$1+$1,$6,$7,$8,$9,0*
20,1,$1+$1,$8,$9,$2,$3,0*%
G04 Aperture macros list end*
%ADD10R,1.193800X1.193800*%
%ADD11R,2.616200X1.955800*%
%ADD12R,0.900000X0.900000*%
%ADD13R,1.500000X0.900000*%
%ADD14R,0.900000X1.500000*%
%ADD15R,0.762000X0.863600*%
%ADD16R,0.889000X1.397000*%
%ADD17RoundRect,0.250000X-0.450000X0.350000X-0.450000X-0.350000X0.450000X-0.350000X0.450000X0.350000X0*%
%ADD18R,1.150000X0.600000*%
%ADD19R,1.150000X0.300000*%
%ADD20R,0.952500X0.558800*%
%ADD21RoundRect,0.250000X-0.350000X-0.450000X0.350000X-0.450000X0.350000X0.450000X-0.350000X0.450000X0*%
%ADD22RoundRect,0.250000X0.450000X-0.350000X0.450000X0.350000X-0.450000X0.350000X-0.450000X-0.350000X0*%
%ADD23RoundRect,0.250000X-0.475000X0.337500X-0.475000X-0.337500X0.475000X-0.337500X0.475000X0.337500X0*%
%ADD24RoundRect,0.150000X-0.587500X-0.150000X0.587500X-0.150000X0.587500X0.150000X-0.587500X0.150000X0*%
%ADD25RoundRect,0.250000X0.350000X0.450000X-0.350000X0.450000X-0.350000X-0.450000X0.350000X-0.450000X0*%
%ADD26R,1.244600X0.965200*%
%ADD27R,2.489200X0.762000*%
%ADD28R,5.918200X5.511800*%
%ADD29RoundRect,0.250000X0.337500X0.475000X-0.337500X0.475000X-0.337500X-0.475000X0.337500X-0.475000X0*%
%ADD30RoundRect,0.075000X-0.625000X-0.075000X0.625000X-0.075000X0.625000X0.075000X-0.625000X0.075000X0*%
%ADD31RoundRect,0.250000X0.475000X-0.337500X0.475000X0.337500X-0.475000X0.337500X-0.475000X-0.337500X0*%
%ADD32R,5.100000X1.900000*%
%ADD33R,2.184400X2.184400*%
%ADD34R,0.787400X0.304800*%
%ADD35RoundRect,0.250000X-0.337500X-0.475000X0.337500X-0.475000X0.337500X0.475000X-0.337500X0.475000X0*%
%ADD36R,1.400048X1.549908*%
%ADD37R,1.780000X3.500000*%
%ADD38R,0.457200X1.168400*%
%ADD39RoundRect,0.225000X-0.225000X-0.375000X0.225000X-0.375000X0.225000X0.375000X-0.225000X0.375000X0*%
%ADD40RoundRect,0.150000X-0.150000X0.512500X-0.150000X-0.512500X0.150000X-0.512500X0.150000X0.512500X0*%
%ADD41R,1.981200X0.558800*%
%ADD42R,2.209800X1.524000*%
%ADD43R,0.990600X0.762000*%
%ADD44RoundRect,0.150000X0.587500X0.150000X-0.587500X0.150000X-0.587500X-0.150000X0.587500X-0.150000X0*%
%ADD45R,0.787400X0.406400*%
%ADD46RoundRect,0.150000X0.512500X0.150000X-0.512500X0.150000X-0.512500X-0.150000X0.512500X-0.150000X0*%
%ADD47R,1.003300X0.558800*%
%ADD48R,1.549908X1.400048*%
%ADD49R,1.244600X0.508000*%
%ADD50R,1.244600X0.863600*%
%ADD51RoundRect,0.075000X-0.910000X-0.225000X0.910000X-0.225000X0.910000X0.225000X-0.910000X0.225000X0*%
G04 APERTURE END LIST*
D10*
X76000000Y-80108200D03*
X76000000Y-78000000D03*
D11*
X53513600Y-110900000D03*
X53513600Y-113900000D03*
X59000000Y-113900000D03*
X59000000Y-110900000D03*
D12*
X103200000Y-60700000D03*
X103200000Y-62100000D03*
X103200000Y-63500000D03*
X104600000Y-60700000D03*
X104600000Y-62100000D03*
X104600000Y-63500000D03*
X106000000Y-60700000D03*
X106000000Y-62100000D03*
X106000000Y-63500000D03*
D13*
X97350000Y-54380000D03*
X97350000Y-55650000D03*
X97350000Y-56920000D03*
X97350000Y-58190000D03*
X97350000Y-59460000D03*
X97350000Y-60730000D03*
X97350000Y-62000000D03*
X97350000Y-63270000D03*
X97350000Y-64540000D03*
X97350000Y-65810000D03*
X97350000Y-67080000D03*
X97350000Y-68350000D03*
X97350000Y-69620000D03*
X97350000Y-70890000D03*
D14*
X99115000Y-72140000D03*
X100385000Y-72140000D03*
X101655000Y-72140000D03*
X102925000Y-72140000D03*
X104195000Y-72140000D03*
X105465000Y-72140000D03*
X106735000Y-72140000D03*
X108005000Y-72140000D03*
X109275000Y-72140000D03*
X110545000Y-72140000D03*
X111815000Y-72140000D03*
X113085000Y-72140000D03*
D13*
X114850000Y-70890000D03*
X114850000Y-69620000D03*
X114850000Y-68350000D03*
X114850000Y-67080000D03*
X114850000Y-65810000D03*
X114850000Y-64540000D03*
X114850000Y-63270000D03*
X114850000Y-62000000D03*
X114850000Y-60730000D03*
X114850000Y-59460000D03*
X114850000Y-58190000D03*
X114850000Y-56920000D03*
X114850000Y-55650000D03*
X114850000Y-54380000D03*
D15*
X60600000Y-87834700D03*
D16*
X60600000Y-89600000D03*
D17*
X63000000Y-84200000D03*
X63000000Y-82200000D03*
D18*
X55975000Y-82320000D03*
X55975000Y-83120000D03*
D19*
X55975000Y-84270000D03*
X55975000Y-85270000D03*
X55975000Y-85770000D03*
X55975000Y-86770000D03*
D18*
X55975000Y-88720000D03*
X55975000Y-87920000D03*
D19*
X55975000Y-87270000D03*
X55975000Y-86270000D03*
X55975000Y-84770000D03*
X55975000Y-83770000D03*
D17*
X96900000Y-108800000D03*
X96900000Y-106800000D03*
D20*
X120447300Y-88549999D03*
X120447300Y-89500000D03*
X120447300Y-90450001D03*
X123000000Y-90450001D03*
X123000000Y-89500000D03*
X123000000Y-88549999D03*
D21*
X75600000Y-124200000D03*
X77600000Y-124200000D03*
D22*
X118500000Y-135500000D03*
X118500000Y-133500000D03*
D23*
X68400000Y-127525000D03*
X68400000Y-129600000D03*
X93358200Y-97574999D03*
X93358200Y-99649999D03*
D24*
X135062500Y-74050000D03*
X135062500Y-75950000D03*
X136937500Y-75000000D03*
D25*
X132500000Y-74000000D03*
X130500000Y-74000000D03*
X98500000Y-85000000D03*
X96500000Y-85000000D03*
X98500000Y-92000000D03*
X96500000Y-92000000D03*
X69500000Y-93000000D03*
X67500000Y-93000000D03*
D23*
X91524783Y-54042137D03*
X91524783Y-56117137D03*
D26*
X136460000Y-81460000D03*
X136460000Y-77853200D03*
D23*
X135500000Y-142925000D03*
X135500000Y-145000000D03*
D27*
X122414699Y-125960000D03*
X122414699Y-127230000D03*
X122414699Y-129770000D03*
X122414699Y-131040000D03*
D28*
X129000000Y-128500000D03*
D16*
X93500000Y-104234700D03*
D15*
X93500000Y-106000000D03*
D17*
X133200000Y-66000000D03*
X133200000Y-68000000D03*
D22*
X119000000Y-120000000D03*
X119000000Y-118000000D03*
D17*
X80400000Y-89200000D03*
X80400000Y-91200000D03*
D29*
X124075000Y-149000000D03*
X122000000Y-149000000D03*
X91500000Y-103500000D03*
X89425000Y-103500000D03*
D30*
X87500000Y-89300000D03*
X87500000Y-89800000D03*
X87500000Y-90300000D03*
X87500000Y-90800000D03*
X87500000Y-91300000D03*
X91900000Y-91300000D03*
X91900000Y-90800000D03*
X91900000Y-90300000D03*
X91900000Y-89800000D03*
X91900000Y-89300000D03*
D22*
X100500000Y-77000000D03*
X100500000Y-75000000D03*
D31*
X63000000Y-115266600D03*
X63000000Y-113191600D03*
D32*
X74200000Y-132200000D03*
X74200000Y-128000000D03*
D22*
X85000000Y-75500000D03*
X85000000Y-73500000D03*
D33*
X81000000Y-110191600D03*
X81000000Y-113900000D03*
D23*
X94550000Y-141562500D03*
X94550000Y-143637500D03*
D33*
X74000000Y-101691600D03*
X74000000Y-105400000D03*
D21*
X85550000Y-147637500D03*
X87550000Y-147637500D03*
D25*
X69375000Y-89325000D03*
X67375000Y-89325000D03*
X69500000Y-96500000D03*
X67500000Y-96500000D03*
D34*
X89366400Y-100000000D03*
X89366400Y-100649999D03*
X89366400Y-101299998D03*
X91500000Y-101299998D03*
X91500000Y-100000000D03*
D17*
X95000000Y-130000000D03*
X95000000Y-132000000D03*
D35*
X100925000Y-92000000D03*
X103000000Y-92000000D03*
D17*
X51300000Y-128100000D03*
X51300000Y-130100000D03*
D35*
X100925000Y-88500000D03*
X103000000Y-88500000D03*
D10*
X58108200Y-121000000D03*
X56000000Y-121000000D03*
D36*
X122500000Y-76050004D03*
X117999998Y-76050004D03*
X122500000Y-84000000D03*
X117999998Y-84000000D03*
D31*
X119000000Y-104500000D03*
X119000000Y-102425000D03*
D17*
X130500000Y-76500000D03*
X130500000Y-78500000D03*
D22*
X119000000Y-109000000D03*
X119000000Y-107000000D03*
D35*
X124532000Y-69700002D03*
X126607000Y-69700002D03*
D31*
X79000000Y-144075000D03*
X79000000Y-142000000D03*
D17*
X51300000Y-124100000D03*
X51300000Y-126100000D03*
D29*
X92125000Y-135637500D03*
X90050000Y-135637500D03*
D26*
X136968000Y-94556801D03*
X136968000Y-90950001D03*
D37*
X68230000Y-144200000D03*
X63000000Y-144200000D03*
D22*
X83000000Y-140000000D03*
X83000000Y-138000000D03*
D25*
X98500000Y-95500000D03*
X96500000Y-95500000D03*
D17*
X98500000Y-130000000D03*
X98500000Y-132000000D03*
D23*
X135500000Y-128425000D03*
X135500000Y-130500000D03*
D22*
X79000000Y-140000000D03*
X79000000Y-138000000D03*
D38*
X115400000Y-109130300D03*
X115400000Y-106869700D03*
D35*
X119872300Y-92950001D03*
X121947300Y-92950001D03*
D39*
X63000000Y-149300000D03*
X66300000Y-149300000D03*
D35*
X100925000Y-95500000D03*
X103000000Y-95500000D03*
D40*
X92000000Y-138500000D03*
X91050000Y-138500000D03*
X90100000Y-138500000D03*
X90100000Y-140775000D03*
X92000000Y-140775000D03*
D38*
X115400000Y-120130300D03*
X115400000Y-117869700D03*
D41*
X106500000Y-87420000D03*
X106500000Y-88690000D03*
X106500000Y-89960000D03*
X106500000Y-91230000D03*
X106500000Y-92500000D03*
X106500000Y-93770000D03*
X106500000Y-95040000D03*
X111224400Y-95040000D03*
X111224400Y-93770000D03*
X111224400Y-92500000D03*
X111224400Y-91230000D03*
X111224400Y-89960000D03*
X111224400Y-88690000D03*
X111224400Y-87420000D03*
D33*
X81000000Y-101691600D03*
X81000000Y-105400000D03*
D31*
X119000000Y-116000000D03*
X119000000Y-113925000D03*
D17*
X77900000Y-93200000D03*
X77900000Y-95200000D03*
D31*
X62800000Y-130475000D03*
X62800000Y-128400000D03*
D42*
X68500000Y-101830000D03*
X68500000Y-105900000D03*
D23*
X84900000Y-85225000D03*
X84900000Y-87300000D03*
D21*
X128500000Y-63500000D03*
X130500000Y-63500000D03*
X90050000Y-147637500D03*
X92050000Y-147637500D03*
D25*
X53500000Y-121000000D03*
X51500000Y-121000000D03*
D22*
X117500000Y-90500000D03*
X117500000Y-88500000D03*
D21*
X61000000Y-72000000D03*
X63000000Y-72000000D03*
D43*
X71500000Y-79854200D03*
X71500000Y-78000000D03*
D21*
X143000000Y-98500000D03*
X145000000Y-98500000D03*
D25*
X89000000Y-110400000D03*
X87000000Y-110400000D03*
D31*
X114500000Y-90575000D03*
X114500000Y-88500000D03*
D21*
X53600000Y-91800000D03*
X55600000Y-91800000D03*
D22*
X63000000Y-89800000D03*
X63000000Y-87800000D03*
D16*
X87000000Y-104000000D03*
D15*
X87000000Y-102234700D03*
D34*
X82833200Y-89550001D03*
X82833200Y-90200000D03*
X82833200Y-90849999D03*
X84966800Y-90849999D03*
X84966800Y-89550001D03*
D31*
X117500000Y-95075000D03*
X117500000Y-93000000D03*
D25*
X98500000Y-88500000D03*
X96500000Y-88500000D03*
D44*
X60475000Y-150950000D03*
X60475000Y-149050000D03*
X58600000Y-150000000D03*
D22*
X118500000Y-149500000D03*
X118500000Y-147500000D03*
D35*
X142925000Y-102000000D03*
X145000000Y-102000000D03*
D45*
X130532000Y-69500000D03*
X130532000Y-68850001D03*
X130532000Y-68200002D03*
X128500000Y-68200002D03*
X128500000Y-69500000D03*
D25*
X73500000Y-96500000D03*
X71500000Y-96500000D03*
D46*
X59975000Y-130200000D03*
X59975000Y-129250000D03*
X59975000Y-128300000D03*
X57700000Y-128300000D03*
X57700000Y-130200000D03*
D22*
X115500000Y-78050004D03*
X115500000Y-76050004D03*
D25*
X73500000Y-93000000D03*
X71500000Y-93000000D03*
D23*
X87400000Y-85225000D03*
X87400000Y-87300000D03*
D27*
X122914699Y-98460000D03*
X122914699Y-99730000D03*
X122914699Y-102270000D03*
X122914699Y-103540000D03*
D28*
X129500000Y-101000000D03*
D23*
X66000000Y-127525000D03*
X66000000Y-129600000D03*
X143943100Y-112000000D03*
X143943100Y-114075000D03*
D25*
X70650000Y-149300000D03*
X68650000Y-149300000D03*
D47*
X72694900Y-137749999D03*
X72694900Y-138700000D03*
X72694900Y-139650001D03*
X75400000Y-139650001D03*
X75400000Y-138700000D03*
X75400000Y-137749999D03*
D31*
X94000000Y-56075000D03*
X94000000Y-54000000D03*
X118500000Y-131075000D03*
X118500000Y-129000000D03*
D23*
X135943100Y-100925000D03*
X135943100Y-103000000D03*
D24*
X79525000Y-126050000D03*
X79525000Y-127950000D03*
X81400000Y-127000000D03*
D22*
X71500000Y-75500000D03*
X71500000Y-73500000D03*
D17*
X100400000Y-106800000D03*
X100400000Y-108800000D03*
D22*
X80500000Y-75500000D03*
X80500000Y-73500000D03*
D38*
X114500000Y-133933700D03*
X114500000Y-131673100D03*
D29*
X124075000Y-134500000D03*
X122000000Y-134500000D03*
D48*
X79974998Y-61000002D03*
X79974998Y-56500000D03*
X72025002Y-61000002D03*
X72025002Y-56500000D03*
D29*
X73775000Y-89345800D03*
X71700000Y-89345800D03*
D23*
X111500000Y-83425000D03*
X111500000Y-85500000D03*
D22*
X76000000Y-75500000D03*
X76000000Y-73500000D03*
D35*
X90050000Y-143637500D03*
X92125000Y-143637500D03*
D49*
X85000000Y-79749300D03*
X85000000Y-78250700D03*
D29*
X140575000Y-102000000D03*
X138500000Y-102000000D03*
D27*
X122857799Y-110960000D03*
X122857799Y-112230000D03*
X122857799Y-114770000D03*
X122857799Y-116040000D03*
D28*
X129443100Y-113500000D03*
D31*
X70400000Y-139700000D03*
X70400000Y-137625000D03*
D50*
X80500000Y-79854200D03*
X80500000Y-78000000D03*
D21*
X128376050Y-66000000D03*
X130376050Y-66000000D03*
D17*
X88500000Y-56000000D03*
X88500000Y-58000000D03*
D31*
X110600000Y-131000000D03*
X110600000Y-128925000D03*
D25*
X132500000Y-86500000D03*
X130500000Y-86500000D03*
D38*
X114500000Y-149130300D03*
X114500000Y-146869700D03*
D31*
X118500000Y-145075000D03*
X118500000Y-143000000D03*
X111800000Y-107475000D03*
X111800000Y-105400000D03*
D21*
X61000000Y-65000000D03*
X63000000Y-65000000D03*
D23*
X77900000Y-89200000D03*
X77900000Y-91275000D03*
X136500000Y-66000000D03*
X136500000Y-68075000D03*
D33*
X74000000Y-110191600D03*
X74000000Y-113900000D03*
D29*
X86000000Y-54500000D03*
X83925000Y-54500000D03*
D35*
X100925000Y-85000000D03*
X103000000Y-85000000D03*
D29*
X125018100Y-106500000D03*
X122943100Y-106500000D03*
D17*
X130500000Y-89000000D03*
X130500000Y-91000000D03*
D22*
X83000000Y-144000000D03*
X83000000Y-142000000D03*
D23*
X54900000Y-128025000D03*
X54900000Y-130100000D03*
D51*
X102060000Y-126230000D03*
X102060000Y-127500000D03*
X102060000Y-128770000D03*
X102060000Y-130040000D03*
X107000000Y-130040000D03*
X107000000Y-128770000D03*
X107000000Y-127500000D03*
X107000000Y-126230000D03*
D27*
X122414699Y-140460000D03*
X122414699Y-141730000D03*
X122414699Y-144270000D03*
X122414699Y-145540000D03*
D28*
X129000000Y-143000000D03*
D29*
X124575000Y-118990000D03*
X122500000Y-118990000D03*
D31*
X66500000Y-113475000D03*
X66500000Y-111400000D03*
D29*
X140075000Y-128500000D03*
X138000000Y-128500000D03*
D31*
X86000000Y-60075000D03*
X86000000Y-58000000D03*
D35*
X142425000Y-128500000D03*
X144500000Y-128500000D03*
D24*
X135000000Y-86500000D03*
X135000000Y-88400000D03*
X136875000Y-87450000D03*
D31*
X70000000Y-113475000D03*
X70000000Y-111400000D03*
D51*
X103973100Y-102960000D03*
X103973100Y-104230000D03*
X103973100Y-105500000D03*
X103973100Y-106770000D03*
X108913100Y-106770000D03*
X108913100Y-105500000D03*
X108913100Y-104230000D03*
X108913100Y-102960000D03*
D25*
X89000000Y-107045800D03*
X87000000Y-107045800D03*
D21*
X142500000Y-125000000D03*
X144500000Y-125000000D03*
M02*
