G04 #@! TF.GenerationSoftware,KiCad,Pcbnew,9.0.2*
G04 #@! TF.CreationDate,2025-08-11T21:07:56-07:00*
G04 #@! TF.ProjectId,MusicalTeslaCoil,4d757369-6361-46c5-9465-736c61436f69,REV1*
G04 #@! TF.SameCoordinates,Original*
G04 #@! TF.FileFunction,Copper,L1,Top*
G04 #@! TF.FilePolarity,Positive*
%FSLAX46Y46*%
G04 Gerber Fmt 4.6, Leading zero omitted, Abs format (unit mm)*
G04 Created by KiCad (PCBNEW 9.0.2) date 2025-08-11 21:07:56*
%MOMM*%
%LPD*%
G01*
G04 APERTURE LIST*
G04 Aperture macros list*
%AMRoundRect*
0 Rectangle with rounded corners*
0 $1 Rounding radius*
0 $2 $3 $4 $5 $6 $7 $8 $9 X,Y pos of 4 corners*
0 Add a 4 corners polygon primitive as box body*
4,1,4,$2,$3,$4,$5,$6,$7,$8,$9,$2,$3,0*
0 Add four circle primitives for the rounded corners*
1,1,$1+$1,$2,$3*
1,1,$1+$1,$4,$5*
1,1,$1+$1,$6,$7*
1,1,$1+$1,$8,$9*
0 Add four rect primitives between the rounded corners*
20,1,$1+$1,$2,$3,$4,$5,0*
20,1,$1+$1,$4,$5,$6,$7,0*
20,1,$1+$1,$6,$7,$8,$9,0*
20,1,$1+$1,$8,$9,$2,$3,0*%
G04 Aperture macros list end*
G04 #@! TA.AperFunction,SMDPad,CuDef*
%ADD10R,1.244600X0.965200*%
G04 #@! TD*
G04 #@! TA.AperFunction,SMDPad,CuDef*
%ADD11R,0.901700X0.558800*%
G04 #@! TD*
G04 #@! TA.AperFunction,SMDPad,CuDef*
%ADD12R,2.200000X2.000000*%
G04 #@! TD*
G04 #@! TA.AperFunction,SMDPad,CuDef*
%ADD13R,1.066800X1.854200*%
G04 #@! TD*
G04 #@! TA.AperFunction,SMDPad,CuDef*
%ADD14R,0.889000X1.397000*%
G04 #@! TD*
G04 #@! TA.AperFunction,SMDPad,CuDef*
%ADD15R,0.762000X0.863600*%
G04 #@! TD*
G04 #@! TA.AperFunction,SMDPad,CuDef*
%ADD16R,2.184400X2.184400*%
G04 #@! TD*
G04 #@! TA.AperFunction,SMDPad,CuDef*
%ADD17RoundRect,0.250000X-0.475000X0.337500X-0.475000X-0.337500X0.475000X-0.337500X0.475000X0.337500X0*%
G04 #@! TD*
G04 #@! TA.AperFunction,SMDPad,CuDef*
%ADD18RoundRect,0.250000X0.475000X-0.337500X0.475000X0.337500X-0.475000X0.337500X-0.475000X-0.337500X0*%
G04 #@! TD*
G04 #@! TA.AperFunction,SMDPad,CuDef*
%ADD19RoundRect,0.250000X-0.337500X-0.475000X0.337500X-0.475000X0.337500X0.475000X-0.337500X0.475000X0*%
G04 #@! TD*
G04 #@! TA.AperFunction,ComponentPad*
%ADD20C,1.700000*%
G04 #@! TD*
G04 #@! TA.AperFunction,ComponentPad*
%ADD21R,1.700000X1.700000*%
G04 #@! TD*
G04 #@! TA.AperFunction,SMDPad,CuDef*
%ADD22RoundRect,0.250000X-0.450000X0.350000X-0.450000X-0.350000X0.450000X-0.350000X0.450000X0.350000X0*%
G04 #@! TD*
G04 #@! TA.AperFunction,ComponentPad*
%ADD23O,2.190000X1.740000*%
G04 #@! TD*
G04 #@! TA.AperFunction,ComponentPad*
%ADD24RoundRect,0.250000X0.845000X-0.620000X0.845000X0.620000X-0.845000X0.620000X-0.845000X-0.620000X0*%
G04 #@! TD*
G04 #@! TA.AperFunction,SMDPad,CuDef*
%ADD25RoundRect,0.250000X0.337500X0.475000X-0.337500X0.475000X-0.337500X-0.475000X0.337500X-0.475000X0*%
G04 #@! TD*
G04 #@! TA.AperFunction,SMDPad,CuDef*
%ADD26RoundRect,0.250000X-0.350000X-0.450000X0.350000X-0.450000X0.350000X0.450000X-0.350000X0.450000X0*%
G04 #@! TD*
G04 #@! TA.AperFunction,SMDPad,CuDef*
%ADD27R,0.850900X0.304800*%
G04 #@! TD*
G04 #@! TA.AperFunction,SMDPad,CuDef*
%ADD28RoundRect,0.250000X0.450000X-0.350000X0.450000X0.350000X-0.450000X0.350000X-0.450000X-0.350000X0*%
G04 #@! TD*
G04 #@! TA.AperFunction,SMDPad,CuDef*
%ADD29R,1.168400X0.533400*%
G04 #@! TD*
G04 #@! TA.AperFunction,ComponentPad*
%ADD30RoundRect,0.250000X-0.845000X0.620000X-0.845000X-0.620000X0.845000X-0.620000X0.845000X0.620000X0*%
G04 #@! TD*
G04 #@! TA.AperFunction,SMDPad,CuDef*
%ADD31R,1.400048X1.549908*%
G04 #@! TD*
G04 #@! TA.AperFunction,HeatsinkPad*
%ADD32C,0.600000*%
G04 #@! TD*
G04 #@! TA.AperFunction,HeatsinkPad*
%ADD33R,3.900000X3.900000*%
G04 #@! TD*
G04 #@! TA.AperFunction,SMDPad,CuDef*
%ADD34R,1.500000X0.900000*%
G04 #@! TD*
G04 #@! TA.AperFunction,SMDPad,CuDef*
%ADD35R,0.900000X1.500000*%
G04 #@! TD*
G04 #@! TA.AperFunction,SMDPad,CuDef*
%ADD36R,1.549908X1.400048*%
G04 #@! TD*
G04 #@! TA.AperFunction,ComponentPad*
%ADD37O,1.600000X1.000000*%
G04 #@! TD*
G04 #@! TA.AperFunction,ComponentPad*
%ADD38O,1.900000X1.000000*%
G04 #@! TD*
G04 #@! TA.AperFunction,SMDPad,CuDef*
%ADD39R,1.150000X0.300000*%
G04 #@! TD*
G04 #@! TA.AperFunction,SMDPad,CuDef*
%ADD40R,1.150000X0.600000*%
G04 #@! TD*
G04 #@! TA.AperFunction,SMDPad,CuDef*
%ADD41RoundRect,0.045000X-0.630000X-0.255000X0.630000X-0.255000X0.630000X0.255000X-0.630000X0.255000X0*%
G04 #@! TD*
G04 #@! TA.AperFunction,SMDPad,CuDef*
%ADD42RoundRect,0.075000X-0.910000X-0.225000X0.910000X-0.225000X0.910000X0.225000X-0.910000X0.225000X0*%
G04 #@! TD*
G04 #@! TA.AperFunction,SMDPad,CuDef*
%ADD43RoundRect,0.250000X0.350000X0.450000X-0.350000X0.450000X-0.350000X-0.450000X0.350000X-0.450000X0*%
G04 #@! TD*
G04 #@! TA.AperFunction,SMDPad,CuDef*
%ADD44R,2.616200X1.955800*%
G04 #@! TD*
G04 #@! TA.AperFunction,SMDPad,CuDef*
%ADD45R,2.209800X1.524000*%
G04 #@! TD*
G04 #@! TA.AperFunction,SMDPad,CuDef*
%ADD46R,2.489200X0.762000*%
G04 #@! TD*
G04 #@! TA.AperFunction,SMDPad,CuDef*
%ADD47R,5.918200X5.511800*%
G04 #@! TD*
G04 #@! TA.AperFunction,ViaPad*
%ADD48C,0.600000*%
G04 #@! TD*
G04 #@! TA.AperFunction,Conductor*
%ADD49C,0.200000*%
G04 #@! TD*
G04 #@! TA.AperFunction,Conductor*
%ADD50C,0.600000*%
G04 #@! TD*
G04 #@! TA.AperFunction,Conductor*
%ADD51C,0.800000*%
G04 #@! TD*
G04 #@! TA.AperFunction,Conductor*
%ADD52C,0.400000*%
G04 #@! TD*
G04 #@! TA.AperFunction,Conductor*
%ADD53C,0.300000*%
G04 #@! TD*
G04 #@! TA.AperFunction,Conductor*
%ADD54C,0.150000*%
G04 #@! TD*
G04 APERTURE END LIST*
D10*
X114500000Y-146196600D03*
X114500000Y-149803400D03*
D11*
X71629200Y-133549999D03*
X71629200Y-134500000D03*
X71629200Y-135450001D03*
X74537500Y-135450001D03*
X74537500Y-134500000D03*
X74537500Y-133549999D03*
D12*
X71537500Y-146950000D03*
X71537500Y-141050000D03*
D13*
X65295700Y-137500000D03*
X69537500Y-137500000D03*
D14*
X62500000Y-91515300D03*
D15*
X62500000Y-89750000D03*
D10*
X114500000Y-134606800D03*
X114500000Y-131000000D03*
X115000000Y-114000000D03*
X115000000Y-117606800D03*
X115000000Y-105500000D03*
X115000000Y-109106800D03*
D16*
X81000000Y-105000000D03*
X81000000Y-108708400D03*
X81000000Y-113500000D03*
X81000000Y-117208400D03*
X74000000Y-105000000D03*
X74000000Y-108708400D03*
X74000000Y-113500000D03*
X74000000Y-117208400D03*
D10*
X136968000Y-94556801D03*
X136968000Y-90950001D03*
X136460000Y-81460000D03*
X136460000Y-77853200D03*
D17*
X91524783Y-54042137D03*
X91524783Y-56117137D03*
D18*
X94000000Y-56075000D03*
X94000000Y-54000000D03*
D19*
X74037500Y-138000000D03*
X71962500Y-138000000D03*
D20*
X115000000Y-92460000D03*
X115000000Y-95000000D03*
X112460000Y-92460000D03*
X112460000Y-95000000D03*
X109920000Y-92460000D03*
D21*
X109920000Y-95000000D03*
D17*
X135943100Y-103000000D03*
X135943100Y-100925000D03*
D22*
X133000000Y-68075000D03*
X133000000Y-66075000D03*
D23*
X142500000Y-64500000D03*
D24*
X142500000Y-67040000D03*
D25*
X128376050Y-69500000D03*
X130451050Y-69500000D03*
D26*
X125876050Y-66000000D03*
X123876050Y-66000000D03*
D27*
X128252100Y-67149999D03*
X128252100Y-65850001D03*
X130500000Y-65850001D03*
X130500000Y-66500000D03*
X130500000Y-67149999D03*
D17*
X121376050Y-66000000D03*
X121376050Y-63925000D03*
D26*
X130376050Y-63500000D03*
X128376050Y-63500000D03*
D17*
X136500000Y-68075000D03*
X136500000Y-66000000D03*
D28*
X115500000Y-78050004D03*
X115500000Y-76050004D03*
X128500000Y-74000000D03*
X128500000Y-76000000D03*
D23*
X142500000Y-75000000D03*
D24*
X142500000Y-77540000D03*
D22*
X130960000Y-76000000D03*
X130960000Y-74000000D03*
D29*
X136492000Y-75049999D03*
X134460000Y-76000000D03*
X134460000Y-74099998D03*
D23*
X55540000Y-59265000D03*
D30*
X55540000Y-56725000D03*
D28*
X100500000Y-75000000D03*
X100500000Y-77000000D03*
D31*
X117999998Y-84000000D03*
X122500000Y-84000000D03*
X117999998Y-76050004D03*
X122500000Y-76050004D03*
D32*
X106000000Y-62800000D03*
X106000000Y-61400000D03*
X105300000Y-63500000D03*
X105300000Y-62100000D03*
X105300000Y-60700000D03*
X104600000Y-62800000D03*
D33*
X104600000Y-62100000D03*
D32*
X104600000Y-61400000D03*
X103900000Y-63500000D03*
X103900000Y-62100000D03*
X103900000Y-60700000D03*
X103200000Y-62800000D03*
X103200000Y-61400000D03*
D34*
X114850000Y-54380000D03*
X114850000Y-55650000D03*
X114850000Y-56920000D03*
X114850000Y-58190000D03*
X114850000Y-59460000D03*
X114850000Y-60730000D03*
X114850000Y-62000000D03*
X114850000Y-63270000D03*
X114850000Y-64540000D03*
X114850000Y-65810000D03*
X114850000Y-67080000D03*
X114850000Y-68350000D03*
X114850000Y-69620000D03*
X114850000Y-70890000D03*
D35*
X113085000Y-72140000D03*
X111815000Y-72140000D03*
X110545000Y-72140000D03*
X109275000Y-72140000D03*
X108005000Y-72140000D03*
X106735000Y-72140000D03*
X105465000Y-72140000D03*
X104195000Y-72140000D03*
X102925000Y-72140000D03*
X101655000Y-72140000D03*
X100385000Y-72140000D03*
X99115000Y-72140000D03*
D34*
X97350000Y-70890000D03*
X97350000Y-69620000D03*
X97350000Y-68350000D03*
X97350000Y-67080000D03*
X97350000Y-65810000D03*
X97350000Y-64540000D03*
X97350000Y-63270000D03*
X97350000Y-62000000D03*
X97350000Y-60730000D03*
X97350000Y-59460000D03*
X97350000Y-58190000D03*
X97350000Y-56920000D03*
X97350000Y-55650000D03*
X97350000Y-54380000D03*
D36*
X72025002Y-56500000D03*
X72025002Y-61000002D03*
X79974998Y-56500000D03*
X79974998Y-61000002D03*
D22*
X88500000Y-58000000D03*
X88500000Y-56000000D03*
D25*
X83925000Y-54500000D03*
X86000000Y-54500000D03*
D18*
X86000000Y-58000000D03*
X86000000Y-60075000D03*
D37*
X54825000Y-92850000D03*
X54825000Y-81650000D03*
D38*
X50825000Y-92850000D03*
X50825000Y-81650000D03*
D39*
X56000000Y-85500000D03*
X56000000Y-86500000D03*
X56000000Y-88000000D03*
X56000000Y-89000000D03*
D40*
X56000000Y-90450000D03*
X56000000Y-89650000D03*
D39*
X56000000Y-88500000D03*
X56000000Y-87500000D03*
X56000000Y-87000000D03*
X56000000Y-86000000D03*
D40*
X56000000Y-84850000D03*
X56000000Y-84050000D03*
D17*
X90700000Y-126175000D03*
X90700000Y-128250000D03*
D28*
X77037500Y-130000000D03*
X77037500Y-128000000D03*
D17*
X81000000Y-129950000D03*
X81000000Y-127875000D03*
D18*
X74537500Y-130000000D03*
X74537500Y-127925000D03*
D26*
X76537500Y-138000000D03*
X78537500Y-138000000D03*
D41*
X85630000Y-126050000D03*
X85630000Y-127000000D03*
X85630000Y-127950000D03*
X88000000Y-127950000D03*
X88000000Y-126050000D03*
D25*
X66612500Y-147000000D03*
X64537500Y-147000000D03*
D28*
X77037500Y-134500000D03*
X77037500Y-132500000D03*
D18*
X69537500Y-134500000D03*
X69537500Y-132425000D03*
D30*
X55480000Y-134725000D03*
D23*
X55480000Y-137265000D03*
D42*
X103973100Y-102960000D03*
X103973100Y-104230000D03*
X103973100Y-105500000D03*
X103973100Y-106770000D03*
X108913100Y-106770000D03*
X108913100Y-105500000D03*
X108913100Y-104230000D03*
X108913100Y-102960000D03*
D18*
X92500000Y-111354200D03*
X92500000Y-113429200D03*
X66500000Y-114708400D03*
X66500000Y-116783400D03*
X70000000Y-114708400D03*
X70000000Y-116783400D03*
D43*
X92000000Y-105354200D03*
X90000000Y-105354200D03*
X88000000Y-105354200D03*
X86000000Y-105354200D03*
X92000000Y-101854200D03*
X90000000Y-101854200D03*
D21*
X96840000Y-83000000D03*
D20*
X99380000Y-83000000D03*
X101920000Y-83000000D03*
X104460000Y-83000000D03*
X107000000Y-83000000D03*
X109540000Y-83000000D03*
D21*
X76000000Y-68920000D03*
D20*
X76000000Y-71460000D03*
X76000000Y-74000000D03*
X76000000Y-76540000D03*
X76000000Y-79080000D03*
D21*
X120380000Y-55500000D03*
D20*
X122920000Y-55500000D03*
X125460000Y-55500000D03*
X128000000Y-55500000D03*
X130540000Y-55500000D03*
X133080000Y-55500000D03*
X135620000Y-55500000D03*
X138160000Y-55500000D03*
X140700000Y-55500000D03*
X143240000Y-55500000D03*
D28*
X118500000Y-135500000D03*
X118500000Y-133500000D03*
D43*
X88000000Y-101854200D03*
X86000000Y-101854200D03*
D17*
X135500000Y-142925000D03*
X135500000Y-145000000D03*
D28*
X119000000Y-120000000D03*
X119000000Y-118000000D03*
D25*
X124075000Y-149000000D03*
X122000000Y-149000000D03*
D18*
X63000000Y-118575000D03*
X63000000Y-116500000D03*
D43*
X88000000Y-96779200D03*
X86000000Y-96779200D03*
D22*
X95000000Y-130000000D03*
X95000000Y-132000000D03*
D44*
X53513600Y-114208400D03*
X53513600Y-117208400D03*
X59000000Y-117208400D03*
X59000000Y-114208400D03*
D17*
X65480000Y-61725000D03*
X65480000Y-63800000D03*
D18*
X119000000Y-104500000D03*
X119000000Y-102425000D03*
D28*
X119000000Y-109000000D03*
X119000000Y-107000000D03*
X66000000Y-92000000D03*
X66000000Y-90000000D03*
D22*
X98500000Y-130000000D03*
X98500000Y-132000000D03*
D17*
X135500000Y-128425000D03*
X135500000Y-130500000D03*
D24*
X142488000Y-90000001D03*
D23*
X142488000Y-87460001D03*
D18*
X119000000Y-116000000D03*
X119000000Y-113925000D03*
D45*
X68500000Y-105138400D03*
X68500000Y-109208400D03*
D24*
X142500000Y-136540000D03*
D23*
X142500000Y-134000000D03*
D28*
X62980000Y-63725000D03*
X62980000Y-61725000D03*
D26*
X143000000Y-98500000D03*
X145000000Y-98500000D03*
D43*
X89000000Y-113854200D03*
X87000000Y-113854200D03*
D24*
X142500000Y-107540000D03*
D23*
X142500000Y-105000000D03*
D28*
X118500000Y-149500000D03*
X118500000Y-147500000D03*
D19*
X142925000Y-102000000D03*
X145000000Y-102000000D03*
D26*
X59000000Y-84000000D03*
X61000000Y-84000000D03*
D46*
X122914699Y-98460000D03*
X122914699Y-99730000D03*
X122914699Y-102270000D03*
X122914699Y-103540000D03*
D47*
X129500000Y-101000000D03*
D17*
X143943100Y-112000000D03*
X143943100Y-114075000D03*
D30*
X55236800Y-106208400D03*
D23*
X55236800Y-108748400D03*
D18*
X118500000Y-131075000D03*
X118500000Y-129000000D03*
D17*
X65500000Y-54845000D03*
X65500000Y-56920000D03*
D22*
X100443100Y-104000000D03*
X100443100Y-106000000D03*
D25*
X124075000Y-134500000D03*
X122000000Y-134500000D03*
D18*
X92000000Y-98854200D03*
X92000000Y-96779200D03*
D25*
X140575000Y-102000000D03*
X138500000Y-102000000D03*
D46*
X122857799Y-110960000D03*
X122857799Y-112230000D03*
X122857799Y-114770000D03*
X122857799Y-116040000D03*
D47*
X129443100Y-113500000D03*
D18*
X111000000Y-131075000D03*
X111000000Y-129000000D03*
D43*
X129488000Y-86460001D03*
X127488000Y-86460001D03*
D18*
X118500000Y-145075000D03*
X118500000Y-143000000D03*
X112500000Y-105575000D03*
X112500000Y-103500000D03*
D28*
X63000000Y-56920000D03*
X63000000Y-54920000D03*
D29*
X134968000Y-86549999D03*
X134968000Y-88450001D03*
X137000000Y-87500000D03*
D30*
X55520000Y-63725000D03*
D23*
X55520000Y-66265000D03*
D25*
X125018100Y-106500000D03*
X122943100Y-106500000D03*
D22*
X131988000Y-86460001D03*
X131988000Y-88460001D03*
D42*
X102060000Y-126230000D03*
X102060000Y-127500000D03*
X102060000Y-128770000D03*
X102060000Y-130040000D03*
X107000000Y-130040000D03*
X107000000Y-128770000D03*
X107000000Y-127500000D03*
X107000000Y-126230000D03*
D46*
X122414699Y-140460000D03*
X122414699Y-141730000D03*
X122414699Y-144270000D03*
X122414699Y-145540000D03*
D47*
X129000000Y-143000000D03*
D25*
X124575000Y-118990000D03*
X122500000Y-118990000D03*
X140075000Y-128500000D03*
X138000000Y-128500000D03*
D19*
X142425000Y-128500000D03*
X144500000Y-128500000D03*
D22*
X59000000Y-91250000D03*
X59000000Y-93250000D03*
D43*
X89000000Y-110354200D03*
X87000000Y-110354200D03*
D26*
X142500000Y-125000000D03*
X144500000Y-125000000D03*
D22*
X96943100Y-104000000D03*
X96943100Y-106000000D03*
D46*
X122414699Y-125960000D03*
X122414699Y-127230000D03*
X122414699Y-129770000D03*
X122414699Y-131040000D03*
D47*
X129000000Y-128500000D03*
D48*
X86000000Y-61500000D03*
X91500000Y-57500000D03*
X93500000Y-101500000D03*
X93500000Y-103500000D03*
X111000000Y-106000000D03*
X105500000Y-70600000D03*
X104500000Y-70500000D03*
X127000000Y-74000000D03*
X126000000Y-86500000D03*
X108000000Y-73500000D03*
X106500000Y-73500000D03*
X104500000Y-108000000D03*
X101000000Y-102000000D03*
X144000000Y-115500000D03*
X120500000Y-98500000D03*
X121000000Y-111000000D03*
X121000000Y-119000000D03*
X136000000Y-104500000D03*
X121500000Y-106500000D03*
X126000000Y-119000000D03*
X113500000Y-113500000D03*
X126500000Y-106500000D03*
X115000000Y-104000000D03*
X119000000Y-110500000D03*
X112500000Y-107000000D03*
X104000000Y-101500000D03*
X91500000Y-125000000D03*
X90500000Y-125000000D03*
X89500000Y-125000000D03*
X118500000Y-151000000D03*
X118500000Y-137000000D03*
X135500000Y-132000000D03*
X120500000Y-149000000D03*
X135500000Y-146500000D03*
X122500000Y-139000000D03*
X122500000Y-124500000D03*
X120500000Y-134500000D03*
X111000000Y-132500000D03*
X99000000Y-64500000D03*
X99000000Y-63500000D03*
X100500000Y-131000000D03*
X97500000Y-126500000D03*
X111000000Y-127500000D03*
X102000000Y-125000000D03*
X100000000Y-129000000D03*
X84500000Y-129000000D03*
X83500000Y-129000000D03*
X82500000Y-129000000D03*
X81000000Y-131500000D03*
X98500000Y-133500000D03*
X95000000Y-133500000D03*
X90500000Y-130000000D03*
X84000000Y-127000000D03*
X63000000Y-147000000D03*
X73083350Y-134500000D03*
X69500000Y-131000000D03*
X64000000Y-138000000D03*
X99000000Y-58500000D03*
X99000000Y-73500000D03*
X94000000Y-113500000D03*
X94000000Y-111000000D03*
X113500000Y-57000000D03*
X93500000Y-96500000D03*
X100500000Y-107500000D03*
X97000000Y-107500000D03*
X93500000Y-99000000D03*
X68500000Y-111000000D03*
X93500000Y-105500000D03*
X81000000Y-119000000D03*
X74000000Y-119000000D03*
X70000000Y-118500000D03*
X64500000Y-118500000D03*
X138500000Y-94500000D03*
X132000000Y-90000000D03*
X138000000Y-81500000D03*
X134500000Y-77500000D03*
X131000000Y-77500000D03*
X115500000Y-79500000D03*
X100500000Y-78500000D03*
X124000000Y-76000000D03*
X128500000Y-71000000D03*
X130500000Y-68000000D03*
X129376050Y-66500000D03*
X136500000Y-64500000D03*
X133000000Y-64500000D03*
X121500000Y-62500000D03*
X120000000Y-66000000D03*
X116500000Y-56000000D03*
X116500000Y-55000000D03*
X116500000Y-54000000D03*
X81500000Y-61000000D03*
X96000000Y-54500000D03*
X96000000Y-53500000D03*
X94500000Y-57500000D03*
X88500000Y-54500000D03*
X93500000Y-57500000D03*
X92776327Y-54017354D03*
X87500000Y-54500000D03*
X65500000Y-60500000D03*
X63000000Y-60500000D03*
X65500000Y-53500000D03*
X63000000Y-53500000D03*
X55500000Y-61000000D03*
X55500000Y-68000000D03*
X71000000Y-149000000D03*
X72000000Y-149000000D03*
X62000000Y-93000000D03*
X63000000Y-93000000D03*
X66000000Y-93500000D03*
X57500000Y-90500000D03*
X57500000Y-84000000D03*
D49*
X96818000Y-56920000D02*
X97350000Y-56920000D01*
X95637000Y-58101000D02*
X96818000Y-56920000D01*
X88500000Y-58000000D02*
X88601000Y-58101000D01*
X88601000Y-58101000D02*
X95637000Y-58101000D01*
D50*
X86000000Y-58000000D02*
X88500000Y-58000000D01*
X83925000Y-54500000D02*
X83925000Y-55925000D01*
X83925000Y-55925000D02*
X86000000Y-58000000D01*
X81925000Y-56500000D02*
X83925000Y-54500000D01*
X79974998Y-56500000D02*
X81925000Y-56500000D01*
X86000000Y-61500000D02*
X86000000Y-60075000D01*
X91524783Y-57475217D02*
X91500000Y-57500000D01*
X91524783Y-56117137D02*
X91524783Y-57475217D01*
X92793681Y-54000000D02*
X92776327Y-54017354D01*
X94000000Y-54000000D02*
X92793681Y-54000000D01*
X92751544Y-54042137D02*
X92776327Y-54017354D01*
X91524783Y-54042137D02*
X92751544Y-54042137D01*
X91524783Y-56117137D02*
X93957863Y-56117137D01*
X93957863Y-56117137D02*
X94000000Y-56075000D01*
X92000000Y-104000000D02*
X93000000Y-104000000D01*
X92000000Y-104000000D02*
X92000000Y-105354200D01*
X93000000Y-104000000D02*
X93500000Y-103500000D01*
X93145800Y-101854200D02*
X93500000Y-101500000D01*
X92000000Y-101854200D02*
X93145800Y-101854200D01*
D51*
X64537500Y-138258200D02*
X65295700Y-137500000D01*
X64537500Y-147000000D02*
X64537500Y-138258200D01*
D50*
X111000000Y-106000000D02*
X110500000Y-105500000D01*
D51*
X69537500Y-134500000D02*
X70679199Y-134500000D01*
X70679199Y-134500000D02*
X71629200Y-133549999D01*
X70500000Y-134500000D02*
X70550999Y-134449001D01*
X69537500Y-134500000D02*
X70500000Y-134500000D01*
X70550999Y-134449001D02*
X71629200Y-134449001D01*
D50*
X105465000Y-70635000D02*
X105500000Y-70600000D01*
X105465000Y-72140000D02*
X105465000Y-70635000D01*
X104195000Y-70805000D02*
X104500000Y-70500000D01*
X104195000Y-72140000D02*
X104195000Y-70805000D01*
X128500000Y-74000000D02*
X127000000Y-74000000D01*
X126039999Y-86460001D02*
X126000000Y-86500000D01*
X127488000Y-86460001D02*
X126039999Y-86460001D01*
X99000000Y-72255000D02*
X99115000Y-72140000D01*
X99000000Y-73500000D02*
X99000000Y-72255000D01*
X108000000Y-72145000D02*
X108005000Y-72140000D01*
X108000000Y-73500000D02*
X108000000Y-72145000D01*
X106500000Y-72375000D02*
X106735000Y-72140000D01*
X106500000Y-73500000D02*
X106500000Y-72375000D01*
D51*
X103973100Y-107473100D02*
X104500000Y-108000000D01*
X103973100Y-106770000D02*
X103973100Y-107473100D01*
X101657101Y-102657101D02*
X101000000Y-102000000D01*
X101657101Y-102899000D02*
X101657101Y-102657101D01*
X142443100Y-113500000D02*
X143943100Y-112000000D01*
X129443100Y-113500000D02*
X142443100Y-113500000D01*
X140575000Y-105615000D02*
X140575000Y-102000000D01*
X142500000Y-107540000D02*
X140575000Y-105615000D01*
X144196000Y-106560576D02*
X144196000Y-111747100D01*
X142635424Y-105000000D02*
X144196000Y-106560576D01*
X142500000Y-105000000D02*
X142635424Y-105000000D01*
X144196000Y-111747100D02*
X143943100Y-112000000D01*
X145000000Y-98500000D02*
X145000000Y-102000000D01*
X140575000Y-102000000D02*
X142925000Y-102000000D01*
X142000000Y-98500000D02*
X143000000Y-98500000D01*
X138500000Y-102000000D02*
X142000000Y-98500000D01*
X137425000Y-100925000D02*
X138500000Y-102000000D01*
X135943100Y-100925000D02*
X137425000Y-100925000D01*
X135868100Y-101000000D02*
X135943100Y-100925000D01*
X129500000Y-101000000D02*
X135868100Y-101000000D01*
D50*
X144000000Y-114131900D02*
X143943100Y-114075000D01*
X144000000Y-115500000D02*
X144000000Y-114131900D01*
X120540000Y-98460000D02*
X120500000Y-98500000D01*
X122914699Y-98460000D02*
X120540000Y-98460000D01*
X121040000Y-110960000D02*
X121000000Y-111000000D01*
X122857799Y-110960000D02*
X121040000Y-110960000D01*
X121010000Y-118990000D02*
X121000000Y-119000000D01*
X122500000Y-118990000D02*
X121010000Y-118990000D01*
X136000000Y-103056900D02*
X135943100Y-103000000D01*
X136000000Y-104500000D02*
X136000000Y-103056900D01*
X123000000Y-98374699D02*
X122914699Y-98460000D01*
X121500000Y-106500000D02*
X122943100Y-106500000D01*
X124603399Y-115103399D02*
X124270000Y-114770000D01*
X124603399Y-118961601D02*
X124603399Y-115103399D01*
X124270000Y-114770000D02*
X122857799Y-114770000D01*
X124575000Y-118990000D02*
X124603399Y-118961601D01*
X122817799Y-116000000D02*
X122857799Y-116040000D01*
X119000000Y-116000000D02*
X122817799Y-116000000D01*
X119000000Y-118000000D02*
X119000000Y-116000000D01*
X118606800Y-117606800D02*
X119000000Y-118000000D01*
X115000000Y-117606800D02*
X118606800Y-117606800D01*
X114500000Y-113500000D02*
X115000000Y-114000000D01*
X113500000Y-113500000D02*
X114500000Y-113500000D01*
X119216000Y-120216000D02*
X119000000Y-120000000D01*
X123349000Y-120216000D02*
X119216000Y-120216000D01*
X124575000Y-118990000D02*
X123349000Y-120216000D01*
X124585000Y-119000000D02*
X124575000Y-118990000D01*
X126000000Y-119000000D02*
X124585000Y-119000000D01*
X124759299Y-102270000D02*
X122914699Y-102270000D01*
X125018100Y-102528801D02*
X124759299Y-102270000D01*
X125018100Y-106500000D02*
X125018100Y-102528801D01*
X126500000Y-106500000D02*
X125018100Y-106500000D01*
X119000000Y-110500000D02*
X119000000Y-109000000D01*
X115000000Y-104000000D02*
X115000000Y-105500000D01*
X119000000Y-107000000D02*
X117106800Y-107000000D01*
X117106800Y-107000000D02*
X115000000Y-109106800D01*
X119000000Y-104500000D02*
X119000000Y-107000000D01*
X121954699Y-104500000D02*
X122914699Y-103540000D01*
X119000000Y-104500000D02*
X121954699Y-104500000D01*
X120219699Y-102425000D02*
X122914699Y-99730000D01*
X119000000Y-102425000D02*
X120219699Y-102425000D01*
X117774000Y-101199000D02*
X119000000Y-102425000D01*
X112168215Y-101199000D02*
X117774000Y-101199000D01*
X111699000Y-101668215D02*
X112168215Y-101199000D01*
X111699000Y-102419498D02*
X111699000Y-101668215D01*
X108913100Y-104230000D02*
X109888498Y-104230000D01*
X109888498Y-104230000D02*
X111699000Y-102419498D01*
X119000000Y-113925000D02*
X121162799Y-113925000D01*
X121162799Y-113925000D02*
X122857799Y-112230000D01*
X117053099Y-113925000D02*
X119000000Y-113925000D01*
X108913100Y-106770000D02*
X109898099Y-106770000D01*
X109898099Y-106770000D02*
X117053099Y-113925000D01*
X112500000Y-107000000D02*
X112500000Y-105575000D01*
X105847383Y-104152617D02*
X104654766Y-102960000D01*
X104654766Y-102960000D02*
X103973100Y-102960000D01*
X107194766Y-105500000D02*
X105847383Y-104152617D01*
X108913100Y-105500000D02*
X107194766Y-105500000D01*
X110500000Y-105500000D02*
X108913100Y-105500000D01*
X112500000Y-103500000D02*
X110500000Y-105500000D01*
X104000000Y-102933100D02*
X103973100Y-102960000D01*
X104000000Y-101500000D02*
X104000000Y-102933100D01*
X90700000Y-126175000D02*
X90700000Y-125200000D01*
X90700000Y-125200000D02*
X90500000Y-125000000D01*
X90500000Y-125000000D02*
X91500000Y-125000000D01*
X89500000Y-125000000D02*
X90500000Y-125000000D01*
D51*
X135425000Y-128500000D02*
X135500000Y-128425000D01*
X129000000Y-128500000D02*
X135425000Y-128500000D01*
X137925000Y-128425000D02*
X138000000Y-128500000D01*
X135500000Y-128425000D02*
X137925000Y-128425000D01*
X140075000Y-128500000D02*
X142425000Y-128500000D01*
X141500000Y-125000000D02*
X138000000Y-128500000D01*
X142500000Y-125000000D02*
X141500000Y-125000000D01*
X144500000Y-128500000D02*
X144500000Y-125000000D01*
X144196000Y-130271000D02*
X142425000Y-128500000D01*
X144196000Y-134844000D02*
X144196000Y-130271000D01*
X142500000Y-136540000D02*
X144196000Y-134844000D01*
X142275000Y-134000000D02*
X142500000Y-134000000D01*
X135500000Y-140775000D02*
X142275000Y-134000000D01*
X135500000Y-142925000D02*
X135500000Y-140775000D01*
X135425000Y-143000000D02*
X135500000Y-142925000D01*
X129000000Y-143000000D02*
X135425000Y-143000000D01*
D50*
X118965000Y-145540000D02*
X122414699Y-145540000D01*
X118500000Y-145075000D02*
X118965000Y-145540000D01*
X118500000Y-147500000D02*
X118500000Y-145075000D01*
X117378400Y-146196600D02*
X118500000Y-145075000D01*
X114500000Y-146196600D02*
X117378400Y-146196600D01*
X118500000Y-131075000D02*
X122379699Y-131075000D01*
X122379699Y-131075000D02*
X122414699Y-131040000D01*
X118500000Y-133500000D02*
X118500000Y-131075000D01*
X118425000Y-131000000D02*
X118500000Y-131075000D01*
X114500000Y-131000000D02*
X118425000Y-131000000D01*
X123770000Y-144270000D02*
X122414699Y-144270000D01*
X124160299Y-148914701D02*
X124160299Y-144660299D01*
X124160299Y-144660299D02*
X123770000Y-144270000D01*
X124075000Y-149000000D02*
X124160299Y-148914701D01*
X122849000Y-150226000D02*
X124075000Y-149000000D01*
X119226000Y-150226000D02*
X122849000Y-150226000D01*
X118500000Y-149500000D02*
X119226000Y-150226000D01*
X114803400Y-149500000D02*
X114500000Y-149803400D01*
X118500000Y-149500000D02*
X114803400Y-149500000D01*
X118500000Y-151000000D02*
X118500000Y-149500000D01*
X124160299Y-130158000D02*
X123772299Y-129770000D01*
X124160299Y-134414701D02*
X124160299Y-130158000D01*
X123772299Y-129770000D02*
X122414699Y-129770000D01*
X124075000Y-134500000D02*
X124160299Y-134414701D01*
X122849000Y-135726000D02*
X124075000Y-134500000D01*
X118726000Y-135726000D02*
X122849000Y-135726000D01*
X118500000Y-135500000D02*
X118726000Y-135726000D01*
X115393200Y-135500000D02*
X114500000Y-134606800D01*
X118500000Y-135500000D02*
X115393200Y-135500000D01*
X118500000Y-137000000D02*
X118500000Y-135500000D01*
X120500000Y-149000000D02*
X122000000Y-149000000D01*
X135500000Y-146500000D02*
X135500000Y-145000000D01*
X135500000Y-132000000D02*
X135500000Y-130500000D01*
X122500000Y-140374699D02*
X122414699Y-140460000D01*
X122500000Y-139000000D02*
X122500000Y-140374699D01*
X122500000Y-125874699D02*
X122414699Y-125960000D01*
X122500000Y-124500000D02*
X122500000Y-125874699D01*
X120500000Y-134500000D02*
X122000000Y-134500000D01*
X111000000Y-132500000D02*
X111000000Y-131075000D01*
X120644699Y-129000000D02*
X122414699Y-127230000D01*
X118500000Y-129000000D02*
X120644699Y-129000000D01*
X121144699Y-143000000D02*
X122414699Y-141730000D01*
X118500000Y-143000000D02*
X121144699Y-143000000D01*
X118500000Y-141540000D02*
X118500000Y-143000000D01*
X107000000Y-130040000D02*
X118500000Y-141540000D01*
X116199000Y-126699000D02*
X118500000Y-129000000D01*
X109867215Y-127500000D02*
X110668215Y-126699000D01*
X107000000Y-127500000D02*
X109867215Y-127500000D01*
X110668215Y-126699000D02*
X116199000Y-126699000D01*
X97390000Y-64500000D02*
X97350000Y-64540000D01*
X99000000Y-64500000D02*
X97390000Y-64500000D01*
X102060000Y-130040000D02*
X101460000Y-130040000D01*
X101460000Y-130040000D02*
X100500000Y-131000000D01*
X97580000Y-63500000D02*
X97350000Y-63270000D01*
X99000000Y-63500000D02*
X97580000Y-63500000D01*
X98500000Y-127500000D02*
X97500000Y-126500000D01*
X98500000Y-127500000D02*
X97500000Y-127500000D01*
X97500000Y-127500000D02*
X95000000Y-130000000D01*
X102060000Y-127500000D02*
X98500000Y-127500000D01*
X98540000Y-130040000D02*
X98500000Y-130000000D01*
X102060000Y-130040000D02*
X98540000Y-130040000D01*
X105270000Y-126230000D02*
X107000000Y-126230000D01*
X104005833Y-127494167D02*
X102741666Y-126230000D01*
X104005833Y-127494167D02*
X105270000Y-126230000D01*
X102741666Y-126230000D02*
X102060000Y-126230000D01*
X105281666Y-128770000D02*
X104005833Y-127494167D01*
X107000000Y-128770000D02*
X105281666Y-128770000D01*
X107230000Y-129000000D02*
X107000000Y-128770000D01*
X111000000Y-129000000D02*
X107230000Y-129000000D01*
X111000000Y-127500000D02*
X111000000Y-129000000D01*
X102000000Y-126170000D02*
X102060000Y-126230000D01*
X102000000Y-125000000D02*
X102000000Y-126170000D01*
X100000000Y-129000000D02*
X101830000Y-129000000D01*
X101830000Y-129000000D02*
X102060000Y-128770000D01*
X84500000Y-128450000D02*
X85000000Y-127950000D01*
X84500000Y-129000000D02*
X84500000Y-128450000D01*
D51*
X85000000Y-127950000D02*
X85630000Y-127950000D01*
D50*
X83500000Y-128450000D02*
X84000000Y-127950000D01*
X83500000Y-129000000D02*
X83500000Y-128450000D01*
D51*
X84000000Y-127950000D02*
X85000000Y-127950000D01*
D50*
X82500000Y-128450000D02*
X83000000Y-127950000D01*
X82500000Y-129000000D02*
X82500000Y-128450000D01*
D51*
X81075000Y-127950000D02*
X83000000Y-127950000D01*
D50*
X81000000Y-131500000D02*
X81000000Y-129950000D01*
D51*
X80125000Y-127875000D02*
X81000000Y-127875000D01*
X79000000Y-129000000D02*
X80125000Y-127875000D01*
X79000000Y-129500000D02*
X79000000Y-129000000D01*
X78000000Y-128000000D02*
X77037500Y-128000000D01*
X79000000Y-129000000D02*
X78000000Y-128000000D01*
X79738500Y-130711424D02*
X79000000Y-129972924D01*
X79738500Y-138809424D02*
X79738500Y-130711424D01*
X71597924Y-146950000D02*
X79738500Y-138809424D01*
X79000000Y-129972924D02*
X79000000Y-129500000D01*
X71537500Y-146950000D02*
X71597924Y-146950000D01*
D50*
X77037500Y-130000000D02*
X74537500Y-130000000D01*
X77037500Y-132500000D02*
X77037500Y-130000000D01*
X75987501Y-133549999D02*
X77037500Y-132500000D01*
X74537500Y-133549999D02*
X75987501Y-133549999D01*
X98500000Y-132000000D02*
X98500000Y-133500000D01*
X95000000Y-133500000D02*
X95000000Y-132000000D01*
D51*
X90575000Y-126050000D02*
X90700000Y-126175000D01*
X88000000Y-126050000D02*
X90575000Y-126050000D01*
D50*
X90500000Y-128450000D02*
X90700000Y-128250000D01*
X90500000Y-130000000D02*
X90500000Y-128450000D01*
X84000000Y-127000000D02*
X85630000Y-127000000D01*
D51*
X82825000Y-126050000D02*
X85630000Y-126050000D01*
X81000000Y-127875000D02*
X82825000Y-126050000D01*
X83000000Y-127950000D02*
X84000000Y-127950000D01*
X81000000Y-127875000D02*
X81075000Y-127950000D01*
X80875000Y-128000000D02*
X81000000Y-127875000D01*
X76962500Y-127925000D02*
X77037500Y-128000000D01*
X74537500Y-127925000D02*
X76962500Y-127925000D01*
D50*
X74537500Y-134500000D02*
X73083350Y-134500000D01*
X69537500Y-131037500D02*
X69500000Y-131000000D01*
X69537500Y-132425000D02*
X69537500Y-131037500D01*
X64537500Y-147000000D02*
X63000000Y-147000000D01*
X64500000Y-137500000D02*
X64000000Y-138000000D01*
X65295700Y-137500000D02*
X64500000Y-137500000D01*
D51*
X66662500Y-146950000D02*
X66612500Y-147000000D01*
X71537500Y-146950000D02*
X66662500Y-146950000D01*
X76537500Y-138000000D02*
X74037500Y-138000000D01*
D50*
X75987501Y-135450001D02*
X78537500Y-138000000D01*
X74537500Y-135450001D02*
X75987501Y-135450001D01*
D51*
X71962500Y-135783301D02*
X71629200Y-135450001D01*
X71962500Y-138000000D02*
X71962500Y-135783301D01*
X71537500Y-138425000D02*
X71962500Y-138000000D01*
X71537500Y-141050000D02*
X71537500Y-138425000D01*
X71462500Y-137500000D02*
X71962500Y-138000000D01*
X69537500Y-137500000D02*
X71462500Y-137500000D01*
X77037500Y-134500000D02*
X74537500Y-134500000D01*
X69500000Y-132387500D02*
X69537500Y-132425000D01*
X65633200Y-134500000D02*
X69537500Y-134500000D01*
X62868200Y-137265000D02*
X65633200Y-134500000D01*
X55480000Y-137265000D02*
X62868200Y-137265000D01*
D50*
X98690000Y-58190000D02*
X99000000Y-58500000D01*
X97350000Y-58190000D02*
X98690000Y-58190000D01*
X93929200Y-113429200D02*
X94000000Y-113500000D01*
X92500000Y-113429200D02*
X93929200Y-113429200D01*
X93645800Y-111354200D02*
X94000000Y-111000000D01*
X92500000Y-111354200D02*
X93645800Y-111354200D01*
X114770000Y-57000000D02*
X114850000Y-56920000D01*
X113500000Y-57000000D02*
X114770000Y-57000000D01*
X93220800Y-96779200D02*
X93500000Y-96500000D01*
X92000000Y-96779200D02*
X93220800Y-96779200D01*
D52*
X85500000Y-112354200D02*
X87000000Y-113854200D01*
X85500000Y-112007800D02*
X85500000Y-112354200D01*
X85500000Y-112007800D02*
X87073980Y-112007800D01*
X81000000Y-108738658D02*
X81000000Y-108708400D01*
X82059742Y-109798400D02*
X81000000Y-108738658D01*
X87626580Y-109253200D02*
X84246800Y-109253200D01*
X88000000Y-109626620D02*
X87626580Y-109253200D01*
X83701600Y-109798400D02*
X82059742Y-109798400D01*
X88000000Y-111081780D02*
X88000000Y-109626620D01*
X87073980Y-112007800D02*
X88000000Y-111081780D01*
X84246800Y-109253200D02*
X83701600Y-109798400D01*
X81000000Y-113500000D02*
X81000000Y-112007800D01*
X81000000Y-112007800D02*
X85500000Y-112007800D01*
D50*
X74000000Y-108880078D02*
X74000000Y-108708400D01*
X76619922Y-111500000D02*
X74000000Y-108880078D01*
X80516436Y-111500000D02*
X76619922Y-111500000D01*
X86047400Y-111306800D02*
X80709636Y-111306800D01*
X80709636Y-111306800D02*
X80516436Y-111500000D01*
X87000000Y-110354200D02*
X86047400Y-111306800D01*
X92075000Y-113854200D02*
X92500000Y-113429200D01*
X89000000Y-113854200D02*
X92075000Y-113854200D01*
X89000000Y-110354200D02*
X91500000Y-110354200D01*
X91500000Y-110354200D02*
X92500000Y-111354200D01*
X78781300Y-112486322D02*
X78957622Y-112310000D01*
X78781300Y-115659478D02*
X78781300Y-112486322D01*
X78957622Y-112310000D02*
X79981678Y-112310000D01*
X81000000Y-113328322D02*
X81000000Y-113500000D01*
X71216600Y-121500000D02*
X72940778Y-121500000D01*
X72940778Y-121500000D02*
X78781300Y-115659478D01*
X79981678Y-112310000D02*
X81000000Y-113328322D01*
X66500000Y-116783400D02*
X71216600Y-121500000D01*
X88000000Y-96779200D02*
X92000000Y-96779200D01*
X69828400Y-103810000D02*
X68500000Y-105138400D01*
X74000000Y-104828322D02*
X72981678Y-103810000D01*
X72981678Y-103810000D02*
X69828400Y-103810000D01*
X74000000Y-105000000D02*
X74000000Y-104828322D01*
X75018322Y-103810000D02*
X74000000Y-104828322D01*
X81000000Y-104828322D02*
X79981678Y-103810000D01*
X79981678Y-103810000D02*
X75018322Y-103810000D01*
X81000000Y-105000000D02*
X81000000Y-104828322D01*
X84455800Y-103810000D02*
X82018322Y-103810000D01*
X82018322Y-103810000D02*
X81000000Y-104828322D01*
X86000000Y-105354200D02*
X84455800Y-103810000D01*
X86000000Y-101854200D02*
X86000000Y-96779200D01*
X86000000Y-101854200D02*
X86000000Y-105354200D01*
X88000000Y-101854200D02*
X90000000Y-101854200D01*
X88000000Y-105354200D02*
X90000000Y-105354200D01*
X102442100Y-108301000D02*
X103973100Y-106770000D01*
X100168214Y-108301000D02*
X102442100Y-108301000D01*
X99242100Y-105201000D02*
X99242100Y-107374885D01*
X100443100Y-104000000D02*
X99242100Y-105201000D01*
X99242100Y-107374885D02*
X100168214Y-108301000D01*
X102988101Y-104230000D02*
X103973100Y-104230000D01*
X98044100Y-102899000D02*
X101657101Y-102899000D01*
X96943100Y-104000000D02*
X98044100Y-102899000D01*
X101657101Y-102899000D02*
X102988101Y-104230000D01*
X100943100Y-105500000D02*
X103973100Y-105500000D01*
X100443100Y-106000000D02*
X100943100Y-105500000D01*
X100500000Y-106056900D02*
X100443100Y-106000000D01*
X100500000Y-107500000D02*
X100500000Y-106056900D01*
X97000000Y-106056900D02*
X96943100Y-106000000D01*
X97000000Y-107500000D02*
X97000000Y-106056900D01*
X92145800Y-99000000D02*
X92000000Y-98854200D01*
X93500000Y-99000000D02*
X92145800Y-99000000D01*
X92000000Y-101854200D02*
X92000000Y-104000000D01*
X92145800Y-105500000D02*
X92000000Y-105354200D01*
X93500000Y-105500000D02*
X92145800Y-105500000D01*
X68500000Y-111000000D02*
X68500000Y-109208400D01*
X81000000Y-119000000D02*
X81000000Y-117208400D01*
X74000000Y-119000000D02*
X74000000Y-117208400D01*
X70000000Y-118500000D02*
X70000000Y-116783400D01*
X63075000Y-118500000D02*
X63000000Y-118575000D01*
X64500000Y-118500000D02*
X63075000Y-118500000D01*
D51*
X66216600Y-116500000D02*
X66500000Y-116783400D01*
X63000000Y-116500000D02*
X66216600Y-116500000D01*
X62291600Y-117208400D02*
X63000000Y-116500000D01*
X59000000Y-117208400D02*
X62291600Y-117208400D01*
X74000000Y-113500000D02*
X74000000Y-108708400D01*
X74000000Y-113186900D02*
X74000000Y-113500000D01*
X73023100Y-112210000D02*
X74000000Y-113186900D01*
X71916200Y-112210000D02*
X73023100Y-112210000D01*
X70000000Y-114126200D02*
X71916200Y-112210000D01*
X70000000Y-114708400D02*
X70000000Y-114126200D01*
X66500000Y-114708400D02*
X70000000Y-114708400D01*
X59000000Y-114208400D02*
X66000000Y-114208400D01*
X66000000Y-114208400D02*
X66500000Y-114708400D01*
X53843800Y-117208400D02*
X53513600Y-117208400D01*
X56932800Y-107904400D02*
X56932800Y-114119400D01*
X56932800Y-114119400D02*
X53843800Y-117208400D01*
X55236800Y-106208400D02*
X56932800Y-107904400D01*
X55236800Y-112485200D02*
X53513600Y-114208400D01*
X55236800Y-108748400D02*
X55236800Y-112485200D01*
D49*
X109540000Y-77094200D02*
X109540000Y-83000000D01*
X110500000Y-76134200D02*
X109540000Y-77094200D01*
X110500000Y-74567100D02*
X110500000Y-76134200D01*
X111876100Y-73191000D02*
X110500000Y-74567100D01*
X112566000Y-73191000D02*
X111876100Y-73191000D01*
X113085000Y-72672000D02*
X112566000Y-73191000D01*
X113085000Y-72140000D02*
X113085000Y-72672000D01*
X107000000Y-79067100D02*
X107000000Y-83000000D01*
X110077000Y-75990100D02*
X107000000Y-79067100D01*
X111815000Y-72685000D02*
X110077000Y-74423000D01*
X111815000Y-72140000D02*
X111815000Y-72685000D01*
X110077000Y-74423000D02*
X110077000Y-75990100D01*
X104460000Y-81040000D02*
X104460000Y-83000000D01*
X109676000Y-75824000D02*
X104460000Y-81040000D01*
X109676000Y-74000000D02*
X109676000Y-75824000D01*
X110545000Y-72140000D02*
X110545000Y-73131000D01*
X110545000Y-73131000D02*
X109676000Y-74000000D01*
X109275000Y-75645000D02*
X101920000Y-83000000D01*
X109275000Y-72140000D02*
X109275000Y-75645000D01*
X99380000Y-81620000D02*
X99380000Y-83000000D01*
X102056000Y-78944000D02*
X99380000Y-81620000D01*
X102925000Y-73131000D02*
X102056000Y-74000000D01*
X102056000Y-74000000D02*
X102056000Y-78944000D01*
X102925000Y-72140000D02*
X102925000Y-73131000D01*
X101655000Y-78345000D02*
X97000000Y-83000000D01*
X97000000Y-83000000D02*
X96840000Y-83000000D01*
X101655000Y-72140000D02*
X101655000Y-78345000D01*
D50*
X142448001Y-87500000D02*
X142488000Y-87460001D01*
X137000000Y-87500000D02*
X142448001Y-87500000D01*
X136968000Y-90950001D02*
X136968000Y-87532000D01*
X136968000Y-87532000D02*
X137000000Y-87500000D01*
X137024801Y-94500000D02*
X136968000Y-94556801D01*
X138500000Y-94500000D02*
X137024801Y-94500000D01*
X134958000Y-88460001D02*
X134968000Y-88450001D01*
X131988000Y-88460001D02*
X134958000Y-88460001D01*
X132000000Y-88472001D02*
X131988000Y-88460001D01*
X132000000Y-90000000D02*
X132000000Y-88472001D01*
X134878002Y-86460001D02*
X134968000Y-86549999D01*
X131988000Y-86460001D02*
X134878002Y-86460001D01*
X129488000Y-86460001D02*
X131988000Y-86460001D01*
X136000000Y-62500000D02*
X135000000Y-63500000D01*
X143500000Y-62500000D02*
X136000000Y-62500000D01*
X144500000Y-65040000D02*
X144500000Y-63500000D01*
X144500000Y-63500000D02*
X143500000Y-62500000D01*
X135000000Y-63500000D02*
X130376050Y-63500000D01*
X142500000Y-67040000D02*
X144500000Y-65040000D01*
X136500000Y-81500000D02*
X136460000Y-81460000D01*
X138000000Y-81500000D02*
X136500000Y-81500000D01*
X137000000Y-75000000D02*
X142500000Y-75000000D01*
X136950001Y-75049999D02*
X137000000Y-75000000D01*
X136492000Y-75049999D02*
X136950001Y-75049999D01*
X136460000Y-75081999D02*
X136492000Y-75049999D01*
X136460000Y-77853200D02*
X136460000Y-75081999D01*
X134360002Y-74000000D02*
X134460000Y-74099998D01*
X130960000Y-74000000D02*
X134360002Y-74000000D01*
X128960000Y-76000000D02*
X130960000Y-74000000D01*
X128500000Y-76000000D02*
X128960000Y-76000000D01*
X134500000Y-76040000D02*
X134460000Y-76000000D01*
X134500000Y-77500000D02*
X134500000Y-76040000D01*
X131000000Y-76040000D02*
X130960000Y-76000000D01*
X131000000Y-77500000D02*
X131000000Y-76040000D01*
X115500000Y-79500000D02*
X115500000Y-78050004D01*
X100500000Y-78500000D02*
X100500000Y-77000000D01*
X100385000Y-74885000D02*
X100500000Y-75000000D01*
X100385000Y-72140000D02*
X100385000Y-74885000D01*
X124000000Y-76000000D02*
X122550004Y-76000000D01*
X122550004Y-76000000D02*
X122500000Y-76050004D01*
X115500000Y-76050004D02*
X117999998Y-76050004D01*
X114850000Y-75400004D02*
X115500000Y-76050004D01*
X114850000Y-70890000D02*
X114850000Y-75400004D01*
X131653400Y-67153400D02*
X130503401Y-67153400D01*
X132575000Y-68075000D02*
X131653400Y-67153400D01*
X133000000Y-68075000D02*
X132575000Y-68075000D01*
X136500000Y-68075000D02*
X133000000Y-68075000D01*
X140075000Y-64500000D02*
X136500000Y-68075000D01*
X142500000Y-64500000D02*
X140075000Y-64500000D01*
X123876050Y-66000000D02*
X121376050Y-66000000D01*
X128500000Y-69623950D02*
X128376050Y-69500000D01*
X128500000Y-71000000D02*
X128500000Y-69623950D01*
X128376050Y-67273949D02*
X128252100Y-67149999D01*
X128376050Y-69500000D02*
X128376050Y-67273949D01*
X130451050Y-69500000D02*
X130451050Y-68048950D01*
X130451050Y-68048950D02*
X130500000Y-68000000D01*
D53*
X130500000Y-66500000D02*
X129376050Y-66500000D01*
D50*
X128102101Y-66000000D02*
X128252100Y-65850001D01*
X125876050Y-66000000D02*
X128102101Y-66000000D01*
X130376050Y-65722650D02*
X130500000Y-65846600D01*
X130376050Y-63500000D02*
X130376050Y-65722650D01*
X128376050Y-65726051D02*
X128252100Y-65850001D01*
X128376050Y-63500000D02*
X128376050Y-65726051D01*
X136500000Y-66000000D02*
X136500000Y-64500000D01*
X133000000Y-64500000D02*
X133000000Y-66075000D01*
X121376050Y-62623950D02*
X121500000Y-62500000D01*
X121376050Y-63925000D02*
X121376050Y-62623950D01*
X121376050Y-66000000D02*
X120000000Y-66000000D01*
X116367214Y-56000000D02*
X116500000Y-56000000D01*
X114850000Y-55650000D02*
X116017214Y-55650000D01*
X116017214Y-55650000D02*
X116367214Y-56000000D01*
D49*
X120276850Y-59859000D02*
X138881000Y-59859000D01*
X119067925Y-61067925D02*
X120276850Y-59859000D01*
X119067925Y-65932075D02*
X119067925Y-61067925D01*
X138881000Y-59859000D02*
X143240000Y-55500000D01*
X115380000Y-69620000D02*
X119067925Y-65932075D01*
X114850000Y-69620000D02*
X115380000Y-69620000D01*
X136742000Y-59458000D02*
X140700000Y-55500000D01*
X118568750Y-61000000D02*
X120110750Y-59458000D01*
X118568750Y-65581250D02*
X118568750Y-61000000D01*
X115800000Y-68350000D02*
X118568750Y-65581250D01*
X114850000Y-68350000D02*
X115800000Y-68350000D01*
X120110750Y-59458000D02*
X136742000Y-59458000D01*
X134603000Y-59057000D02*
X138160000Y-55500000D01*
X119778500Y-59057000D02*
X134603000Y-59057000D01*
X118167750Y-64712250D02*
X118167750Y-60667750D01*
X115800000Y-67080000D02*
X118167750Y-64712250D01*
X118167750Y-60667750D02*
X119778500Y-59057000D01*
X114850000Y-67080000D02*
X115800000Y-67080000D01*
X119612400Y-58656000D02*
X132464000Y-58656000D01*
X117634200Y-60634200D02*
X119612400Y-58656000D01*
X117634200Y-63975800D02*
X117634200Y-60634200D01*
X132464000Y-58656000D02*
X135620000Y-55500000D01*
X115800000Y-65810000D02*
X117634200Y-63975800D01*
X114850000Y-65810000D02*
X115800000Y-65810000D01*
X119446300Y-58255000D02*
X130325000Y-58255000D01*
X130325000Y-58255000D02*
X133080000Y-55500000D01*
X117100650Y-60600650D02*
X119446300Y-58255000D01*
X117100650Y-63239350D02*
X117100650Y-60600650D01*
X115800000Y-64540000D02*
X117100650Y-63239350D01*
X114850000Y-64540000D02*
X115800000Y-64540000D01*
X116567100Y-60567100D02*
X119280200Y-57854000D01*
X128186000Y-57854000D02*
X130540000Y-55500000D01*
X116567100Y-62502900D02*
X116567100Y-60567100D01*
X115800000Y-63270000D02*
X116567100Y-62502900D01*
X119280200Y-57854000D02*
X128186000Y-57854000D01*
X114850000Y-63270000D02*
X115800000Y-63270000D01*
X116033550Y-60533550D02*
X119114100Y-57453000D01*
X119114100Y-57453000D02*
X126047000Y-57453000D01*
X115382000Y-62000000D02*
X116033550Y-61348450D01*
X126047000Y-57453000D02*
X128000000Y-55500000D01*
X114850000Y-62000000D02*
X115382000Y-62000000D01*
X116033550Y-61348450D02*
X116033550Y-60533550D01*
X123908000Y-57052000D02*
X125460000Y-55500000D01*
X115270000Y-60730000D02*
X118948000Y-57052000D01*
X118948000Y-57052000D02*
X123908000Y-57052000D01*
X114850000Y-60730000D02*
X115270000Y-60730000D01*
X121769000Y-56651000D02*
X122920000Y-55500000D01*
X118609000Y-56651000D02*
X121769000Y-56651000D01*
X115800000Y-59460000D02*
X118609000Y-56651000D01*
X114850000Y-59460000D02*
X115800000Y-59460000D01*
X115310000Y-58190000D02*
X118000000Y-55500000D01*
X118000000Y-55500000D02*
X120380000Y-55500000D01*
X114850000Y-58190000D02*
X115310000Y-58190000D01*
D50*
X115880000Y-54380000D02*
X116500000Y-55000000D01*
X114850000Y-54380000D02*
X115880000Y-54380000D01*
X116120000Y-54380000D02*
X116500000Y-54000000D01*
X114850000Y-54380000D02*
X116120000Y-54380000D01*
D54*
X96868000Y-56920000D02*
X97350000Y-56920000D01*
D49*
X93900000Y-64500000D02*
X83000000Y-64500000D01*
X83000000Y-64500000D02*
X78580000Y-68920000D01*
X96400000Y-62000000D02*
X93900000Y-64500000D01*
X78580000Y-68920000D02*
X76000000Y-68920000D01*
X97350000Y-62000000D02*
X96400000Y-62000000D01*
X86730000Y-68350000D02*
X76000000Y-79080000D01*
X97350000Y-68350000D02*
X86730000Y-68350000D01*
X85460000Y-67080000D02*
X76000000Y-76540000D01*
X97350000Y-67080000D02*
X85460000Y-67080000D01*
X84190000Y-65810000D02*
X76000000Y-74000000D01*
X97350000Y-65810000D02*
X84190000Y-65810000D01*
X96400000Y-60730000D02*
X97350000Y-60730000D01*
X65480000Y-63800000D02*
X66280000Y-63000000D01*
X66280000Y-63000000D02*
X94130000Y-63000000D01*
X94130000Y-63000000D02*
X96400000Y-60730000D01*
X97076500Y-59186500D02*
X97350000Y-59460000D01*
X67766500Y-59186500D02*
X97076500Y-59186500D01*
X65500000Y-56920000D02*
X67766500Y-59186500D01*
D50*
X79975000Y-61000000D02*
X79974998Y-61000002D01*
X81500000Y-61000000D02*
X79975000Y-61000000D01*
X96120000Y-54380000D02*
X96000000Y-54500000D01*
X97350000Y-54380000D02*
X96120000Y-54380000D01*
X96880000Y-54380000D02*
X96000000Y-53500000D01*
X97350000Y-54380000D02*
X96880000Y-54380000D01*
X94350000Y-55650000D02*
X97350000Y-55650000D01*
X94000000Y-56000000D02*
X94350000Y-55650000D01*
X94000000Y-57000000D02*
X94500000Y-57500000D01*
X94000000Y-56000000D02*
X94000000Y-57000000D01*
X94000000Y-57000000D02*
X93500000Y-57500000D01*
X88500000Y-56000000D02*
X88500000Y-54500000D01*
X87500000Y-54500000D02*
X86000000Y-54500000D01*
X83925000Y-54500000D02*
X84000000Y-54500000D01*
X63000000Y-56920000D02*
X65500000Y-56920000D01*
X62805000Y-56725000D02*
X63000000Y-56920000D01*
X55540000Y-56725000D02*
X62805000Y-56725000D01*
X65405000Y-63725000D02*
X65480000Y-63800000D01*
X62980000Y-63725000D02*
X65405000Y-63725000D01*
X55520000Y-63725000D02*
X62980000Y-63725000D01*
X63000000Y-54920000D02*
X63000000Y-53500000D01*
X65500000Y-54845000D02*
X65500000Y-53500000D01*
X65480000Y-60520000D02*
X65500000Y-60500000D01*
X65480000Y-61725000D02*
X65480000Y-60520000D01*
X62980000Y-60520000D02*
X63000000Y-60500000D01*
X62980000Y-61725000D02*
X62980000Y-60520000D01*
X55500000Y-61000000D02*
X55500000Y-59305000D01*
X55500000Y-59305000D02*
X55540000Y-59265000D01*
X55500000Y-66285000D02*
X55520000Y-66265000D01*
X55500000Y-68000000D02*
X55500000Y-66285000D01*
X71537500Y-148537500D02*
X72000000Y-149000000D01*
X71537500Y-146950000D02*
X71537500Y-148537500D01*
X71537500Y-148462500D02*
X71000000Y-149000000D01*
X71537500Y-146950000D02*
X71537500Y-148462500D01*
X71500000Y-146987500D02*
X71537500Y-146950000D01*
D52*
X62500000Y-92500000D02*
X63000000Y-93000000D01*
X62500000Y-91515300D02*
X62500000Y-92500000D01*
X62500000Y-92500000D02*
X62000000Y-93000000D01*
X66000000Y-92000000D02*
X66000000Y-93500000D01*
D50*
X96400000Y-69620000D02*
X97350000Y-69620000D01*
X80020000Y-86000000D02*
X96400000Y-69620000D01*
X60500000Y-86000000D02*
X80020000Y-86000000D01*
X59750000Y-86250000D02*
X60250000Y-86250000D01*
X60250000Y-86250000D02*
X60500000Y-86000000D01*
X80740000Y-87500000D02*
X97350000Y-70890000D01*
X60000000Y-87500000D02*
X80740000Y-87500000D01*
D49*
X59500000Y-87000000D02*
X60000000Y-87500000D01*
X56000000Y-87000000D02*
X59500000Y-87000000D01*
D54*
X65000000Y-89000000D02*
X66000000Y-90000000D01*
X56000000Y-89000000D02*
X65000000Y-89000000D01*
X59000000Y-86000000D02*
X61000000Y-84000000D01*
X56000000Y-86000000D02*
X59000000Y-86000000D01*
D50*
X59000000Y-84000000D02*
X57500000Y-84000000D01*
X58150000Y-89650000D02*
X58250000Y-89750000D01*
X58250000Y-89750000D02*
X62500000Y-89750000D01*
X56000000Y-89650000D02*
X58150000Y-89650000D01*
D49*
X56827000Y-87000000D02*
X56000000Y-87000000D01*
X57000000Y-87173000D02*
X56827000Y-87000000D01*
X57000000Y-87703000D02*
X57000000Y-87173000D01*
X56703000Y-88000000D02*
X57000000Y-87703000D01*
X56000000Y-88000000D02*
X56703000Y-88000000D01*
X55173000Y-86500000D02*
X56000000Y-86500000D01*
X55000000Y-87327000D02*
X55000000Y-86673000D01*
X55173000Y-87500000D02*
X55000000Y-87327000D01*
X56000000Y-87500000D02*
X55173000Y-87500000D01*
X55000000Y-86673000D02*
X55173000Y-86500000D01*
D50*
X54650000Y-84850000D02*
X56000000Y-84850000D01*
X53000000Y-86500000D02*
X54650000Y-84850000D01*
X53000000Y-88500000D02*
X53000000Y-86500000D01*
X54150000Y-89650000D02*
X53000000Y-88500000D01*
X56000000Y-89650000D02*
X54150000Y-89650000D01*
D52*
X50825000Y-81650000D02*
X50825000Y-92850000D01*
X50825000Y-81650000D02*
X54825000Y-81650000D01*
X50825000Y-92850000D02*
X54825000Y-92850000D01*
X55225000Y-93250000D02*
X54825000Y-92850000D01*
X59000000Y-93250000D02*
X55225000Y-93250000D01*
D50*
X58250000Y-91250000D02*
X57500000Y-90500000D01*
X59000000Y-91250000D02*
X58250000Y-91250000D01*
X57450000Y-90450000D02*
X57500000Y-90500000D01*
X56000000Y-90450000D02*
X57450000Y-90450000D01*
X57450000Y-84050000D02*
X57500000Y-84000000D01*
X56000000Y-84050000D02*
X57450000Y-84050000D01*
D54*
X102423468Y-126230000D02*
X102060000Y-126230000D01*
D49*
X59750000Y-86250000D02*
X59500000Y-86500000D01*
X59500000Y-86500000D02*
X56000000Y-86500000D01*
D50*
X107040000Y-102960000D02*
X108913100Y-102960000D01*
X105847383Y-104152617D02*
X107040000Y-102960000D01*
M02*
