G04 #@! TF.GenerationSoftware,KiCad,Pcbnew,9.0.2*
G04 #@! TF.CreationDate,2025-08-11T21:07:56-07:00*
G04 #@! TF.ProjectId,MusicalTeslaCoil,4d757369-6361-46c5-9465-736c61436f69,REV1*
G04 #@! TF.SameCoordinates,Original*
G04 #@! TF.FileFunction,Soldermask,Top*
G04 #@! TF.FilePolarity,Negative*
%FSLAX46Y46*%
G04 Gerber Fmt 4.6, Leading zero omitted, Abs format (unit mm)*
G04 Created by KiCad (PCBNEW 9.0.2) date 2025-08-11 21:07:56*
%MOMM*%
%LPD*%
G01*
G04 APERTURE LIST*
G04 Aperture macros list*
%AMRoundRect*
0 Rectangle with rounded corners*
0 $1 Rounding radius*
0 $2 $3 $4 $5 $6 $7 $8 $9 X,Y pos of 4 corners*
0 Add a 4 corners polygon primitive as box body*
4,1,4,$2,$3,$4,$5,$6,$7,$8,$9,$2,$3,0*
0 Add four circle primitives for the rounded corners*
1,1,$1+$1,$2,$3*
1,1,$1+$1,$4,$5*
1,1,$1+$1,$6,$7*
1,1,$1+$1,$8,$9*
0 Add four rect primitives between the rounded corners*
20,1,$1+$1,$2,$3,$4,$5,0*
20,1,$1+$1,$4,$5,$6,$7,0*
20,1,$1+$1,$6,$7,$8,$9,0*
20,1,$1+$1,$8,$9,$2,$3,0*%
G04 Aperture macros list end*
%ADD10C,0.010000*%
%ADD11R,1.244600X0.965200*%
%ADD12R,0.901700X0.558800*%
%ADD13R,2.200000X2.000000*%
%ADD14R,1.066800X1.854200*%
%ADD15R,0.889000X1.397000*%
%ADD16R,0.762000X0.863600*%
%ADD17R,2.184400X2.184400*%
%ADD18RoundRect,0.250000X-0.475000X0.337500X-0.475000X-0.337500X0.475000X-0.337500X0.475000X0.337500X0*%
%ADD19RoundRect,0.250000X0.475000X-0.337500X0.475000X0.337500X-0.475000X0.337500X-0.475000X-0.337500X0*%
%ADD20RoundRect,0.250000X-0.337500X-0.475000X0.337500X-0.475000X0.337500X0.475000X-0.337500X0.475000X0*%
%ADD21C,1.700000*%
%ADD22R,1.700000X1.700000*%
%ADD23RoundRect,0.250000X-0.450000X0.350000X-0.450000X-0.350000X0.450000X-0.350000X0.450000X0.350000X0*%
%ADD24O,2.190000X1.740000*%
%ADD25RoundRect,0.250000X0.845000X-0.620000X0.845000X0.620000X-0.845000X0.620000X-0.845000X-0.620000X0*%
%ADD26RoundRect,0.250000X0.337500X0.475000X-0.337500X0.475000X-0.337500X-0.475000X0.337500X-0.475000X0*%
%ADD27RoundRect,0.250000X-0.350000X-0.450000X0.350000X-0.450000X0.350000X0.450000X-0.350000X0.450000X0*%
%ADD28R,0.850900X0.304800*%
%ADD29RoundRect,0.250000X0.450000X-0.350000X0.450000X0.350000X-0.450000X0.350000X-0.450000X-0.350000X0*%
%ADD30R,1.168400X0.533400*%
%ADD31RoundRect,0.250000X-0.845000X0.620000X-0.845000X-0.620000X0.845000X-0.620000X0.845000X0.620000X0*%
%ADD32R,1.400048X1.549908*%
%ADD33C,0.600000*%
%ADD34R,3.900000X3.900000*%
%ADD35R,1.500000X0.900000*%
%ADD36R,0.900000X1.500000*%
%ADD37R,1.549908X1.400048*%
%ADD38O,1.804000X1.204000*%
%ADD39O,2.104000X1.204000*%
%ADD40RoundRect,0.060300X-0.716700X-0.341700X0.716700X-0.341700X0.716700X0.341700X-0.716700X0.341700X0*%
%ADD41RoundRect,0.100500X-0.986500X-0.301500X0.986500X-0.301500X0.986500X0.301500X-0.986500X0.301500X0*%
%ADD42RoundRect,0.250000X0.350000X0.450000X-0.350000X0.450000X-0.350000X-0.450000X0.350000X-0.450000X0*%
%ADD43R,2.616200X1.955800*%
%ADD44R,2.209800X1.524000*%
%ADD45R,2.489200X0.762000*%
%ADD46R,5.918200X5.511800*%
G04 APERTURE END LIST*
D10*
X56625000Y-90800000D02*
X55375000Y-90800000D01*
X55375000Y-90100000D01*
X56625000Y-90100000D01*
X56625000Y-90800000D01*
G36*
X56625000Y-90800000D02*
G01*
X55375000Y-90800000D01*
X55375000Y-90100000D01*
X56625000Y-90100000D01*
X56625000Y-90800000D01*
G37*
X56625000Y-90000000D02*
X55375000Y-90000000D01*
X55375000Y-89300000D01*
X56625000Y-89300000D01*
X56625000Y-90000000D01*
G36*
X56625000Y-90000000D02*
G01*
X55375000Y-90000000D01*
X55375000Y-89300000D01*
X56625000Y-89300000D01*
X56625000Y-90000000D01*
G37*
X56625000Y-89200000D02*
X55375000Y-89200000D01*
X55375000Y-88800000D01*
X56625000Y-88800000D01*
X56625000Y-89200000D01*
G36*
X56625000Y-89200000D02*
G01*
X55375000Y-89200000D01*
X55375000Y-88800000D01*
X56625000Y-88800000D01*
X56625000Y-89200000D01*
G37*
X56625000Y-88700000D02*
X55375000Y-88700000D01*
X55375000Y-88300000D01*
X56625000Y-88300000D01*
X56625000Y-88700000D01*
G36*
X56625000Y-88700000D02*
G01*
X55375000Y-88700000D01*
X55375000Y-88300000D01*
X56625000Y-88300000D01*
X56625000Y-88700000D01*
G37*
X56625000Y-88200000D02*
X55375000Y-88200000D01*
X55375000Y-87800000D01*
X56625000Y-87800000D01*
X56625000Y-88200000D01*
G36*
X56625000Y-88200000D02*
G01*
X55375000Y-88200000D01*
X55375000Y-87800000D01*
X56625000Y-87800000D01*
X56625000Y-88200000D01*
G37*
X56625000Y-87700000D02*
X55375000Y-87700000D01*
X55375000Y-87300000D01*
X56625000Y-87300000D01*
X56625000Y-87700000D01*
G36*
X56625000Y-87700000D02*
G01*
X55375000Y-87700000D01*
X55375000Y-87300000D01*
X56625000Y-87300000D01*
X56625000Y-87700000D01*
G37*
X56625000Y-87200000D02*
X55375000Y-87200000D01*
X55375000Y-86800000D01*
X56625000Y-86800000D01*
X56625000Y-87200000D01*
G36*
X56625000Y-87200000D02*
G01*
X55375000Y-87200000D01*
X55375000Y-86800000D01*
X56625000Y-86800000D01*
X56625000Y-87200000D01*
G37*
X56625000Y-86700000D02*
X55375000Y-86700000D01*
X55375000Y-86300000D01*
X56625000Y-86300000D01*
X56625000Y-86700000D01*
G36*
X56625000Y-86700000D02*
G01*
X55375000Y-86700000D01*
X55375000Y-86300000D01*
X56625000Y-86300000D01*
X56625000Y-86700000D01*
G37*
X56625000Y-86200000D02*
X55375000Y-86200000D01*
X55375000Y-85800000D01*
X56625000Y-85800000D01*
X56625000Y-86200000D01*
G36*
X56625000Y-86200000D02*
G01*
X55375000Y-86200000D01*
X55375000Y-85800000D01*
X56625000Y-85800000D01*
X56625000Y-86200000D01*
G37*
X56625000Y-85700000D02*
X55375000Y-85700000D01*
X55375000Y-85300000D01*
X56625000Y-85300000D01*
X56625000Y-85700000D01*
G36*
X56625000Y-85700000D02*
G01*
X55375000Y-85700000D01*
X55375000Y-85300000D01*
X56625000Y-85300000D01*
X56625000Y-85700000D01*
G37*
X56625000Y-85200000D02*
X55375000Y-85200000D01*
X55375000Y-84500000D01*
X56625000Y-84500000D01*
X56625000Y-85200000D01*
G36*
X56625000Y-85200000D02*
G01*
X55375000Y-85200000D01*
X55375000Y-84500000D01*
X56625000Y-84500000D01*
X56625000Y-85200000D01*
G37*
X56625000Y-84400000D02*
X55375000Y-84400000D01*
X55375000Y-83700000D01*
X56625000Y-83700000D01*
X56625000Y-84400000D01*
G36*
X56625000Y-84400000D02*
G01*
X55375000Y-84400000D01*
X55375000Y-83700000D01*
X56625000Y-83700000D01*
X56625000Y-84400000D01*
G37*
D11*
X114500000Y-146196600D03*
X114500000Y-149803400D03*
D12*
X71629200Y-133549999D03*
X71629200Y-134500000D03*
X71629200Y-135450001D03*
X74537500Y-135450001D03*
X74537500Y-134500000D03*
X74537500Y-133549999D03*
D13*
X71537500Y-146950000D03*
X71537500Y-141050000D03*
D14*
X65295700Y-137500000D03*
X69537500Y-137500000D03*
D15*
X62500000Y-91515300D03*
D16*
X62500000Y-89750000D03*
D11*
X114500000Y-134606800D03*
X114500000Y-131000000D03*
X115000000Y-114000000D03*
X115000000Y-117606800D03*
X115000000Y-105500000D03*
X115000000Y-109106800D03*
D17*
X81000000Y-105000000D03*
X81000000Y-108708400D03*
X81000000Y-113500000D03*
X81000000Y-117208400D03*
X74000000Y-105000000D03*
X74000000Y-108708400D03*
X74000000Y-113500000D03*
X74000000Y-117208400D03*
D11*
X136968000Y-94556801D03*
X136968000Y-90950001D03*
X136460000Y-81460000D03*
X136460000Y-77853200D03*
D18*
X91524783Y-54042137D03*
X91524783Y-56117137D03*
D19*
X94000000Y-56075000D03*
X94000000Y-54000000D03*
D20*
X74037500Y-138000000D03*
X71962500Y-138000000D03*
D21*
X115000000Y-92460000D03*
X115000000Y-95000000D03*
X112460000Y-92460000D03*
X112460000Y-95000000D03*
X109920000Y-92460000D03*
D22*
X109920000Y-95000000D03*
D18*
X135943100Y-103000000D03*
X135943100Y-100925000D03*
D23*
X133000000Y-68075000D03*
X133000000Y-66075000D03*
D24*
X142500000Y-64500000D03*
D25*
X142500000Y-67040000D03*
D26*
X128376050Y-69500000D03*
X130451050Y-69500000D03*
D27*
X125876050Y-66000000D03*
X123876050Y-66000000D03*
D28*
X128252100Y-67149999D03*
X128252100Y-65850001D03*
X130500000Y-65850001D03*
X130500000Y-66500000D03*
X130500000Y-67149999D03*
D18*
X121376050Y-66000000D03*
X121376050Y-63925000D03*
D27*
X130376050Y-63500000D03*
X128376050Y-63500000D03*
D18*
X136500000Y-68075000D03*
X136500000Y-66000000D03*
D29*
X115500000Y-78050004D03*
X115500000Y-76050004D03*
X128500000Y-74000000D03*
X128500000Y-76000000D03*
D24*
X142500000Y-75000000D03*
D25*
X142500000Y-77540000D03*
D23*
X130960000Y-76000000D03*
X130960000Y-74000000D03*
D30*
X136492000Y-75049999D03*
X134460000Y-76000000D03*
X134460000Y-74099998D03*
D24*
X55540000Y-59265000D03*
D31*
X55540000Y-56725000D03*
D29*
X100500000Y-75000000D03*
X100500000Y-77000000D03*
D32*
X117999998Y-84000000D03*
X122500000Y-84000000D03*
X117999998Y-76050004D03*
X122500000Y-76050004D03*
D33*
X106000000Y-62800000D03*
X106000000Y-61400000D03*
X105300000Y-63500000D03*
X105300000Y-62100000D03*
X105300000Y-60700000D03*
X104600000Y-62800000D03*
D34*
X104600000Y-62100000D03*
D33*
X104600000Y-61400000D03*
X103900000Y-63500000D03*
X103900000Y-62100000D03*
X103900000Y-60700000D03*
X103200000Y-62800000D03*
X103200000Y-61400000D03*
D35*
X114850000Y-54380000D03*
X114850000Y-55650000D03*
X114850000Y-56920000D03*
X114850000Y-58190000D03*
X114850000Y-59460000D03*
X114850000Y-60730000D03*
X114850000Y-62000000D03*
X114850000Y-63270000D03*
X114850000Y-64540000D03*
X114850000Y-65810000D03*
X114850000Y-67080000D03*
X114850000Y-68350000D03*
X114850000Y-69620000D03*
X114850000Y-70890000D03*
D36*
X113085000Y-72140000D03*
X111815000Y-72140000D03*
X110545000Y-72140000D03*
X109275000Y-72140000D03*
X108005000Y-72140000D03*
X106735000Y-72140000D03*
X105465000Y-72140000D03*
X104195000Y-72140000D03*
X102925000Y-72140000D03*
X101655000Y-72140000D03*
X100385000Y-72140000D03*
X99115000Y-72140000D03*
D35*
X97350000Y-70890000D03*
X97350000Y-69620000D03*
X97350000Y-68350000D03*
X97350000Y-67080000D03*
X97350000Y-65810000D03*
X97350000Y-64540000D03*
X97350000Y-63270000D03*
X97350000Y-62000000D03*
X97350000Y-60730000D03*
X97350000Y-59460000D03*
X97350000Y-58190000D03*
X97350000Y-56920000D03*
X97350000Y-55650000D03*
X97350000Y-54380000D03*
D37*
X72025002Y-56500000D03*
X72025002Y-61000002D03*
X79974998Y-56500000D03*
X79974998Y-61000002D03*
D23*
X88500000Y-58000000D03*
X88500000Y-56000000D03*
D26*
X83925000Y-54500000D03*
X86000000Y-54500000D03*
D19*
X86000000Y-58000000D03*
X86000000Y-60075000D03*
D38*
X54825000Y-92850000D03*
X54825000Y-81650000D03*
D39*
X50825000Y-92850000D03*
X50825000Y-81650000D03*
D18*
X90700000Y-126175000D03*
X90700000Y-128250000D03*
D29*
X77037500Y-130000000D03*
X77037500Y-128000000D03*
D18*
X81000000Y-129950000D03*
X81000000Y-127875000D03*
D19*
X74537500Y-130000000D03*
X74537500Y-127925000D03*
D27*
X76537500Y-138000000D03*
X78537500Y-138000000D03*
D40*
X85630000Y-126050000D03*
X85630000Y-127000000D03*
X85630000Y-127950000D03*
X88000000Y-127950000D03*
X88000000Y-126050000D03*
D26*
X66612500Y-147000000D03*
X64537500Y-147000000D03*
D29*
X77037500Y-134500000D03*
X77037500Y-132500000D03*
D19*
X69537500Y-134500000D03*
X69537500Y-132425000D03*
D31*
X55480000Y-134725000D03*
D24*
X55480000Y-137265000D03*
D41*
X103973100Y-102960000D03*
X103973100Y-104230000D03*
X103973100Y-105500000D03*
X103973100Y-106770000D03*
X108913100Y-106770000D03*
X108913100Y-105500000D03*
X108913100Y-104230000D03*
X108913100Y-102960000D03*
D19*
X92500000Y-111354200D03*
X92500000Y-113429200D03*
X66500000Y-114708400D03*
X66500000Y-116783400D03*
X70000000Y-114708400D03*
X70000000Y-116783400D03*
D42*
X92000000Y-105354200D03*
X90000000Y-105354200D03*
X88000000Y-105354200D03*
X86000000Y-105354200D03*
X92000000Y-101854200D03*
X90000000Y-101854200D03*
D22*
X96840000Y-83000000D03*
D21*
X99380000Y-83000000D03*
X101920000Y-83000000D03*
X104460000Y-83000000D03*
X107000000Y-83000000D03*
X109540000Y-83000000D03*
D22*
X76000000Y-68920000D03*
D21*
X76000000Y-71460000D03*
X76000000Y-74000000D03*
X76000000Y-76540000D03*
X76000000Y-79080000D03*
D22*
X120380000Y-55500000D03*
D21*
X122920000Y-55500000D03*
X125460000Y-55500000D03*
X128000000Y-55500000D03*
X130540000Y-55500000D03*
X133080000Y-55500000D03*
X135620000Y-55500000D03*
X138160000Y-55500000D03*
X140700000Y-55500000D03*
X143240000Y-55500000D03*
D29*
X118500000Y-135500000D03*
X118500000Y-133500000D03*
D42*
X88000000Y-101854200D03*
X86000000Y-101854200D03*
D18*
X135500000Y-142925000D03*
X135500000Y-145000000D03*
D29*
X119000000Y-120000000D03*
X119000000Y-118000000D03*
D26*
X124075000Y-149000000D03*
X122000000Y-149000000D03*
D19*
X63000000Y-118575000D03*
X63000000Y-116500000D03*
D42*
X88000000Y-96779200D03*
X86000000Y-96779200D03*
D23*
X95000000Y-130000000D03*
X95000000Y-132000000D03*
D43*
X53513600Y-114208400D03*
X53513600Y-117208400D03*
X59000000Y-117208400D03*
X59000000Y-114208400D03*
D18*
X65480000Y-61725000D03*
X65480000Y-63800000D03*
D19*
X119000000Y-104500000D03*
X119000000Y-102425000D03*
D29*
X119000000Y-109000000D03*
X119000000Y-107000000D03*
X66000000Y-92000000D03*
X66000000Y-90000000D03*
D23*
X98500000Y-130000000D03*
X98500000Y-132000000D03*
D18*
X135500000Y-128425000D03*
X135500000Y-130500000D03*
D25*
X142488000Y-90000001D03*
D24*
X142488000Y-87460001D03*
D19*
X119000000Y-116000000D03*
X119000000Y-113925000D03*
D44*
X68500000Y-105138400D03*
X68500000Y-109208400D03*
D25*
X142500000Y-136540000D03*
D24*
X142500000Y-134000000D03*
D29*
X62980000Y-63725000D03*
X62980000Y-61725000D03*
D27*
X143000000Y-98500000D03*
X145000000Y-98500000D03*
D42*
X89000000Y-113854200D03*
X87000000Y-113854200D03*
D25*
X142500000Y-107540000D03*
D24*
X142500000Y-105000000D03*
D29*
X118500000Y-149500000D03*
X118500000Y-147500000D03*
D20*
X142925000Y-102000000D03*
X145000000Y-102000000D03*
D27*
X59000000Y-84000000D03*
X61000000Y-84000000D03*
D45*
X122914699Y-98460000D03*
X122914699Y-99730000D03*
X122914699Y-102270000D03*
X122914699Y-103540000D03*
D46*
X129500000Y-101000000D03*
D18*
X143943100Y-112000000D03*
X143943100Y-114075000D03*
D31*
X55236800Y-106208400D03*
D24*
X55236800Y-108748400D03*
D19*
X118500000Y-131075000D03*
X118500000Y-129000000D03*
D18*
X65500000Y-54845000D03*
X65500000Y-56920000D03*
D23*
X100443100Y-104000000D03*
X100443100Y-106000000D03*
D26*
X124075000Y-134500000D03*
X122000000Y-134500000D03*
D19*
X92000000Y-98854200D03*
X92000000Y-96779200D03*
D26*
X140575000Y-102000000D03*
X138500000Y-102000000D03*
D45*
X122857799Y-110960000D03*
X122857799Y-112230000D03*
X122857799Y-114770000D03*
X122857799Y-116040000D03*
D46*
X129443100Y-113500000D03*
D19*
X111000000Y-131075000D03*
X111000000Y-129000000D03*
D42*
X129488000Y-86460001D03*
X127488000Y-86460001D03*
D19*
X118500000Y-145075000D03*
X118500000Y-143000000D03*
X112500000Y-105575000D03*
X112500000Y-103500000D03*
D29*
X63000000Y-56920000D03*
X63000000Y-54920000D03*
D30*
X134968000Y-86549999D03*
X134968000Y-88450001D03*
X137000000Y-87500000D03*
D31*
X55520000Y-63725000D03*
D24*
X55520000Y-66265000D03*
D26*
X125018100Y-106500000D03*
X122943100Y-106500000D03*
D23*
X131988000Y-86460001D03*
X131988000Y-88460001D03*
D41*
X102060000Y-126230000D03*
X102060000Y-127500000D03*
X102060000Y-128770000D03*
X102060000Y-130040000D03*
X107000000Y-130040000D03*
X107000000Y-128770000D03*
X107000000Y-127500000D03*
X107000000Y-126230000D03*
D45*
X122414699Y-140460000D03*
X122414699Y-141730000D03*
X122414699Y-144270000D03*
X122414699Y-145540000D03*
D46*
X129000000Y-143000000D03*
D26*
X124575000Y-118990000D03*
X122500000Y-118990000D03*
X140075000Y-128500000D03*
X138000000Y-128500000D03*
D20*
X142425000Y-128500000D03*
X144500000Y-128500000D03*
D23*
X59000000Y-91250000D03*
X59000000Y-93250000D03*
D42*
X89000000Y-110354200D03*
X87000000Y-110354200D03*
D27*
X142500000Y-125000000D03*
X144500000Y-125000000D03*
D23*
X96943100Y-104000000D03*
X96943100Y-106000000D03*
D45*
X122414699Y-125960000D03*
X122414699Y-127230000D03*
X122414699Y-129770000D03*
X122414699Y-131040000D03*
D46*
X129000000Y-128500000D03*
M02*
