G04 #@! TF.GenerationSoftware,KiCad,Pcbnew,9.0.5*
G04 #@! TF.CreationDate,2025-12-03T21:15:56-08:00*
G04 #@! TF.ProjectId,MusicalTeslaCoil,4d757369-6361-46c5-9465-736c61436f69,REV2*
G04 #@! TF.SameCoordinates,Original*
G04 #@! TF.FileFunction,Copper,L1,Top*
G04 #@! TF.FilePolarity,Positive*
%FSLAX46Y46*%
G04 Gerber Fmt 4.6, Leading zero omitted, Abs format (unit mm)*
G04 Created by KiCad (PCBNEW 9.0.5) date 2025-12-03 21:15:56*
%MOMM*%
%LPD*%
G01*
G04 APERTURE LIST*
G04 Aperture macros list*
%AMRoundRect*
0 Rectangle with rounded corners*
0 $1 Rounding radius*
0 $2 $3 $4 $5 $6 $7 $8 $9 X,Y pos of 4 corners*
0 Add a 4 corners polygon primitive as box body*
4,1,4,$2,$3,$4,$5,$6,$7,$8,$9,$2,$3,0*
0 Add four circle primitives for the rounded corners*
1,1,$1+$1,$2,$3*
1,1,$1+$1,$4,$5*
1,1,$1+$1,$6,$7*
1,1,$1+$1,$8,$9*
0 Add four rect primitives between the rounded corners*
20,1,$1+$1,$2,$3,$4,$5,0*
20,1,$1+$1,$4,$5,$6,$7,0*
20,1,$1+$1,$6,$7,$8,$9,0*
20,1,$1+$1,$8,$9,$2,$3,0*%
G04 Aperture macros list end*
G04 #@! TA.AperFunction,SMDPad,CuDef*
%ADD10R,1.193800X1.193800*%
G04 #@! TD*
G04 #@! TA.AperFunction,SMDPad,CuDef*
%ADD11R,2.616200X1.955800*%
G04 #@! TD*
G04 #@! TA.AperFunction,SMDPad,CuDef*
%ADD12R,1.500000X0.900000*%
G04 #@! TD*
G04 #@! TA.AperFunction,SMDPad,CuDef*
%ADD13R,0.900000X1.500000*%
G04 #@! TD*
G04 #@! TA.AperFunction,HeatsinkPad*
%ADD14C,0.600000*%
G04 #@! TD*
G04 #@! TA.AperFunction,HeatsinkPad*
%ADD15R,3.900000X3.900000*%
G04 #@! TD*
G04 #@! TA.AperFunction,ComponentPad*
%ADD16RoundRect,0.250000X0.620000X0.845000X-0.620000X0.845000X-0.620000X-0.845000X0.620000X-0.845000X0*%
G04 #@! TD*
G04 #@! TA.AperFunction,ComponentPad*
%ADD17O,1.740000X2.190000*%
G04 #@! TD*
G04 #@! TA.AperFunction,SMDPad,CuDef*
%ADD18R,0.762000X0.863600*%
G04 #@! TD*
G04 #@! TA.AperFunction,SMDPad,CuDef*
%ADD19R,0.889000X1.397000*%
G04 #@! TD*
G04 #@! TA.AperFunction,SMDPad,CuDef*
%ADD20RoundRect,0.250000X-0.450000X0.350000X-0.450000X-0.350000X0.450000X-0.350000X0.450000X0.350000X0*%
G04 #@! TD*
G04 #@! TA.AperFunction,SMDPad,CuDef*
%ADD21R,1.150000X0.600000*%
G04 #@! TD*
G04 #@! TA.AperFunction,SMDPad,CuDef*
%ADD22R,1.150000X0.300000*%
G04 #@! TD*
G04 #@! TA.AperFunction,ComponentPad*
%ADD23O,1.800000X1.000000*%
G04 #@! TD*
G04 #@! TA.AperFunction,ComponentPad*
%ADD24O,2.200000X1.000000*%
G04 #@! TD*
G04 #@! TA.AperFunction,SMDPad,CuDef*
%ADD25R,0.952500X0.558800*%
G04 #@! TD*
G04 #@! TA.AperFunction,SMDPad,CuDef*
%ADD26RoundRect,0.250000X-0.350000X-0.450000X0.350000X-0.450000X0.350000X0.450000X-0.350000X0.450000X0*%
G04 #@! TD*
G04 #@! TA.AperFunction,SMDPad,CuDef*
%ADD27RoundRect,0.250000X0.450000X-0.350000X0.450000X0.350000X-0.450000X0.350000X-0.450000X-0.350000X0*%
G04 #@! TD*
G04 #@! TA.AperFunction,SMDPad,CuDef*
%ADD28RoundRect,0.250000X-0.475000X0.337500X-0.475000X-0.337500X0.475000X-0.337500X0.475000X0.337500X0*%
G04 #@! TD*
G04 #@! TA.AperFunction,SMDPad,CuDef*
%ADD29RoundRect,0.150000X-0.587500X-0.150000X0.587500X-0.150000X0.587500X0.150000X-0.587500X0.150000X0*%
G04 #@! TD*
G04 #@! TA.AperFunction,SMDPad,CuDef*
%ADD30RoundRect,0.250000X0.350000X0.450000X-0.350000X0.450000X-0.350000X-0.450000X0.350000X-0.450000X0*%
G04 #@! TD*
G04 #@! TA.AperFunction,SMDPad,CuDef*
%ADD31R,1.244600X0.965200*%
G04 #@! TD*
G04 #@! TA.AperFunction,SMDPad,CuDef*
%ADD32R,2.489200X0.762000*%
G04 #@! TD*
G04 #@! TA.AperFunction,SMDPad,CuDef*
%ADD33R,5.918200X5.511800*%
G04 #@! TD*
G04 #@! TA.AperFunction,ComponentPad*
%ADD34RoundRect,0.250000X0.845000X-0.620000X0.845000X0.620000X-0.845000X0.620000X-0.845000X-0.620000X0*%
G04 #@! TD*
G04 #@! TA.AperFunction,ComponentPad*
%ADD35O,2.190000X1.740000*%
G04 #@! TD*
G04 #@! TA.AperFunction,SMDPad,CuDef*
%ADD36RoundRect,0.250000X0.337500X0.475000X-0.337500X0.475000X-0.337500X-0.475000X0.337500X-0.475000X0*%
G04 #@! TD*
G04 #@! TA.AperFunction,SMDPad,CuDef*
%ADD37RoundRect,0.075000X-0.625000X-0.075000X0.625000X-0.075000X0.625000X0.075000X-0.625000X0.075000X0*%
G04 #@! TD*
G04 #@! TA.AperFunction,SMDPad,CuDef*
%ADD38RoundRect,0.250000X0.475000X-0.337500X0.475000X0.337500X-0.475000X0.337500X-0.475000X-0.337500X0*%
G04 #@! TD*
G04 #@! TA.AperFunction,SMDPad,CuDef*
%ADD39R,5.100000X1.900000*%
G04 #@! TD*
G04 #@! TA.AperFunction,SMDPad,CuDef*
%ADD40R,2.184400X2.184400*%
G04 #@! TD*
G04 #@! TA.AperFunction,SMDPad,CuDef*
%ADD41R,0.787400X0.304800*%
G04 #@! TD*
G04 #@! TA.AperFunction,SMDPad,CuDef*
%ADD42RoundRect,0.250000X-0.337500X-0.475000X0.337500X-0.475000X0.337500X0.475000X-0.337500X0.475000X0*%
G04 #@! TD*
G04 #@! TA.AperFunction,SMDPad,CuDef*
%ADD43R,1.400048X1.549908*%
G04 #@! TD*
G04 #@! TA.AperFunction,ComponentPad*
%ADD44R,1.700000X1.700000*%
G04 #@! TD*
G04 #@! TA.AperFunction,ComponentPad*
%ADD45C,1.700000*%
G04 #@! TD*
G04 #@! TA.AperFunction,SMDPad,CuDef*
%ADD46R,1.780000X3.500000*%
G04 #@! TD*
G04 #@! TA.AperFunction,SMDPad,CuDef*
%ADD47R,0.457200X1.168400*%
G04 #@! TD*
G04 #@! TA.AperFunction,ComponentPad*
%ADD48RoundRect,0.250000X-0.845000X0.620000X-0.845000X-0.620000X0.845000X-0.620000X0.845000X0.620000X0*%
G04 #@! TD*
G04 #@! TA.AperFunction,SMDPad,CuDef*
%ADD49RoundRect,0.225000X-0.225000X-0.375000X0.225000X-0.375000X0.225000X0.375000X-0.225000X0.375000X0*%
G04 #@! TD*
G04 #@! TA.AperFunction,SMDPad,CuDef*
%ADD50RoundRect,0.150000X-0.150000X0.512500X-0.150000X-0.512500X0.150000X-0.512500X0.150000X0.512500X0*%
G04 #@! TD*
G04 #@! TA.AperFunction,SMDPad,CuDef*
%ADD51R,1.981200X0.558800*%
G04 #@! TD*
G04 #@! TA.AperFunction,SMDPad,CuDef*
%ADD52R,2.209800X1.524000*%
G04 #@! TD*
G04 #@! TA.AperFunction,SMDPad,CuDef*
%ADD53R,0.990600X0.762000*%
G04 #@! TD*
G04 #@! TA.AperFunction,SMDPad,CuDef*
%ADD54RoundRect,0.150000X0.587500X0.150000X-0.587500X0.150000X-0.587500X-0.150000X0.587500X-0.150000X0*%
G04 #@! TD*
G04 #@! TA.AperFunction,SMDPad,CuDef*
%ADD55R,0.787400X0.406400*%
G04 #@! TD*
G04 #@! TA.AperFunction,SMDPad,CuDef*
%ADD56RoundRect,0.150000X0.512500X0.150000X-0.512500X0.150000X-0.512500X-0.150000X0.512500X-0.150000X0*%
G04 #@! TD*
G04 #@! TA.AperFunction,SMDPad,CuDef*
%ADD57R,1.003300X0.558800*%
G04 #@! TD*
G04 #@! TA.AperFunction,SMDPad,CuDef*
%ADD58R,1.549908X1.400048*%
G04 #@! TD*
G04 #@! TA.AperFunction,SMDPad,CuDef*
%ADD59R,1.244600X0.508000*%
G04 #@! TD*
G04 #@! TA.AperFunction,SMDPad,CuDef*
%ADD60R,1.244600X0.863600*%
G04 #@! TD*
G04 #@! TA.AperFunction,SMDPad,CuDef*
%ADD61RoundRect,0.075000X-0.910000X-0.225000X0.910000X-0.225000X0.910000X0.225000X-0.910000X0.225000X0*%
G04 #@! TD*
G04 #@! TA.AperFunction,ViaPad*
%ADD62C,0.600000*%
G04 #@! TD*
G04 #@! TA.AperFunction,Conductor*
%ADD63C,0.400000*%
G04 #@! TD*
G04 #@! TA.AperFunction,Conductor*
%ADD64C,0.150000*%
G04 #@! TD*
G04 #@! TA.AperFunction,Conductor*
%ADD65C,0.600000*%
G04 #@! TD*
G04 #@! TA.AperFunction,Conductor*
%ADD66C,0.200000*%
G04 #@! TD*
G04 #@! TA.AperFunction,Conductor*
%ADD67C,0.340000*%
G04 #@! TD*
G04 #@! TA.AperFunction,Conductor*
%ADD68C,0.300000*%
G04 #@! TD*
G04 #@! TA.AperFunction,Conductor*
%ADD69C,1.000000*%
G04 #@! TD*
G04 #@! TA.AperFunction,Conductor*
%ADD70C,0.800000*%
G04 #@! TD*
G04 APERTURE END LIST*
D10*
X76000000Y-80108200D03*
X76000000Y-78000000D03*
D11*
X53513600Y-110900000D03*
X53513600Y-113900000D03*
X59000000Y-113900000D03*
X59000000Y-110900000D03*
D12*
X97350000Y-54380000D03*
X97350000Y-55650000D03*
X97350000Y-56920000D03*
X97350000Y-58190000D03*
X97350000Y-59460000D03*
X97350000Y-60730000D03*
X97350000Y-62000000D03*
X97350000Y-63270000D03*
X97350000Y-64540000D03*
X97350000Y-65810000D03*
X97350000Y-67080000D03*
X97350000Y-68350000D03*
X97350000Y-69620000D03*
X97350000Y-70890000D03*
D13*
X99115000Y-72140000D03*
X100385000Y-72140000D03*
X101655000Y-72140000D03*
X102925000Y-72140000D03*
X104195000Y-72140000D03*
X105465000Y-72140000D03*
X106735000Y-72140000D03*
X108005000Y-72140000D03*
X109275000Y-72140000D03*
X110545000Y-72140000D03*
X111815000Y-72140000D03*
X113085000Y-72140000D03*
D12*
X114850000Y-70890000D03*
X114850000Y-69620000D03*
X114850000Y-68350000D03*
X114850000Y-67080000D03*
X114850000Y-65810000D03*
X114850000Y-64540000D03*
X114850000Y-63270000D03*
X114850000Y-62000000D03*
X114850000Y-60730000D03*
X114850000Y-59460000D03*
X114850000Y-58190000D03*
X114850000Y-56920000D03*
X114850000Y-55650000D03*
X114850000Y-54380000D03*
D14*
X103200000Y-61400000D03*
X103200000Y-62800000D03*
X103900000Y-60700000D03*
X103900000Y-62100000D03*
X103900000Y-63500000D03*
X104600000Y-61400000D03*
D15*
X104600000Y-62100000D03*
D14*
X104600000Y-62800000D03*
X105300000Y-60700000D03*
X105300000Y-62100000D03*
X105300000Y-63500000D03*
X106000000Y-61400000D03*
X106000000Y-62800000D03*
D16*
X94400000Y-77600000D03*
D17*
X91860000Y-77600000D03*
X89320000Y-77600000D03*
D18*
X60600000Y-87834700D03*
D19*
X60600000Y-89600000D03*
D20*
X63000000Y-84200000D03*
X63000000Y-82200000D03*
D21*
X55975000Y-82320000D03*
X55975000Y-83120000D03*
D22*
X55975000Y-84270000D03*
X55975000Y-85270000D03*
X55975000Y-85770000D03*
X55975000Y-86770000D03*
D21*
X55975000Y-88720000D03*
X55975000Y-87920000D03*
D22*
X55975000Y-87270000D03*
X55975000Y-86270000D03*
X55975000Y-84770000D03*
X55975000Y-83770000D03*
D23*
X55400000Y-81200000D03*
X55400000Y-89840000D03*
D24*
X51400000Y-81200000D03*
X51400000Y-89840000D03*
D20*
X96900000Y-108800000D03*
X96900000Y-106800000D03*
D25*
X120447300Y-88549999D03*
X120447300Y-89500000D03*
X120447300Y-90450001D03*
X123000000Y-90450001D03*
X123000000Y-89500000D03*
X123000000Y-88549999D03*
D26*
X75600000Y-124200000D03*
X77600000Y-124200000D03*
D27*
X118500000Y-135500000D03*
X118500000Y-133500000D03*
D28*
X68400000Y-127525000D03*
X68400000Y-129600000D03*
X93358200Y-97574999D03*
X93358200Y-99649999D03*
D29*
X135062500Y-74050000D03*
X135062500Y-75950000D03*
X136937500Y-75000000D03*
D30*
X132500000Y-74000000D03*
X130500000Y-74000000D03*
X98500000Y-85000000D03*
X96500000Y-85000000D03*
X98500000Y-92000000D03*
X96500000Y-92000000D03*
X69500000Y-93000000D03*
X67500000Y-93000000D03*
D28*
X91524783Y-54042137D03*
X91524783Y-56117137D03*
D31*
X136460000Y-81460000D03*
X136460000Y-77853200D03*
D28*
X135500000Y-142925000D03*
X135500000Y-145000000D03*
D32*
X122414699Y-125960000D03*
X122414699Y-127230000D03*
X122414699Y-129770000D03*
X122414699Y-131040000D03*
D33*
X129000000Y-128500000D03*
D19*
X93500000Y-104234700D03*
D18*
X93500000Y-106000000D03*
D20*
X133200000Y-66000000D03*
X133200000Y-68000000D03*
D34*
X142500000Y-67040000D03*
D35*
X142500000Y-64500000D03*
D27*
X119000000Y-120000000D03*
X119000000Y-118000000D03*
D20*
X80400000Y-89200000D03*
X80400000Y-91200000D03*
D36*
X124075000Y-149000000D03*
X122000000Y-149000000D03*
X91500000Y-103500000D03*
X89425000Y-103500000D03*
D37*
X87500000Y-89300000D03*
X87500000Y-89800000D03*
X87500000Y-90300000D03*
X87500000Y-90800000D03*
X87500000Y-91300000D03*
X91900000Y-91300000D03*
X91900000Y-90800000D03*
X91900000Y-90300000D03*
X91900000Y-89800000D03*
X91900000Y-89300000D03*
D27*
X100500000Y-77000000D03*
X100500000Y-75000000D03*
D34*
X142500000Y-77540000D03*
D35*
X142500000Y-75000000D03*
D38*
X63000000Y-115266600D03*
X63000000Y-113191600D03*
D39*
X74200000Y-132200000D03*
X74200000Y-128000000D03*
D27*
X85000000Y-75500000D03*
X85000000Y-73500000D03*
D40*
X81000000Y-110191600D03*
X81000000Y-113900000D03*
D28*
X94550000Y-141562500D03*
X94550000Y-143637500D03*
D40*
X74000000Y-101691600D03*
X74000000Y-105400000D03*
D26*
X85550000Y-147637500D03*
X87550000Y-147637500D03*
D30*
X69375000Y-89325000D03*
X67375000Y-89325000D03*
X69500000Y-96500000D03*
X67500000Y-96500000D03*
D41*
X89366400Y-100000000D03*
X89366400Y-100649999D03*
X89366400Y-101299998D03*
X91500000Y-101299998D03*
X91500000Y-100000000D03*
D20*
X95000000Y-130000000D03*
X95000000Y-132000000D03*
D42*
X100925000Y-92000000D03*
X103000000Y-92000000D03*
D20*
X51300000Y-128100000D03*
X51300000Y-130100000D03*
D42*
X100925000Y-88500000D03*
X103000000Y-88500000D03*
D10*
X58108200Y-121000000D03*
X56000000Y-121000000D03*
D43*
X122500000Y-76050004D03*
X117999998Y-76050004D03*
X122500000Y-84000000D03*
X117999998Y-84000000D03*
D38*
X119000000Y-104500000D03*
X119000000Y-102425000D03*
D44*
X121880000Y-55500000D03*
D45*
X124420000Y-55500000D03*
X126960000Y-55500000D03*
X129500000Y-55500000D03*
X132040000Y-55500000D03*
X134580000Y-55500000D03*
X137120000Y-55500000D03*
D20*
X130500000Y-76500000D03*
X130500000Y-78500000D03*
D27*
X119000000Y-109000000D03*
X119000000Y-107000000D03*
D42*
X124532000Y-69700002D03*
X126607000Y-69700002D03*
D38*
X79000000Y-144075000D03*
X79000000Y-142000000D03*
D20*
X51300000Y-124100000D03*
X51300000Y-126100000D03*
D36*
X92125000Y-135637500D03*
X90050000Y-135637500D03*
D31*
X136968000Y-94556801D03*
X136968000Y-90950001D03*
D46*
X68230000Y-144200000D03*
X63000000Y-144200000D03*
D16*
X89600000Y-118400000D03*
D17*
X87060000Y-118400000D03*
D27*
X83000000Y-140000000D03*
X83000000Y-138000000D03*
D30*
X98500000Y-95500000D03*
X96500000Y-95500000D03*
D20*
X98500000Y-130000000D03*
X98500000Y-132000000D03*
D28*
X135500000Y-128425000D03*
X135500000Y-130500000D03*
D27*
X79000000Y-140000000D03*
X79000000Y-138000000D03*
D16*
X111000000Y-118400000D03*
D17*
X108460000Y-118400000D03*
D47*
X115400000Y-109130300D03*
X115400000Y-106869700D03*
D48*
X55180000Y-65325000D03*
D35*
X55180000Y-67865000D03*
D42*
X119872300Y-92950001D03*
X121947300Y-92950001D03*
D49*
X63000000Y-149300000D03*
X66300000Y-149300000D03*
D42*
X100925000Y-95500000D03*
X103000000Y-95500000D03*
D50*
X92000000Y-138500000D03*
X91050000Y-138500000D03*
X90100000Y-138500000D03*
X90100000Y-140775000D03*
X92000000Y-140775000D03*
D47*
X115400000Y-120130300D03*
X115400000Y-117869700D03*
D51*
X106500000Y-87420000D03*
X106500000Y-88690000D03*
X106500000Y-89960000D03*
X106500000Y-91230000D03*
X106500000Y-92500000D03*
X106500000Y-93770000D03*
X106500000Y-95040000D03*
X111224400Y-95040000D03*
X111224400Y-93770000D03*
X111224400Y-92500000D03*
X111224400Y-91230000D03*
X111224400Y-89960000D03*
X111224400Y-88690000D03*
X111224400Y-87420000D03*
D40*
X81000000Y-101691600D03*
X81000000Y-105400000D03*
D34*
X142488000Y-90000001D03*
D35*
X142488000Y-87460001D03*
D38*
X119000000Y-116000000D03*
X119000000Y-113925000D03*
D20*
X77900000Y-93200000D03*
X77900000Y-95200000D03*
D38*
X62800000Y-130475000D03*
X62800000Y-128400000D03*
D52*
X68500000Y-101830000D03*
X68500000Y-105900000D03*
D28*
X84900000Y-85225000D03*
X84900000Y-87300000D03*
D26*
X128500000Y-63500000D03*
X130500000Y-63500000D03*
D34*
X142500000Y-136540000D03*
D35*
X142500000Y-134000000D03*
D26*
X90050000Y-147637500D03*
X92050000Y-147637500D03*
D30*
X53500000Y-121000000D03*
X51500000Y-121000000D03*
D27*
X117500000Y-90500000D03*
X117500000Y-88500000D03*
D26*
X61000000Y-72000000D03*
X63000000Y-72000000D03*
D53*
X71500000Y-79854200D03*
X71500000Y-78000000D03*
D26*
X143000000Y-98500000D03*
X145000000Y-98500000D03*
D30*
X89000000Y-110400000D03*
X87000000Y-110400000D03*
D38*
X114500000Y-90575000D03*
X114500000Y-88500000D03*
D26*
X53600000Y-91800000D03*
X55600000Y-91800000D03*
D27*
X63000000Y-89800000D03*
X63000000Y-87800000D03*
D19*
X87000000Y-104000000D03*
D18*
X87000000Y-102234700D03*
D41*
X82833200Y-89550001D03*
X82833200Y-90200000D03*
X82833200Y-90849999D03*
X84966800Y-90849999D03*
X84966800Y-89550001D03*
D38*
X117500000Y-95075000D03*
X117500000Y-93000000D03*
D30*
X98500000Y-88500000D03*
X96500000Y-88500000D03*
D54*
X60475000Y-150950000D03*
X60475000Y-149050000D03*
X58600000Y-150000000D03*
D34*
X142500000Y-107540000D03*
D35*
X142500000Y-105000000D03*
D27*
X118500000Y-149500000D03*
X118500000Y-147500000D03*
D42*
X142925000Y-102000000D03*
X145000000Y-102000000D03*
D55*
X130532000Y-69500000D03*
X130532000Y-68850001D03*
X130532000Y-68200002D03*
X128500000Y-68200002D03*
X128500000Y-69500000D03*
D30*
X73500000Y-96500000D03*
X71500000Y-96500000D03*
D56*
X59975000Y-130200000D03*
X59975000Y-129250000D03*
X59975000Y-128300000D03*
X57700000Y-128300000D03*
X57700000Y-130200000D03*
D27*
X115500000Y-78050004D03*
X115500000Y-76050004D03*
D30*
X73500000Y-93000000D03*
X71500000Y-93000000D03*
D28*
X87400000Y-85225000D03*
X87400000Y-87300000D03*
D32*
X122914699Y-98460000D03*
X122914699Y-99730000D03*
X122914699Y-102270000D03*
X122914699Y-103540000D03*
D33*
X129500000Y-101000000D03*
D28*
X66000000Y-127525000D03*
X66000000Y-129600000D03*
X143943100Y-112000000D03*
X143943100Y-114075000D03*
D30*
X70650000Y-149300000D03*
X68650000Y-149300000D03*
D57*
X72694900Y-137749999D03*
X72694900Y-138700000D03*
X72694900Y-139650001D03*
X75400000Y-139650001D03*
X75400000Y-138700000D03*
X75400000Y-137749999D03*
D38*
X94000000Y-56075000D03*
X94000000Y-54000000D03*
D48*
X55236800Y-102900000D03*
D35*
X55236800Y-105440000D03*
D38*
X118500000Y-131075000D03*
X118500000Y-129000000D03*
D16*
X96600000Y-118400000D03*
D17*
X94060000Y-118400000D03*
D16*
X103800000Y-118400000D03*
D17*
X101260000Y-118400000D03*
D28*
X135943100Y-100925000D03*
X135943100Y-103000000D03*
D29*
X79525000Y-126050000D03*
X79525000Y-127950000D03*
X81400000Y-127000000D03*
D27*
X71500000Y-75500000D03*
X71500000Y-73500000D03*
D20*
X100400000Y-106800000D03*
X100400000Y-108800000D03*
D27*
X80500000Y-75500000D03*
X80500000Y-73500000D03*
D47*
X114500000Y-133933700D03*
X114500000Y-131673100D03*
D36*
X124075000Y-134500000D03*
X122000000Y-134500000D03*
D58*
X79974998Y-61000002D03*
X79974998Y-56500000D03*
X72025002Y-61000002D03*
X72025002Y-56500000D03*
D36*
X73775000Y-89345800D03*
X71700000Y-89345800D03*
D28*
X111500000Y-83425000D03*
X111500000Y-85500000D03*
D27*
X76000000Y-75500000D03*
X76000000Y-73500000D03*
D42*
X90050000Y-143637500D03*
X92125000Y-143637500D03*
D59*
X85000000Y-79749300D03*
X85000000Y-78250700D03*
D44*
X83580000Y-66500000D03*
D45*
X81040000Y-66500000D03*
X78500000Y-66500000D03*
X75960000Y-66500000D03*
X73420000Y-66500000D03*
D36*
X140575000Y-102000000D03*
X138500000Y-102000000D03*
D32*
X122857799Y-110960000D03*
X122857799Y-112230000D03*
X122857799Y-114770000D03*
X122857799Y-116040000D03*
D33*
X129443100Y-113500000D03*
D38*
X70400000Y-139700000D03*
X70400000Y-137625000D03*
D60*
X80500000Y-79854200D03*
X80500000Y-78000000D03*
D26*
X128376050Y-66000000D03*
X130376050Y-66000000D03*
D20*
X88500000Y-56000000D03*
X88500000Y-58000000D03*
D38*
X110600000Y-131000000D03*
X110600000Y-128925000D03*
D30*
X132500000Y-86500000D03*
X130500000Y-86500000D03*
D47*
X114500000Y-149130300D03*
X114500000Y-146869700D03*
D38*
X118500000Y-145075000D03*
X118500000Y-143000000D03*
X111800000Y-107475000D03*
X111800000Y-105400000D03*
D26*
X61000000Y-65000000D03*
X63000000Y-65000000D03*
D28*
X77900000Y-89200000D03*
X77900000Y-91275000D03*
X136500000Y-66000000D03*
X136500000Y-68075000D03*
D48*
X55160000Y-72325000D03*
D35*
X55160000Y-74865000D03*
D40*
X74000000Y-110191600D03*
X74000000Y-113900000D03*
D36*
X86000000Y-54500000D03*
X83925000Y-54500000D03*
D42*
X100925000Y-85000000D03*
X103000000Y-85000000D03*
D36*
X125018100Y-106500000D03*
X122943100Y-106500000D03*
D20*
X130500000Y-89000000D03*
X130500000Y-91000000D03*
D27*
X83000000Y-144000000D03*
X83000000Y-142000000D03*
D28*
X54900000Y-128025000D03*
X54900000Y-130100000D03*
D48*
X55500000Y-136500000D03*
D35*
X55500000Y-139040000D03*
D61*
X102060000Y-126230000D03*
X102060000Y-127500000D03*
X102060000Y-128770000D03*
X102060000Y-130040000D03*
X107000000Y-130040000D03*
X107000000Y-128770000D03*
X107000000Y-127500000D03*
X107000000Y-126230000D03*
D32*
X122414699Y-140460000D03*
X122414699Y-141730000D03*
X122414699Y-144270000D03*
X122414699Y-145540000D03*
D33*
X129000000Y-143000000D03*
D36*
X124575000Y-118990000D03*
X122500000Y-118990000D03*
D38*
X66500000Y-113475000D03*
X66500000Y-111400000D03*
D36*
X140075000Y-128500000D03*
X138000000Y-128500000D03*
D38*
X86000000Y-60075000D03*
X86000000Y-58000000D03*
D42*
X142425000Y-128500000D03*
X144500000Y-128500000D03*
D29*
X135000000Y-86500000D03*
X135000000Y-88400000D03*
X136875000Y-87450000D03*
D38*
X70000000Y-113475000D03*
X70000000Y-111400000D03*
D61*
X103973100Y-102960000D03*
X103973100Y-104230000D03*
X103973100Y-105500000D03*
X103973100Y-106770000D03*
X108913100Y-106770000D03*
X108913100Y-105500000D03*
X108913100Y-104230000D03*
X108913100Y-102960000D03*
D30*
X89000000Y-107045800D03*
X87000000Y-107045800D03*
D26*
X142500000Y-125000000D03*
X144500000Y-125000000D03*
D62*
X63000000Y-66400000D03*
X63000000Y-73600000D03*
X84000000Y-106400000D03*
X84000000Y-108799400D03*
X57400000Y-82300000D03*
X104299000Y-76600000D03*
X106300003Y-76600000D03*
X83500000Y-87300000D03*
X88900000Y-87300000D03*
X93358200Y-101158200D03*
X126600000Y-68000000D03*
X125200000Y-93000000D03*
X124400000Y-93000000D03*
X123600000Y-93000000D03*
X95799997Y-128600000D03*
X96600000Y-128600000D03*
X94550000Y-146400000D03*
X94550000Y-145600000D03*
X94550000Y-144800000D03*
X100400000Y-125000000D03*
X101200000Y-125000000D03*
X96900000Y-110300000D03*
X54900000Y-133000000D03*
X54900000Y-132200000D03*
X54900000Y-131400000D03*
X125600000Y-147400000D03*
X125600000Y-148200000D03*
X125600000Y-149000000D03*
X125600000Y-134600000D03*
X66000000Y-122400000D03*
X79600000Y-86400000D03*
X82600000Y-81400000D03*
X81800000Y-81400000D03*
X80400000Y-86400000D03*
X92599997Y-81200000D03*
X93400000Y-81200000D03*
X93400000Y-90000000D03*
X69200000Y-84600000D03*
X70200000Y-84000000D03*
X70200000Y-67400000D03*
X69200000Y-68600000D03*
X69800000Y-136200000D03*
X124500000Y-89500000D03*
X122500000Y-139000000D03*
X115000000Y-98400000D03*
X100500000Y-78500000D03*
X100000000Y-90500000D03*
X63000000Y-80800000D03*
X135500000Y-146500000D03*
X66600000Y-131000000D03*
X92300000Y-87200000D03*
X93500000Y-107500000D03*
X118200000Y-61200000D03*
X54900000Y-126600000D03*
X103400000Y-76600000D03*
X94713403Y-63904999D03*
X93200000Y-90800000D03*
X96000000Y-53500000D03*
X74000000Y-115691600D03*
X117202590Y-67551728D03*
X81700000Y-90200000D03*
X86000000Y-61500000D03*
X91000000Y-68400000D03*
X58108200Y-122391800D03*
X72200000Y-136200000D03*
X111500000Y-82000000D03*
X85000000Y-83800000D03*
X117200707Y-69187840D03*
X123099998Y-69700002D03*
X81000000Y-115691600D03*
X106500000Y-96500000D03*
X114200000Y-94600000D03*
X110600000Y-132425000D03*
X100200000Y-80000000D03*
X93400000Y-61400000D03*
X135500000Y-132000000D03*
X96000000Y-54500000D03*
X95000000Y-133500000D03*
X73000000Y-80000000D03*
X91100000Y-87200000D03*
X65600000Y-131000000D03*
X136000000Y-104500000D03*
X68500000Y-107691600D03*
X133450000Y-89950000D03*
X67600000Y-131000000D03*
X93358200Y-96141800D03*
X57400000Y-88700000D03*
X113000000Y-90000000D03*
X133506250Y-77506250D03*
X87500000Y-54500000D03*
X64500000Y-115191600D03*
X75000000Y-96645800D03*
X70600000Y-136200000D03*
X100000000Y-83500000D03*
X68600000Y-131000000D03*
X120500000Y-149000000D03*
X63000000Y-91200000D03*
X83000000Y-145400000D03*
X99600085Y-105019355D03*
X131749999Y-68850001D03*
X74100000Y-124200000D03*
X72300000Y-149300000D03*
X75300000Y-89345800D03*
X117500000Y-96500000D03*
X61350000Y-129250000D03*
X124000000Y-76000000D03*
X121500000Y-106500000D03*
X98500000Y-133500000D03*
X94550000Y-140050000D03*
X121000000Y-119000000D03*
X119000000Y-90500000D03*
X100000000Y-129000000D03*
X77391800Y-80108200D03*
X81500000Y-61000000D03*
X71400000Y-136200000D03*
X99400000Y-69200000D03*
X86249300Y-79749300D03*
X92776327Y-54017354D03*
X101800000Y-105600000D03*
X108000000Y-75200000D03*
X114200000Y-93600000D03*
X116500000Y-55000000D03*
X122500000Y-124500000D03*
X121000000Y-111000000D03*
X120500000Y-134500000D03*
X100000000Y-94000000D03*
X75000000Y-94645800D03*
X116500000Y-54000000D03*
X87400000Y-83800000D03*
X133200000Y-64425000D03*
X144000000Y-115500000D03*
X91050000Y-137050000D03*
X114200000Y-92400000D03*
X119800000Y-61200000D03*
X75000000Y-92645800D03*
X111800000Y-108900000D03*
X120500000Y-98500000D03*
X119500000Y-94500000D03*
X136500000Y-64500000D03*
X100400000Y-110400000D03*
X127100000Y-63500000D03*
X51300000Y-122700000D03*
X92400000Y-128200000D03*
X97000000Y-81848527D03*
X81854200Y-79854200D03*
X84137500Y-147637500D03*
X111000000Y-73600000D03*
X100000000Y-87000000D03*
X70000000Y-115191600D03*
X88000000Y-101000000D03*
X125200000Y-66600000D03*
X125200000Y-80200000D03*
X88500000Y-54500000D03*
X115500000Y-79500000D03*
X91500000Y-57500000D03*
X94000000Y-57501000D03*
X119000000Y-61200000D03*
X117199994Y-68351726D03*
X72000000Y-145500000D03*
X138000000Y-81500000D03*
X71000000Y-143500000D03*
X79200000Y-124400000D03*
X70000000Y-143500000D03*
X71000000Y-144500000D03*
X72000000Y-144500000D03*
X71000000Y-145500000D03*
X126500000Y-106500000D03*
X126000000Y-119000000D03*
X72000000Y-143500000D03*
X70000000Y-145500000D03*
X70000000Y-144500000D03*
X138500000Y-94500000D03*
X117399997Y-61200000D03*
X117198835Y-66751734D03*
X117200000Y-70000000D03*
X120600000Y-61200000D03*
X104000000Y-101500000D03*
X60600000Y-91934700D03*
X60600000Y-90934700D03*
X113400000Y-105400000D03*
X102000000Y-125000000D03*
X108005000Y-74395000D03*
X100400000Y-105200000D03*
X99470000Y-104230000D03*
X101400000Y-67000000D03*
X93000000Y-127600000D03*
X95200000Y-63270000D03*
X95200000Y-64540000D03*
X99400000Y-70000000D03*
X99400000Y-80000000D03*
X95000000Y-95600000D03*
X96600000Y-74200000D03*
X94600000Y-69200000D03*
X73400000Y-134800000D03*
X73400000Y-134000000D03*
X68400000Y-140200000D03*
X67400000Y-140200000D03*
X71000000Y-134800000D03*
X71000000Y-134000000D03*
X68400000Y-139200000D03*
X67400000Y-139200000D03*
X72600000Y-134000000D03*
X71800000Y-134000000D03*
X71800000Y-134800000D03*
X72600000Y-134800000D03*
X67900000Y-139700000D03*
X95600000Y-71397997D03*
X103000000Y-65400000D03*
X97800000Y-81800000D03*
X97400000Y-73800000D03*
X95200000Y-72198000D03*
X103000000Y-64600000D03*
X113500000Y-94000000D03*
X113500000Y-92000000D03*
X105500000Y-76600000D03*
X102600000Y-76600000D03*
X113500000Y-95000000D03*
X113500000Y-93000000D03*
X107100006Y-76600000D03*
X90899997Y-88000000D03*
X92800000Y-60800000D03*
X92500000Y-88000000D03*
X92800000Y-62000000D03*
X91700000Y-88000000D03*
X91800000Y-68400000D03*
X111800000Y-73600000D03*
X115000000Y-97600000D03*
D63*
X63000000Y-73600000D02*
X63000000Y-72000000D01*
X63000000Y-66400000D02*
X63000000Y-65000000D01*
D64*
X62600000Y-67400000D02*
X70200000Y-67400000D01*
X61400000Y-66200000D02*
X62600000Y-67400000D01*
X61400000Y-65400000D02*
X61400000Y-66200000D01*
X61000000Y-65000000D02*
X61400000Y-65400000D01*
D63*
X82059742Y-106490000D02*
X81000000Y-105430258D01*
X83910000Y-106490000D02*
X82059742Y-106490000D01*
X81000000Y-105430258D02*
X81000000Y-105400000D01*
X84000000Y-106400000D02*
X83910000Y-106490000D01*
D65*
X84000000Y-108799400D02*
X85253600Y-108799400D01*
D63*
X94550000Y-146400000D02*
X94550000Y-144800000D01*
D64*
X99115000Y-73285000D02*
X99115000Y-72140000D01*
X97800000Y-74600000D02*
X99115000Y-73285000D01*
X96600000Y-74200000D02*
X97000000Y-74600000D01*
X97000000Y-74600000D02*
X97800000Y-74600000D01*
D65*
X60565300Y-87800000D02*
X60600000Y-87834700D01*
X59600000Y-87800000D02*
X60565300Y-87800000D01*
X59500000Y-87900000D02*
X59600000Y-87800000D01*
X59499000Y-87899000D02*
X59500000Y-87900000D01*
X57068214Y-87899000D02*
X59499000Y-87899000D01*
X57047214Y-87920000D02*
X57068214Y-87899000D01*
X55975000Y-87920000D02*
X57047214Y-87920000D01*
D66*
X62930000Y-84270000D02*
X63000000Y-84200000D01*
X55975000Y-84270000D02*
X62930000Y-84270000D01*
D63*
X55995000Y-82300000D02*
X55975000Y-82320000D01*
X57400000Y-82300000D02*
X55995000Y-82300000D01*
X55995000Y-88700000D02*
X57400000Y-88700000D01*
X52980000Y-91800000D02*
X51000000Y-89820000D01*
X53600000Y-91800000D02*
X52980000Y-91800000D01*
D65*
X53400000Y-86421000D02*
X54899000Y-87920000D01*
X53400000Y-84400000D02*
X53400000Y-86421000D01*
X54680000Y-83120000D02*
X53400000Y-84400000D01*
X55975000Y-83120000D02*
X54680000Y-83120000D01*
X54899000Y-87920000D02*
X55975000Y-87920000D01*
D63*
X56300000Y-88700000D02*
X55995000Y-88700000D01*
X55995000Y-88700000D02*
X55975000Y-88720000D01*
X57200000Y-89600000D02*
X56300000Y-88700000D01*
X55600000Y-91800000D02*
X57200000Y-90200000D01*
X57200000Y-90200000D02*
X57200000Y-89600000D01*
D67*
X96224999Y-70890000D02*
X97350000Y-70890000D01*
X95859999Y-70525000D02*
X96224999Y-70890000D01*
X69596940Y-70525000D02*
X95859999Y-70525000D01*
X69586697Y-70535243D02*
X69596940Y-70525000D01*
X66770000Y-72611838D02*
X68846595Y-70535243D01*
X66770000Y-84493676D02*
X66770000Y-72611838D01*
X64993676Y-86270000D02*
X66770000Y-84493676D01*
X68846595Y-70535243D02*
X69586697Y-70535243D01*
X58000000Y-86270000D02*
X64993676Y-86270000D01*
X57870000Y-86400000D02*
X58000000Y-86270000D01*
X57600000Y-86400000D02*
X57870000Y-86400000D01*
D66*
X56462501Y-86225000D02*
X56437501Y-86250000D01*
X57600000Y-86400000D02*
X57200000Y-86400000D01*
X57200000Y-86400000D02*
X57025000Y-86225000D01*
X57025000Y-86225000D02*
X56462501Y-86225000D01*
X56437501Y-86250000D02*
X55575000Y-86250000D01*
D67*
X96224999Y-69620000D02*
X97350000Y-69620000D01*
X69390293Y-69985000D02*
X95859999Y-69985000D01*
X69380050Y-69995243D02*
X69390293Y-69985000D01*
X68622919Y-69995243D02*
X69380050Y-69995243D01*
X66230000Y-84270000D02*
X66230000Y-72388162D01*
X64770000Y-85730000D02*
X66230000Y-84270000D01*
X57870000Y-85600000D02*
X58000000Y-85730000D01*
X57600000Y-85600000D02*
X57870000Y-85600000D01*
D66*
X57025000Y-85775000D02*
X56462501Y-85775000D01*
X57200000Y-85600000D02*
X57025000Y-85775000D01*
X56437501Y-85750000D02*
X55575000Y-85750000D01*
X57600000Y-85600000D02*
X57200000Y-85600000D01*
X55575000Y-85750000D02*
X56250000Y-85750000D01*
D67*
X58000000Y-85730000D02*
X64770000Y-85730000D01*
X66230000Y-72388162D02*
X68622919Y-69995243D01*
X95859999Y-69985000D02*
X96224999Y-69620000D01*
D66*
X56462501Y-85775000D02*
X56437501Y-85750000D01*
X56805000Y-85770000D02*
X55975000Y-85770000D01*
X57000000Y-85575000D02*
X56805000Y-85770000D01*
X56802000Y-84770000D02*
X57000000Y-84968000D01*
X55975000Y-84770000D02*
X56802000Y-84770000D01*
X57000000Y-84968000D02*
X57000000Y-85575000D01*
X55000000Y-86000000D02*
X55270000Y-86270000D01*
X55270000Y-86270000D02*
X55975000Y-86270000D01*
X55000000Y-85418000D02*
X55000000Y-86000000D01*
X55148000Y-85270000D02*
X55000000Y-85418000D01*
X55975000Y-85270000D02*
X55148000Y-85270000D01*
D63*
X60600000Y-90934700D02*
X60600000Y-91934700D01*
X125600000Y-149000000D02*
X125600000Y-147400000D01*
X54900000Y-133000000D02*
X54900000Y-131400000D01*
D66*
X104299000Y-72244000D02*
X104195000Y-72140000D01*
X104299000Y-76600000D02*
X104299000Y-72244000D01*
X102925000Y-75675000D02*
X102925000Y-72140000D01*
X102600000Y-76000000D02*
X102925000Y-75675000D01*
X102600000Y-76600000D02*
X102600000Y-76000000D01*
X106500000Y-74500000D02*
X106735000Y-74265000D01*
X106500000Y-75700000D02*
X106500000Y-74500000D01*
X107100006Y-76300006D02*
X106500000Y-75700000D01*
X107100006Y-76600000D02*
X107100006Y-76300006D01*
X106735000Y-74265000D02*
X106735000Y-72140000D01*
X110545000Y-73159943D02*
X110545000Y-72140000D01*
X110200000Y-76400000D02*
X110200000Y-73504943D01*
X110200000Y-73504943D02*
X110545000Y-73159943D01*
X97800000Y-81800000D02*
X104800000Y-81800000D01*
X104800000Y-81800000D02*
X110200000Y-76400000D01*
X101655000Y-80145000D02*
X101655000Y-72140000D01*
X101600000Y-80200000D02*
X101655000Y-80145000D01*
X101600000Y-80600000D02*
X101600000Y-80200000D01*
X101000000Y-81200000D02*
X101600000Y-80600000D01*
X93400000Y-81200000D02*
X101000000Y-81200000D01*
X92633824Y-90300000D02*
X91900000Y-90300000D01*
X93400000Y-90000000D02*
X92933824Y-90000000D01*
X92933824Y-90000000D02*
X92633824Y-90300000D01*
D68*
X91900000Y-90800000D02*
X93200000Y-90800000D01*
D63*
X84900000Y-84800000D02*
X84900000Y-85225000D01*
X85000000Y-84700000D02*
X84900000Y-84800000D01*
X85000000Y-83800000D02*
X85000000Y-84700000D01*
X85000000Y-83800000D02*
X87400000Y-83800000D01*
X87400000Y-87300000D02*
X88900000Y-87300000D01*
X84900000Y-87300000D02*
X83500000Y-87300000D01*
X93358200Y-101158200D02*
X93358200Y-99649999D01*
X126600000Y-69693002D02*
X126607000Y-69700002D01*
X126600000Y-68000000D02*
X126600000Y-69693002D01*
D69*
X115000000Y-86200000D02*
X114300000Y-85500000D01*
X125000000Y-86200000D02*
X115000000Y-86200000D01*
X114300000Y-85500000D02*
X111500000Y-85500000D01*
X126400000Y-87600000D02*
X125000000Y-86200000D01*
X126400000Y-91800000D02*
X126400000Y-87600000D01*
X125200000Y-93000000D02*
X126400000Y-91800000D01*
D63*
X124400000Y-93000000D02*
X125200000Y-93000000D01*
X123600000Y-93000000D02*
X124400000Y-93000000D01*
X123550001Y-92950001D02*
X123600000Y-93000000D01*
X121947300Y-92950001D02*
X123550001Y-92950001D01*
D66*
X97800000Y-129300000D02*
X98500000Y-130000000D01*
X96600000Y-128600000D02*
X97300000Y-129300000D01*
X97300000Y-129300000D02*
X97800000Y-129300000D01*
D65*
X94550000Y-143637500D02*
X94550000Y-144800000D01*
X101200000Y-126230000D02*
X101200000Y-125000000D01*
D69*
X101200000Y-126230000D02*
X102060000Y-126230000D01*
X100400000Y-126230000D02*
X101200000Y-126230000D01*
D65*
X100400000Y-126230000D02*
X100400000Y-125000000D01*
D69*
X96430000Y-126230000D02*
X100400000Y-126230000D01*
D65*
X81400000Y-123800000D02*
X78800000Y-121200000D01*
D63*
X96900000Y-110300000D02*
X96900000Y-108800000D01*
D69*
X92600000Y-122400000D02*
X96430000Y-126230000D01*
X92600000Y-122400000D02*
X96600000Y-118400000D01*
X87000000Y-128000000D02*
X92600000Y-122400000D01*
X85400000Y-128000000D02*
X87000000Y-128000000D01*
D65*
X85400000Y-128000000D02*
X90050000Y-132650000D01*
X54900000Y-130100000D02*
X54900000Y-131400000D01*
X122518100Y-109000000D02*
X119000000Y-109000000D01*
X125018100Y-106500000D02*
X122518100Y-109000000D01*
X114500000Y-149196600D02*
X114500000Y-149130300D01*
X114803400Y-149500000D02*
X114500000Y-149196600D01*
X118500000Y-149500000D02*
X114803400Y-149500000D01*
D69*
X76730300Y-149130300D02*
X73200000Y-145600000D01*
X114500000Y-149130300D02*
X76730300Y-149130300D01*
D65*
X125600000Y-149000000D02*
X124075000Y-149000000D01*
X124175000Y-134600000D02*
X124075000Y-134500000D01*
X125600000Y-134600000D02*
X124175000Y-134600000D01*
X90050000Y-132650000D02*
X90050000Y-135637500D01*
X84400000Y-127000000D02*
X85400000Y-128000000D01*
X81400000Y-127000000D02*
X84400000Y-127000000D01*
X62800000Y-125600000D02*
X62800000Y-128400000D01*
X67200000Y-121200000D02*
X62800000Y-125600000D01*
X78800000Y-121200000D02*
X67200000Y-121200000D01*
X81400000Y-127000000D02*
X81400000Y-123800000D01*
X62700000Y-128300000D02*
X62800000Y-128400000D01*
X59975000Y-128300000D02*
X62700000Y-128300000D01*
D66*
X96500000Y-90550057D02*
X96500000Y-92000000D01*
X71850943Y-83199000D02*
X89148943Y-83199000D01*
X70449943Y-84600000D02*
X71850943Y-83199000D01*
X89148943Y-83199000D02*
X96500000Y-90550057D01*
X69200000Y-84600000D02*
X70449943Y-84600000D01*
X90600000Y-82600000D02*
X96500000Y-88500000D01*
X71600000Y-82600000D02*
X90600000Y-82600000D01*
X70200000Y-84000000D02*
X71600000Y-82600000D01*
X98800000Y-80600000D02*
X99400000Y-80000000D01*
X82550057Y-80600000D02*
X98800000Y-80600000D01*
X81800000Y-81350057D02*
X82550057Y-80600000D01*
X81800000Y-81400000D02*
X81800000Y-81350057D01*
X80400000Y-89200000D02*
X80400000Y-86400000D01*
D64*
X64400000Y-68600000D02*
X69200000Y-68600000D01*
X61000000Y-72000000D02*
X64400000Y-68600000D01*
D63*
X106500000Y-96500000D02*
X106500000Y-95040000D01*
D65*
X122500000Y-139000000D02*
X122500000Y-140374699D01*
D63*
X61350000Y-129250000D02*
X59975000Y-129250000D01*
D65*
X86000000Y-61500000D02*
X86000000Y-60075000D01*
D63*
X81700000Y-90200000D02*
X82833200Y-90200000D01*
D65*
X92793681Y-54000000D02*
X92776327Y-54017354D01*
D63*
X131000000Y-91000000D02*
X132400000Y-91000000D01*
X100925000Y-94925000D02*
X100000000Y-94000000D01*
X103973100Y-105500000D02*
X101900000Y-105500000D01*
X77391800Y-80108200D02*
X76000000Y-80108200D01*
D65*
X64500000Y-115191600D02*
X63075000Y-115191600D01*
D63*
X93500000Y-107500000D02*
X93500000Y-106000000D01*
D65*
X92751544Y-54042137D02*
X92776327Y-54017354D01*
X100500000Y-78500000D02*
X100500000Y-77000000D01*
D63*
X114500000Y-90575000D02*
X113575000Y-90575000D01*
X120447300Y-90450001D02*
X120447300Y-89500000D01*
D65*
X120540000Y-98460000D02*
X120500000Y-98500000D01*
X114850000Y-54380000D02*
X115880000Y-54380000D01*
X73500000Y-95145800D02*
X74500000Y-95145800D01*
D63*
X132400000Y-91000000D02*
X135000000Y-88400000D01*
D65*
X110600000Y-132425000D02*
X110600000Y-131000000D01*
X133200000Y-64425000D02*
X133200000Y-66000000D01*
D63*
X73000000Y-80000000D02*
X71645800Y-80000000D01*
X107891600Y-94359600D02*
X107211200Y-95040000D01*
D65*
X74645800Y-93000000D02*
X75000000Y-92645800D01*
X122500000Y-118990000D02*
X121010000Y-118990000D01*
D63*
X62800000Y-130475000D02*
X62575000Y-130475000D01*
D65*
X96880000Y-54380000D02*
X96000000Y-53500000D01*
X94000000Y-54000000D02*
X92793681Y-54000000D01*
D63*
X88350001Y-100649999D02*
X89366400Y-100649999D01*
D65*
X136000000Y-104500000D02*
X136000000Y-103056900D01*
X73500000Y-93000000D02*
X74645800Y-93000000D01*
D63*
X119500000Y-93322301D02*
X119872300Y-92950001D01*
X62575000Y-130475000D02*
X61350000Y-129250000D01*
X100400000Y-108800000D02*
X100400000Y-110400000D01*
D65*
X144000000Y-114131900D02*
X143943100Y-114075000D01*
X81500000Y-61000000D02*
X79975000Y-61000000D01*
D63*
X74100000Y-124200000D02*
X75600000Y-124200000D01*
X110513200Y-89960000D02*
X107891600Y-92581600D01*
X111264400Y-90000000D02*
X111224400Y-89960000D01*
D65*
X97350000Y-54380000D02*
X96880000Y-54380000D01*
D63*
X54900000Y-126600000D02*
X54900000Y-128025000D01*
D65*
X101830000Y-129000000D02*
X102060000Y-128770000D01*
X70000000Y-115191600D02*
X70000000Y-113475000D01*
D63*
X88000000Y-101000000D02*
X88350001Y-100649999D01*
X51300000Y-122700000D02*
X51300000Y-124100000D01*
X107891600Y-92581600D02*
X107891600Y-94359600D01*
X100925000Y-84425000D02*
X100000000Y-83500000D01*
D65*
X121500000Y-106500000D02*
X122943100Y-106500000D01*
X75000000Y-96645800D02*
X73645800Y-96645800D01*
D63*
X113575000Y-90575000D02*
X113000000Y-90000000D01*
D65*
X124000000Y-76000000D02*
X122550004Y-76000000D01*
D63*
X87400000Y-83800000D02*
X87400000Y-85225000D01*
D65*
X73645800Y-96645800D02*
X73500000Y-96500000D01*
X96120000Y-54380000D02*
X96000000Y-54500000D01*
X114850000Y-54380000D02*
X116120000Y-54380000D01*
X135500000Y-146500000D02*
X135500000Y-145000000D01*
X122550004Y-76000000D02*
X122500000Y-76050004D01*
D63*
X87000000Y-102000000D02*
X88000000Y-101000000D01*
X130500000Y-78500000D02*
X132512500Y-78500000D01*
X63000000Y-82200000D02*
X63000000Y-80800000D01*
X113000000Y-90000000D02*
X111264400Y-90000000D01*
X100925000Y-95500000D02*
X100925000Y-94925000D01*
X111224400Y-89960000D02*
X110513200Y-89960000D01*
D65*
X100000000Y-129000000D02*
X101830000Y-129000000D01*
X115880000Y-54380000D02*
X116500000Y-55000000D01*
X122914699Y-98460000D02*
X120540000Y-98460000D01*
D63*
X63000000Y-89800000D02*
X63000000Y-91200000D01*
X73775000Y-89345800D02*
X75300000Y-89345800D01*
D65*
X95000000Y-133500000D02*
X95000000Y-132000000D01*
D63*
X71645800Y-80000000D02*
X71500000Y-79854200D01*
D65*
X116120000Y-54380000D02*
X116500000Y-54000000D01*
X121040000Y-110960000D02*
X121000000Y-111000000D01*
D63*
X86249300Y-79749300D02*
X85000000Y-79749300D01*
D65*
X120500000Y-134500000D02*
X122000000Y-134500000D01*
X74500000Y-95145800D02*
X75000000Y-94645800D01*
X135500000Y-132000000D02*
X135500000Y-130500000D01*
X111800000Y-108900000D02*
X111800000Y-107475000D01*
D63*
X84137500Y-147637500D02*
X85550000Y-147637500D01*
X83000000Y-145400000D02*
X83000000Y-144000000D01*
D65*
X97350000Y-54380000D02*
X96120000Y-54380000D01*
X63075000Y-115191600D02*
X63000000Y-115266600D01*
D63*
X58108200Y-122391800D02*
X58108200Y-121000000D01*
D65*
X91524783Y-54042137D02*
X92751544Y-54042137D01*
D63*
X87000000Y-102234700D02*
X87000000Y-102000000D01*
X100925000Y-92000000D02*
X100925000Y-91425000D01*
X100925000Y-87925000D02*
X100000000Y-87000000D01*
D65*
X74000000Y-115691600D02*
X74000000Y-113900000D01*
X81000000Y-115691600D02*
X81000000Y-113900000D01*
X73500000Y-93000000D02*
X73500000Y-95145800D01*
X73500000Y-95145800D02*
X73500000Y-96500000D01*
D63*
X91050000Y-137050000D02*
X91050000Y-138500000D01*
X81854200Y-79854200D02*
X80500000Y-79854200D01*
X100925000Y-91425000D02*
X100000000Y-90500000D01*
D65*
X123000000Y-98374699D02*
X122914699Y-98460000D01*
D63*
X100925000Y-85000000D02*
X100925000Y-84425000D01*
D65*
X122857799Y-110960000D02*
X121040000Y-110960000D01*
D63*
X120397301Y-90500000D02*
X120447300Y-90450001D01*
X101900000Y-105500000D02*
X101800000Y-105600000D01*
D65*
X136000000Y-103056900D02*
X135943100Y-103000000D01*
X122500000Y-140374699D02*
X122414699Y-140460000D01*
D63*
X93358200Y-96141800D02*
X93358200Y-97574999D01*
D65*
X136500000Y-66000000D02*
X136500000Y-64500000D01*
D63*
X111500000Y-83425000D02*
X111500000Y-82000000D01*
D65*
X120500000Y-149000000D02*
X122000000Y-149000000D01*
D63*
X131749999Y-68850001D02*
X130532000Y-68850001D01*
D65*
X68500000Y-107691600D02*
X68500000Y-105900000D01*
D63*
X92125000Y-135975000D02*
X91050000Y-137050000D01*
X92125000Y-135637500D02*
X92125000Y-135975000D01*
X119000000Y-90500000D02*
X120397301Y-90500000D01*
X119500000Y-94500000D02*
X119500000Y-93322301D01*
X107211200Y-95040000D02*
X106500000Y-95040000D01*
X117500000Y-96500000D02*
X117500000Y-95075000D01*
D65*
X121010000Y-118990000D02*
X121000000Y-119000000D01*
X122500000Y-125874699D02*
X122414699Y-125960000D01*
X144000000Y-115500000D02*
X144000000Y-114131900D01*
D63*
X120447300Y-89500000D02*
X123000000Y-89500000D01*
X72300000Y-149300000D02*
X70650000Y-149300000D01*
D65*
X98500000Y-132000000D02*
X98500000Y-133500000D01*
X79975000Y-61000000D02*
X79974998Y-61000002D01*
D63*
X94550000Y-140050000D02*
X94550000Y-141562500D01*
D65*
X122500000Y-124500000D02*
X122500000Y-125874699D01*
D63*
X123000000Y-89500000D02*
X124500000Y-89500000D01*
D65*
X87500000Y-54500000D02*
X86000000Y-54500000D01*
D63*
X132512500Y-78500000D02*
X135062500Y-75950000D01*
X127100000Y-63500000D02*
X128500000Y-63500000D01*
X100925000Y-88500000D02*
X100925000Y-87925000D01*
X123099998Y-69700002D02*
X124532000Y-69700002D01*
D64*
X111200000Y-80200000D02*
X125200000Y-80200000D01*
X103724000Y-82924000D02*
X108476000Y-82924000D01*
X98576000Y-82924000D02*
X103724000Y-82924000D01*
X110400000Y-81000000D02*
X111200000Y-80200000D01*
D63*
X128376050Y-66000000D02*
X128376050Y-68076052D01*
D64*
X125800000Y-66000000D02*
X128376050Y-66000000D01*
X108476000Y-82924000D02*
X110400000Y-81000000D01*
X96500000Y-85000000D02*
X98576000Y-82924000D01*
X125200000Y-66600000D02*
X125800000Y-66000000D01*
D63*
X128376050Y-68076052D02*
X128500000Y-68200002D01*
D65*
X91524783Y-56117137D02*
X93957863Y-56117137D01*
X115500000Y-79500000D02*
X115500000Y-78050004D01*
D63*
X54900000Y-130100000D02*
X51300000Y-130100000D01*
X50000000Y-122500000D02*
X51500000Y-121000000D01*
X50000000Y-128800000D02*
X50000000Y-122500000D01*
D65*
X88500000Y-56000000D02*
X88500000Y-54500000D01*
X91524783Y-56117137D02*
X91524783Y-57475217D01*
X91524783Y-57475217D02*
X91500000Y-57500000D01*
D63*
X57700000Y-130200000D02*
X55000000Y-130200000D01*
D65*
X94000000Y-56000000D02*
X94350000Y-55650000D01*
X94000000Y-57501000D02*
X94000000Y-56000000D01*
X94350000Y-55650000D02*
X97350000Y-55650000D01*
D63*
X55000000Y-130200000D02*
X54900000Y-130100000D01*
X51300000Y-130100000D02*
X50000000Y-128800000D01*
D65*
X93957863Y-56117137D02*
X94000000Y-56075000D01*
X114850000Y-70890000D02*
X114850000Y-75400004D01*
X114850000Y-75400004D02*
X115500000Y-76050004D01*
X115500000Y-76050004D02*
X117999998Y-76050004D01*
X86000000Y-58000000D02*
X88500000Y-58000000D01*
X83925000Y-54500000D02*
X84000000Y-54500000D01*
D66*
X96818000Y-56920000D02*
X97350000Y-56920000D01*
D65*
X81925000Y-56500000D02*
X83925000Y-54500000D01*
D66*
X88500000Y-58000000D02*
X88601000Y-58101000D01*
D65*
X79974998Y-56500000D02*
X81925000Y-56500000D01*
X83925000Y-55925000D02*
X86000000Y-58000000D01*
D66*
X95637000Y-58101000D02*
X96818000Y-56920000D01*
D65*
X83925000Y-54500000D02*
X83925000Y-55925000D01*
D64*
X96868000Y-56920000D02*
X97350000Y-56920000D01*
D66*
X88601000Y-58101000D02*
X95637000Y-58101000D01*
D64*
X119000000Y-61200000D02*
X119000000Y-61185412D01*
X114850000Y-68350000D02*
X117198268Y-68350000D01*
X129480000Y-60600000D02*
X134580000Y-55500000D01*
X117198268Y-68350000D02*
X117199994Y-68351726D01*
X119585412Y-60600000D02*
X129480000Y-60600000D01*
X119000000Y-61185412D02*
X119585412Y-60600000D01*
D65*
X123772299Y-129770000D02*
X122414699Y-129770000D01*
D63*
X73816950Y-139650001D02*
X74766951Y-138700000D01*
X115400000Y-109130300D02*
X118869700Y-109130300D01*
D65*
X118500000Y-149500000D02*
X119226000Y-150226000D01*
D63*
X77800000Y-124400000D02*
X77600000Y-124200000D01*
D65*
X124075000Y-149000000D02*
X124160299Y-148914701D01*
D63*
X115400000Y-120130300D02*
X118869700Y-120130300D01*
D65*
X123770000Y-144270000D02*
X122414699Y-144270000D01*
X122849000Y-135726000D02*
X124075000Y-134500000D01*
X125018100Y-102528801D02*
X124759299Y-102270000D01*
X126500000Y-106500000D02*
X125018100Y-106500000D01*
D63*
X79200000Y-124400000D02*
X79200000Y-125725000D01*
D65*
X136500000Y-81500000D02*
X136460000Y-81460000D01*
X124759299Y-102270000D02*
X122914699Y-102270000D01*
X122849000Y-150226000D02*
X124075000Y-149000000D01*
X123349000Y-120216000D02*
X119216000Y-120216000D01*
X119226000Y-150226000D02*
X122849000Y-150226000D01*
X119216000Y-120216000D02*
X119000000Y-120000000D01*
X124075000Y-134500000D02*
X124160299Y-134414701D01*
X124160299Y-130158000D02*
X123772299Y-129770000D01*
X124585000Y-119000000D02*
X124575000Y-118990000D01*
X138000000Y-81500000D02*
X136500000Y-81500000D01*
D63*
X79200000Y-125725000D02*
X79525000Y-126050000D01*
D65*
X124603399Y-115103399D02*
X124270000Y-114770000D01*
X118500000Y-135500000D02*
X118726000Y-135726000D01*
X118500000Y-135500000D02*
X115393200Y-135500000D01*
X124603399Y-118961601D02*
X124603399Y-115103399D01*
X124160299Y-148914701D02*
X124160299Y-144660299D01*
X124575000Y-118990000D02*
X123349000Y-120216000D01*
D63*
X118869700Y-109130300D02*
X119000000Y-109000000D01*
D65*
X137024801Y-94500000D02*
X136968000Y-94556801D01*
X124160299Y-144660299D02*
X123770000Y-144270000D01*
D63*
X79200000Y-124400000D02*
X77800000Y-124400000D01*
D65*
X126000000Y-119000000D02*
X124585000Y-119000000D01*
X138500000Y-94500000D02*
X137024801Y-94500000D01*
D63*
X74766951Y-138700000D02*
X75400000Y-138700000D01*
D65*
X118726000Y-135726000D02*
X122849000Y-135726000D01*
D63*
X72694900Y-139650001D02*
X73816950Y-139650001D01*
D65*
X115393200Y-135500000D02*
X114500000Y-134606800D01*
D63*
X118869700Y-120130300D02*
X119000000Y-120000000D01*
D65*
X124270000Y-114770000D02*
X122857799Y-114770000D01*
X124160299Y-134414701D02*
X124160299Y-130158000D01*
X125018100Y-106500000D02*
X125018100Y-102528801D01*
X124575000Y-118990000D02*
X124603399Y-118961601D01*
D63*
X100000000Y-97000000D02*
X101500000Y-97000000D01*
X101500000Y-97000000D02*
X103000000Y-95500000D01*
X103000000Y-95500000D02*
X103000000Y-93928000D01*
X103000000Y-93928000D02*
X105698000Y-91230000D01*
X105698000Y-91230000D02*
X106500000Y-91230000D01*
X98500000Y-95500000D02*
X100000000Y-97000000D01*
D64*
X114850000Y-59460000D02*
X125540000Y-59460000D01*
X125540000Y-59460000D02*
X129500000Y-55500000D01*
D65*
X92125000Y-143637500D02*
X92125000Y-140900000D01*
D63*
X84900000Y-87300000D02*
X87400000Y-87300000D01*
X85267801Y-89249000D02*
X87500000Y-89249000D01*
X125201000Y-89790364D02*
X124541363Y-90450001D01*
X126807002Y-69500000D02*
X126607000Y-69700002D01*
X123000000Y-90450001D02*
X123000000Y-91897301D01*
X123000000Y-88549999D02*
X124541363Y-88549999D01*
X111224400Y-85775600D02*
X111500000Y-85500000D01*
X87400000Y-87300000D02*
X87400000Y-89149000D01*
X124541363Y-90450001D02*
X123000000Y-90450001D01*
X84966800Y-89550001D02*
X85267801Y-89249000D01*
D65*
X92125000Y-140900000D02*
X92000000Y-140775000D01*
X55140000Y-74885000D02*
X55160000Y-74865000D01*
X92125000Y-147562500D02*
X92050000Y-147637500D01*
D63*
X124541363Y-88549999D02*
X125201000Y-89209636D01*
X128500000Y-69500000D02*
X126807002Y-69500000D01*
X84966800Y-89550001D02*
X84966800Y-87366800D01*
X123000000Y-91897301D02*
X121947300Y-92950001D01*
D65*
X92125000Y-143637500D02*
X94550000Y-143637500D01*
D63*
X87400000Y-89149000D02*
X87500000Y-89249000D01*
D65*
X92125000Y-143637500D02*
X92125000Y-147562500D01*
D63*
X125201000Y-89209636D02*
X125201000Y-89790364D01*
X111224400Y-87420000D02*
X111224400Y-85775600D01*
D65*
X55140000Y-67905000D02*
X55180000Y-67865000D01*
D63*
X93008199Y-100000000D02*
X93358200Y-99649999D01*
X84966800Y-87366800D02*
X84900000Y-87300000D01*
X91500000Y-100000000D02*
X93008199Y-100000000D01*
X98500000Y-92000000D02*
X99626000Y-93126000D01*
X99626000Y-93126000D02*
X101874000Y-93126000D01*
X103000000Y-92000000D02*
X105040000Y-89960000D01*
X101874000Y-93126000D02*
X103000000Y-92000000D01*
X105040000Y-89960000D02*
X106500000Y-89960000D01*
X103000000Y-88500000D02*
X103190000Y-88690000D01*
X103190000Y-88690000D02*
X106500000Y-88690000D01*
X99626000Y-89626000D02*
X101874000Y-89626000D01*
X101874000Y-89626000D02*
X103000000Y-88500000D01*
X98500000Y-88500000D02*
X99626000Y-89626000D01*
D64*
X114850000Y-58190000D02*
X124270000Y-58190000D01*
X124270000Y-58190000D02*
X126960000Y-55500000D01*
X127540000Y-60000000D02*
X132040000Y-55500000D01*
X116320000Y-67080000D02*
X114850000Y-67080000D01*
X117000000Y-66800000D02*
X116600000Y-66800000D01*
X118585412Y-60000000D02*
X127540000Y-60000000D01*
X117399997Y-61185415D02*
X118585412Y-60000000D01*
X116600000Y-66800000D02*
X116320000Y-67080000D01*
X117399997Y-61200000D02*
X117399997Y-61185415D01*
X117198835Y-66751734D02*
X117048266Y-66751734D01*
X117048266Y-66751734D02*
X117000000Y-66800000D01*
X117200000Y-70000000D02*
X116820000Y-69620000D01*
X120600000Y-61200000D02*
X131420000Y-61200000D01*
X131420000Y-61200000D02*
X137120000Y-55500000D01*
X116820000Y-69620000D02*
X114850000Y-69620000D01*
D63*
X77400000Y-138400000D02*
X76749999Y-137749999D01*
X77400000Y-142475000D02*
X77400000Y-138400000D01*
X79000000Y-144075000D02*
X77400000Y-142475000D01*
X76749999Y-137749999D02*
X75400000Y-137749999D01*
D65*
X104654766Y-102960000D02*
X103973100Y-102960000D01*
X107000000Y-128770000D02*
X105281666Y-128770000D01*
X102000000Y-126170000D02*
X102060000Y-126230000D01*
D63*
X59312501Y-128300000D02*
X59975000Y-128300000D01*
D65*
X102000000Y-125000000D02*
X102000000Y-126170000D01*
D63*
X58911500Y-129632388D02*
X58911500Y-128701001D01*
X92000000Y-139162499D02*
X91598999Y-139563500D01*
X90501001Y-139563500D02*
X90100000Y-139162499D01*
X58911500Y-128701001D02*
X59312501Y-128300000D01*
X110445000Y-128770000D02*
X110600000Y-128925000D01*
X59975000Y-130200000D02*
X59479112Y-130200000D01*
D65*
X104000000Y-102933100D02*
X103973100Y-102960000D01*
X102741666Y-126230000D02*
X102060000Y-126230000D01*
D63*
X90100000Y-135687500D02*
X90050000Y-135637500D01*
D65*
X104005833Y-127494167D02*
X102741666Y-126230000D01*
X105270000Y-126230000D02*
X107000000Y-126230000D01*
X105281666Y-128770000D02*
X104005833Y-127494167D01*
D63*
X90100000Y-139162499D02*
X90100000Y-138500000D01*
X90100000Y-138500000D02*
X90100000Y-135687500D01*
D65*
X105847383Y-104152617D02*
X107040000Y-102960000D01*
X107040000Y-102960000D02*
X108913100Y-102960000D01*
D63*
X111700000Y-105500000D02*
X111800000Y-105400000D01*
X107000000Y-128770000D02*
X110445000Y-128770000D01*
X108913100Y-105500000D02*
X111700000Y-105500000D01*
D65*
X104000000Y-101500000D02*
X104000000Y-102933100D01*
X107194766Y-105500000D02*
X105847383Y-104152617D01*
D64*
X102423468Y-126230000D02*
X102060000Y-126230000D01*
D63*
X62300000Y-128300000D02*
X62500000Y-128500000D01*
X111800000Y-105400000D02*
X113400000Y-105400000D01*
D65*
X104005833Y-127494167D02*
X105270000Y-126230000D01*
D63*
X91598999Y-139563500D02*
X90501001Y-139563500D01*
D65*
X108913100Y-105500000D02*
X107194766Y-105500000D01*
X105847383Y-104152617D02*
X104654766Y-102960000D01*
D63*
X60600000Y-90934700D02*
X60600000Y-89600000D01*
X92000000Y-138500000D02*
X92000000Y-139162499D01*
X59479112Y-130200000D02*
X58911500Y-129632388D01*
D66*
X78260000Y-68800000D02*
X86400000Y-68800000D01*
X75960000Y-66500000D02*
X78260000Y-68800000D01*
X88120000Y-67080000D02*
X97350000Y-67080000D01*
X86400000Y-68800000D02*
X88120000Y-67080000D01*
X88390000Y-65810000D02*
X97350000Y-65810000D01*
X86000000Y-68200000D02*
X88390000Y-65810000D01*
X78500000Y-66500000D02*
X80200000Y-68200000D01*
X80200000Y-68200000D02*
X86000000Y-68200000D01*
D63*
X79000000Y-140000000D02*
X79000000Y-142000000D01*
X101874000Y-86126000D02*
X103000000Y-85000000D01*
X99626000Y-86126000D02*
X101874000Y-86126000D01*
X103000000Y-85000000D02*
X104080000Y-85000000D01*
X104080000Y-85000000D02*
X106500000Y-87420000D01*
X98500000Y-85000000D02*
X99626000Y-86126000D01*
D65*
X90050000Y-143637500D02*
X90050000Y-140825000D01*
X87550000Y-147637500D02*
X90050000Y-147637500D01*
X90050000Y-140825000D02*
X90100000Y-140775000D01*
X90050000Y-147637500D02*
X90050000Y-143637500D01*
D69*
X73725000Y-127525000D02*
X74200000Y-128000000D01*
D65*
X79475000Y-128000000D02*
X79525000Y-127950000D01*
D63*
X74600000Y-128000000D02*
X83000000Y-136400000D01*
X74200000Y-128000000D02*
X74600000Y-128000000D01*
D65*
X74200000Y-128000000D02*
X79475000Y-128000000D01*
D63*
X83000000Y-136400000D02*
X83000000Y-138000000D01*
D69*
X66000000Y-127525000D02*
X68400000Y-127525000D01*
X68400000Y-127525000D02*
X73725000Y-127525000D01*
D63*
X117500000Y-88500000D02*
X114500000Y-88500000D01*
X111224400Y-88690000D02*
X114310000Y-88690000D01*
X120447300Y-88549999D02*
X117549999Y-88549999D01*
X117549999Y-88549999D02*
X117500000Y-88500000D01*
X114310000Y-88690000D02*
X114500000Y-88500000D01*
X117500000Y-90500000D02*
X117500000Y-93000000D01*
D65*
X85253600Y-108799400D02*
X87000000Y-110545800D01*
X81000000Y-110019922D02*
X81000000Y-110191600D01*
D70*
X66216600Y-113191600D02*
X66500000Y-113475000D01*
D65*
X66500000Y-113475000D02*
X69716600Y-116691600D01*
X78781300Y-112351078D02*
X78781300Y-109177922D01*
X81000000Y-110191600D02*
X81000000Y-109191600D01*
X74440778Y-116691600D02*
X78781300Y-112351078D01*
X81000000Y-109191600D02*
X81392200Y-108799400D01*
X69716600Y-116691600D02*
X74440778Y-116691600D01*
X79981678Y-109001600D02*
X81000000Y-110019922D01*
D70*
X59000000Y-113900000D02*
X62291600Y-113900000D01*
D65*
X78781300Y-109177922D02*
X78957622Y-109001600D01*
X81392200Y-108799400D02*
X84000000Y-108799400D01*
X78957622Y-109001600D02*
X79981678Y-109001600D01*
D70*
X63000000Y-113191600D02*
X66216600Y-113191600D01*
X62291600Y-113900000D02*
X63000000Y-113191600D01*
X73023100Y-108901600D02*
X74000000Y-109878500D01*
X71916200Y-108901600D02*
X73023100Y-108901600D01*
X70000000Y-110817800D02*
X71916200Y-108901600D01*
X66500000Y-111400000D02*
X70000000Y-111400000D01*
D65*
X87000000Y-107045800D02*
X86354200Y-107691600D01*
X74000000Y-105571678D02*
X74000000Y-105400000D01*
X76119922Y-107691600D02*
X74000000Y-105571678D01*
D70*
X70000000Y-111400000D02*
X70000000Y-110817800D01*
X74000000Y-110191600D02*
X74000000Y-105400000D01*
D65*
X86354200Y-107691600D02*
X76119922Y-107691600D01*
D70*
X74000000Y-109878500D02*
X74000000Y-110191600D01*
X59000000Y-110900000D02*
X66000000Y-110900000D01*
X66000000Y-110900000D02*
X66500000Y-111400000D01*
D65*
X71679200Y-89325000D02*
X71700000Y-89345800D01*
D63*
X76000000Y-92654436D02*
X76000000Y-93400000D01*
X76000000Y-93400000D02*
X76699000Y-94099000D01*
X73817364Y-90471800D02*
X76000000Y-92654436D01*
D65*
X69375000Y-89325000D02*
X71679200Y-89325000D01*
D63*
X71700000Y-89345800D02*
X72826000Y-90471800D01*
X80400000Y-91200000D02*
X82483199Y-91200000D01*
X82483199Y-91200000D02*
X82833200Y-90849999D01*
X80400000Y-92700000D02*
X80400000Y-91200000D01*
X77900000Y-95200000D02*
X80400000Y-92700000D01*
X76799000Y-94099000D02*
X77900000Y-95200000D01*
X76699000Y-94099000D02*
X76799000Y-94099000D01*
X72826000Y-90471800D02*
X73817364Y-90471800D01*
X91500000Y-103500000D02*
X91500000Y-101299998D01*
X93500000Y-104234700D02*
X92234700Y-104234700D01*
X92234700Y-104234700D02*
X91500000Y-103500000D01*
X91500000Y-108045800D02*
X91500000Y-103500000D01*
X89000000Y-110545800D02*
X91500000Y-108045800D01*
X89425000Y-106620800D02*
X89425000Y-105367048D01*
X89000000Y-107045800D02*
X89425000Y-106620800D01*
X89425000Y-103500000D02*
X89425000Y-101358598D01*
X89425000Y-104287048D02*
X89425000Y-104167048D01*
X89185000Y-105127048D02*
X88665000Y-105127048D01*
X88665000Y-104527048D02*
X89185000Y-104527048D01*
X89425000Y-104167048D02*
X89425000Y-103751355D01*
X89425000Y-103500000D02*
X87500000Y-103500000D01*
X87500000Y-103500000D02*
X87000000Y-104000000D01*
X88425000Y-104887048D02*
X88425000Y-104767048D01*
X89425000Y-103751355D02*
X89425000Y-103500000D01*
X89425000Y-101358598D02*
X89366400Y-101299998D01*
X89185000Y-104527048D02*
G75*
G03*
X89425048Y-104287048I0J240048D01*
G01*
X89425000Y-105367048D02*
G75*
G03*
X89185000Y-105127000I-240000J48D01*
G01*
X88425000Y-104767048D02*
G75*
G02*
X88665000Y-104527000I240000J48D01*
G01*
X88665000Y-105127048D02*
G75*
G02*
X88424952Y-104887048I0J240048D01*
G01*
D65*
X119000000Y-104500000D02*
X119000000Y-107000000D01*
D63*
X115400000Y-106869700D02*
X118869700Y-106869700D01*
D65*
X121954699Y-104500000D02*
X122914699Y-103540000D01*
X119000000Y-104500000D02*
X121954699Y-104500000D01*
D63*
X118869700Y-106869700D02*
X119000000Y-107000000D01*
X60675000Y-65325000D02*
X61000000Y-65000000D01*
X55180000Y-65325000D02*
X60675000Y-65325000D01*
X55160000Y-72325000D02*
X60675000Y-72325000D01*
X60675000Y-72325000D02*
X61000000Y-72000000D01*
X79936500Y-145063500D02*
X78248420Y-145063500D01*
X78248420Y-145063500D02*
X75400000Y-142215080D01*
X83000000Y-140000000D02*
X83000000Y-142000000D01*
X83000000Y-142000000D02*
X79936500Y-145063500D01*
X75400000Y-142215080D02*
X75400000Y-139650001D01*
X133200000Y-68600000D02*
X133200000Y-68000000D01*
D65*
X140075000Y-64500000D02*
X136500000Y-68075000D01*
X142500000Y-64500000D02*
X140075000Y-64500000D01*
X136500000Y-68075000D02*
X133000000Y-68075000D01*
D63*
X130583001Y-69551001D02*
X132248999Y-69551001D01*
X132248999Y-69551001D02*
X133200000Y-68600000D01*
X130532000Y-69500000D02*
X130583001Y-69551001D01*
D65*
X52000000Y-106500000D02*
X52000000Y-102500000D01*
X55000000Y-108500000D02*
X54000000Y-107500000D01*
X53513600Y-110900000D02*
X55000000Y-109413600D01*
X53000000Y-107500000D02*
X52000000Y-106500000D01*
X54000000Y-105500000D02*
X54060000Y-105440000D01*
X54000000Y-107500000D02*
X53000000Y-107500000D01*
X53500000Y-105000000D02*
X54000000Y-105500000D01*
X53000000Y-102000000D02*
X53500000Y-102500000D01*
X53500000Y-102500000D02*
X53500000Y-105000000D01*
X52500000Y-102000000D02*
X53000000Y-102000000D01*
X55000000Y-109413600D02*
X55000000Y-108500000D01*
X54060000Y-105440000D02*
X55236800Y-105440000D01*
X52000000Y-102500000D02*
X52500000Y-102000000D01*
D63*
X68500000Y-97500000D02*
X67500000Y-96500000D01*
D65*
X74000000Y-101519922D02*
X72981678Y-100501600D01*
X75018322Y-100501600D02*
X74000000Y-101519922D01*
X67500000Y-89450000D02*
X67375000Y-89325000D01*
X74000000Y-101691600D02*
X74000000Y-101519922D01*
X67500000Y-93000000D02*
X67500000Y-96500000D01*
X69828400Y-100501600D02*
X68500000Y-101830000D01*
X67500000Y-93000000D02*
X67500000Y-89450000D01*
X72981678Y-100501600D02*
X69828400Y-100501600D01*
X79981678Y-100501600D02*
X75018322Y-100501600D01*
X81000000Y-101519922D02*
X79981678Y-100501600D01*
X81000000Y-101691600D02*
X81000000Y-101519922D01*
D63*
X68500000Y-101830000D02*
X68500000Y-97500000D01*
D65*
X111699000Y-101668215D02*
X112168215Y-101199000D01*
X120219699Y-102425000D02*
X122914699Y-99730000D01*
X119000000Y-102425000D02*
X120219699Y-102425000D01*
X112168215Y-101199000D02*
X117774000Y-101199000D01*
X117774000Y-101199000D02*
X119000000Y-102425000D01*
X111699000Y-102419498D02*
X111699000Y-101668215D01*
X108913100Y-104230000D02*
X109888498Y-104230000D01*
X109888498Y-104230000D02*
X111699000Y-102419498D01*
D63*
X115400000Y-117869700D02*
X118869700Y-117869700D01*
D65*
X119000000Y-116000000D02*
X122817799Y-116000000D01*
D63*
X118869700Y-117869700D02*
X119000000Y-118000000D01*
D65*
X119000000Y-118000000D02*
X119000000Y-116000000D01*
X122817799Y-116000000D02*
X122857799Y-116040000D01*
D66*
X115800000Y-63270000D02*
X126530000Y-74000000D01*
D63*
X130500000Y-76500000D02*
X130500000Y-74000000D01*
D66*
X126530000Y-74000000D02*
X130500000Y-74000000D01*
X114850000Y-63270000D02*
X115800000Y-63270000D01*
X128400000Y-84400000D02*
X130500000Y-86500000D01*
X116140000Y-64540000D02*
X128400000Y-76800000D01*
X114850000Y-64540000D02*
X116140000Y-64540000D01*
D63*
X130500000Y-89000000D02*
X130500000Y-86500000D01*
D66*
X128400000Y-76800000D02*
X128400000Y-84400000D01*
X108005000Y-72140000D02*
X108005000Y-74395000D01*
D64*
X100400000Y-105200000D02*
X100400000Y-106800000D01*
D63*
X100400000Y-106800000D02*
X103943100Y-106800000D01*
X103943100Y-106800000D02*
X103973100Y-106770000D01*
D66*
X108005000Y-74395000D02*
X108000000Y-74400000D01*
D64*
X114850000Y-65810000D02*
X113950000Y-65810000D01*
X99470000Y-104230000D02*
X103973100Y-104230000D01*
X113950000Y-65810000D02*
X112760000Y-67000000D01*
X112760000Y-67000000D02*
X101400000Y-67000000D01*
X99470000Y-104230000D02*
X96900000Y-106800000D01*
D66*
X93000000Y-127600000D02*
X93100000Y-127500000D01*
X93000000Y-127600000D02*
X95000000Y-129600000D01*
X95000000Y-129600000D02*
X95000000Y-130000000D01*
X93100000Y-127500000D02*
X102060000Y-127500000D01*
X95200000Y-63270000D02*
X97350000Y-63270000D01*
X95200000Y-64540000D02*
X97350000Y-64540000D01*
D65*
X98540000Y-130040000D02*
X98500000Y-130000000D01*
X102060000Y-130040000D02*
X98540000Y-130040000D01*
D63*
X108913100Y-107004464D02*
X108913100Y-106770000D01*
X111509636Y-109601000D02*
X108913100Y-107004464D01*
D65*
X121162799Y-113925000D02*
X122857799Y-112230000D01*
X119000000Y-113925000D02*
X121162799Y-113925000D01*
D63*
X112201000Y-109601000D02*
X111509636Y-109601000D01*
X119000000Y-113925000D02*
X116525000Y-113925000D01*
X116525000Y-113925000D02*
X112201000Y-109601000D01*
D65*
X118500000Y-129000000D02*
X120644699Y-129000000D01*
X115900000Y-126400000D02*
X118500000Y-129000000D01*
X110200000Y-126400000D02*
X115900000Y-126400000D01*
X107000000Y-127500000D02*
X109100000Y-127500000D01*
X109100000Y-127500000D02*
X110200000Y-126400000D01*
X120644699Y-129000000D02*
X122414699Y-127230000D01*
X118500000Y-133500000D02*
X118500000Y-131075000D01*
X118425000Y-131000000D02*
X118500000Y-131075000D01*
X114500000Y-131000000D02*
X118425000Y-131000000D01*
X118500000Y-131075000D02*
X122379699Y-131075000D01*
X122379699Y-131075000D02*
X122414699Y-131040000D01*
X118500000Y-147500000D02*
X118500000Y-145075000D01*
X118965000Y-145540000D02*
X122414699Y-145540000D01*
X118500000Y-145075000D02*
X118965000Y-145540000D01*
X114500000Y-146196600D02*
X117378400Y-146196600D01*
X117378400Y-146196600D02*
X118500000Y-145075000D01*
X121144699Y-143000000D02*
X122414699Y-141730000D01*
X118500000Y-141540000D02*
X118500000Y-143000000D01*
X107000000Y-130040000D02*
X118500000Y-141540000D01*
X118500000Y-143000000D02*
X121144699Y-143000000D01*
D70*
X142000000Y-98500000D02*
X143000000Y-98500000D01*
X135943100Y-100925000D02*
X137425000Y-100925000D01*
X138500000Y-102000000D02*
X142000000Y-98500000D01*
X135868100Y-101000000D02*
X135943100Y-100925000D01*
X137425000Y-100925000D02*
X138500000Y-102000000D01*
X129500000Y-101000000D02*
X135868100Y-101000000D01*
X129443100Y-113500000D02*
X142443100Y-113500000D01*
X142443100Y-113500000D02*
X143943100Y-112000000D01*
X142635424Y-105000000D02*
X144196000Y-106560576D01*
X144196000Y-106560576D02*
X144196000Y-111747100D01*
X142500000Y-105000000D02*
X142635424Y-105000000D01*
X144196000Y-111747100D02*
X143943100Y-112000000D01*
X142500000Y-125000000D02*
X141500000Y-125000000D01*
X137925000Y-128425000D02*
X138000000Y-128500000D01*
X141500000Y-125000000D02*
X138000000Y-128500000D01*
X129000000Y-128500000D02*
X135425000Y-128500000D01*
X135425000Y-128500000D02*
X135500000Y-128425000D01*
X135500000Y-128425000D02*
X137925000Y-128425000D01*
X135500000Y-142925000D02*
X135500000Y-140775000D01*
X142275000Y-134000000D02*
X142500000Y-134000000D01*
X129000000Y-143000000D02*
X135425000Y-143000000D01*
X135425000Y-143000000D02*
X135500000Y-142925000D01*
X135500000Y-140775000D02*
X142275000Y-134000000D01*
X140575000Y-102000000D02*
X142925000Y-102000000D01*
X142500000Y-107540000D02*
X140575000Y-105615000D01*
X140575000Y-105615000D02*
X140575000Y-102000000D01*
X140075000Y-128500000D02*
X142425000Y-128500000D01*
X144196000Y-130271000D02*
X142425000Y-128500000D01*
X144196000Y-134844000D02*
X144196000Y-130271000D01*
X142500000Y-136540000D02*
X144196000Y-134844000D01*
D63*
X77900000Y-93200000D02*
X77900000Y-91275000D01*
X77900000Y-89200000D02*
X80400000Y-89200000D01*
X82483199Y-89200000D02*
X82833200Y-89550001D01*
D64*
X109275000Y-70675000D02*
X108600000Y-70000000D01*
X109275000Y-72140000D02*
X109275000Y-70675000D01*
X108600000Y-70000000D02*
X99400000Y-70000000D01*
D63*
X80400000Y-89200000D02*
X82483199Y-89200000D01*
D70*
X145000000Y-98500000D02*
X145000000Y-102000000D01*
X144500000Y-128500000D02*
X144500000Y-125000000D01*
D65*
X136460000Y-77853200D02*
X136460000Y-75081999D01*
X136492000Y-75049999D02*
X136950001Y-75049999D01*
X136950001Y-75049999D02*
X137000000Y-75000000D01*
X136460000Y-75081999D02*
X136492000Y-75049999D01*
X137000000Y-75000000D02*
X142500000Y-75000000D01*
X136968000Y-87532000D02*
X137000000Y-87500000D01*
X136968000Y-90950001D02*
X136968000Y-87532000D01*
X142448001Y-87500000D02*
X142488000Y-87460001D01*
X137000000Y-87500000D02*
X142448001Y-87500000D01*
X63000000Y-149300000D02*
X63000000Y-144200000D01*
X60475000Y-149050000D02*
X62750000Y-149050000D01*
X62750000Y-149050000D02*
X63000000Y-149300000D01*
X66300000Y-149300000D02*
X68650000Y-149300000D01*
X64650000Y-150950000D02*
X66300000Y-149300000D01*
X60475000Y-150950000D02*
X64650000Y-150950000D01*
D70*
X53843800Y-113900000D02*
X53513600Y-113900000D01*
X56932800Y-110811000D02*
X53843800Y-113900000D01*
X56932800Y-104596000D02*
X56932800Y-110811000D01*
X55236800Y-102900000D02*
X56932800Y-104596000D01*
D65*
X58600000Y-142140000D02*
X58600000Y-150000000D01*
X55500000Y-139040000D02*
X58600000Y-142140000D01*
D66*
X96500000Y-95500000D02*
X95100000Y-95500000D01*
X95100000Y-95500000D02*
X95000000Y-95600000D01*
X58064800Y-87250000D02*
X58514800Y-86800000D01*
X61800000Y-86800000D02*
X62800000Y-87800000D01*
X55575000Y-87250000D02*
X58064800Y-87250000D01*
X58514800Y-86800000D02*
X61800000Y-86800000D01*
D65*
X136000000Y-62500000D02*
X135000000Y-63500000D01*
X144500000Y-63500000D02*
X143500000Y-62500000D01*
X144500000Y-65040000D02*
X144500000Y-63500000D01*
D63*
X130500000Y-63500000D02*
X130500000Y-65876050D01*
X130500000Y-65876050D02*
X130376050Y-66000000D01*
X130532000Y-66155950D02*
X130376050Y-66000000D01*
D65*
X143500000Y-62500000D02*
X136000000Y-62500000D01*
X142500000Y-67040000D02*
X144500000Y-65040000D01*
X135000000Y-63500000D02*
X130376050Y-63500000D01*
D63*
X130532000Y-68200002D02*
X130532000Y-66155950D01*
D64*
X123000000Y-56920000D02*
X124420000Y-55500000D01*
X114850000Y-56920000D02*
X123000000Y-56920000D01*
D66*
X81040000Y-66500000D02*
X82191000Y-67651000D01*
X82191000Y-67651000D02*
X85099057Y-67651000D01*
X93290057Y-59460000D02*
X97350000Y-59460000D01*
X85099057Y-67651000D02*
X93290057Y-59460000D01*
D64*
X114850000Y-55650000D02*
X121730000Y-55650000D01*
X121730000Y-55650000D02*
X121880000Y-55500000D01*
D66*
X83580000Y-66500000D02*
X91371000Y-58709000D01*
X96831000Y-58709000D02*
X97350000Y-58190000D01*
X91371000Y-58709000D02*
X96831000Y-58709000D01*
D64*
X76120000Y-69200000D02*
X94600000Y-69200000D01*
X73420000Y-66500000D02*
X76120000Y-69200000D01*
D63*
X72694900Y-138700000D02*
X68900000Y-138700000D01*
X76600000Y-135600000D02*
X76600000Y-135200000D01*
X76600000Y-135600000D02*
X79000000Y-138000000D01*
X53500000Y-121000000D02*
X56000000Y-121000000D01*
X80500000Y-75500000D02*
X80500000Y-78000000D01*
X71500000Y-75500000D02*
X71500000Y-78000000D01*
X85000000Y-75500000D02*
X85000000Y-78250700D01*
X76000000Y-75500000D02*
X76000000Y-78000000D01*
X135062500Y-74050000D02*
X132550000Y-74050000D01*
X132550000Y-74050000D02*
X132500000Y-74000000D01*
X135000000Y-86500000D02*
X132500000Y-86500000D01*
X55299000Y-125899000D02*
X53501000Y-125899000D01*
X53501000Y-125899000D02*
X51300000Y-128100000D01*
X57700000Y-128300000D02*
X55299000Y-125899000D01*
X51300000Y-128100000D02*
X51300000Y-126100000D01*
D64*
X98376000Y-71616000D02*
X97192000Y-72800000D01*
X81376000Y-72624000D02*
X80500000Y-73500000D01*
X97192000Y-72800000D02*
X85850804Y-72800000D01*
X98376000Y-69400000D02*
X98376000Y-71616000D01*
X110469000Y-68624000D02*
X99152000Y-68624000D01*
X85674804Y-72624000D02*
X81376000Y-72624000D01*
X113085000Y-71240000D02*
X110469000Y-68624000D01*
X99152000Y-68624000D02*
X98376000Y-69400000D01*
X113085000Y-72140000D02*
X113085000Y-71240000D01*
X85850804Y-72800000D02*
X85674804Y-72624000D01*
D66*
X103000000Y-65400000D02*
X103600000Y-65400000D01*
X106800000Y-65200000D02*
X110000000Y-62000000D01*
X95000000Y-71397997D02*
X94997997Y-71400000D01*
X103800000Y-65200000D02*
X106800000Y-65200000D01*
X103600000Y-65400000D02*
X103800000Y-65200000D01*
X95600000Y-71397997D02*
X95000000Y-71397997D01*
X110000000Y-62000000D02*
X114850000Y-62000000D01*
X73600000Y-71400000D02*
X71500000Y-73500000D01*
X94997997Y-71400000D02*
X73600000Y-71400000D01*
X85000000Y-73500000D02*
X97100000Y-73500000D01*
X97100000Y-73500000D02*
X97400000Y-73800000D01*
X81232900Y-72200000D02*
X77300000Y-72200000D01*
X77300000Y-72200000D02*
X76000000Y-73500000D01*
X110470000Y-60730000D02*
X114850000Y-60730000D01*
X95200000Y-72198000D02*
X81234900Y-72198000D01*
X81234900Y-72198000D02*
X81232900Y-72200000D01*
X106600000Y-64600000D02*
X110470000Y-60730000D01*
X103000000Y-64600000D02*
X106600000Y-64600000D01*
D65*
X100385000Y-72140000D02*
X100385000Y-74885000D01*
X100385000Y-74885000D02*
X100500000Y-75000000D01*
X69500000Y-93000000D02*
X71500000Y-93000000D01*
X69500000Y-96500000D02*
X71500000Y-96500000D01*
D66*
X111224400Y-93770000D02*
X113270000Y-93770000D01*
X113270000Y-93770000D02*
X113500000Y-94000000D01*
X105500000Y-76600000D02*
X105500000Y-75000000D01*
X105465000Y-74965000D02*
X105465000Y-72140000D01*
X111224400Y-91230000D02*
X112730000Y-91230000D01*
X112730000Y-91230000D02*
X113500000Y-92000000D01*
X105500000Y-75000000D02*
X105465000Y-74965000D01*
X113460000Y-95040000D02*
X113500000Y-95000000D01*
X111224400Y-95040000D02*
X113460000Y-95040000D01*
X111224400Y-92500000D02*
X113000000Y-92500000D01*
X113000000Y-92500000D02*
X113500000Y-93000000D01*
X92870000Y-60730000D02*
X97350000Y-60730000D01*
X89099997Y-89800000D02*
X90899997Y-88000000D01*
X87500000Y-89800000D02*
X89099997Y-89800000D01*
X92800000Y-60800000D02*
X92870000Y-60730000D01*
X92500000Y-88700000D02*
X92500000Y-88000000D01*
X91900000Y-89300000D02*
X92500000Y-88700000D01*
X92800000Y-62000000D02*
X97350000Y-62000000D01*
D68*
X85016799Y-90800000D02*
X84966800Y-90849999D01*
X87500000Y-90800000D02*
X85016799Y-90800000D01*
D66*
X91800000Y-68400000D02*
X92800000Y-68400000D01*
X90899000Y-89532824D02*
X90899000Y-88850940D01*
X90899000Y-88850940D02*
X91700000Y-88049940D01*
X91700000Y-88049940D02*
X91700000Y-88000000D01*
X92850000Y-68350000D02*
X97350000Y-68350000D01*
X91900000Y-89800000D02*
X91166176Y-89800000D01*
X92800000Y-68400000D02*
X92850000Y-68350000D01*
X91166176Y-89800000D02*
X90899000Y-89532824D01*
D64*
X96200000Y-98000000D02*
X93200000Y-95000000D01*
X89366400Y-97633600D02*
X89366400Y-100000000D01*
X111815000Y-72140000D02*
X111815000Y-73585000D01*
X114776000Y-97824000D02*
X114761412Y-97824000D01*
X114761412Y-97824000D02*
X114585412Y-98000000D01*
X93200000Y-95000000D02*
X92000000Y-95000000D01*
X92000000Y-95000000D02*
X89366400Y-97633600D01*
X114585412Y-98000000D02*
X96200000Y-98000000D01*
X115000000Y-97600000D02*
X114776000Y-97824000D01*
G04 #@! TA.AperFunction,Conductor*
G36*
X68343039Y-129369685D02*
G01*
X68388794Y-129422489D01*
X68400000Y-129474000D01*
X68400000Y-129600000D01*
X68526000Y-129600000D01*
X68593039Y-129619685D01*
X68638794Y-129672489D01*
X68650000Y-129724000D01*
X68650000Y-130687499D01*
X68924972Y-130687499D01*
X68924986Y-130687498D01*
X69027697Y-130677005D01*
X69194119Y-130621858D01*
X69194124Y-130621856D01*
X69343345Y-130529815D01*
X69388319Y-130484842D01*
X69449642Y-130451357D01*
X69519334Y-130456341D01*
X69575267Y-130498213D01*
X69599684Y-130563677D01*
X69600000Y-130572523D01*
X69600000Y-135600000D01*
X73076000Y-135600000D01*
X73143039Y-135619685D01*
X73188794Y-135672489D01*
X73200000Y-135724000D01*
X73200000Y-136846599D01*
X73180315Y-136913638D01*
X73127511Y-136959393D01*
X73076000Y-136970599D01*
X72944900Y-136970599D01*
X72944900Y-137625999D01*
X72925215Y-137693038D01*
X72872411Y-137738793D01*
X72820900Y-137749999D01*
X72694900Y-137749999D01*
X72694900Y-137875999D01*
X72675215Y-137943038D01*
X72622411Y-137988793D01*
X72570900Y-137999999D01*
X71687250Y-137999999D01*
X71620211Y-137980314D01*
X71574456Y-137927510D01*
X71563250Y-137875999D01*
X71563250Y-137875000D01*
X69175001Y-137875000D01*
X69175001Y-137876000D01*
X69155316Y-137943039D01*
X69102512Y-137988794D01*
X69051001Y-138000000D01*
X65124000Y-138000000D01*
X65056961Y-137980315D01*
X65011206Y-137927511D01*
X65000000Y-137876000D01*
X65000000Y-137237513D01*
X69175000Y-137237513D01*
X69175000Y-137375000D01*
X70150000Y-137375000D01*
X70650000Y-137375000D01*
X71631000Y-137375000D01*
X71698039Y-137394685D01*
X71743794Y-137447489D01*
X71755000Y-137499000D01*
X71755000Y-137499999D01*
X72444900Y-137499999D01*
X72444900Y-136970599D01*
X72145405Y-136970599D01*
X72085877Y-136977000D01*
X72085870Y-136977002D01*
X71951163Y-137027244D01*
X71951156Y-137027248D01*
X71836062Y-137113408D01*
X71836060Y-137113410D01*
X71819859Y-137135052D01*
X71763924Y-137176922D01*
X71694233Y-137181904D01*
X71632910Y-137148418D01*
X71602888Y-137099743D01*
X71559358Y-136968380D01*
X71559356Y-136968375D01*
X71467315Y-136819154D01*
X71343345Y-136695184D01*
X71194124Y-136603143D01*
X71194119Y-136603141D01*
X71027697Y-136547994D01*
X71027690Y-136547993D01*
X70924986Y-136537500D01*
X70650000Y-136537500D01*
X70650000Y-137375000D01*
X70150000Y-137375000D01*
X70150000Y-136537500D01*
X69875029Y-136537500D01*
X69875012Y-136537501D01*
X69772302Y-136547994D01*
X69605880Y-136603141D01*
X69605875Y-136603143D01*
X69456654Y-136695184D01*
X69332684Y-136819154D01*
X69240643Y-136968375D01*
X69240641Y-136968380D01*
X69185494Y-137134802D01*
X69185493Y-137134809D01*
X69175000Y-137237513D01*
X65000000Y-137237513D01*
X65000000Y-130717045D01*
X65019685Y-130650006D01*
X65072489Y-130604251D01*
X65141647Y-130594307D01*
X65189100Y-130611508D01*
X65205876Y-130621856D01*
X65205880Y-130621858D01*
X65372302Y-130677005D01*
X65372309Y-130677006D01*
X65475019Y-130687499D01*
X65749999Y-130687499D01*
X66250000Y-130687499D01*
X66524972Y-130687499D01*
X66524986Y-130687498D01*
X66627697Y-130677005D01*
X66794119Y-130621858D01*
X66794124Y-130621856D01*
X66943345Y-130529815D01*
X67067317Y-130405843D01*
X67094461Y-130361836D01*
X67146408Y-130315111D01*
X67215371Y-130303888D01*
X67279453Y-130331731D01*
X67305539Y-130361836D01*
X67332682Y-130405843D01*
X67456654Y-130529815D01*
X67605875Y-130621856D01*
X67605880Y-130621858D01*
X67772302Y-130677005D01*
X67772309Y-130677006D01*
X67875019Y-130687499D01*
X68149999Y-130687499D01*
X68150000Y-130687498D01*
X68150000Y-129850000D01*
X66250000Y-129850000D01*
X66250000Y-130687499D01*
X65749999Y-130687499D01*
X65750000Y-130687498D01*
X65750000Y-129724000D01*
X65769685Y-129656961D01*
X65822489Y-129611206D01*
X65874000Y-129600000D01*
X66000000Y-129600000D01*
X66000000Y-129474000D01*
X66019685Y-129406961D01*
X66072489Y-129361206D01*
X66124000Y-129350000D01*
X68276000Y-129350000D01*
X68343039Y-129369685D01*
G37*
G04 #@! TD.AperFunction*
G04 #@! TA.AperFunction,Conductor*
G36*
X73343039Y-139419685D02*
G01*
X73388794Y-139472489D01*
X73400000Y-139524000D01*
X73400000Y-145876000D01*
X73380315Y-145943039D01*
X73327511Y-145988794D01*
X73276000Y-146000000D01*
X68324000Y-146000000D01*
X68256961Y-145980315D01*
X68211206Y-145927511D01*
X68200000Y-145876000D01*
X68200000Y-142524000D01*
X68219685Y-142456961D01*
X68272489Y-142411206D01*
X68324000Y-142400000D01*
X69800000Y-142400000D01*
X69800000Y-139524000D01*
X69819685Y-139456961D01*
X69872489Y-139411206D01*
X69924000Y-139400000D01*
X73276000Y-139400000D01*
X73343039Y-139419685D01*
G37*
G04 #@! TD.AperFunction*
G04 #@! TA.AperFunction,Conductor*
G36*
X71115677Y-131919685D02*
G01*
X71136319Y-131936319D01*
X71150000Y-131950000D01*
X77250000Y-131950000D01*
X77263681Y-131936319D01*
X77325004Y-131902834D01*
X77351362Y-131900000D01*
X77376000Y-131900000D01*
X77443039Y-131919685D01*
X77488794Y-131972489D01*
X77500000Y-132024000D01*
X77500000Y-135276000D01*
X77480315Y-135343039D01*
X77427511Y-135388794D01*
X77376000Y-135400000D01*
X73123122Y-135400000D01*
X73105475Y-135398738D01*
X73091358Y-135396708D01*
X73076000Y-135394500D01*
X73075999Y-135394500D01*
X70724000Y-135394500D01*
X70656961Y-135374815D01*
X70611206Y-135322011D01*
X70600000Y-135270500D01*
X70600000Y-133197844D01*
X71150000Y-133197844D01*
X71156401Y-133257372D01*
X71156403Y-133257379D01*
X71206645Y-133392086D01*
X71206649Y-133392093D01*
X71292809Y-133507187D01*
X71292812Y-133507190D01*
X71407906Y-133593350D01*
X71407913Y-133593354D01*
X71542620Y-133643596D01*
X71542627Y-133643598D01*
X71602155Y-133649999D01*
X71602172Y-133650000D01*
X73950000Y-133650000D01*
X74450000Y-133650000D01*
X76797828Y-133650000D01*
X76797844Y-133649999D01*
X76857372Y-133643598D01*
X76857379Y-133643596D01*
X76992086Y-133593354D01*
X76992093Y-133593350D01*
X77107187Y-133507190D01*
X77107190Y-133507187D01*
X77193350Y-133392093D01*
X77193354Y-133392086D01*
X77243596Y-133257379D01*
X77243598Y-133257372D01*
X77249999Y-133197844D01*
X77250000Y-133197827D01*
X77250000Y-132450000D01*
X74450000Y-132450000D01*
X74450000Y-133650000D01*
X73950000Y-133650000D01*
X73950000Y-132450000D01*
X71150000Y-132450000D01*
X71150000Y-133197844D01*
X70600000Y-133197844D01*
X70600000Y-132024000D01*
X70619685Y-131956961D01*
X70672489Y-131911206D01*
X70724000Y-131900000D01*
X71048638Y-131900000D01*
X71115677Y-131919685D01*
G37*
G04 #@! TD.AperFunction*
G04 #@! TA.AperFunction,Conductor*
G36*
X68843039Y-138519685D02*
G01*
X68888794Y-138572489D01*
X68900000Y-138624000D01*
X68900000Y-140576000D01*
X68880315Y-140643039D01*
X68827511Y-140688794D01*
X68776000Y-140700000D01*
X67024000Y-140700000D01*
X66956961Y-140680315D01*
X66911206Y-140627511D01*
X66900000Y-140576000D01*
X66900000Y-138624000D01*
X66919685Y-138556961D01*
X66972489Y-138511206D01*
X67024000Y-138500000D01*
X68776000Y-138500000D01*
X68843039Y-138519685D01*
G37*
G04 #@! TD.AperFunction*
M02*
