G04 #@! TF.GenerationSoftware,KiCad,Pcbnew,9.0.2*
G04 #@! TF.CreationDate,2025-08-11T21:07:56-07:00*
G04 #@! TF.ProjectId,MusicalTeslaCoil,4d757369-6361-46c5-9465-736c61436f69,REV1*
G04 #@! TF.SameCoordinates,Original*
G04 #@! TF.FileFunction,Copper,L2,Inr*
G04 #@! TF.FilePolarity,Positive*
%FSLAX46Y46*%
G04 Gerber Fmt 4.6, Leading zero omitted, Abs format (unit mm)*
G04 Created by KiCad (PCBNEW 9.0.2) date 2025-08-11 21:07:56*
%MOMM*%
%LPD*%
G01*
G04 APERTURE LIST*
G04 Aperture macros list*
%AMRoundRect*
0 Rectangle with rounded corners*
0 $1 Rounding radius*
0 $2 $3 $4 $5 $6 $7 $8 $9 X,Y pos of 4 corners*
0 Add a 4 corners polygon primitive as box body*
4,1,4,$2,$3,$4,$5,$6,$7,$8,$9,$2,$3,0*
0 Add four circle primitives for the rounded corners*
1,1,$1+$1,$2,$3*
1,1,$1+$1,$4,$5*
1,1,$1+$1,$6,$7*
1,1,$1+$1,$8,$9*
0 Add four rect primitives between the rounded corners*
20,1,$1+$1,$2,$3,$4,$5,0*
20,1,$1+$1,$4,$5,$6,$7,0*
20,1,$1+$1,$6,$7,$8,$9,0*
20,1,$1+$1,$8,$9,$2,$3,0*%
G04 Aperture macros list end*
G04 #@! TA.AperFunction,ComponentPad*
%ADD10C,1.700000*%
G04 #@! TD*
G04 #@! TA.AperFunction,ComponentPad*
%ADD11R,1.700000X1.700000*%
G04 #@! TD*
G04 #@! TA.AperFunction,ComponentPad*
%ADD12O,2.190000X1.740000*%
G04 #@! TD*
G04 #@! TA.AperFunction,ComponentPad*
%ADD13RoundRect,0.250000X0.845000X-0.620000X0.845000X0.620000X-0.845000X0.620000X-0.845000X-0.620000X0*%
G04 #@! TD*
G04 #@! TA.AperFunction,ComponentPad*
%ADD14RoundRect,0.250000X-0.845000X0.620000X-0.845000X-0.620000X0.845000X-0.620000X0.845000X0.620000X0*%
G04 #@! TD*
G04 #@! TA.AperFunction,HeatsinkPad*
%ADD15C,0.600000*%
G04 #@! TD*
G04 #@! TA.AperFunction,ComponentPad*
%ADD16O,1.600000X1.000000*%
G04 #@! TD*
G04 #@! TA.AperFunction,ComponentPad*
%ADD17O,1.900000X1.000000*%
G04 #@! TD*
G04 #@! TA.AperFunction,ViaPad*
%ADD18C,0.600000*%
G04 #@! TD*
G04 APERTURE END LIST*
D10*
X115000000Y-92460000D03*
X115000000Y-95000000D03*
X112460000Y-92460000D03*
X112460000Y-95000000D03*
X109920000Y-92460000D03*
D11*
X109920000Y-95000000D03*
D12*
X142500000Y-64500000D03*
D13*
X142500000Y-67040000D03*
D12*
X142500000Y-75000000D03*
D13*
X142500000Y-77540000D03*
D12*
X55540000Y-59265000D03*
D14*
X55540000Y-56725000D03*
D15*
X106000000Y-62800000D03*
X106000000Y-61400000D03*
X105300000Y-63500000D03*
X105300000Y-62100000D03*
X105300000Y-60700000D03*
X104600000Y-62800000D03*
X104600000Y-61400000D03*
X103900000Y-63500000D03*
X103900000Y-62100000D03*
X103900000Y-60700000D03*
X103200000Y-62800000D03*
X103200000Y-61400000D03*
D16*
X54825000Y-92850000D03*
X54825000Y-81650000D03*
D17*
X50825000Y-92850000D03*
X50825000Y-81650000D03*
D14*
X55480000Y-134725000D03*
D12*
X55480000Y-137265000D03*
D11*
X96840000Y-83000000D03*
D10*
X99380000Y-83000000D03*
X101920000Y-83000000D03*
X104460000Y-83000000D03*
X107000000Y-83000000D03*
X109540000Y-83000000D03*
D11*
X76000000Y-68920000D03*
D10*
X76000000Y-71460000D03*
X76000000Y-74000000D03*
X76000000Y-76540000D03*
X76000000Y-79080000D03*
D11*
X120380000Y-55500000D03*
D10*
X122920000Y-55500000D03*
X125460000Y-55500000D03*
X128000000Y-55500000D03*
X130540000Y-55500000D03*
X133080000Y-55500000D03*
X135620000Y-55500000D03*
X138160000Y-55500000D03*
X140700000Y-55500000D03*
X143240000Y-55500000D03*
D13*
X142488000Y-90000001D03*
D12*
X142488000Y-87460001D03*
D13*
X142500000Y-136540000D03*
D12*
X142500000Y-134000000D03*
D13*
X142500000Y-107540000D03*
D12*
X142500000Y-105000000D03*
D14*
X55236800Y-106208400D03*
D12*
X55236800Y-108748400D03*
D14*
X55520000Y-63725000D03*
D12*
X55520000Y-66265000D03*
D18*
X86000000Y-61500000D03*
X91500000Y-57500000D03*
X93500000Y-101500000D03*
X93500000Y-103500000D03*
X111000000Y-106000000D03*
X105500000Y-70600000D03*
X104500000Y-70500000D03*
X127000000Y-74000000D03*
X126000000Y-86500000D03*
X108000000Y-73500000D03*
X106500000Y-73500000D03*
X104500000Y-108000000D03*
X101000000Y-102000000D03*
X144000000Y-115500000D03*
X120500000Y-98500000D03*
X121000000Y-111000000D03*
X121000000Y-119000000D03*
X136000000Y-104500000D03*
X121500000Y-106500000D03*
X126000000Y-119000000D03*
X113500000Y-113500000D03*
X126500000Y-106500000D03*
X115000000Y-104000000D03*
X119000000Y-110500000D03*
X112500000Y-107000000D03*
X104000000Y-101500000D03*
X91500000Y-125000000D03*
X90500000Y-125000000D03*
X89500000Y-125000000D03*
X118500000Y-151000000D03*
X118500000Y-137000000D03*
X135500000Y-132000000D03*
X120500000Y-149000000D03*
X135500000Y-146500000D03*
X122500000Y-139000000D03*
X122500000Y-124500000D03*
X120500000Y-134500000D03*
X111000000Y-132500000D03*
X99000000Y-64500000D03*
X99000000Y-63500000D03*
X100500000Y-131000000D03*
X97500000Y-126500000D03*
X111000000Y-127500000D03*
X102000000Y-125000000D03*
X100000000Y-129000000D03*
X84500000Y-129000000D03*
X83500000Y-129000000D03*
X82500000Y-129000000D03*
X81000000Y-131500000D03*
X98500000Y-133500000D03*
X95000000Y-133500000D03*
X90500000Y-130000000D03*
X84000000Y-127000000D03*
X63000000Y-147000000D03*
X73083350Y-134500000D03*
X69500000Y-131000000D03*
X64000000Y-138000000D03*
X99000000Y-58500000D03*
X99000000Y-73500000D03*
X94000000Y-113500000D03*
X94000000Y-111000000D03*
X113500000Y-57000000D03*
X93500000Y-96500000D03*
X100500000Y-107500000D03*
X97000000Y-107500000D03*
X93500000Y-99000000D03*
X68500000Y-111000000D03*
X93500000Y-105500000D03*
X81000000Y-119000000D03*
X74000000Y-119000000D03*
X70000000Y-118500000D03*
X64500000Y-118500000D03*
X138500000Y-94500000D03*
X132000000Y-90000000D03*
X138000000Y-81500000D03*
X134500000Y-77500000D03*
X131000000Y-77500000D03*
X115500000Y-79500000D03*
X100500000Y-78500000D03*
X124000000Y-76000000D03*
X128500000Y-71000000D03*
X130500000Y-68000000D03*
X129376050Y-66500000D03*
X136500000Y-64500000D03*
X133000000Y-64500000D03*
X121500000Y-62500000D03*
X120000000Y-66000000D03*
X116500000Y-56000000D03*
X116500000Y-55000000D03*
X116500000Y-54000000D03*
X81500000Y-61000000D03*
X96000000Y-54500000D03*
X96000000Y-53500000D03*
X94500000Y-57500000D03*
X88500000Y-54500000D03*
X93500000Y-57500000D03*
X92776327Y-54017354D03*
X87500000Y-54500000D03*
X65500000Y-60500000D03*
X63000000Y-60500000D03*
X65500000Y-53500000D03*
X63000000Y-53500000D03*
X55500000Y-61000000D03*
X55500000Y-68000000D03*
X71000000Y-149000000D03*
X72000000Y-149000000D03*
X62000000Y-93000000D03*
X63000000Y-93000000D03*
X66000000Y-93500000D03*
X57500000Y-90500000D03*
X57500000Y-84000000D03*
G04 #@! TA.AperFunction,Conductor*
G36*
X147943039Y-53519685D02*
G01*
X147988794Y-53572489D01*
X148000000Y-53624000D01*
X148000000Y-151376000D01*
X147980315Y-151443039D01*
X147927511Y-151488794D01*
X147876000Y-151500000D01*
X119004027Y-151500000D01*
X118936988Y-151480315D01*
X118891233Y-151427511D01*
X118881289Y-151358353D01*
X118896640Y-151314000D01*
X118966390Y-151193189D01*
X118966392Y-151193186D01*
X119000500Y-151065892D01*
X119000500Y-150934108D01*
X118966392Y-150806814D01*
X118900500Y-150692686D01*
X118807314Y-150599500D01*
X118750250Y-150566554D01*
X118693187Y-150533608D01*
X118629539Y-150516554D01*
X118565892Y-150499500D01*
X118434108Y-150499500D01*
X118306812Y-150533608D01*
X118192686Y-150599500D01*
X118192683Y-150599502D01*
X118099502Y-150692683D01*
X118099500Y-150692686D01*
X118033608Y-150806812D01*
X117999500Y-150934108D01*
X117999500Y-151065891D01*
X118033609Y-151193188D01*
X118033609Y-151193189D01*
X118103360Y-151314000D01*
X118119833Y-151381900D01*
X118096981Y-151447927D01*
X118042060Y-151491117D01*
X117995973Y-151500000D01*
X50124000Y-151500000D01*
X50056961Y-151480315D01*
X50011206Y-151427511D01*
X50000000Y-151376000D01*
X50000000Y-148934108D01*
X70499500Y-148934108D01*
X70499500Y-149065891D01*
X70533608Y-149193187D01*
X70566554Y-149250250D01*
X70599500Y-149307314D01*
X70692686Y-149400500D01*
X70806814Y-149466392D01*
X70934108Y-149500500D01*
X70934110Y-149500500D01*
X71065890Y-149500500D01*
X71065892Y-149500500D01*
X71193186Y-149466392D01*
X71307314Y-149400500D01*
X71400500Y-149307314D01*
X71400504Y-149307306D01*
X71401625Y-149305847D01*
X71402892Y-149304921D01*
X71406247Y-149301567D01*
X71406770Y-149302090D01*
X71458053Y-149264645D01*
X71527799Y-149260491D01*
X71588719Y-149294704D01*
X71598375Y-149305847D01*
X71599498Y-149307311D01*
X71599500Y-149307314D01*
X71692686Y-149400500D01*
X71806814Y-149466392D01*
X71934108Y-149500500D01*
X71934110Y-149500500D01*
X72065890Y-149500500D01*
X72065892Y-149500500D01*
X72193186Y-149466392D01*
X72307314Y-149400500D01*
X72400500Y-149307314D01*
X72466392Y-149193186D01*
X72500500Y-149065892D01*
X72500500Y-148934108D01*
X72466392Y-148806814D01*
X72400500Y-148692686D01*
X72307314Y-148599500D01*
X72250250Y-148566554D01*
X72193187Y-148533608D01*
X72129539Y-148516554D01*
X72065892Y-148499500D01*
X71934108Y-148499500D01*
X71806812Y-148533608D01*
X71692686Y-148599500D01*
X71692683Y-148599502D01*
X71599498Y-148692687D01*
X71598370Y-148694158D01*
X71597102Y-148695083D01*
X71593753Y-148698433D01*
X71593230Y-148697910D01*
X71541940Y-148735356D01*
X71472193Y-148739506D01*
X71411275Y-148705289D01*
X71401630Y-148694158D01*
X71400501Y-148692687D01*
X71307316Y-148599502D01*
X71307314Y-148599500D01*
X71250250Y-148566554D01*
X71193187Y-148533608D01*
X71129539Y-148516554D01*
X71065892Y-148499500D01*
X70934108Y-148499500D01*
X70806812Y-148533608D01*
X70692686Y-148599500D01*
X70692683Y-148599502D01*
X70599502Y-148692683D01*
X70599500Y-148692686D01*
X70533608Y-148806812D01*
X70499500Y-148934108D01*
X50000000Y-148934108D01*
X50000000Y-134055013D01*
X53885000Y-134055013D01*
X53885000Y-134475000D01*
X54937291Y-134475000D01*
X54925548Y-134495339D01*
X54885000Y-134646667D01*
X54885000Y-134803333D01*
X54925548Y-134954661D01*
X54937291Y-134975000D01*
X53885001Y-134975000D01*
X53885001Y-135394986D01*
X53895494Y-135497697D01*
X53950641Y-135664119D01*
X53950643Y-135664124D01*
X54042684Y-135813345D01*
X54166654Y-135937315D01*
X54315875Y-136029356D01*
X54315880Y-136029358D01*
X54482302Y-136084505D01*
X54482309Y-136084506D01*
X54585019Y-136094999D01*
X54670404Y-136094999D01*
X54737443Y-136114683D01*
X54783199Y-136167486D01*
X54793143Y-136236645D01*
X54764119Y-136300201D01*
X54739296Y-136322101D01*
X54572596Y-136433487D01*
X54572592Y-136433490D01*
X54423490Y-136582592D01*
X54423487Y-136582596D01*
X54306338Y-136757921D01*
X54306333Y-136757930D01*
X54225638Y-136952746D01*
X54225636Y-136952754D01*
X54184500Y-137159560D01*
X54184500Y-137370439D01*
X54225636Y-137577245D01*
X54225638Y-137577253D01*
X54306333Y-137772069D01*
X54306338Y-137772078D01*
X54423487Y-137947403D01*
X54423490Y-137947407D01*
X54572592Y-138096509D01*
X54572596Y-138096512D01*
X54747921Y-138213661D01*
X54747927Y-138213664D01*
X54747928Y-138213665D01*
X54942747Y-138294362D01*
X55149560Y-138335499D01*
X55149564Y-138335500D01*
X55149565Y-138335500D01*
X55810436Y-138335500D01*
X55810437Y-138335499D01*
X56017253Y-138294362D01*
X56212072Y-138213665D01*
X56387404Y-138096512D01*
X56536512Y-137947404D01*
X56653665Y-137772072D01*
X56734362Y-137577253D01*
X56775500Y-137370435D01*
X56775500Y-137159565D01*
X56756867Y-137065890D01*
X56734363Y-136952751D01*
X56734362Y-136952749D01*
X56734362Y-136952747D01*
X56726641Y-136934108D01*
X117999500Y-136934108D01*
X117999500Y-137065891D01*
X118033608Y-137193187D01*
X118045780Y-137214269D01*
X118099500Y-137307314D01*
X118192686Y-137400500D01*
X118306814Y-137466392D01*
X118434108Y-137500500D01*
X118434110Y-137500500D01*
X118565890Y-137500500D01*
X118565892Y-137500500D01*
X118693186Y-137466392D01*
X118807314Y-137400500D01*
X118900500Y-137307314D01*
X118966392Y-137193186D01*
X119000500Y-137065892D01*
X119000500Y-136934108D01*
X118966392Y-136806814D01*
X118900500Y-136692686D01*
X118807314Y-136599500D01*
X118750250Y-136566554D01*
X118693187Y-136533608D01*
X118629539Y-136516554D01*
X118565892Y-136499500D01*
X118434108Y-136499500D01*
X118306812Y-136533608D01*
X118192686Y-136599500D01*
X118192683Y-136599502D01*
X118099502Y-136692683D01*
X118099500Y-136692686D01*
X118033608Y-136806812D01*
X117999500Y-136934108D01*
X56726641Y-136934108D01*
X56653665Y-136757928D01*
X56653664Y-136757927D01*
X56653661Y-136757921D01*
X56536512Y-136582596D01*
X56536509Y-136582592D01*
X56387407Y-136433490D01*
X56387403Y-136433487D01*
X56220702Y-136322101D01*
X56175897Y-136268489D01*
X56167190Y-136199164D01*
X56197344Y-136136137D01*
X56256787Y-136099417D01*
X56289593Y-136094999D01*
X56374971Y-136094999D01*
X56374987Y-136094998D01*
X56477697Y-136084505D01*
X56644119Y-136029358D01*
X56644124Y-136029356D01*
X56793345Y-135937315D01*
X56864930Y-135865730D01*
X141204500Y-135865730D01*
X141204500Y-137214269D01*
X141207353Y-137244699D01*
X141207353Y-137244701D01*
X141251351Y-137370436D01*
X141252207Y-137372882D01*
X141332850Y-137482150D01*
X141442118Y-137562793D01*
X141483420Y-137577245D01*
X141570299Y-137607646D01*
X141600730Y-137610500D01*
X141600734Y-137610500D01*
X143399270Y-137610500D01*
X143429699Y-137607646D01*
X143429701Y-137607646D01*
X143493790Y-137585219D01*
X143557882Y-137562793D01*
X143667150Y-137482150D01*
X143747793Y-137372882D01*
X143770736Y-137307314D01*
X143792646Y-137244701D01*
X143792646Y-137244699D01*
X143795500Y-137214269D01*
X143795500Y-135865730D01*
X143792646Y-135835300D01*
X143792646Y-135835298D01*
X143747793Y-135707119D01*
X143747792Y-135707117D01*
X143716058Y-135664119D01*
X143667150Y-135597850D01*
X143557882Y-135517207D01*
X143557880Y-135517206D01*
X143429700Y-135472353D01*
X143399270Y-135469500D01*
X143399266Y-135469500D01*
X141600734Y-135469500D01*
X141600730Y-135469500D01*
X141570300Y-135472353D01*
X141570298Y-135472353D01*
X141442119Y-135517206D01*
X141442117Y-135517207D01*
X141332850Y-135597850D01*
X141252207Y-135707117D01*
X141252206Y-135707119D01*
X141207353Y-135835298D01*
X141207353Y-135835300D01*
X141204500Y-135865730D01*
X56864930Y-135865730D01*
X56917317Y-135813343D01*
X56926942Y-135797739D01*
X56926942Y-135797738D01*
X57009356Y-135664124D01*
X57009358Y-135664119D01*
X57064505Y-135497697D01*
X57064506Y-135497690D01*
X57074999Y-135394986D01*
X57075000Y-135394973D01*
X57075000Y-134975000D01*
X56022709Y-134975000D01*
X56034452Y-134954661D01*
X56075000Y-134803333D01*
X56075000Y-134646667D01*
X56034452Y-134495339D01*
X56022709Y-134475000D01*
X57074999Y-134475000D01*
X57074999Y-134055028D01*
X57074998Y-134055013D01*
X57064505Y-133952300D01*
X57056283Y-133927487D01*
X57056279Y-133927477D01*
X57045371Y-133894560D01*
X141204500Y-133894560D01*
X141204500Y-134105439D01*
X141245636Y-134312245D01*
X141245638Y-134312253D01*
X141326333Y-134507069D01*
X141326338Y-134507078D01*
X141443487Y-134682403D01*
X141443490Y-134682407D01*
X141592592Y-134831509D01*
X141592596Y-134831512D01*
X141767921Y-134948661D01*
X141767930Y-134948666D01*
X141812063Y-134966946D01*
X141962747Y-135029362D01*
X142169560Y-135070499D01*
X142169564Y-135070500D01*
X142169565Y-135070500D01*
X142830436Y-135070500D01*
X142830437Y-135070499D01*
X143037253Y-135029362D01*
X143232072Y-134948665D01*
X143407404Y-134831512D01*
X143556512Y-134682404D01*
X143673665Y-134507072D01*
X143754362Y-134312253D01*
X143795500Y-134105435D01*
X143795500Y-133894565D01*
X143754362Y-133687747D01*
X143673665Y-133492928D01*
X143673664Y-133492927D01*
X143673661Y-133492921D01*
X143556512Y-133317596D01*
X143556509Y-133317592D01*
X143407407Y-133168490D01*
X143407403Y-133168487D01*
X143232078Y-133051338D01*
X143232069Y-133051333D01*
X143037253Y-132970638D01*
X143037245Y-132970636D01*
X142830439Y-132929500D01*
X142830435Y-132929500D01*
X142169565Y-132929500D01*
X142169560Y-132929500D01*
X141962754Y-132970636D01*
X141962746Y-132970638D01*
X141767930Y-133051333D01*
X141767921Y-133051338D01*
X141592596Y-133168487D01*
X141592592Y-133168490D01*
X141443490Y-133317592D01*
X141443487Y-133317596D01*
X141326338Y-133492921D01*
X141326333Y-133492930D01*
X141245638Y-133687746D01*
X141245636Y-133687754D01*
X141204500Y-133894560D01*
X57045371Y-133894560D01*
X57009358Y-133785880D01*
X57009356Y-133785875D01*
X56917315Y-133636654D01*
X56793345Y-133512684D01*
X56644124Y-133420643D01*
X56644119Y-133420641D01*
X56477697Y-133365494D01*
X56477690Y-133365493D01*
X56374986Y-133355000D01*
X55730000Y-133355000D01*
X55730000Y-134182290D01*
X55709661Y-134170548D01*
X55558333Y-134130000D01*
X55401667Y-134130000D01*
X55250339Y-134170548D01*
X55230000Y-134182290D01*
X55230000Y-133355000D01*
X54585028Y-133355000D01*
X54585012Y-133355001D01*
X54482302Y-133365494D01*
X54315880Y-133420641D01*
X54315875Y-133420643D01*
X54166654Y-133512684D01*
X54042684Y-133636654D01*
X53950643Y-133785875D01*
X53950641Y-133785880D01*
X53895494Y-133952302D01*
X53895493Y-133952309D01*
X53885000Y-134055013D01*
X50000000Y-134055013D01*
X50000000Y-130934108D01*
X99999500Y-130934108D01*
X99999500Y-131065891D01*
X100033608Y-131193187D01*
X100066554Y-131250250D01*
X100099500Y-131307314D01*
X100192686Y-131400500D01*
X100306814Y-131466392D01*
X100434108Y-131500500D01*
X100434110Y-131500500D01*
X100565890Y-131500500D01*
X100565892Y-131500500D01*
X100693186Y-131466392D01*
X100807314Y-131400500D01*
X100900500Y-131307314D01*
X100966392Y-131193186D01*
X101000500Y-131065892D01*
X101000500Y-130934108D01*
X100966392Y-130806814D01*
X100900500Y-130692686D01*
X100807314Y-130599500D01*
X100750250Y-130566554D01*
X100693187Y-130533608D01*
X100629539Y-130516554D01*
X100565892Y-130499500D01*
X100434108Y-130499500D01*
X100306812Y-130533608D01*
X100192686Y-130599500D01*
X100192683Y-130599502D01*
X100099502Y-130692683D01*
X100099500Y-130692686D01*
X100033608Y-130806812D01*
X99999500Y-130934108D01*
X50000000Y-130934108D01*
X50000000Y-128934108D01*
X81999500Y-128934108D01*
X81999500Y-129065891D01*
X82033608Y-129193187D01*
X82066554Y-129250250D01*
X82099500Y-129307314D01*
X82192686Y-129400500D01*
X82306814Y-129466392D01*
X82434108Y-129500500D01*
X82434110Y-129500500D01*
X82565890Y-129500500D01*
X82565892Y-129500500D01*
X82693186Y-129466392D01*
X82807314Y-129400500D01*
X82900500Y-129307314D01*
X82900504Y-129307306D01*
X82901625Y-129305847D01*
X82902892Y-129304921D01*
X82906247Y-129301567D01*
X82906770Y-129302090D01*
X82958053Y-129264645D01*
X83027799Y-129260491D01*
X83088719Y-129294704D01*
X83098375Y-129305847D01*
X83099498Y-129307311D01*
X83099500Y-129307314D01*
X83192686Y-129400500D01*
X83306814Y-129466392D01*
X83434108Y-129500500D01*
X83434110Y-129500500D01*
X83565890Y-129500500D01*
X83565892Y-129500500D01*
X83693186Y-129466392D01*
X83807314Y-129400500D01*
X83900500Y-129307314D01*
X83900504Y-129307306D01*
X83901625Y-129305847D01*
X83902892Y-129304921D01*
X83906247Y-129301567D01*
X83906770Y-129302090D01*
X83958053Y-129264645D01*
X84027799Y-129260491D01*
X84088719Y-129294704D01*
X84098375Y-129305847D01*
X84099498Y-129307311D01*
X84099500Y-129307314D01*
X84192686Y-129400500D01*
X84306814Y-129466392D01*
X84434108Y-129500500D01*
X84434110Y-129500500D01*
X84565890Y-129500500D01*
X84565892Y-129500500D01*
X84693186Y-129466392D01*
X84807314Y-129400500D01*
X84900500Y-129307314D01*
X84966392Y-129193186D01*
X85000500Y-129065892D01*
X85000500Y-128934108D01*
X84966392Y-128806814D01*
X84900500Y-128692686D01*
X84807314Y-128599500D01*
X84750250Y-128566554D01*
X84693187Y-128533608D01*
X84629539Y-128516554D01*
X84565892Y-128499500D01*
X84434108Y-128499500D01*
X84306812Y-128533608D01*
X84192686Y-128599500D01*
X84192683Y-128599502D01*
X84099498Y-128692687D01*
X84098370Y-128694158D01*
X84097102Y-128695083D01*
X84093753Y-128698433D01*
X84093230Y-128697910D01*
X84041940Y-128735356D01*
X83972193Y-128739506D01*
X83911275Y-128705289D01*
X83901630Y-128694158D01*
X83900501Y-128692687D01*
X83807316Y-128599502D01*
X83807314Y-128599500D01*
X83750250Y-128566554D01*
X83693187Y-128533608D01*
X83629539Y-128516554D01*
X83565892Y-128499500D01*
X83434108Y-128499500D01*
X83306812Y-128533608D01*
X83192686Y-128599500D01*
X83192683Y-128599502D01*
X83099498Y-128692687D01*
X83098370Y-128694158D01*
X83097102Y-128695083D01*
X83093753Y-128698433D01*
X83093230Y-128697910D01*
X83041940Y-128735356D01*
X82972193Y-128739506D01*
X82911275Y-128705289D01*
X82901630Y-128694158D01*
X82900501Y-128692687D01*
X82807316Y-128599502D01*
X82807314Y-128599500D01*
X82750250Y-128566554D01*
X82693187Y-128533608D01*
X82629539Y-128516554D01*
X82565892Y-128499500D01*
X82434108Y-128499500D01*
X82306812Y-128533608D01*
X82192686Y-128599500D01*
X82192683Y-128599502D01*
X82099502Y-128692683D01*
X82099500Y-128692686D01*
X82033608Y-128806812D01*
X81999500Y-128934108D01*
X50000000Y-128934108D01*
X50000000Y-127434108D01*
X110499500Y-127434108D01*
X110499500Y-127565891D01*
X110533608Y-127693187D01*
X110566554Y-127750250D01*
X110599500Y-127807314D01*
X110692686Y-127900500D01*
X110806814Y-127966392D01*
X110934108Y-128000500D01*
X110934110Y-128000500D01*
X111065890Y-128000500D01*
X111065892Y-128000500D01*
X111193186Y-127966392D01*
X111307314Y-127900500D01*
X111400500Y-127807314D01*
X111466392Y-127693186D01*
X111500500Y-127565892D01*
X111500500Y-127434108D01*
X111466392Y-127306814D01*
X111400500Y-127192686D01*
X111307314Y-127099500D01*
X111250250Y-127066554D01*
X111193187Y-127033608D01*
X111129539Y-127016554D01*
X111065892Y-126999500D01*
X110934108Y-126999500D01*
X110806812Y-127033608D01*
X110692686Y-127099500D01*
X110692683Y-127099502D01*
X110599502Y-127192683D01*
X110599500Y-127192686D01*
X110533608Y-127306812D01*
X110499500Y-127434108D01*
X50000000Y-127434108D01*
X50000000Y-126434108D01*
X96999500Y-126434108D01*
X96999500Y-126565891D01*
X97033608Y-126693187D01*
X97066554Y-126750250D01*
X97099500Y-126807314D01*
X97192686Y-126900500D01*
X97306814Y-126966392D01*
X97434108Y-127000500D01*
X97434110Y-127000500D01*
X97565890Y-127000500D01*
X97565892Y-127000500D01*
X97693186Y-126966392D01*
X97807314Y-126900500D01*
X97900500Y-126807314D01*
X97966392Y-126693186D01*
X98000500Y-126565892D01*
X98000500Y-126434108D01*
X97966392Y-126306814D01*
X97900500Y-126192686D01*
X97807314Y-126099500D01*
X97750250Y-126066554D01*
X97693187Y-126033608D01*
X97629539Y-126016554D01*
X97565892Y-125999500D01*
X97434108Y-125999500D01*
X97306812Y-126033608D01*
X97192686Y-126099500D01*
X97192683Y-126099502D01*
X97099502Y-126192683D01*
X97099500Y-126192686D01*
X97033608Y-126306812D01*
X96999500Y-126434108D01*
X50000000Y-126434108D01*
X50000000Y-124934108D01*
X88999500Y-124934108D01*
X88999500Y-125065891D01*
X89033608Y-125193187D01*
X89066554Y-125250250D01*
X89099500Y-125307314D01*
X89192686Y-125400500D01*
X89306814Y-125466392D01*
X89434108Y-125500500D01*
X89434110Y-125500500D01*
X89565890Y-125500500D01*
X89565892Y-125500500D01*
X89693186Y-125466392D01*
X89807314Y-125400500D01*
X89900500Y-125307314D01*
X89900504Y-125307306D01*
X89901625Y-125305847D01*
X89902892Y-125304921D01*
X89906247Y-125301567D01*
X89906770Y-125302090D01*
X89958053Y-125264645D01*
X90027799Y-125260491D01*
X90088719Y-125294704D01*
X90098375Y-125305847D01*
X90099498Y-125307311D01*
X90099500Y-125307314D01*
X90192686Y-125400500D01*
X90306814Y-125466392D01*
X90434108Y-125500500D01*
X90434110Y-125500500D01*
X90565890Y-125500500D01*
X90565892Y-125500500D01*
X90693186Y-125466392D01*
X90807314Y-125400500D01*
X90900500Y-125307314D01*
X90900504Y-125307306D01*
X90901625Y-125305847D01*
X90902892Y-125304921D01*
X90906247Y-125301567D01*
X90906770Y-125302090D01*
X90958053Y-125264645D01*
X91027799Y-125260491D01*
X91088719Y-125294704D01*
X91098375Y-125305847D01*
X91099498Y-125307311D01*
X91099500Y-125307314D01*
X91192686Y-125400500D01*
X91306814Y-125466392D01*
X91434108Y-125500500D01*
X91434110Y-125500500D01*
X91565890Y-125500500D01*
X91565892Y-125500500D01*
X91693186Y-125466392D01*
X91807314Y-125400500D01*
X91900500Y-125307314D01*
X91966392Y-125193186D01*
X92000500Y-125065892D01*
X92000500Y-124934108D01*
X101499500Y-124934108D01*
X101499500Y-125065891D01*
X101533608Y-125193187D01*
X101566554Y-125250250D01*
X101599500Y-125307314D01*
X101692686Y-125400500D01*
X101806814Y-125466392D01*
X101934108Y-125500500D01*
X101934110Y-125500500D01*
X102065890Y-125500500D01*
X102065892Y-125500500D01*
X102193186Y-125466392D01*
X102307314Y-125400500D01*
X102400500Y-125307314D01*
X102466392Y-125193186D01*
X102500500Y-125065892D01*
X102500500Y-124934108D01*
X102466392Y-124806814D01*
X102400500Y-124692686D01*
X102307314Y-124599500D01*
X102250250Y-124566554D01*
X102193187Y-124533608D01*
X102129539Y-124516554D01*
X102065892Y-124499500D01*
X101934108Y-124499500D01*
X101806812Y-124533608D01*
X101692686Y-124599500D01*
X101692683Y-124599502D01*
X101599502Y-124692683D01*
X101599500Y-124692686D01*
X101533608Y-124806812D01*
X101499500Y-124934108D01*
X92000500Y-124934108D01*
X91966392Y-124806814D01*
X91900500Y-124692686D01*
X91807314Y-124599500D01*
X91750250Y-124566554D01*
X91693187Y-124533608D01*
X91629539Y-124516554D01*
X91565892Y-124499500D01*
X91434108Y-124499500D01*
X91306812Y-124533608D01*
X91192686Y-124599500D01*
X91192683Y-124599502D01*
X91099498Y-124692687D01*
X91098370Y-124694158D01*
X91097102Y-124695083D01*
X91093753Y-124698433D01*
X91093230Y-124697910D01*
X91041940Y-124735356D01*
X90972193Y-124739506D01*
X90911275Y-124705289D01*
X90901630Y-124694158D01*
X90900501Y-124692687D01*
X90807316Y-124599502D01*
X90807314Y-124599500D01*
X90750250Y-124566554D01*
X90693187Y-124533608D01*
X90629539Y-124516554D01*
X90565892Y-124499500D01*
X90434108Y-124499500D01*
X90306812Y-124533608D01*
X90192686Y-124599500D01*
X90192683Y-124599502D01*
X90099498Y-124692687D01*
X90098370Y-124694158D01*
X90097102Y-124695083D01*
X90093753Y-124698433D01*
X90093230Y-124697910D01*
X90041940Y-124735356D01*
X89972193Y-124739506D01*
X89911275Y-124705289D01*
X89901630Y-124694158D01*
X89900501Y-124692687D01*
X89807316Y-124599502D01*
X89807314Y-124599500D01*
X89750250Y-124566554D01*
X89693187Y-124533608D01*
X89629539Y-124516554D01*
X89565892Y-124499500D01*
X89434108Y-124499500D01*
X89306812Y-124533608D01*
X89192686Y-124599500D01*
X89192683Y-124599502D01*
X89099502Y-124692683D01*
X89099500Y-124692686D01*
X89033608Y-124806812D01*
X88999500Y-124934108D01*
X50000000Y-124934108D01*
X50000000Y-118934108D01*
X125499500Y-118934108D01*
X125499500Y-119065891D01*
X125533608Y-119193187D01*
X125566554Y-119250250D01*
X125599500Y-119307314D01*
X125692686Y-119400500D01*
X125806814Y-119466392D01*
X125934108Y-119500500D01*
X125934110Y-119500500D01*
X126065890Y-119500500D01*
X126065892Y-119500500D01*
X126193186Y-119466392D01*
X126307314Y-119400500D01*
X126400500Y-119307314D01*
X126466392Y-119193186D01*
X126500500Y-119065892D01*
X126500500Y-118934108D01*
X126466392Y-118806814D01*
X126400500Y-118692686D01*
X126307314Y-118599500D01*
X126250250Y-118566554D01*
X126193187Y-118533608D01*
X126129539Y-118516554D01*
X126065892Y-118499500D01*
X125934108Y-118499500D01*
X125806812Y-118533608D01*
X125692686Y-118599500D01*
X125692683Y-118599502D01*
X125599502Y-118692683D01*
X125599500Y-118692686D01*
X125533608Y-118806812D01*
X125499500Y-118934108D01*
X50000000Y-118934108D01*
X50000000Y-113434108D01*
X93499500Y-113434108D01*
X93499500Y-113565891D01*
X93533608Y-113693187D01*
X93566554Y-113750250D01*
X93599500Y-113807314D01*
X93692686Y-113900500D01*
X93806814Y-113966392D01*
X93934108Y-114000500D01*
X93934110Y-114000500D01*
X94065890Y-114000500D01*
X94065892Y-114000500D01*
X94193186Y-113966392D01*
X94307314Y-113900500D01*
X94400500Y-113807314D01*
X94466392Y-113693186D01*
X94500500Y-113565892D01*
X94500500Y-113434108D01*
X112999500Y-113434108D01*
X112999500Y-113565891D01*
X113033608Y-113693187D01*
X113066554Y-113750250D01*
X113099500Y-113807314D01*
X113192686Y-113900500D01*
X113306814Y-113966392D01*
X113434108Y-114000500D01*
X113434110Y-114000500D01*
X113565890Y-114000500D01*
X113565892Y-114000500D01*
X113693186Y-113966392D01*
X113807314Y-113900500D01*
X113900500Y-113807314D01*
X113966392Y-113693186D01*
X114000500Y-113565892D01*
X114000500Y-113434108D01*
X113966392Y-113306814D01*
X113900500Y-113192686D01*
X113807314Y-113099500D01*
X113750250Y-113066554D01*
X113693187Y-113033608D01*
X113629539Y-113016554D01*
X113565892Y-112999500D01*
X113434108Y-112999500D01*
X113306812Y-113033608D01*
X113192686Y-113099500D01*
X113192683Y-113099502D01*
X113099502Y-113192683D01*
X113099500Y-113192686D01*
X113033608Y-113306812D01*
X112999500Y-113434108D01*
X94500500Y-113434108D01*
X94466392Y-113306814D01*
X94400500Y-113192686D01*
X94307314Y-113099500D01*
X94250250Y-113066554D01*
X94193187Y-113033608D01*
X94129539Y-113016554D01*
X94065892Y-112999500D01*
X93934108Y-112999500D01*
X93806812Y-113033608D01*
X93692686Y-113099500D01*
X93692683Y-113099502D01*
X93599502Y-113192683D01*
X93599500Y-113192686D01*
X93533608Y-113306812D01*
X93499500Y-113434108D01*
X50000000Y-113434108D01*
X50000000Y-110934108D01*
X93499500Y-110934108D01*
X93499500Y-111065891D01*
X93533608Y-111193187D01*
X93566554Y-111250250D01*
X93599500Y-111307314D01*
X93692686Y-111400500D01*
X93806814Y-111466392D01*
X93934108Y-111500500D01*
X93934110Y-111500500D01*
X94065890Y-111500500D01*
X94065892Y-111500500D01*
X94193186Y-111466392D01*
X94307314Y-111400500D01*
X94400500Y-111307314D01*
X94466392Y-111193186D01*
X94500500Y-111065892D01*
X94500500Y-110934108D01*
X94466392Y-110806814D01*
X94400500Y-110692686D01*
X94307314Y-110599500D01*
X94193186Y-110533608D01*
X94065892Y-110499500D01*
X93934108Y-110499500D01*
X93806812Y-110533608D01*
X93692686Y-110599500D01*
X93692683Y-110599502D01*
X93599502Y-110692683D01*
X93599500Y-110692686D01*
X93533608Y-110806812D01*
X93499500Y-110934108D01*
X50000000Y-110934108D01*
X50000000Y-110434108D01*
X118499500Y-110434108D01*
X118499500Y-110565891D01*
X118533608Y-110693187D01*
X118566554Y-110750250D01*
X118599500Y-110807314D01*
X118692686Y-110900500D01*
X118806814Y-110966392D01*
X118934108Y-111000500D01*
X118934110Y-111000500D01*
X119065890Y-111000500D01*
X119065892Y-111000500D01*
X119193186Y-110966392D01*
X119307314Y-110900500D01*
X119400500Y-110807314D01*
X119466392Y-110693186D01*
X119500500Y-110565892D01*
X119500500Y-110434108D01*
X119466392Y-110306814D01*
X119400500Y-110192686D01*
X119307314Y-110099500D01*
X119250250Y-110066554D01*
X119193187Y-110033608D01*
X119129539Y-110016554D01*
X119065892Y-109999500D01*
X118934108Y-109999500D01*
X118806812Y-110033608D01*
X118692686Y-110099500D01*
X118692683Y-110099502D01*
X118599502Y-110192683D01*
X118599500Y-110192686D01*
X118533608Y-110306812D01*
X118499500Y-110434108D01*
X50000000Y-110434108D01*
X50000000Y-108642960D01*
X53941300Y-108642960D01*
X53941300Y-108853839D01*
X53982436Y-109060645D01*
X53982438Y-109060653D01*
X54063133Y-109255469D01*
X54063138Y-109255478D01*
X54180287Y-109430803D01*
X54180290Y-109430807D01*
X54329392Y-109579909D01*
X54329396Y-109579912D01*
X54504721Y-109697061D01*
X54504727Y-109697064D01*
X54504728Y-109697065D01*
X54699547Y-109777762D01*
X54906360Y-109818899D01*
X54906364Y-109818900D01*
X54906365Y-109818900D01*
X55567236Y-109818900D01*
X55567237Y-109818899D01*
X55774053Y-109777762D01*
X55968872Y-109697065D01*
X56144204Y-109579912D01*
X56293312Y-109430804D01*
X56410465Y-109255472D01*
X56491162Y-109060653D01*
X56532300Y-108853835D01*
X56532300Y-108642965D01*
X56491162Y-108436147D01*
X56410465Y-108241328D01*
X56410464Y-108241327D01*
X56410461Y-108241321D01*
X56293312Y-108065996D01*
X56293309Y-108065992D01*
X56161425Y-107934108D01*
X103999500Y-107934108D01*
X103999500Y-108065891D01*
X104033608Y-108193187D01*
X104045780Y-108214269D01*
X104099500Y-108307314D01*
X104192686Y-108400500D01*
X104306814Y-108466392D01*
X104434108Y-108500500D01*
X104434110Y-108500500D01*
X104565890Y-108500500D01*
X104565892Y-108500500D01*
X104693186Y-108466392D01*
X104807314Y-108400500D01*
X104900500Y-108307314D01*
X104966392Y-108193186D01*
X105000500Y-108065892D01*
X105000500Y-107934108D01*
X104966392Y-107806814D01*
X104900500Y-107692686D01*
X104807314Y-107599500D01*
X104750250Y-107566554D01*
X104693187Y-107533608D01*
X104629539Y-107516554D01*
X104565892Y-107499500D01*
X104434108Y-107499500D01*
X104306812Y-107533608D01*
X104192686Y-107599500D01*
X104192683Y-107599502D01*
X104099502Y-107692683D01*
X104099500Y-107692686D01*
X104033608Y-107806812D01*
X103999500Y-107934108D01*
X56161425Y-107934108D01*
X56144207Y-107916890D01*
X56144203Y-107916887D01*
X55968878Y-107799738D01*
X55968869Y-107799733D01*
X55774053Y-107719038D01*
X55774045Y-107719036D01*
X55567239Y-107677900D01*
X55567235Y-107677900D01*
X54906365Y-107677900D01*
X54906360Y-107677900D01*
X54699554Y-107719036D01*
X54699546Y-107719038D01*
X54504730Y-107799733D01*
X54504721Y-107799738D01*
X54329396Y-107916887D01*
X54329392Y-107916890D01*
X54180290Y-108065992D01*
X54180287Y-108065996D01*
X54063138Y-108241321D01*
X54063133Y-108241330D01*
X53982438Y-108436146D01*
X53982436Y-108436154D01*
X53941300Y-108642960D01*
X50000000Y-108642960D01*
X50000000Y-105534130D01*
X53941300Y-105534130D01*
X53941300Y-106882669D01*
X53944153Y-106913099D01*
X53944153Y-106913101D01*
X53989006Y-107041280D01*
X53989007Y-107041282D01*
X54069650Y-107150550D01*
X54178918Y-107231193D01*
X54221645Y-107246144D01*
X54307099Y-107276046D01*
X54337530Y-107278900D01*
X54337534Y-107278900D01*
X56136070Y-107278900D01*
X56166499Y-107276046D01*
X56166501Y-107276046D01*
X56230590Y-107253619D01*
X56294682Y-107231193D01*
X56403950Y-107150550D01*
X56484593Y-107041282D01*
X56510798Y-106966392D01*
X56529446Y-106913101D01*
X56529446Y-106913099D01*
X56532300Y-106882669D01*
X56532300Y-105934108D01*
X110499500Y-105934108D01*
X110499500Y-106065892D01*
X110500735Y-106070500D01*
X110533608Y-106193187D01*
X110566554Y-106250250D01*
X110599500Y-106307314D01*
X110692686Y-106400500D01*
X110806814Y-106466392D01*
X110934108Y-106500500D01*
X110934110Y-106500500D01*
X111065890Y-106500500D01*
X111065892Y-106500500D01*
X111193186Y-106466392D01*
X111249103Y-106434108D01*
X125999500Y-106434108D01*
X125999500Y-106565891D01*
X126033608Y-106693187D01*
X126041652Y-106707119D01*
X126099500Y-106807314D01*
X126192686Y-106900500D01*
X126306814Y-106966392D01*
X126434108Y-107000500D01*
X126434110Y-107000500D01*
X126565890Y-107000500D01*
X126565892Y-107000500D01*
X126693186Y-106966392D01*
X126807314Y-106900500D01*
X126842084Y-106865730D01*
X141204500Y-106865730D01*
X141204500Y-108214269D01*
X141207353Y-108244699D01*
X141207353Y-108244701D01*
X141252206Y-108372880D01*
X141252207Y-108372882D01*
X141332850Y-108482150D01*
X141442118Y-108562793D01*
X141484845Y-108577744D01*
X141570299Y-108607646D01*
X141600730Y-108610500D01*
X141600734Y-108610500D01*
X143399270Y-108610500D01*
X143429699Y-108607646D01*
X143429701Y-108607646D01*
X143493790Y-108585219D01*
X143557882Y-108562793D01*
X143667150Y-108482150D01*
X143747793Y-108372882D01*
X143770736Y-108307314D01*
X143792646Y-108244701D01*
X143792646Y-108244699D01*
X143795500Y-108214269D01*
X143795500Y-106865730D01*
X143792646Y-106835300D01*
X143792646Y-106835298D01*
X143747793Y-106707119D01*
X143747792Y-106707117D01*
X143737512Y-106693188D01*
X143667150Y-106597850D01*
X143557882Y-106517207D01*
X143557880Y-106517206D01*
X143429700Y-106472353D01*
X143399270Y-106469500D01*
X143399266Y-106469500D01*
X141600734Y-106469500D01*
X141600730Y-106469500D01*
X141570300Y-106472353D01*
X141570298Y-106472353D01*
X141442119Y-106517206D01*
X141442117Y-106517207D01*
X141332850Y-106597850D01*
X141252207Y-106707117D01*
X141252206Y-106707119D01*
X141207353Y-106835298D01*
X141207353Y-106835300D01*
X141204500Y-106865730D01*
X126842084Y-106865730D01*
X126900500Y-106807314D01*
X126966392Y-106693186D01*
X127000500Y-106565892D01*
X127000500Y-106434108D01*
X126966392Y-106306814D01*
X126900500Y-106192686D01*
X126807314Y-106099500D01*
X126749100Y-106065890D01*
X126693187Y-106033608D01*
X126629539Y-106016554D01*
X126565892Y-105999500D01*
X126434108Y-105999500D01*
X126306812Y-106033608D01*
X126192686Y-106099500D01*
X126192683Y-106099502D01*
X126099502Y-106192683D01*
X126099500Y-106192686D01*
X126033608Y-106306812D01*
X125999500Y-106434108D01*
X111249103Y-106434108D01*
X111307314Y-106400500D01*
X111400500Y-106307314D01*
X111466392Y-106193186D01*
X111500500Y-106065892D01*
X111500500Y-105934108D01*
X111466392Y-105806814D01*
X111400500Y-105692686D01*
X111307314Y-105599500D01*
X111250250Y-105566554D01*
X111193187Y-105533608D01*
X111129539Y-105516554D01*
X111065892Y-105499500D01*
X110934108Y-105499500D01*
X110806812Y-105533608D01*
X110692686Y-105599500D01*
X110692683Y-105599502D01*
X110599502Y-105692683D01*
X110599500Y-105692686D01*
X110533608Y-105806812D01*
X110526991Y-105831509D01*
X110499500Y-105934108D01*
X56532300Y-105934108D01*
X56532300Y-105534130D01*
X56529446Y-105503700D01*
X56529446Y-105503698D01*
X56484593Y-105375519D01*
X56484592Y-105375517D01*
X56403950Y-105266250D01*
X56294682Y-105185607D01*
X56294680Y-105185606D01*
X56166500Y-105140753D01*
X56136070Y-105137900D01*
X56136066Y-105137900D01*
X54337534Y-105137900D01*
X54337530Y-105137900D01*
X54307100Y-105140753D01*
X54307098Y-105140753D01*
X54178919Y-105185606D01*
X54178917Y-105185607D01*
X54069650Y-105266250D01*
X53989007Y-105375517D01*
X53989006Y-105375519D01*
X53944153Y-105503698D01*
X53944153Y-105503700D01*
X53941300Y-105534130D01*
X50000000Y-105534130D01*
X50000000Y-104894560D01*
X141204500Y-104894560D01*
X141204500Y-105105439D01*
X141245636Y-105312245D01*
X141245638Y-105312253D01*
X141326333Y-105507069D01*
X141326338Y-105507078D01*
X141443487Y-105682403D01*
X141443490Y-105682407D01*
X141592592Y-105831509D01*
X141592596Y-105831512D01*
X141767921Y-105948661D01*
X141767927Y-105948664D01*
X141767928Y-105948665D01*
X141962747Y-106029362D01*
X142146389Y-106065890D01*
X142169560Y-106070499D01*
X142169564Y-106070500D01*
X142169565Y-106070500D01*
X142830436Y-106070500D01*
X142830437Y-106070499D01*
X143037253Y-106029362D01*
X143232072Y-105948665D01*
X143407404Y-105831512D01*
X143556512Y-105682404D01*
X143673665Y-105507072D01*
X143754362Y-105312253D01*
X143795500Y-105105435D01*
X143795500Y-104894565D01*
X143754362Y-104687747D01*
X143691946Y-104537063D01*
X143673666Y-104492930D01*
X143673661Y-104492921D01*
X143556512Y-104317596D01*
X143556509Y-104317592D01*
X143407407Y-104168490D01*
X143407403Y-104168487D01*
X143232078Y-104051338D01*
X143232069Y-104051333D01*
X143037253Y-103970638D01*
X143037245Y-103970636D01*
X142830439Y-103929500D01*
X142830435Y-103929500D01*
X142169565Y-103929500D01*
X142169560Y-103929500D01*
X141962754Y-103970636D01*
X141962746Y-103970638D01*
X141767930Y-104051333D01*
X141767921Y-104051338D01*
X141592596Y-104168487D01*
X141592592Y-104168490D01*
X141443490Y-104317592D01*
X141443487Y-104317596D01*
X141326338Y-104492921D01*
X141326333Y-104492930D01*
X141245638Y-104687746D01*
X141245636Y-104687754D01*
X141204500Y-104894560D01*
X50000000Y-104894560D01*
X50000000Y-103934108D01*
X114499500Y-103934108D01*
X114499500Y-104065891D01*
X114533608Y-104193187D01*
X114566554Y-104250250D01*
X114599500Y-104307314D01*
X114692686Y-104400500D01*
X114806814Y-104466392D01*
X114934108Y-104500500D01*
X114934110Y-104500500D01*
X115065890Y-104500500D01*
X115065892Y-104500500D01*
X115193186Y-104466392D01*
X115307314Y-104400500D01*
X115400500Y-104307314D01*
X115466392Y-104193186D01*
X115500500Y-104065892D01*
X115500500Y-103934108D01*
X115466392Y-103806814D01*
X115400500Y-103692686D01*
X115307314Y-103599500D01*
X115250250Y-103566554D01*
X115193187Y-103533608D01*
X115129539Y-103516554D01*
X115065892Y-103499500D01*
X114934108Y-103499500D01*
X114806812Y-103533608D01*
X114692686Y-103599500D01*
X114692683Y-103599502D01*
X114599502Y-103692683D01*
X114599500Y-103692686D01*
X114533608Y-103806812D01*
X114499500Y-103934108D01*
X50000000Y-103934108D01*
X50000000Y-101934108D01*
X100499500Y-101934108D01*
X100499500Y-102065891D01*
X100533608Y-102193187D01*
X100566554Y-102250250D01*
X100599500Y-102307314D01*
X100692686Y-102400500D01*
X100806814Y-102466392D01*
X100934108Y-102500500D01*
X100934110Y-102500500D01*
X101065890Y-102500500D01*
X101065892Y-102500500D01*
X101193186Y-102466392D01*
X101307314Y-102400500D01*
X101400500Y-102307314D01*
X101466392Y-102193186D01*
X101500500Y-102065892D01*
X101500500Y-101934108D01*
X101466392Y-101806814D01*
X101400500Y-101692686D01*
X101307314Y-101599500D01*
X101193186Y-101533608D01*
X101065892Y-101499500D01*
X100934108Y-101499500D01*
X100806812Y-101533608D01*
X100692686Y-101599500D01*
X100692683Y-101599502D01*
X100599502Y-101692683D01*
X100599500Y-101692686D01*
X100533608Y-101806812D01*
X100499500Y-101934108D01*
X50000000Y-101934108D01*
X50000000Y-101434108D01*
X103499500Y-101434108D01*
X103499500Y-101565891D01*
X103533608Y-101693187D01*
X103566554Y-101750250D01*
X103599500Y-101807314D01*
X103692686Y-101900500D01*
X103806814Y-101966392D01*
X103934108Y-102000500D01*
X103934110Y-102000500D01*
X104065890Y-102000500D01*
X104065892Y-102000500D01*
X104193186Y-101966392D01*
X104307314Y-101900500D01*
X104400500Y-101807314D01*
X104466392Y-101693186D01*
X104500500Y-101565892D01*
X104500500Y-101434108D01*
X104466392Y-101306814D01*
X104400500Y-101192686D01*
X104307314Y-101099500D01*
X104250250Y-101066554D01*
X104193187Y-101033608D01*
X104129539Y-101016554D01*
X104065892Y-100999500D01*
X103934108Y-100999500D01*
X103806812Y-101033608D01*
X103692686Y-101099500D01*
X103692683Y-101099502D01*
X103599502Y-101192683D01*
X103599500Y-101192686D01*
X103533608Y-101306812D01*
X103499500Y-101434108D01*
X50000000Y-101434108D01*
X50000000Y-96434108D01*
X92999500Y-96434108D01*
X92999500Y-96565891D01*
X93033608Y-96693187D01*
X93066554Y-96750250D01*
X93099500Y-96807314D01*
X93192686Y-96900500D01*
X93306814Y-96966392D01*
X93434108Y-97000500D01*
X93434110Y-97000500D01*
X93565890Y-97000500D01*
X93565892Y-97000500D01*
X93693186Y-96966392D01*
X93807314Y-96900500D01*
X93900500Y-96807314D01*
X93966392Y-96693186D01*
X94000500Y-96565892D01*
X94000500Y-96434108D01*
X93966392Y-96306814D01*
X93900500Y-96192686D01*
X93807314Y-96099500D01*
X93702297Y-96038868D01*
X93693187Y-96033608D01*
X93629539Y-96016554D01*
X93565892Y-95999500D01*
X93434108Y-95999500D01*
X93306812Y-96033608D01*
X93192686Y-96099500D01*
X93192683Y-96099502D01*
X93099502Y-96192683D01*
X93099500Y-96192686D01*
X93033608Y-96306812D01*
X92999500Y-96434108D01*
X50000000Y-96434108D01*
X50000000Y-93638464D01*
X50019685Y-93571425D01*
X50072489Y-93525670D01*
X50141647Y-93515726D01*
X50164766Y-93522069D01*
X50164845Y-93521812D01*
X50170667Y-93523578D01*
X50170672Y-93523580D01*
X50170676Y-93523580D01*
X50170677Y-93523581D01*
X50306004Y-93550500D01*
X50306007Y-93550500D01*
X51343995Y-93550500D01*
X51435041Y-93532389D01*
X51479328Y-93523580D01*
X51606811Y-93470775D01*
X51721542Y-93394114D01*
X51819114Y-93296542D01*
X51895775Y-93181811D01*
X51948580Y-93054328D01*
X51972493Y-92934110D01*
X51975500Y-92918995D01*
X53824499Y-92918995D01*
X53851418Y-93054322D01*
X53851421Y-93054332D01*
X53904221Y-93181804D01*
X53904228Y-93181817D01*
X53980885Y-93296541D01*
X53980888Y-93296545D01*
X54078454Y-93394111D01*
X54078458Y-93394114D01*
X54193182Y-93470771D01*
X54193195Y-93470778D01*
X54317024Y-93522069D01*
X54320672Y-93523580D01*
X54320676Y-93523580D01*
X54320677Y-93523581D01*
X54456004Y-93550500D01*
X54456007Y-93550500D01*
X55193995Y-93550500D01*
X55285041Y-93532389D01*
X55329328Y-93523580D01*
X55456811Y-93470775D01*
X55571542Y-93394114D01*
X55669114Y-93296542D01*
X55745775Y-93181811D01*
X55798580Y-93054328D01*
X55822493Y-92934108D01*
X61499500Y-92934108D01*
X61499500Y-93065892D01*
X61510557Y-93107157D01*
X61533608Y-93193187D01*
X61550080Y-93221716D01*
X61599500Y-93307314D01*
X61692686Y-93400500D01*
X61806814Y-93466392D01*
X61934108Y-93500500D01*
X61934110Y-93500500D01*
X62065890Y-93500500D01*
X62065892Y-93500500D01*
X62193186Y-93466392D01*
X62307314Y-93400500D01*
X62400500Y-93307314D01*
X62400504Y-93307306D01*
X62401625Y-93305847D01*
X62402892Y-93304921D01*
X62406247Y-93301567D01*
X62406770Y-93302090D01*
X62458053Y-93264645D01*
X62527799Y-93260491D01*
X62588719Y-93294704D01*
X62598375Y-93305847D01*
X62599498Y-93307311D01*
X62599500Y-93307314D01*
X62692686Y-93400500D01*
X62806814Y-93466392D01*
X62934108Y-93500500D01*
X62934110Y-93500500D01*
X63065890Y-93500500D01*
X63065892Y-93500500D01*
X63193186Y-93466392D01*
X63307314Y-93400500D01*
X63400500Y-93307314D01*
X63466392Y-93193186D01*
X63500500Y-93065892D01*
X63500500Y-92934108D01*
X63466392Y-92806814D01*
X63400500Y-92692686D01*
X63307314Y-92599500D01*
X63249717Y-92566246D01*
X63193187Y-92533608D01*
X63129539Y-92516554D01*
X63065892Y-92499500D01*
X62934108Y-92499500D01*
X62806812Y-92533608D01*
X62692686Y-92599500D01*
X62692683Y-92599502D01*
X62599498Y-92692687D01*
X62598370Y-92694158D01*
X62597102Y-92695083D01*
X62593753Y-92698433D01*
X62593230Y-92697910D01*
X62541940Y-92735356D01*
X62472193Y-92739506D01*
X62411275Y-92705289D01*
X62401630Y-92694158D01*
X62400501Y-92692687D01*
X62307316Y-92599502D01*
X62307314Y-92599500D01*
X62249717Y-92566246D01*
X62193187Y-92533608D01*
X62129539Y-92516554D01*
X62065892Y-92499500D01*
X61934108Y-92499500D01*
X61806812Y-92533608D01*
X61692686Y-92599500D01*
X61692683Y-92599502D01*
X61599502Y-92692683D01*
X61599500Y-92692686D01*
X61533608Y-92806812D01*
X61531802Y-92813554D01*
X61499500Y-92934108D01*
X55822493Y-92934108D01*
X55825500Y-92918993D01*
X55825500Y-92781007D01*
X55825500Y-92781004D01*
X55798581Y-92645677D01*
X55798580Y-92645676D01*
X55798580Y-92645672D01*
X55752162Y-92533608D01*
X55745778Y-92518195D01*
X55745771Y-92518182D01*
X55678679Y-92417772D01*
X55678678Y-92417771D01*
X55669116Y-92403460D01*
X55669111Y-92403454D01*
X55619410Y-92353753D01*
X108570000Y-92353753D01*
X108570000Y-92566246D01*
X108603242Y-92776127D01*
X108603242Y-92776130D01*
X108668904Y-92978217D01*
X108765375Y-93167550D01*
X108804728Y-93221716D01*
X109437037Y-92589408D01*
X109454075Y-92652993D01*
X109519901Y-92767007D01*
X109612993Y-92860099D01*
X109727007Y-92925925D01*
X109790590Y-92942962D01*
X109158282Y-93575269D01*
X109158282Y-93575270D01*
X109212449Y-93614624D01*
X109406121Y-93713306D01*
X109405603Y-93714321D01*
X109455808Y-93754779D01*
X109477873Y-93821073D01*
X109460594Y-93888772D01*
X109409458Y-93936383D01*
X109353952Y-93949500D01*
X109050247Y-93949500D01*
X108991770Y-93961131D01*
X108991769Y-93961132D01*
X108925447Y-94005447D01*
X108881132Y-94071769D01*
X108881131Y-94071770D01*
X108869500Y-94130247D01*
X108869500Y-95869752D01*
X108881131Y-95928229D01*
X108881132Y-95928230D01*
X108925447Y-95994552D01*
X108991769Y-96038867D01*
X108991770Y-96038868D01*
X109050247Y-96050499D01*
X109050250Y-96050500D01*
X109050252Y-96050500D01*
X110789750Y-96050500D01*
X110789751Y-96050499D01*
X110804568Y-96047552D01*
X110848229Y-96038868D01*
X110848229Y-96038867D01*
X110848231Y-96038867D01*
X110914552Y-95994552D01*
X110958867Y-95928231D01*
X110958867Y-95928229D01*
X110958868Y-95928229D01*
X110970499Y-95869752D01*
X110970500Y-95869750D01*
X110970500Y-94130249D01*
X110970499Y-94130247D01*
X110958868Y-94071770D01*
X110958867Y-94071769D01*
X110914552Y-94005447D01*
X110848230Y-93961132D01*
X110848229Y-93961131D01*
X110789752Y-93949500D01*
X110789748Y-93949500D01*
X110486048Y-93949500D01*
X110419009Y-93929815D01*
X110373254Y-93877011D01*
X110363310Y-93807853D01*
X110392335Y-93744297D01*
X110434264Y-93714061D01*
X110433879Y-93713306D01*
X110627554Y-93614622D01*
X110681716Y-93575270D01*
X110681717Y-93575270D01*
X110049408Y-92942962D01*
X110112993Y-92925925D01*
X110227007Y-92860099D01*
X110320099Y-92767007D01*
X110385925Y-92652993D01*
X110402962Y-92589409D01*
X111035270Y-93221717D01*
X111035270Y-93221716D01*
X111074622Y-93167554D01*
X111079514Y-93157954D01*
X111127488Y-93107157D01*
X111195308Y-93090361D01*
X111261444Y-93112897D01*
X111300486Y-93157954D01*
X111305375Y-93167550D01*
X111344728Y-93221716D01*
X111977037Y-92589408D01*
X111994075Y-92652993D01*
X112059901Y-92767007D01*
X112152993Y-92860099D01*
X112267007Y-92925925D01*
X112330590Y-92942962D01*
X111698282Y-93575269D01*
X111698282Y-93575270D01*
X111752449Y-93614624D01*
X111941782Y-93711095D01*
X112117973Y-93768343D01*
X112175648Y-93807780D01*
X112202847Y-93872139D01*
X112190932Y-93940985D01*
X112143688Y-93992461D01*
X112127108Y-94000835D01*
X111962403Y-94069057D01*
X111790342Y-94184024D01*
X111644024Y-94330342D01*
X111529058Y-94502403D01*
X111449870Y-94693579D01*
X111449868Y-94693587D01*
X111409500Y-94896530D01*
X111409500Y-95103469D01*
X111449868Y-95306412D01*
X111449870Y-95306420D01*
X111529058Y-95497596D01*
X111644024Y-95669657D01*
X111790342Y-95815975D01*
X111790345Y-95815977D01*
X111962402Y-95930941D01*
X112153580Y-96010130D01*
X112271613Y-96033608D01*
X112356530Y-96050499D01*
X112356534Y-96050500D01*
X112356535Y-96050500D01*
X112563466Y-96050500D01*
X112563467Y-96050499D01*
X112766420Y-96010130D01*
X112957598Y-95930941D01*
X113129655Y-95815977D01*
X113275977Y-95669655D01*
X113390941Y-95497598D01*
X113470130Y-95306420D01*
X113510500Y-95103465D01*
X113510500Y-94896535D01*
X113470130Y-94693580D01*
X113390941Y-94502402D01*
X113275977Y-94330345D01*
X113275975Y-94330342D01*
X113129657Y-94184024D01*
X112961655Y-94071770D01*
X112957598Y-94069059D01*
X112957593Y-94069057D01*
X112804028Y-94005448D01*
X112792890Y-94000834D01*
X112738488Y-93956994D01*
X112716423Y-93890700D01*
X112733702Y-93823001D01*
X112784839Y-93775390D01*
X112802026Y-93768343D01*
X112978217Y-93711095D01*
X113167554Y-93614622D01*
X113221716Y-93575270D01*
X113221717Y-93575270D01*
X112589408Y-92942962D01*
X112652993Y-92925925D01*
X112767007Y-92860099D01*
X112860099Y-92767007D01*
X112925925Y-92652993D01*
X112942962Y-92589409D01*
X113575270Y-93221717D01*
X113575270Y-93221716D01*
X113614622Y-93167554D01*
X113619514Y-93157954D01*
X113667488Y-93107157D01*
X113735308Y-93090361D01*
X113801444Y-93112897D01*
X113840486Y-93157954D01*
X113845375Y-93167550D01*
X113884728Y-93221716D01*
X114517037Y-92589408D01*
X114534075Y-92652993D01*
X114599901Y-92767007D01*
X114692993Y-92860099D01*
X114807007Y-92925925D01*
X114870590Y-92942962D01*
X114238282Y-93575269D01*
X114238282Y-93575270D01*
X114292449Y-93614624D01*
X114481782Y-93711095D01*
X114657973Y-93768343D01*
X114715648Y-93807780D01*
X114742847Y-93872139D01*
X114730932Y-93940985D01*
X114683688Y-93992461D01*
X114667108Y-94000835D01*
X114502403Y-94069057D01*
X114330342Y-94184024D01*
X114184024Y-94330342D01*
X114069058Y-94502403D01*
X113989870Y-94693579D01*
X113989868Y-94693587D01*
X113949500Y-94896530D01*
X113949500Y-95103469D01*
X113989868Y-95306412D01*
X113989870Y-95306420D01*
X114069058Y-95497596D01*
X114184024Y-95669657D01*
X114330342Y-95815975D01*
X114330345Y-95815977D01*
X114502402Y-95930941D01*
X114693580Y-96010130D01*
X114811613Y-96033608D01*
X114896530Y-96050499D01*
X114896534Y-96050500D01*
X114896535Y-96050500D01*
X115103466Y-96050500D01*
X115103467Y-96050499D01*
X115306420Y-96010130D01*
X115497598Y-95930941D01*
X115669655Y-95815977D01*
X115815977Y-95669655D01*
X115930941Y-95497598D01*
X116010130Y-95306420D01*
X116050500Y-95103465D01*
X116050500Y-94896535D01*
X116010130Y-94693580D01*
X115930941Y-94502402D01*
X115885309Y-94434108D01*
X137999500Y-94434108D01*
X137999500Y-94565891D01*
X138033608Y-94693187D01*
X138066554Y-94750250D01*
X138099500Y-94807314D01*
X138192686Y-94900500D01*
X138306814Y-94966392D01*
X138434108Y-95000500D01*
X138434110Y-95000500D01*
X138565890Y-95000500D01*
X138565892Y-95000500D01*
X138693186Y-94966392D01*
X138807314Y-94900500D01*
X138900500Y-94807314D01*
X138966392Y-94693186D01*
X139000500Y-94565892D01*
X139000500Y-94434108D01*
X138966392Y-94306814D01*
X138900500Y-94192686D01*
X138807314Y-94099500D01*
X138750250Y-94066554D01*
X138693187Y-94033608D01*
X138588090Y-94005448D01*
X138565892Y-93999500D01*
X138434108Y-93999500D01*
X138306812Y-94033608D01*
X138192686Y-94099500D01*
X138192683Y-94099502D01*
X138099502Y-94192683D01*
X138099500Y-94192686D01*
X138033608Y-94306812D01*
X137999500Y-94434108D01*
X115885309Y-94434108D01*
X115815977Y-94330345D01*
X115815974Y-94330341D01*
X115669657Y-94184024D01*
X115501655Y-94071770D01*
X115497598Y-94069059D01*
X115497593Y-94069057D01*
X115344028Y-94005448D01*
X115332890Y-94000834D01*
X115278488Y-93956994D01*
X115256423Y-93890700D01*
X115273702Y-93823001D01*
X115324839Y-93775390D01*
X115342026Y-93768343D01*
X115518217Y-93711095D01*
X115707554Y-93614622D01*
X115761716Y-93575270D01*
X115761717Y-93575270D01*
X115129408Y-92942962D01*
X115192993Y-92925925D01*
X115307007Y-92860099D01*
X115400099Y-92767007D01*
X115465925Y-92652993D01*
X115482962Y-92589409D01*
X116115270Y-93221717D01*
X116115270Y-93221716D01*
X116154622Y-93167554D01*
X116251095Y-92978217D01*
X116316757Y-92776130D01*
X116316757Y-92776127D01*
X116350000Y-92566246D01*
X116350000Y-92353753D01*
X116316757Y-92143872D01*
X116316757Y-92143869D01*
X116251095Y-91941782D01*
X116154624Y-91752449D01*
X116115270Y-91698282D01*
X116115269Y-91698282D01*
X115482962Y-92330590D01*
X115465925Y-92267007D01*
X115400099Y-92152993D01*
X115307007Y-92059901D01*
X115192993Y-91994075D01*
X115129409Y-91977037D01*
X115761716Y-91344728D01*
X115707550Y-91305375D01*
X115518217Y-91208904D01*
X115316129Y-91143242D01*
X115106246Y-91110000D01*
X114893754Y-91110000D01*
X114683872Y-91143242D01*
X114683869Y-91143242D01*
X114481782Y-91208904D01*
X114292439Y-91305380D01*
X114238282Y-91344727D01*
X114238282Y-91344728D01*
X114870591Y-91977037D01*
X114807007Y-91994075D01*
X114692993Y-92059901D01*
X114599901Y-92152993D01*
X114534075Y-92267007D01*
X114517037Y-92330591D01*
X113884728Y-91698282D01*
X113884727Y-91698282D01*
X113845380Y-91752440D01*
X113840483Y-91762051D01*
X113792506Y-91812845D01*
X113724684Y-91829638D01*
X113658550Y-91807098D01*
X113619516Y-91762048D01*
X113614626Y-91752452D01*
X113575270Y-91698282D01*
X113575269Y-91698282D01*
X112942962Y-92330590D01*
X112925925Y-92267007D01*
X112860099Y-92152993D01*
X112767007Y-92059901D01*
X112652993Y-91994075D01*
X112589409Y-91977037D01*
X113221716Y-91344728D01*
X113167550Y-91305375D01*
X112978217Y-91208904D01*
X112776129Y-91143242D01*
X112566246Y-91110000D01*
X112353754Y-91110000D01*
X112143872Y-91143242D01*
X112143869Y-91143242D01*
X111941782Y-91208904D01*
X111752439Y-91305380D01*
X111698282Y-91344727D01*
X111698282Y-91344728D01*
X112330591Y-91977037D01*
X112267007Y-91994075D01*
X112152993Y-92059901D01*
X112059901Y-92152993D01*
X111994075Y-92267007D01*
X111977037Y-92330591D01*
X111344728Y-91698282D01*
X111344727Y-91698282D01*
X111305380Y-91752440D01*
X111300483Y-91762051D01*
X111252506Y-91812845D01*
X111184684Y-91829638D01*
X111118550Y-91807098D01*
X111079516Y-91762048D01*
X111074626Y-91752452D01*
X111035270Y-91698282D01*
X111035269Y-91698282D01*
X110402962Y-92330590D01*
X110385925Y-92267007D01*
X110320099Y-92152993D01*
X110227007Y-92059901D01*
X110112993Y-91994075D01*
X110049409Y-91977037D01*
X110681716Y-91344728D01*
X110627550Y-91305375D01*
X110438217Y-91208904D01*
X110236129Y-91143242D01*
X110026246Y-91110000D01*
X109813754Y-91110000D01*
X109603872Y-91143242D01*
X109603869Y-91143242D01*
X109401782Y-91208904D01*
X109212439Y-91305380D01*
X109158282Y-91344727D01*
X109158282Y-91344728D01*
X109790591Y-91977037D01*
X109727007Y-91994075D01*
X109612993Y-92059901D01*
X109519901Y-92152993D01*
X109454075Y-92267007D01*
X109437037Y-92330591D01*
X108804728Y-91698282D01*
X108804727Y-91698282D01*
X108765380Y-91752439D01*
X108668904Y-91941782D01*
X108603242Y-92143869D01*
X108603242Y-92143872D01*
X108570000Y-92353753D01*
X55619410Y-92353753D01*
X55571545Y-92305888D01*
X55571541Y-92305885D01*
X55456817Y-92229228D01*
X55456804Y-92229221D01*
X55329332Y-92176421D01*
X55329322Y-92176418D01*
X55193995Y-92149500D01*
X55193993Y-92149500D01*
X54456007Y-92149500D01*
X54456005Y-92149500D01*
X54320677Y-92176418D01*
X54320667Y-92176421D01*
X54193195Y-92229221D01*
X54193182Y-92229228D01*
X54078458Y-92305885D01*
X54078454Y-92305888D01*
X53980888Y-92403454D01*
X53980885Y-92403458D01*
X53904228Y-92518182D01*
X53904221Y-92518195D01*
X53851421Y-92645667D01*
X53851418Y-92645677D01*
X53824500Y-92781004D01*
X53824500Y-92781007D01*
X53824500Y-92918993D01*
X53824500Y-92918995D01*
X53824499Y-92918995D01*
X51975500Y-92918995D01*
X51975500Y-92781004D01*
X51948581Y-92645677D01*
X51948580Y-92645676D01*
X51948580Y-92645672D01*
X51902162Y-92533608D01*
X51895778Y-92518195D01*
X51895771Y-92518182D01*
X51819114Y-92403458D01*
X51819111Y-92403454D01*
X51721545Y-92305888D01*
X51721541Y-92305885D01*
X51606817Y-92229228D01*
X51606804Y-92229221D01*
X51479332Y-92176421D01*
X51479322Y-92176418D01*
X51343995Y-92149500D01*
X51343993Y-92149500D01*
X50306007Y-92149500D01*
X50306005Y-92149500D01*
X50170677Y-92176418D01*
X50164845Y-92178188D01*
X50164440Y-92176853D01*
X50101969Y-92183562D01*
X50039493Y-92152280D01*
X50003848Y-92092186D01*
X50000000Y-92061535D01*
X50000000Y-89325731D01*
X141192500Y-89325731D01*
X141192500Y-90674270D01*
X141195353Y-90704700D01*
X141195353Y-90704702D01*
X141240206Y-90832881D01*
X141240207Y-90832883D01*
X141320850Y-90942151D01*
X141430118Y-91022794D01*
X141472845Y-91037745D01*
X141558299Y-91067647D01*
X141588730Y-91070501D01*
X141588734Y-91070501D01*
X143387270Y-91070501D01*
X143417699Y-91067647D01*
X143417701Y-91067647D01*
X143481790Y-91045220D01*
X143545882Y-91022794D01*
X143655150Y-90942151D01*
X143735793Y-90832883D01*
X143758219Y-90768791D01*
X143780646Y-90704702D01*
X143780646Y-90704700D01*
X143783500Y-90674270D01*
X143783500Y-89325731D01*
X143780646Y-89295301D01*
X143780646Y-89295299D01*
X143735793Y-89167120D01*
X143735792Y-89167118D01*
X143655150Y-89057851D01*
X143545882Y-88977208D01*
X143545880Y-88977207D01*
X143417700Y-88932354D01*
X143387270Y-88929501D01*
X143387266Y-88929501D01*
X141588734Y-88929501D01*
X141588730Y-88929501D01*
X141558300Y-88932354D01*
X141558298Y-88932354D01*
X141430119Y-88977207D01*
X141430117Y-88977208D01*
X141320850Y-89057851D01*
X141240207Y-89167118D01*
X141240206Y-89167120D01*
X141195353Y-89295299D01*
X141195353Y-89295301D01*
X141192500Y-89325731D01*
X50000000Y-89325731D01*
X50000000Y-87354561D01*
X141192500Y-87354561D01*
X141192500Y-87565440D01*
X141233636Y-87772246D01*
X141233638Y-87772254D01*
X141314333Y-87967070D01*
X141314338Y-87967079D01*
X141431487Y-88142404D01*
X141431490Y-88142408D01*
X141580592Y-88291510D01*
X141580596Y-88291513D01*
X141755921Y-88408662D01*
X141755927Y-88408665D01*
X141755928Y-88408666D01*
X141950747Y-88489363D01*
X142157560Y-88530500D01*
X142157564Y-88530501D01*
X142157565Y-88530501D01*
X142818436Y-88530501D01*
X142818437Y-88530500D01*
X143025253Y-88489363D01*
X143220072Y-88408666D01*
X143395404Y-88291513D01*
X143544512Y-88142405D01*
X143661665Y-87967073D01*
X143742362Y-87772254D01*
X143783500Y-87565436D01*
X143783500Y-87354566D01*
X143742362Y-87147748D01*
X143661665Y-86952929D01*
X143661664Y-86952928D01*
X143661661Y-86952922D01*
X143544512Y-86777597D01*
X143544509Y-86777593D01*
X143395407Y-86628491D01*
X143395403Y-86628488D01*
X143220078Y-86511339D01*
X143220069Y-86511334D01*
X143025253Y-86430639D01*
X143025245Y-86430637D01*
X142818439Y-86389501D01*
X142818435Y-86389501D01*
X142157565Y-86389501D01*
X142157560Y-86389501D01*
X141950754Y-86430637D01*
X141950746Y-86430639D01*
X141755930Y-86511334D01*
X141755921Y-86511339D01*
X141580596Y-86628488D01*
X141580592Y-86628491D01*
X141431490Y-86777593D01*
X141431487Y-86777597D01*
X141314338Y-86952922D01*
X141314333Y-86952931D01*
X141233638Y-87147747D01*
X141233636Y-87147755D01*
X141192500Y-87354561D01*
X50000000Y-87354561D01*
X50000000Y-86434108D01*
X125499500Y-86434108D01*
X125499500Y-86565891D01*
X125533608Y-86693187D01*
X125566554Y-86750250D01*
X125599500Y-86807314D01*
X125692686Y-86900500D01*
X125806814Y-86966392D01*
X125934108Y-87000500D01*
X125934110Y-87000500D01*
X126065890Y-87000500D01*
X126065892Y-87000500D01*
X126193186Y-86966392D01*
X126307314Y-86900500D01*
X126400500Y-86807314D01*
X126466392Y-86693186D01*
X126500500Y-86565892D01*
X126500500Y-86434108D01*
X126466392Y-86306814D01*
X126400500Y-86192686D01*
X126307314Y-86099500D01*
X126250250Y-86066554D01*
X126193187Y-86033608D01*
X126129539Y-86016554D01*
X126065892Y-85999500D01*
X125934108Y-85999500D01*
X125806812Y-86033608D01*
X125692686Y-86099500D01*
X125692683Y-86099502D01*
X125599502Y-86192683D01*
X125599500Y-86192686D01*
X125533608Y-86306812D01*
X125499500Y-86434108D01*
X50000000Y-86434108D01*
X50000000Y-82438464D01*
X50019685Y-82371425D01*
X50072489Y-82325670D01*
X50141647Y-82315726D01*
X50164766Y-82322069D01*
X50164845Y-82321812D01*
X50170667Y-82323578D01*
X50170672Y-82323580D01*
X50170676Y-82323580D01*
X50170677Y-82323581D01*
X50306004Y-82350500D01*
X50306007Y-82350500D01*
X51343995Y-82350500D01*
X51445333Y-82330342D01*
X51479328Y-82323580D01*
X51606811Y-82270775D01*
X51721542Y-82194114D01*
X51819114Y-82096542D01*
X51895775Y-81981811D01*
X51904341Y-81961132D01*
X51948578Y-81854332D01*
X51948580Y-81854328D01*
X51975500Y-81718995D01*
X53824499Y-81718995D01*
X53851418Y-81854322D01*
X53851421Y-81854332D01*
X53904221Y-81981804D01*
X53904228Y-81981817D01*
X53980885Y-82096541D01*
X53980888Y-82096545D01*
X54078454Y-82194111D01*
X54078458Y-82194114D01*
X54193182Y-82270771D01*
X54193195Y-82270778D01*
X54317024Y-82322069D01*
X54320672Y-82323580D01*
X54320676Y-82323580D01*
X54320677Y-82323581D01*
X54456004Y-82350500D01*
X54456007Y-82350500D01*
X55193995Y-82350500D01*
X55295333Y-82330342D01*
X55329328Y-82323580D01*
X55456811Y-82270775D01*
X55571542Y-82194114D01*
X55635409Y-82130247D01*
X95789500Y-82130247D01*
X95789500Y-83869752D01*
X95801131Y-83928229D01*
X95801132Y-83928230D01*
X95845447Y-83994552D01*
X95911769Y-84038867D01*
X95911770Y-84038868D01*
X95970247Y-84050499D01*
X95970250Y-84050500D01*
X95970252Y-84050500D01*
X97709750Y-84050500D01*
X97709751Y-84050499D01*
X97724568Y-84047552D01*
X97768229Y-84038868D01*
X97768229Y-84038867D01*
X97768231Y-84038867D01*
X97834552Y-83994552D01*
X97878867Y-83928231D01*
X97878867Y-83928229D01*
X97878868Y-83928229D01*
X97890499Y-83869752D01*
X97890500Y-83869750D01*
X97890500Y-82896530D01*
X98329500Y-82896530D01*
X98329500Y-83103469D01*
X98369868Y-83306412D01*
X98369870Y-83306420D01*
X98449058Y-83497596D01*
X98564024Y-83669657D01*
X98710342Y-83815975D01*
X98710345Y-83815977D01*
X98882402Y-83930941D01*
X99073580Y-84010130D01*
X99218052Y-84038867D01*
X99276530Y-84050499D01*
X99276534Y-84050500D01*
X99276535Y-84050500D01*
X99483466Y-84050500D01*
X99483467Y-84050499D01*
X99686420Y-84010130D01*
X99877598Y-83930941D01*
X100049655Y-83815977D01*
X100195977Y-83669655D01*
X100310941Y-83497598D01*
X100390130Y-83306420D01*
X100430500Y-83103465D01*
X100430500Y-82896535D01*
X100430499Y-82896530D01*
X100869500Y-82896530D01*
X100869500Y-83103469D01*
X100909868Y-83306412D01*
X100909870Y-83306420D01*
X100989058Y-83497596D01*
X101104024Y-83669657D01*
X101250342Y-83815975D01*
X101250345Y-83815977D01*
X101422402Y-83930941D01*
X101613580Y-84010130D01*
X101758052Y-84038867D01*
X101816530Y-84050499D01*
X101816534Y-84050500D01*
X101816535Y-84050500D01*
X102023466Y-84050500D01*
X102023467Y-84050499D01*
X102226420Y-84010130D01*
X102417598Y-83930941D01*
X102589655Y-83815977D01*
X102735977Y-83669655D01*
X102850941Y-83497598D01*
X102930130Y-83306420D01*
X102970500Y-83103465D01*
X102970500Y-82896535D01*
X102970499Y-82896530D01*
X103409500Y-82896530D01*
X103409500Y-83103469D01*
X103449868Y-83306412D01*
X103449870Y-83306420D01*
X103529058Y-83497596D01*
X103644024Y-83669657D01*
X103790342Y-83815975D01*
X103790345Y-83815977D01*
X103962402Y-83930941D01*
X104153580Y-84010130D01*
X104298052Y-84038867D01*
X104356530Y-84050499D01*
X104356534Y-84050500D01*
X104356535Y-84050500D01*
X104563466Y-84050500D01*
X104563467Y-84050499D01*
X104766420Y-84010130D01*
X104957598Y-83930941D01*
X105129655Y-83815977D01*
X105275977Y-83669655D01*
X105390941Y-83497598D01*
X105470130Y-83306420D01*
X105510500Y-83103465D01*
X105510500Y-82896535D01*
X105510499Y-82896530D01*
X105949500Y-82896530D01*
X105949500Y-83103469D01*
X105989868Y-83306412D01*
X105989870Y-83306420D01*
X106069058Y-83497596D01*
X106184024Y-83669657D01*
X106330342Y-83815975D01*
X106330345Y-83815977D01*
X106502402Y-83930941D01*
X106693580Y-84010130D01*
X106838052Y-84038867D01*
X106896530Y-84050499D01*
X106896534Y-84050500D01*
X106896535Y-84050500D01*
X107103466Y-84050500D01*
X107103467Y-84050499D01*
X107306420Y-84010130D01*
X107497598Y-83930941D01*
X107669655Y-83815977D01*
X107815977Y-83669655D01*
X107930941Y-83497598D01*
X108010130Y-83306420D01*
X108050500Y-83103465D01*
X108050500Y-82896535D01*
X108050499Y-82896530D01*
X108489500Y-82896530D01*
X108489500Y-83103469D01*
X108529868Y-83306412D01*
X108529870Y-83306420D01*
X108609058Y-83497596D01*
X108724024Y-83669657D01*
X108870342Y-83815975D01*
X108870345Y-83815977D01*
X109042402Y-83930941D01*
X109233580Y-84010130D01*
X109378052Y-84038867D01*
X109436530Y-84050499D01*
X109436534Y-84050500D01*
X109436535Y-84050500D01*
X109643466Y-84050500D01*
X109643467Y-84050499D01*
X109846420Y-84010130D01*
X110037598Y-83930941D01*
X110209655Y-83815977D01*
X110355977Y-83669655D01*
X110470941Y-83497598D01*
X110550130Y-83306420D01*
X110590500Y-83103465D01*
X110590500Y-82896535D01*
X110550130Y-82693580D01*
X110470941Y-82502402D01*
X110355977Y-82330345D01*
X110355975Y-82330342D01*
X110209657Y-82184024D01*
X110078734Y-82096545D01*
X110037598Y-82069059D01*
X110004306Y-82055269D01*
X109846420Y-81989870D01*
X109846412Y-81989868D01*
X109643469Y-81949500D01*
X109643465Y-81949500D01*
X109436535Y-81949500D01*
X109436530Y-81949500D01*
X109233587Y-81989868D01*
X109233579Y-81989870D01*
X109042403Y-82069058D01*
X108870342Y-82184024D01*
X108724024Y-82330342D01*
X108609058Y-82502403D01*
X108529870Y-82693579D01*
X108529868Y-82693587D01*
X108489500Y-82896530D01*
X108050499Y-82896530D01*
X108010130Y-82693580D01*
X107930941Y-82502402D01*
X107815977Y-82330345D01*
X107815975Y-82330342D01*
X107669657Y-82184024D01*
X107538734Y-82096545D01*
X107497598Y-82069059D01*
X107464306Y-82055269D01*
X107306420Y-81989870D01*
X107306412Y-81989868D01*
X107103469Y-81949500D01*
X107103465Y-81949500D01*
X106896535Y-81949500D01*
X106896530Y-81949500D01*
X106693587Y-81989868D01*
X106693579Y-81989870D01*
X106502403Y-82069058D01*
X106330342Y-82184024D01*
X106184024Y-82330342D01*
X106069058Y-82502403D01*
X105989870Y-82693579D01*
X105989868Y-82693587D01*
X105949500Y-82896530D01*
X105510499Y-82896530D01*
X105470130Y-82693580D01*
X105390941Y-82502402D01*
X105275977Y-82330345D01*
X105275975Y-82330342D01*
X105129657Y-82184024D01*
X104998734Y-82096545D01*
X104957598Y-82069059D01*
X104924306Y-82055269D01*
X104766420Y-81989870D01*
X104766412Y-81989868D01*
X104563469Y-81949500D01*
X104563465Y-81949500D01*
X104356535Y-81949500D01*
X104356530Y-81949500D01*
X104153587Y-81989868D01*
X104153579Y-81989870D01*
X103962403Y-82069058D01*
X103790342Y-82184024D01*
X103644024Y-82330342D01*
X103529058Y-82502403D01*
X103449870Y-82693579D01*
X103449868Y-82693587D01*
X103409500Y-82896530D01*
X102970499Y-82896530D01*
X102930130Y-82693580D01*
X102850941Y-82502402D01*
X102735977Y-82330345D01*
X102735975Y-82330342D01*
X102589657Y-82184024D01*
X102458734Y-82096545D01*
X102417598Y-82069059D01*
X102384306Y-82055269D01*
X102226420Y-81989870D01*
X102226412Y-81989868D01*
X102023469Y-81949500D01*
X102023465Y-81949500D01*
X101816535Y-81949500D01*
X101816530Y-81949500D01*
X101613587Y-81989868D01*
X101613579Y-81989870D01*
X101422403Y-82069058D01*
X101250342Y-82184024D01*
X101104024Y-82330342D01*
X100989058Y-82502403D01*
X100909870Y-82693579D01*
X100909868Y-82693587D01*
X100869500Y-82896530D01*
X100430499Y-82896530D01*
X100390130Y-82693580D01*
X100310941Y-82502402D01*
X100195977Y-82330345D01*
X100195975Y-82330342D01*
X100049657Y-82184024D01*
X99918734Y-82096545D01*
X99877598Y-82069059D01*
X99844306Y-82055269D01*
X99686420Y-81989870D01*
X99686412Y-81989868D01*
X99483469Y-81949500D01*
X99483465Y-81949500D01*
X99276535Y-81949500D01*
X99276530Y-81949500D01*
X99073587Y-81989868D01*
X99073579Y-81989870D01*
X98882403Y-82069058D01*
X98710342Y-82184024D01*
X98564024Y-82330342D01*
X98449058Y-82502403D01*
X98369870Y-82693579D01*
X98369868Y-82693587D01*
X98329500Y-82896530D01*
X97890500Y-82896530D01*
X97890500Y-82130249D01*
X97890499Y-82130247D01*
X97878868Y-82071770D01*
X97878867Y-82071769D01*
X97834552Y-82005447D01*
X97768230Y-81961132D01*
X97768229Y-81961131D01*
X97709752Y-81949500D01*
X97709748Y-81949500D01*
X95970252Y-81949500D01*
X95970247Y-81949500D01*
X95911770Y-81961131D01*
X95911769Y-81961132D01*
X95845447Y-82005447D01*
X95801132Y-82071769D01*
X95801131Y-82071770D01*
X95789500Y-82130247D01*
X55635409Y-82130247D01*
X55669114Y-82096542D01*
X55745775Y-81981811D01*
X55754341Y-81961132D01*
X55798578Y-81854332D01*
X55798580Y-81854328D01*
X55825500Y-81718993D01*
X55825500Y-81581007D01*
X55825500Y-81581004D01*
X55825499Y-81581002D01*
X55799478Y-81450185D01*
X55799476Y-81450177D01*
X55798580Y-81445672D01*
X55793790Y-81434108D01*
X137499500Y-81434108D01*
X137499500Y-81565891D01*
X137533608Y-81693187D01*
X137548509Y-81718995D01*
X137599500Y-81807314D01*
X137692686Y-81900500D01*
X137806814Y-81966392D01*
X137934108Y-82000500D01*
X137934110Y-82000500D01*
X138065890Y-82000500D01*
X138065892Y-82000500D01*
X138193186Y-81966392D01*
X138307314Y-81900500D01*
X138400500Y-81807314D01*
X138466392Y-81693186D01*
X138500500Y-81565892D01*
X138500500Y-81434108D01*
X138466392Y-81306814D01*
X138400500Y-81192686D01*
X138307314Y-81099500D01*
X138250250Y-81066554D01*
X138193187Y-81033608D01*
X138129539Y-81016554D01*
X138065892Y-80999500D01*
X137934108Y-80999500D01*
X137806812Y-81033608D01*
X137692686Y-81099500D01*
X137692683Y-81099502D01*
X137599502Y-81192683D01*
X137599500Y-81192686D01*
X137533608Y-81306812D01*
X137499500Y-81434108D01*
X55793790Y-81434108D01*
X55745778Y-81318195D01*
X55745771Y-81318182D01*
X55669114Y-81203458D01*
X55669111Y-81203454D01*
X55571545Y-81105888D01*
X55571541Y-81105885D01*
X55456817Y-81029228D01*
X55456804Y-81029221D01*
X55329332Y-80976421D01*
X55329322Y-80976418D01*
X55193995Y-80949500D01*
X55193993Y-80949500D01*
X54456007Y-80949500D01*
X54456005Y-80949500D01*
X54320677Y-80976418D01*
X54320667Y-80976421D01*
X54193195Y-81029221D01*
X54193182Y-81029228D01*
X54078458Y-81105885D01*
X54078454Y-81105888D01*
X53980888Y-81203454D01*
X53980885Y-81203458D01*
X53904228Y-81318182D01*
X53904221Y-81318195D01*
X53851421Y-81445667D01*
X53851418Y-81445677D01*
X53824500Y-81581004D01*
X53824500Y-81581007D01*
X53824500Y-81718993D01*
X53824500Y-81718995D01*
X53824499Y-81718995D01*
X51975500Y-81718995D01*
X51975500Y-81718993D01*
X51975500Y-81581007D01*
X51975500Y-81581004D01*
X51948581Y-81445677D01*
X51948580Y-81445676D01*
X51948580Y-81445672D01*
X51943790Y-81434108D01*
X51895778Y-81318195D01*
X51895771Y-81318182D01*
X51819114Y-81203458D01*
X51819111Y-81203454D01*
X51721545Y-81105888D01*
X51721541Y-81105885D01*
X51606817Y-81029228D01*
X51606804Y-81029221D01*
X51479332Y-80976421D01*
X51479322Y-80976418D01*
X51343995Y-80949500D01*
X51343993Y-80949500D01*
X50306007Y-80949500D01*
X50306005Y-80949500D01*
X50170677Y-80976418D01*
X50164845Y-80978188D01*
X50164440Y-80976853D01*
X50101969Y-80983562D01*
X50039493Y-80952280D01*
X50003848Y-80892186D01*
X50000000Y-80861535D01*
X50000000Y-78976530D01*
X74949500Y-78976530D01*
X74949500Y-79183469D01*
X74989868Y-79386412D01*
X74989870Y-79386420D01*
X75069058Y-79577596D01*
X75184024Y-79749657D01*
X75330342Y-79895975D01*
X75330345Y-79895977D01*
X75502402Y-80010941D01*
X75693580Y-80090130D01*
X75896530Y-80130499D01*
X75896534Y-80130500D01*
X75896535Y-80130500D01*
X76103466Y-80130500D01*
X76103467Y-80130499D01*
X76306420Y-80090130D01*
X76497598Y-80010941D01*
X76669655Y-79895977D01*
X76815977Y-79749655D01*
X76930941Y-79577598D01*
X76990377Y-79434108D01*
X114999500Y-79434108D01*
X114999500Y-79565891D01*
X115033608Y-79693187D01*
X115066210Y-79749655D01*
X115099500Y-79807314D01*
X115192686Y-79900500D01*
X115306814Y-79966392D01*
X115434108Y-80000500D01*
X115434110Y-80000500D01*
X115565890Y-80000500D01*
X115565892Y-80000500D01*
X115693186Y-79966392D01*
X115807314Y-79900500D01*
X115900500Y-79807314D01*
X115966392Y-79693186D01*
X116000500Y-79565892D01*
X116000500Y-79434108D01*
X115966392Y-79306814D01*
X115900500Y-79192686D01*
X115807314Y-79099500D01*
X115750250Y-79066554D01*
X115693187Y-79033608D01*
X115629539Y-79016554D01*
X115565892Y-78999500D01*
X115434108Y-78999500D01*
X115306812Y-79033608D01*
X115192686Y-79099500D01*
X115192683Y-79099502D01*
X115099502Y-79192683D01*
X115099500Y-79192686D01*
X115033608Y-79306812D01*
X114999500Y-79434108D01*
X76990377Y-79434108D01*
X77010130Y-79386420D01*
X77050500Y-79183465D01*
X77050500Y-78976535D01*
X77010130Y-78773580D01*
X76930941Y-78582402D01*
X76815977Y-78410345D01*
X76815975Y-78410342D01*
X76669657Y-78264024D01*
X76583626Y-78206541D01*
X76497598Y-78149059D01*
X76306420Y-78069870D01*
X76306412Y-78069868D01*
X76103469Y-78029500D01*
X76103465Y-78029500D01*
X75896535Y-78029500D01*
X75896530Y-78029500D01*
X75693587Y-78069868D01*
X75693579Y-78069870D01*
X75502403Y-78149058D01*
X75330342Y-78264024D01*
X75184024Y-78410342D01*
X75069058Y-78582403D01*
X74989870Y-78773579D01*
X74989868Y-78773587D01*
X74949500Y-78976530D01*
X50000000Y-78976530D01*
X50000000Y-76436530D01*
X74949500Y-76436530D01*
X74949500Y-76643469D01*
X74989868Y-76846412D01*
X74989870Y-76846420D01*
X75069058Y-77037596D01*
X75184024Y-77209657D01*
X75330342Y-77355975D01*
X75330345Y-77355977D01*
X75502402Y-77470941D01*
X75693580Y-77550130D01*
X75896530Y-77590499D01*
X75896534Y-77590500D01*
X75896535Y-77590500D01*
X76103466Y-77590500D01*
X76103467Y-77590499D01*
X76306420Y-77550130D01*
X76497598Y-77470941D01*
X76669655Y-77355977D01*
X76815977Y-77209655D01*
X76930941Y-77037598D01*
X77002131Y-76865730D01*
X141204500Y-76865730D01*
X141204500Y-78214269D01*
X141207353Y-78244699D01*
X141207353Y-78244701D01*
X141252206Y-78372880D01*
X141252207Y-78372882D01*
X141332850Y-78482150D01*
X141442118Y-78562793D01*
X141484845Y-78577744D01*
X141570299Y-78607646D01*
X141600730Y-78610500D01*
X141600734Y-78610500D01*
X143399270Y-78610500D01*
X143429699Y-78607646D01*
X143429701Y-78607646D01*
X143493790Y-78585219D01*
X143557882Y-78562793D01*
X143667150Y-78482150D01*
X143747793Y-78372882D01*
X143785884Y-78264024D01*
X143792646Y-78244701D01*
X143792646Y-78244699D01*
X143795500Y-78214269D01*
X143795500Y-76865730D01*
X143792646Y-76835300D01*
X143792646Y-76835298D01*
X143747793Y-76707119D01*
X143747792Y-76707117D01*
X143667150Y-76597850D01*
X143557882Y-76517207D01*
X143557880Y-76517206D01*
X143429700Y-76472353D01*
X143399270Y-76469500D01*
X143399266Y-76469500D01*
X141600734Y-76469500D01*
X141600730Y-76469500D01*
X141570300Y-76472353D01*
X141570298Y-76472353D01*
X141442119Y-76517206D01*
X141442117Y-76517207D01*
X141332850Y-76597850D01*
X141252207Y-76707117D01*
X141252206Y-76707119D01*
X141207353Y-76835298D01*
X141207353Y-76835300D01*
X141204500Y-76865730D01*
X77002131Y-76865730D01*
X77010130Y-76846420D01*
X77050500Y-76643465D01*
X77050500Y-76436535D01*
X77010130Y-76233580D01*
X76930941Y-76042402D01*
X76815977Y-75870345D01*
X76815975Y-75870342D01*
X76669657Y-75724024D01*
X76583626Y-75666541D01*
X76497598Y-75609059D01*
X76306420Y-75529870D01*
X76306412Y-75529868D01*
X76103469Y-75489500D01*
X76103465Y-75489500D01*
X75896535Y-75489500D01*
X75896530Y-75489500D01*
X75693587Y-75529868D01*
X75693579Y-75529870D01*
X75502403Y-75609058D01*
X75330342Y-75724024D01*
X75184024Y-75870342D01*
X75069058Y-76042403D01*
X74989870Y-76233579D01*
X74989868Y-76233587D01*
X74949500Y-76436530D01*
X50000000Y-76436530D01*
X50000000Y-73896530D01*
X74949500Y-73896530D01*
X74949500Y-74103469D01*
X74989868Y-74306412D01*
X74989870Y-74306420D01*
X75067124Y-74492928D01*
X75069059Y-74497598D01*
X75070998Y-74500500D01*
X75184024Y-74669657D01*
X75330342Y-74815975D01*
X75330345Y-74815977D01*
X75502402Y-74930941D01*
X75693580Y-75010130D01*
X75896530Y-75050499D01*
X75896534Y-75050500D01*
X75896535Y-75050500D01*
X76103466Y-75050500D01*
X76103467Y-75050499D01*
X76306420Y-75010130D01*
X76497598Y-74930941D01*
X76552046Y-74894560D01*
X141204500Y-74894560D01*
X141204500Y-75105439D01*
X141245636Y-75312245D01*
X141245638Y-75312253D01*
X141326333Y-75507069D01*
X141326338Y-75507078D01*
X141443487Y-75682403D01*
X141443490Y-75682407D01*
X141592592Y-75831509D01*
X141592596Y-75831512D01*
X141767921Y-75948661D01*
X141767927Y-75948664D01*
X141767928Y-75948665D01*
X141962747Y-76029362D01*
X142169560Y-76070499D01*
X142169564Y-76070500D01*
X142169565Y-76070500D01*
X142830436Y-76070500D01*
X142830437Y-76070499D01*
X143037253Y-76029362D01*
X143232072Y-75948665D01*
X143407404Y-75831512D01*
X143556512Y-75682404D01*
X143673665Y-75507072D01*
X143754362Y-75312253D01*
X143795500Y-75105435D01*
X143795500Y-74894565D01*
X143754362Y-74687747D01*
X143691946Y-74537063D01*
X143673666Y-74492930D01*
X143673661Y-74492921D01*
X143556512Y-74317596D01*
X143556509Y-74317592D01*
X143407407Y-74168490D01*
X143407403Y-74168487D01*
X143232078Y-74051338D01*
X143232069Y-74051333D01*
X143037253Y-73970638D01*
X143037245Y-73970636D01*
X142830439Y-73929500D01*
X142830435Y-73929500D01*
X142169565Y-73929500D01*
X142169560Y-73929500D01*
X141962754Y-73970636D01*
X141962746Y-73970638D01*
X141767930Y-74051333D01*
X141767921Y-74051338D01*
X141592596Y-74168487D01*
X141592592Y-74168490D01*
X141443490Y-74317592D01*
X141443487Y-74317596D01*
X141326338Y-74492921D01*
X141326333Y-74492930D01*
X141245638Y-74687746D01*
X141245636Y-74687754D01*
X141204500Y-74894560D01*
X76552046Y-74894560D01*
X76669655Y-74815977D01*
X76669658Y-74815974D01*
X76684841Y-74800792D01*
X76815974Y-74669658D01*
X76815975Y-74669657D01*
X76815977Y-74669655D01*
X76930941Y-74497598D01*
X77010130Y-74306420D01*
X77050500Y-74103465D01*
X77050500Y-73896535D01*
X77010130Y-73693580D01*
X76930941Y-73502402D01*
X76885309Y-73434108D01*
X98499500Y-73434108D01*
X98499500Y-73565891D01*
X98533608Y-73693187D01*
X98566554Y-73750250D01*
X98599500Y-73807314D01*
X98692686Y-73900500D01*
X98806814Y-73966392D01*
X98934108Y-74000500D01*
X98934110Y-74000500D01*
X99065890Y-74000500D01*
X99065892Y-74000500D01*
X99193186Y-73966392D01*
X99307314Y-73900500D01*
X99400500Y-73807314D01*
X99466392Y-73693186D01*
X99500500Y-73565892D01*
X99500500Y-73434108D01*
X105999500Y-73434108D01*
X105999500Y-73565891D01*
X106033608Y-73693187D01*
X106066554Y-73750250D01*
X106099500Y-73807314D01*
X106192686Y-73900500D01*
X106306814Y-73966392D01*
X106434108Y-74000500D01*
X106434110Y-74000500D01*
X106565890Y-74000500D01*
X106565892Y-74000500D01*
X106693186Y-73966392D01*
X106807314Y-73900500D01*
X106900500Y-73807314D01*
X106966392Y-73693186D01*
X107000500Y-73565892D01*
X107000500Y-73434108D01*
X107499500Y-73434108D01*
X107499500Y-73565891D01*
X107533608Y-73693187D01*
X107566554Y-73750250D01*
X107599500Y-73807314D01*
X107692686Y-73900500D01*
X107806814Y-73966392D01*
X107934108Y-74000500D01*
X107934110Y-74000500D01*
X108065890Y-74000500D01*
X108065892Y-74000500D01*
X108193186Y-73966392D01*
X108249103Y-73934108D01*
X126499500Y-73934108D01*
X126499500Y-74065891D01*
X126533608Y-74193187D01*
X126566554Y-74250250D01*
X126599500Y-74307314D01*
X126692686Y-74400500D01*
X126806814Y-74466392D01*
X126934108Y-74500500D01*
X126934110Y-74500500D01*
X127065890Y-74500500D01*
X127065892Y-74500500D01*
X127193186Y-74466392D01*
X127307314Y-74400500D01*
X127400500Y-74307314D01*
X127466392Y-74193186D01*
X127500500Y-74065892D01*
X127500500Y-73934108D01*
X127466392Y-73806814D01*
X127400500Y-73692686D01*
X127307314Y-73599500D01*
X127249100Y-73565890D01*
X127193187Y-73533608D01*
X127129539Y-73516554D01*
X127065892Y-73499500D01*
X126934108Y-73499500D01*
X126806812Y-73533608D01*
X126692686Y-73599500D01*
X126692683Y-73599502D01*
X126599502Y-73692683D01*
X126599500Y-73692686D01*
X126533608Y-73806812D01*
X126499500Y-73934108D01*
X108249103Y-73934108D01*
X108307314Y-73900500D01*
X108400500Y-73807314D01*
X108466392Y-73693186D01*
X108500500Y-73565892D01*
X108500500Y-73434108D01*
X108466392Y-73306814D01*
X108400500Y-73192686D01*
X108307314Y-73099500D01*
X108250250Y-73066554D01*
X108193187Y-73033608D01*
X108129539Y-73016554D01*
X108065892Y-72999500D01*
X107934108Y-72999500D01*
X107806812Y-73033608D01*
X107692686Y-73099500D01*
X107692683Y-73099502D01*
X107599502Y-73192683D01*
X107599500Y-73192686D01*
X107533608Y-73306812D01*
X107499500Y-73434108D01*
X107000500Y-73434108D01*
X106966392Y-73306814D01*
X106900500Y-73192686D01*
X106807314Y-73099500D01*
X106750250Y-73066554D01*
X106693187Y-73033608D01*
X106629539Y-73016554D01*
X106565892Y-72999500D01*
X106434108Y-72999500D01*
X106306812Y-73033608D01*
X106192686Y-73099500D01*
X106192683Y-73099502D01*
X106099502Y-73192683D01*
X106099500Y-73192686D01*
X106033608Y-73306812D01*
X105999500Y-73434108D01*
X99500500Y-73434108D01*
X99466392Y-73306814D01*
X99400500Y-73192686D01*
X99307314Y-73099500D01*
X99250250Y-73066554D01*
X99193187Y-73033608D01*
X99129539Y-73016554D01*
X99065892Y-72999500D01*
X98934108Y-72999500D01*
X98806812Y-73033608D01*
X98692686Y-73099500D01*
X98692683Y-73099502D01*
X98599502Y-73192683D01*
X98599500Y-73192686D01*
X98533608Y-73306812D01*
X98499500Y-73434108D01*
X76885309Y-73434108D01*
X76815977Y-73330345D01*
X76815974Y-73330341D01*
X76669657Y-73184024D01*
X76543156Y-73099500D01*
X76497598Y-73069059D01*
X76306420Y-72989870D01*
X76306412Y-72989868D01*
X76103469Y-72949500D01*
X76103465Y-72949500D01*
X75896535Y-72949500D01*
X75896530Y-72949500D01*
X75693587Y-72989868D01*
X75693579Y-72989870D01*
X75502403Y-73069058D01*
X75330342Y-73184024D01*
X75184024Y-73330342D01*
X75069058Y-73502403D01*
X74989870Y-73693579D01*
X74989868Y-73693587D01*
X74949500Y-73896530D01*
X50000000Y-73896530D01*
X50000000Y-71356530D01*
X74949500Y-71356530D01*
X74949500Y-71563469D01*
X74989868Y-71766412D01*
X74989870Y-71766420D01*
X75069058Y-71957596D01*
X75184024Y-72129657D01*
X75330342Y-72275975D01*
X75330345Y-72275977D01*
X75502402Y-72390941D01*
X75693580Y-72470130D01*
X75896530Y-72510499D01*
X75896534Y-72510500D01*
X75896535Y-72510500D01*
X76103466Y-72510500D01*
X76103467Y-72510499D01*
X76306420Y-72470130D01*
X76497598Y-72390941D01*
X76669655Y-72275977D01*
X76815977Y-72129655D01*
X76930941Y-71957598D01*
X77010130Y-71766420D01*
X77050500Y-71563465D01*
X77050500Y-71356535D01*
X77010130Y-71153580D01*
X76930941Y-70962402D01*
X76815977Y-70790345D01*
X76815975Y-70790342D01*
X76669657Y-70644024D01*
X76504406Y-70533608D01*
X76497598Y-70529059D01*
X76306420Y-70449870D01*
X76306412Y-70449868D01*
X76227181Y-70434108D01*
X103999500Y-70434108D01*
X103999500Y-70565891D01*
X104033608Y-70693187D01*
X104066554Y-70750250D01*
X104099500Y-70807314D01*
X104192686Y-70900500D01*
X104306814Y-70966392D01*
X104434108Y-71000500D01*
X104434110Y-71000500D01*
X104565890Y-71000500D01*
X104565892Y-71000500D01*
X104693186Y-70966392D01*
X104807314Y-70900500D01*
X104875792Y-70832021D01*
X104937111Y-70798539D01*
X105006803Y-70803523D01*
X105062737Y-70845394D01*
X105070856Y-70857703D01*
X105092743Y-70895610D01*
X105099500Y-70907314D01*
X105192686Y-71000500D01*
X105291521Y-71057563D01*
X105305944Y-71065890D01*
X105306814Y-71066392D01*
X105434108Y-71100500D01*
X105434110Y-71100500D01*
X105565890Y-71100500D01*
X105565892Y-71100500D01*
X105693186Y-71066392D01*
X105807314Y-71000500D01*
X105873706Y-70934108D01*
X127999500Y-70934108D01*
X127999500Y-71065891D01*
X128033608Y-71193187D01*
X128066554Y-71250250D01*
X128099500Y-71307314D01*
X128192686Y-71400500D01*
X128306814Y-71466392D01*
X128434108Y-71500500D01*
X128434110Y-71500500D01*
X128565890Y-71500500D01*
X128565892Y-71500500D01*
X128693186Y-71466392D01*
X128807314Y-71400500D01*
X128900500Y-71307314D01*
X128966392Y-71193186D01*
X129000500Y-71065892D01*
X129000500Y-70934108D01*
X128966392Y-70806814D01*
X128900500Y-70692686D01*
X128807314Y-70599500D01*
X128749102Y-70565891D01*
X128693187Y-70533608D01*
X128629539Y-70516554D01*
X128565892Y-70499500D01*
X128434108Y-70499500D01*
X128306812Y-70533608D01*
X128192686Y-70599500D01*
X128192683Y-70599502D01*
X128099502Y-70692683D01*
X128099500Y-70692686D01*
X128033608Y-70806812D01*
X127999500Y-70934108D01*
X105873706Y-70934108D01*
X105900500Y-70907314D01*
X105913023Y-70885622D01*
X105925520Y-70863980D01*
X105966390Y-70793189D01*
X105966392Y-70793186D01*
X106000500Y-70665892D01*
X106000500Y-70534108D01*
X105966392Y-70406814D01*
X105900500Y-70292686D01*
X105807314Y-70199500D01*
X105750250Y-70166554D01*
X105693187Y-70133608D01*
X105629539Y-70116554D01*
X105565892Y-70099500D01*
X105434108Y-70099500D01*
X105306812Y-70133608D01*
X105192686Y-70199500D01*
X105124210Y-70267976D01*
X105062886Y-70301460D01*
X104993195Y-70296475D01*
X104937261Y-70254604D01*
X104929143Y-70242295D01*
X104900503Y-70192692D01*
X104900500Y-70192686D01*
X104807314Y-70099500D01*
X104750250Y-70066554D01*
X104693187Y-70033608D01*
X104629539Y-70016554D01*
X104565892Y-69999500D01*
X104434108Y-69999500D01*
X104306812Y-70033608D01*
X104192686Y-70099500D01*
X104192683Y-70099502D01*
X104099502Y-70192683D01*
X104099500Y-70192686D01*
X104033608Y-70306812D01*
X103999500Y-70434108D01*
X76227181Y-70434108D01*
X76103469Y-70409500D01*
X76103465Y-70409500D01*
X75896535Y-70409500D01*
X75896530Y-70409500D01*
X75693587Y-70449868D01*
X75693579Y-70449870D01*
X75502403Y-70529058D01*
X75330342Y-70644024D01*
X75184024Y-70790342D01*
X75069058Y-70962403D01*
X74989870Y-71153579D01*
X74989868Y-71153587D01*
X74949500Y-71356530D01*
X50000000Y-71356530D01*
X50000000Y-66159560D01*
X54224500Y-66159560D01*
X54224500Y-66370439D01*
X54265636Y-66577245D01*
X54265638Y-66577253D01*
X54346333Y-66772069D01*
X54346338Y-66772078D01*
X54463487Y-66947403D01*
X54463490Y-66947407D01*
X54612592Y-67096509D01*
X54612596Y-67096512D01*
X54787921Y-67213661D01*
X54787927Y-67213664D01*
X54787928Y-67213665D01*
X54982747Y-67294362D01*
X55189565Y-67335500D01*
X55189570Y-67335500D01*
X55195626Y-67336097D01*
X55195445Y-67337929D01*
X55254212Y-67355185D01*
X55299967Y-67407989D01*
X55309911Y-67477147D01*
X55280886Y-67540703D01*
X55249173Y-67566887D01*
X55192689Y-67599498D01*
X55192683Y-67599502D01*
X55099502Y-67692683D01*
X55099500Y-67692686D01*
X55033608Y-67806812D01*
X54999500Y-67934108D01*
X54999500Y-68065891D01*
X55033608Y-68193187D01*
X55066554Y-68250250D01*
X55099500Y-68307314D01*
X55192686Y-68400500D01*
X55306814Y-68466392D01*
X55434108Y-68500500D01*
X55434110Y-68500500D01*
X55565890Y-68500500D01*
X55565892Y-68500500D01*
X55693186Y-68466392D01*
X55807314Y-68400500D01*
X55900500Y-68307314D01*
X55966392Y-68193186D01*
X56000500Y-68065892D01*
X56000500Y-68050247D01*
X74949500Y-68050247D01*
X74949500Y-69789752D01*
X74961131Y-69848229D01*
X74961132Y-69848230D01*
X75005447Y-69914552D01*
X75071769Y-69958867D01*
X75071770Y-69958868D01*
X75130247Y-69970499D01*
X75130250Y-69970500D01*
X75130252Y-69970500D01*
X76869750Y-69970500D01*
X76869751Y-69970499D01*
X76884568Y-69967552D01*
X76928229Y-69958868D01*
X76928229Y-69958867D01*
X76928231Y-69958867D01*
X76994552Y-69914552D01*
X77038867Y-69848231D01*
X77038867Y-69848229D01*
X77038868Y-69848229D01*
X77050499Y-69789752D01*
X77050500Y-69789750D01*
X77050500Y-68050249D01*
X77050499Y-68050247D01*
X77038868Y-67991770D01*
X77038867Y-67991769D01*
X76994552Y-67925447D01*
X76928230Y-67881132D01*
X76928229Y-67881131D01*
X76869752Y-67869500D01*
X76869748Y-67869500D01*
X75130252Y-67869500D01*
X75130247Y-67869500D01*
X75071770Y-67881131D01*
X75071769Y-67881132D01*
X75005447Y-67925447D01*
X74961132Y-67991769D01*
X74961131Y-67991770D01*
X74949500Y-68050247D01*
X56000500Y-68050247D01*
X56000500Y-67934108D01*
X55966392Y-67806814D01*
X55900500Y-67692686D01*
X55807314Y-67599500D01*
X55750827Y-67566887D01*
X55702611Y-67516320D01*
X55689389Y-67447713D01*
X55715357Y-67382848D01*
X55772271Y-67342320D01*
X55812827Y-67335500D01*
X55850436Y-67335500D01*
X55850437Y-67335499D01*
X56057253Y-67294362D01*
X56252072Y-67213665D01*
X56427404Y-67096512D01*
X56576512Y-66947404D01*
X56693665Y-66772072D01*
X56774362Y-66577253D01*
X56815500Y-66370435D01*
X56815500Y-66159565D01*
X56787184Y-66017207D01*
X56774363Y-65952751D01*
X56774362Y-65952749D01*
X56774362Y-65952747D01*
X56766641Y-65934108D01*
X119499500Y-65934108D01*
X119499500Y-66065891D01*
X119533608Y-66193187D01*
X119541652Y-66207119D01*
X119599500Y-66307314D01*
X119692686Y-66400500D01*
X119806814Y-66466392D01*
X119934108Y-66500500D01*
X119934110Y-66500500D01*
X120065890Y-66500500D01*
X120065892Y-66500500D01*
X120193186Y-66466392D01*
X120307314Y-66400500D01*
X120342084Y-66365730D01*
X141204500Y-66365730D01*
X141204500Y-67714269D01*
X141207353Y-67744699D01*
X141207353Y-67744701D01*
X141252206Y-67872880D01*
X141252207Y-67872882D01*
X141332850Y-67982150D01*
X141442118Y-68062793D01*
X141484845Y-68077744D01*
X141570299Y-68107646D01*
X141600730Y-68110500D01*
X141600734Y-68110500D01*
X143399270Y-68110500D01*
X143429699Y-68107646D01*
X143429701Y-68107646D01*
X143493790Y-68085219D01*
X143557882Y-68062793D01*
X143667150Y-67982150D01*
X143747793Y-67872882D01*
X143770912Y-67806812D01*
X143792646Y-67744701D01*
X143792646Y-67744699D01*
X143795500Y-67714269D01*
X143795500Y-66365730D01*
X143792646Y-66335300D01*
X143792646Y-66335298D01*
X143747793Y-66207119D01*
X143747792Y-66207117D01*
X143737512Y-66193188D01*
X143667150Y-66097850D01*
X143557882Y-66017207D01*
X143557880Y-66017206D01*
X143429700Y-65972353D01*
X143399270Y-65969500D01*
X143399266Y-65969500D01*
X141600734Y-65969500D01*
X141600730Y-65969500D01*
X141570300Y-65972353D01*
X141570298Y-65972353D01*
X141442119Y-66017206D01*
X141442117Y-66017207D01*
X141332850Y-66097850D01*
X141252207Y-66207117D01*
X141252206Y-66207119D01*
X141207353Y-66335298D01*
X141207353Y-66335300D01*
X141204500Y-66365730D01*
X120342084Y-66365730D01*
X120400500Y-66307314D01*
X120466392Y-66193186D01*
X120500500Y-66065892D01*
X120500500Y-65934108D01*
X120466392Y-65806814D01*
X120400500Y-65692686D01*
X120307314Y-65599500D01*
X120250250Y-65566554D01*
X120193187Y-65533608D01*
X120129539Y-65516554D01*
X120065892Y-65499500D01*
X119934108Y-65499500D01*
X119806812Y-65533608D01*
X119692686Y-65599500D01*
X119692683Y-65599502D01*
X119599502Y-65692683D01*
X119599500Y-65692686D01*
X119533608Y-65806812D01*
X119499500Y-65934108D01*
X56766641Y-65934108D01*
X56693665Y-65757928D01*
X56693664Y-65757927D01*
X56693661Y-65757921D01*
X56576512Y-65582596D01*
X56576509Y-65582592D01*
X56427407Y-65433490D01*
X56427403Y-65433487D01*
X56252078Y-65316338D01*
X56252069Y-65316333D01*
X56057253Y-65235638D01*
X56057245Y-65235636D01*
X55850439Y-65194500D01*
X55850435Y-65194500D01*
X55189565Y-65194500D01*
X55189560Y-65194500D01*
X54982754Y-65235636D01*
X54982746Y-65235638D01*
X54787930Y-65316333D01*
X54787921Y-65316338D01*
X54612596Y-65433487D01*
X54612592Y-65433490D01*
X54463490Y-65582592D01*
X54463487Y-65582596D01*
X54346338Y-65757921D01*
X54346333Y-65757930D01*
X54265638Y-65952746D01*
X54265636Y-65952754D01*
X54224500Y-66159560D01*
X50000000Y-66159560D01*
X50000000Y-63050730D01*
X54224500Y-63050730D01*
X54224500Y-64399269D01*
X54227353Y-64429699D01*
X54227353Y-64429701D01*
X54272206Y-64557880D01*
X54272207Y-64557882D01*
X54352850Y-64667150D01*
X54462118Y-64747793D01*
X54504845Y-64762744D01*
X54590299Y-64792646D01*
X54620730Y-64795500D01*
X54620734Y-64795500D01*
X56419270Y-64795500D01*
X56449699Y-64792646D01*
X56449701Y-64792646D01*
X56513790Y-64770219D01*
X56577882Y-64747793D01*
X56687150Y-64667150D01*
X56767793Y-64557882D01*
X56811103Y-64434110D01*
X56812646Y-64429701D01*
X56812646Y-64429699D01*
X56815500Y-64399269D01*
X56815500Y-63434108D01*
X98499500Y-63434108D01*
X98499500Y-63565891D01*
X98533608Y-63693187D01*
X98566554Y-63750250D01*
X98599500Y-63807314D01*
X98599502Y-63807316D01*
X98692687Y-63900501D01*
X98694158Y-63901630D01*
X98695083Y-63902897D01*
X98698433Y-63906247D01*
X98697910Y-63906769D01*
X98735356Y-63958060D01*
X98739506Y-64027807D01*
X98705289Y-64088725D01*
X98694158Y-64098370D01*
X98692687Y-64099498D01*
X98599502Y-64192683D01*
X98599500Y-64192686D01*
X98533608Y-64306812D01*
X98503128Y-64420567D01*
X98499500Y-64434108D01*
X98499500Y-64565892D01*
X98516554Y-64629539D01*
X98533608Y-64693187D01*
X98565135Y-64747792D01*
X98599500Y-64807314D01*
X98692686Y-64900500D01*
X98806814Y-64966392D01*
X98934108Y-65000500D01*
X98934110Y-65000500D01*
X99065890Y-65000500D01*
X99065892Y-65000500D01*
X99193186Y-64966392D01*
X99307314Y-64900500D01*
X99400500Y-64807314D01*
X99466392Y-64693186D01*
X99500500Y-64565892D01*
X99500500Y-64434108D01*
X99489903Y-64394560D01*
X141204500Y-64394560D01*
X141204500Y-64605439D01*
X141245636Y-64812245D01*
X141245638Y-64812253D01*
X141326333Y-65007069D01*
X141326338Y-65007078D01*
X141443487Y-65182403D01*
X141443490Y-65182407D01*
X141592592Y-65331509D01*
X141592596Y-65331512D01*
X141767921Y-65448661D01*
X141767927Y-65448664D01*
X141767928Y-65448665D01*
X141962747Y-65529362D01*
X142169560Y-65570499D01*
X142169564Y-65570500D01*
X142169565Y-65570500D01*
X142830436Y-65570500D01*
X142830437Y-65570499D01*
X143037253Y-65529362D01*
X143232072Y-65448665D01*
X143407404Y-65331512D01*
X143556512Y-65182404D01*
X143673665Y-65007072D01*
X143754362Y-64812253D01*
X143795500Y-64605435D01*
X143795500Y-64394565D01*
X143754362Y-64187747D01*
X143673665Y-63992928D01*
X143673664Y-63992927D01*
X143673661Y-63992921D01*
X143556512Y-63817596D01*
X143556509Y-63817592D01*
X143407407Y-63668490D01*
X143407403Y-63668487D01*
X143232078Y-63551338D01*
X143232069Y-63551333D01*
X143037253Y-63470638D01*
X143037245Y-63470636D01*
X142830439Y-63429500D01*
X142830435Y-63429500D01*
X142169565Y-63429500D01*
X142169560Y-63429500D01*
X141962754Y-63470636D01*
X141962746Y-63470638D01*
X141767930Y-63551333D01*
X141767921Y-63551338D01*
X141592596Y-63668487D01*
X141592592Y-63668490D01*
X141443490Y-63817592D01*
X141443487Y-63817596D01*
X141326338Y-63992921D01*
X141326333Y-63992930D01*
X141245638Y-64187746D01*
X141245636Y-64187754D01*
X141204500Y-64394560D01*
X99489903Y-64394560D01*
X99466392Y-64306814D01*
X99400500Y-64192686D01*
X99307314Y-64099500D01*
X99307311Y-64099498D01*
X99305847Y-64098375D01*
X99304921Y-64097107D01*
X99301567Y-64093753D01*
X99302090Y-64093229D01*
X99264645Y-64041947D01*
X99260491Y-63972201D01*
X99294704Y-63911281D01*
X99305847Y-63901625D01*
X99307306Y-63900504D01*
X99307314Y-63900500D01*
X99400500Y-63807314D01*
X99466392Y-63693186D01*
X99500500Y-63565892D01*
X99500500Y-63434108D01*
X99466392Y-63306814D01*
X99400500Y-63192686D01*
X99307314Y-63099500D01*
X99250250Y-63066554D01*
X99193187Y-63033608D01*
X99129539Y-63016554D01*
X99065892Y-62999500D01*
X98934108Y-62999500D01*
X98806812Y-63033608D01*
X98692686Y-63099500D01*
X98692683Y-63099502D01*
X98599502Y-63192683D01*
X98599500Y-63192686D01*
X98533608Y-63306812D01*
X98499500Y-63434108D01*
X56815500Y-63434108D01*
X56815500Y-63050730D01*
X56812646Y-63020300D01*
X56812646Y-63020298D01*
X56767793Y-62892119D01*
X56767792Y-62892117D01*
X56687150Y-62782850D01*
X56577882Y-62702207D01*
X56577880Y-62702206D01*
X56449700Y-62657353D01*
X56419270Y-62654500D01*
X56419266Y-62654500D01*
X54620734Y-62654500D01*
X54620730Y-62654500D01*
X54590300Y-62657353D01*
X54590298Y-62657353D01*
X54462119Y-62702206D01*
X54462117Y-62702207D01*
X54352850Y-62782850D01*
X54272207Y-62892117D01*
X54272206Y-62892119D01*
X54227353Y-63020298D01*
X54227353Y-63020300D01*
X54224500Y-63050730D01*
X50000000Y-63050730D01*
X50000000Y-59159560D01*
X54244500Y-59159560D01*
X54244500Y-59370439D01*
X54285636Y-59577245D01*
X54285638Y-59577253D01*
X54366333Y-59772069D01*
X54366338Y-59772078D01*
X54483487Y-59947403D01*
X54483490Y-59947407D01*
X54632592Y-60096509D01*
X54632596Y-60096512D01*
X54807921Y-60213661D01*
X54807927Y-60213664D01*
X54807928Y-60213665D01*
X55002747Y-60294362D01*
X55085753Y-60310872D01*
X55213971Y-60336377D01*
X55275882Y-60368761D01*
X55310456Y-60429477D01*
X55306717Y-60499247D01*
X55265851Y-60555919D01*
X55251781Y-60565380D01*
X55192692Y-60599495D01*
X55192683Y-60599502D01*
X55099502Y-60692683D01*
X55099500Y-60692686D01*
X55033608Y-60806812D01*
X54999500Y-60934108D01*
X54999500Y-61065891D01*
X55033608Y-61193187D01*
X55066554Y-61250250D01*
X55099500Y-61307314D01*
X55192686Y-61400500D01*
X55306814Y-61466392D01*
X55434108Y-61500500D01*
X55434110Y-61500500D01*
X55565890Y-61500500D01*
X55565892Y-61500500D01*
X55693186Y-61466392D01*
X55807314Y-61400500D01*
X55900500Y-61307314D01*
X55966392Y-61193186D01*
X56000500Y-61065892D01*
X56000500Y-60934108D01*
X55966392Y-60806814D01*
X55900500Y-60692686D01*
X55807314Y-60599500D01*
X55750827Y-60566887D01*
X55702611Y-60516320D01*
X55689389Y-60447713D01*
X55715357Y-60382848D01*
X55772271Y-60342320D01*
X55812827Y-60335500D01*
X55870436Y-60335500D01*
X55870437Y-60335499D01*
X56077253Y-60294362D01*
X56272072Y-60213665D01*
X56447404Y-60096512D01*
X56596512Y-59947404D01*
X56713665Y-59772072D01*
X56794362Y-59577253D01*
X56835500Y-59370435D01*
X56835500Y-59159565D01*
X56794362Y-58952747D01*
X56713665Y-58757928D01*
X56713664Y-58757927D01*
X56713661Y-58757921D01*
X56596512Y-58582596D01*
X56596509Y-58582592D01*
X56448025Y-58434108D01*
X98499500Y-58434108D01*
X98499500Y-58565891D01*
X98533608Y-58693187D01*
X98566554Y-58750250D01*
X98599500Y-58807314D01*
X98692686Y-58900500D01*
X98806814Y-58966392D01*
X98934108Y-59000500D01*
X98934110Y-59000500D01*
X99065890Y-59000500D01*
X99065892Y-59000500D01*
X99193186Y-58966392D01*
X99307314Y-58900500D01*
X99400500Y-58807314D01*
X99466392Y-58693186D01*
X99500500Y-58565892D01*
X99500500Y-58434108D01*
X99466392Y-58306814D01*
X99400500Y-58192686D01*
X99307314Y-58099500D01*
X99250250Y-58066554D01*
X99193187Y-58033608D01*
X99129539Y-58016554D01*
X99065892Y-57999500D01*
X98934108Y-57999500D01*
X98806812Y-58033608D01*
X98692686Y-58099500D01*
X98692683Y-58099502D01*
X98599502Y-58192683D01*
X98599500Y-58192686D01*
X98533608Y-58306812D01*
X98499500Y-58434108D01*
X56448025Y-58434108D01*
X56447407Y-58433490D01*
X56447403Y-58433487D01*
X56272078Y-58316338D01*
X56272069Y-58316333D01*
X56077253Y-58235638D01*
X56077245Y-58235636D01*
X55870439Y-58194500D01*
X55870435Y-58194500D01*
X55209565Y-58194500D01*
X55209560Y-58194500D01*
X55002754Y-58235636D01*
X55002746Y-58235638D01*
X54807930Y-58316333D01*
X54807921Y-58316338D01*
X54632596Y-58433487D01*
X54632592Y-58433490D01*
X54483490Y-58582592D01*
X54483487Y-58582596D01*
X54366338Y-58757921D01*
X54366333Y-58757930D01*
X54285638Y-58952746D01*
X54285636Y-58952754D01*
X54244500Y-59159560D01*
X50000000Y-59159560D01*
X50000000Y-56050730D01*
X54244500Y-56050730D01*
X54244500Y-57399269D01*
X54247353Y-57429699D01*
X54247353Y-57429701D01*
X54292206Y-57557880D01*
X54292207Y-57557882D01*
X54372850Y-57667150D01*
X54482118Y-57747793D01*
X54518407Y-57760491D01*
X54610299Y-57792646D01*
X54640730Y-57795500D01*
X54640734Y-57795500D01*
X56439270Y-57795500D01*
X56469699Y-57792646D01*
X56469701Y-57792646D01*
X56533790Y-57770219D01*
X56597882Y-57747793D01*
X56707150Y-57667150D01*
X56787793Y-57557882D01*
X56831103Y-57434110D01*
X56831104Y-57434108D01*
X90999500Y-57434108D01*
X90999500Y-57565891D01*
X91033608Y-57693187D01*
X91065135Y-57747792D01*
X91099500Y-57807314D01*
X91192686Y-57900500D01*
X91306814Y-57966392D01*
X91434108Y-58000500D01*
X91434110Y-58000500D01*
X91565890Y-58000500D01*
X91565892Y-58000500D01*
X91693186Y-57966392D01*
X91807314Y-57900500D01*
X91900500Y-57807314D01*
X91966392Y-57693186D01*
X92000500Y-57565892D01*
X92000500Y-57434108D01*
X92999500Y-57434108D01*
X92999500Y-57565891D01*
X93033608Y-57693187D01*
X93065135Y-57747792D01*
X93099500Y-57807314D01*
X93192686Y-57900500D01*
X93306814Y-57966392D01*
X93434108Y-58000500D01*
X93434110Y-58000500D01*
X93565890Y-58000500D01*
X93565892Y-58000500D01*
X93693186Y-57966392D01*
X93807314Y-57900500D01*
X93900500Y-57807314D01*
X93900504Y-57807306D01*
X93901625Y-57805847D01*
X93902892Y-57804921D01*
X93906247Y-57801567D01*
X93906770Y-57802090D01*
X93958053Y-57764645D01*
X94027799Y-57760491D01*
X94088719Y-57794704D01*
X94098375Y-57805847D01*
X94099498Y-57807311D01*
X94099500Y-57807314D01*
X94192686Y-57900500D01*
X94306814Y-57966392D01*
X94434108Y-58000500D01*
X94434110Y-58000500D01*
X94565890Y-58000500D01*
X94565892Y-58000500D01*
X94693186Y-57966392D01*
X94807314Y-57900500D01*
X94900500Y-57807314D01*
X94966392Y-57693186D01*
X95000500Y-57565892D01*
X95000500Y-57434108D01*
X94966392Y-57306814D01*
X94900500Y-57192686D01*
X94807314Y-57099500D01*
X94693186Y-57033608D01*
X94565892Y-56999500D01*
X94434108Y-56999500D01*
X94306812Y-57033608D01*
X94192686Y-57099500D01*
X94192683Y-57099502D01*
X94099498Y-57192687D01*
X94098370Y-57194158D01*
X94097102Y-57195083D01*
X94093753Y-57198433D01*
X94093230Y-57197910D01*
X94041940Y-57235356D01*
X93972193Y-57239506D01*
X93911275Y-57205289D01*
X93901630Y-57194158D01*
X93900501Y-57192687D01*
X93807316Y-57099502D01*
X93807314Y-57099500D01*
X93749100Y-57065890D01*
X93693187Y-57033608D01*
X93629539Y-57016554D01*
X93565892Y-56999500D01*
X93434108Y-56999500D01*
X93306812Y-57033608D01*
X93192686Y-57099500D01*
X93192683Y-57099502D01*
X93099502Y-57192683D01*
X93099500Y-57192686D01*
X93033608Y-57306812D01*
X92999500Y-57434108D01*
X92000500Y-57434108D01*
X91966392Y-57306814D01*
X91900500Y-57192686D01*
X91807314Y-57099500D01*
X91749100Y-57065890D01*
X91693187Y-57033608D01*
X91629539Y-57016554D01*
X91565892Y-56999500D01*
X91434108Y-56999500D01*
X91306812Y-57033608D01*
X91192686Y-57099500D01*
X91192683Y-57099502D01*
X91099502Y-57192683D01*
X91099500Y-57192686D01*
X91033608Y-57306812D01*
X90999500Y-57434108D01*
X56831104Y-57434108D01*
X56832646Y-57429701D01*
X56832646Y-57429699D01*
X56834081Y-57414403D01*
X56834081Y-57414402D01*
X56835500Y-57399271D01*
X56835500Y-56934108D01*
X112999500Y-56934108D01*
X112999500Y-57065891D01*
X113033608Y-57193187D01*
X113057955Y-57235356D01*
X113099500Y-57307314D01*
X113192686Y-57400500D01*
X113306814Y-57466392D01*
X113434108Y-57500500D01*
X113434110Y-57500500D01*
X113565890Y-57500500D01*
X113565892Y-57500500D01*
X113693186Y-57466392D01*
X113807314Y-57400500D01*
X113900500Y-57307314D01*
X113966392Y-57193186D01*
X114000500Y-57065892D01*
X114000500Y-56934108D01*
X113966392Y-56806814D01*
X113900500Y-56692686D01*
X113807314Y-56599500D01*
X113702297Y-56538868D01*
X113693187Y-56533608D01*
X113629539Y-56516554D01*
X113565892Y-56499500D01*
X113434108Y-56499500D01*
X113306812Y-56533608D01*
X113192686Y-56599500D01*
X113192683Y-56599502D01*
X113099502Y-56692683D01*
X113099500Y-56692686D01*
X113033608Y-56806812D01*
X112999500Y-56934108D01*
X56835500Y-56934108D01*
X56835500Y-56050730D01*
X56832646Y-56020301D01*
X56813973Y-55966937D01*
X56802486Y-55934108D01*
X115999500Y-55934108D01*
X115999500Y-56065891D01*
X116033608Y-56193187D01*
X116066554Y-56250250D01*
X116099500Y-56307314D01*
X116192686Y-56400500D01*
X116306814Y-56466392D01*
X116434108Y-56500500D01*
X116434110Y-56500500D01*
X116565890Y-56500500D01*
X116565892Y-56500500D01*
X116693186Y-56466392D01*
X116807314Y-56400500D01*
X116900500Y-56307314D01*
X116966392Y-56193186D01*
X117000500Y-56065892D01*
X117000500Y-55934108D01*
X116966392Y-55806814D01*
X116900500Y-55692686D01*
X116807314Y-55599500D01*
X116750250Y-55566554D01*
X116693187Y-55533608D01*
X116629539Y-55516554D01*
X116565892Y-55499500D01*
X116434108Y-55499500D01*
X116306812Y-55533608D01*
X116192686Y-55599500D01*
X116192683Y-55599502D01*
X116099502Y-55692683D01*
X116099500Y-55692686D01*
X116033608Y-55806812D01*
X115999500Y-55934108D01*
X56802486Y-55934108D01*
X56787793Y-55892118D01*
X56707150Y-55782850D01*
X56597882Y-55702207D01*
X56597880Y-55702206D01*
X56469700Y-55657353D01*
X56439270Y-55654500D01*
X56439266Y-55654500D01*
X54640734Y-55654500D01*
X54640730Y-55654500D01*
X54610300Y-55657353D01*
X54610298Y-55657353D01*
X54482119Y-55702206D01*
X54482117Y-55702207D01*
X54372850Y-55782850D01*
X54292207Y-55892117D01*
X54292206Y-55892119D01*
X54247353Y-56020298D01*
X54247353Y-56020300D01*
X54244500Y-56050730D01*
X50000000Y-56050730D01*
X50000000Y-54434108D01*
X87999500Y-54434108D01*
X87999500Y-54565892D01*
X88000349Y-54569059D01*
X88033608Y-54693187D01*
X88066554Y-54750250D01*
X88099500Y-54807314D01*
X88192686Y-54900500D01*
X88306814Y-54966392D01*
X88434108Y-55000500D01*
X88434110Y-55000500D01*
X88565890Y-55000500D01*
X88565892Y-55000500D01*
X88693186Y-54966392D01*
X88807314Y-54900500D01*
X88900500Y-54807314D01*
X88966392Y-54693186D01*
X88983256Y-54630247D01*
X119329500Y-54630247D01*
X119329500Y-56369752D01*
X119341131Y-56428229D01*
X119341132Y-56428230D01*
X119385447Y-56494552D01*
X119451769Y-56538867D01*
X119451770Y-56538868D01*
X119510247Y-56550499D01*
X119510250Y-56550500D01*
X119510252Y-56550500D01*
X121249750Y-56550500D01*
X121249751Y-56550499D01*
X121264568Y-56547552D01*
X121308229Y-56538868D01*
X121308229Y-56538867D01*
X121308231Y-56538867D01*
X121374552Y-56494552D01*
X121418867Y-56428231D01*
X121418867Y-56428229D01*
X121418868Y-56428229D01*
X121430499Y-56369752D01*
X121430500Y-56369750D01*
X121430500Y-55396530D01*
X121869500Y-55396530D01*
X121869500Y-55603469D01*
X121909868Y-55806412D01*
X121909870Y-55806420D01*
X121989059Y-55997598D01*
X122024563Y-56050734D01*
X122104024Y-56169657D01*
X122250342Y-56315975D01*
X122250345Y-56315977D01*
X122422402Y-56430941D01*
X122613580Y-56510130D01*
X122731613Y-56533608D01*
X122816530Y-56550499D01*
X122816534Y-56550500D01*
X122816535Y-56550500D01*
X123023466Y-56550500D01*
X123023467Y-56550499D01*
X123226420Y-56510130D01*
X123417598Y-56430941D01*
X123589655Y-56315977D01*
X123735977Y-56169655D01*
X123850941Y-55997598D01*
X123930130Y-55806420D01*
X123970500Y-55603465D01*
X123970500Y-55396535D01*
X123970499Y-55396530D01*
X124409500Y-55396530D01*
X124409500Y-55603469D01*
X124449868Y-55806412D01*
X124449870Y-55806420D01*
X124529059Y-55997598D01*
X124564563Y-56050734D01*
X124644024Y-56169657D01*
X124790342Y-56315975D01*
X124790345Y-56315977D01*
X124962402Y-56430941D01*
X125153580Y-56510130D01*
X125271613Y-56533608D01*
X125356530Y-56550499D01*
X125356534Y-56550500D01*
X125356535Y-56550500D01*
X125563466Y-56550500D01*
X125563467Y-56550499D01*
X125766420Y-56510130D01*
X125957598Y-56430941D01*
X126129655Y-56315977D01*
X126275977Y-56169655D01*
X126390941Y-55997598D01*
X126470130Y-55806420D01*
X126510500Y-55603465D01*
X126510500Y-55396535D01*
X126510499Y-55396530D01*
X126949500Y-55396530D01*
X126949500Y-55603469D01*
X126989868Y-55806412D01*
X126989870Y-55806420D01*
X127069059Y-55997598D01*
X127104563Y-56050734D01*
X127184024Y-56169657D01*
X127330342Y-56315975D01*
X127330345Y-56315977D01*
X127502402Y-56430941D01*
X127693580Y-56510130D01*
X127811613Y-56533608D01*
X127896530Y-56550499D01*
X127896534Y-56550500D01*
X127896535Y-56550500D01*
X128103466Y-56550500D01*
X128103467Y-56550499D01*
X128306420Y-56510130D01*
X128497598Y-56430941D01*
X128669655Y-56315977D01*
X128815977Y-56169655D01*
X128930941Y-55997598D01*
X129010130Y-55806420D01*
X129050500Y-55603465D01*
X129050500Y-55396535D01*
X129050499Y-55396530D01*
X129489500Y-55396530D01*
X129489500Y-55603469D01*
X129529868Y-55806412D01*
X129529870Y-55806420D01*
X129609059Y-55997598D01*
X129644563Y-56050734D01*
X129724024Y-56169657D01*
X129870342Y-56315975D01*
X129870345Y-56315977D01*
X130042402Y-56430941D01*
X130233580Y-56510130D01*
X130351613Y-56533608D01*
X130436530Y-56550499D01*
X130436534Y-56550500D01*
X130436535Y-56550500D01*
X130643466Y-56550500D01*
X130643467Y-56550499D01*
X130846420Y-56510130D01*
X131037598Y-56430941D01*
X131209655Y-56315977D01*
X131355977Y-56169655D01*
X131470941Y-55997598D01*
X131550130Y-55806420D01*
X131590500Y-55603465D01*
X131590500Y-55396535D01*
X131590499Y-55396530D01*
X132029500Y-55396530D01*
X132029500Y-55603469D01*
X132069868Y-55806412D01*
X132069870Y-55806420D01*
X132149059Y-55997598D01*
X132184563Y-56050734D01*
X132264024Y-56169657D01*
X132410342Y-56315975D01*
X132410345Y-56315977D01*
X132582402Y-56430941D01*
X132773580Y-56510130D01*
X132891613Y-56533608D01*
X132976530Y-56550499D01*
X132976534Y-56550500D01*
X132976535Y-56550500D01*
X133183466Y-56550500D01*
X133183467Y-56550499D01*
X133386420Y-56510130D01*
X133577598Y-56430941D01*
X133749655Y-56315977D01*
X133895977Y-56169655D01*
X134010941Y-55997598D01*
X134090130Y-55806420D01*
X134130500Y-55603465D01*
X134130500Y-55396535D01*
X134130499Y-55396530D01*
X134569500Y-55396530D01*
X134569500Y-55603469D01*
X134609868Y-55806412D01*
X134609870Y-55806420D01*
X134689059Y-55997598D01*
X134724563Y-56050734D01*
X134804024Y-56169657D01*
X134950342Y-56315975D01*
X134950345Y-56315977D01*
X135122402Y-56430941D01*
X135313580Y-56510130D01*
X135431613Y-56533608D01*
X135516530Y-56550499D01*
X135516534Y-56550500D01*
X135516535Y-56550500D01*
X135723466Y-56550500D01*
X135723467Y-56550499D01*
X135926420Y-56510130D01*
X136117598Y-56430941D01*
X136289655Y-56315977D01*
X136435977Y-56169655D01*
X136550941Y-55997598D01*
X136630130Y-55806420D01*
X136670500Y-55603465D01*
X136670500Y-55396535D01*
X136670499Y-55396530D01*
X137109500Y-55396530D01*
X137109500Y-55603469D01*
X137149868Y-55806412D01*
X137149870Y-55806420D01*
X137229059Y-55997598D01*
X137264563Y-56050734D01*
X137344024Y-56169657D01*
X137490342Y-56315975D01*
X137490345Y-56315977D01*
X137662402Y-56430941D01*
X137853580Y-56510130D01*
X137971613Y-56533608D01*
X138056530Y-56550499D01*
X138056534Y-56550500D01*
X138056535Y-56550500D01*
X138263466Y-56550500D01*
X138263467Y-56550499D01*
X138466420Y-56510130D01*
X138657598Y-56430941D01*
X138829655Y-56315977D01*
X138975977Y-56169655D01*
X139090941Y-55997598D01*
X139170130Y-55806420D01*
X139210500Y-55603465D01*
X139210500Y-55396535D01*
X139210499Y-55396530D01*
X139649500Y-55396530D01*
X139649500Y-55603469D01*
X139689868Y-55806412D01*
X139689870Y-55806420D01*
X139769059Y-55997598D01*
X139804563Y-56050734D01*
X139884024Y-56169657D01*
X140030342Y-56315975D01*
X140030345Y-56315977D01*
X140202402Y-56430941D01*
X140393580Y-56510130D01*
X140511613Y-56533608D01*
X140596530Y-56550499D01*
X140596534Y-56550500D01*
X140596535Y-56550500D01*
X140803466Y-56550500D01*
X140803467Y-56550499D01*
X141006420Y-56510130D01*
X141197598Y-56430941D01*
X141369655Y-56315977D01*
X141515977Y-56169655D01*
X141630941Y-55997598D01*
X141710130Y-55806420D01*
X141750500Y-55603465D01*
X141750500Y-55396535D01*
X141750499Y-55396530D01*
X142189500Y-55396530D01*
X142189500Y-55603469D01*
X142229868Y-55806412D01*
X142229870Y-55806420D01*
X142309059Y-55997598D01*
X142344563Y-56050734D01*
X142424024Y-56169657D01*
X142570342Y-56315975D01*
X142570345Y-56315977D01*
X142742402Y-56430941D01*
X142933580Y-56510130D01*
X143051613Y-56533608D01*
X143136530Y-56550499D01*
X143136534Y-56550500D01*
X143136535Y-56550500D01*
X143343466Y-56550500D01*
X143343467Y-56550499D01*
X143546420Y-56510130D01*
X143737598Y-56430941D01*
X143909655Y-56315977D01*
X144055977Y-56169655D01*
X144170941Y-55997598D01*
X144250130Y-55806420D01*
X144290500Y-55603465D01*
X144290500Y-55396535D01*
X144250130Y-55193580D01*
X144170941Y-55002402D01*
X144055977Y-54830345D01*
X144055975Y-54830342D01*
X143909657Y-54684024D01*
X143772032Y-54592067D01*
X143737598Y-54569059D01*
X143729952Y-54565892D01*
X143546420Y-54489870D01*
X143546412Y-54489868D01*
X143343469Y-54449500D01*
X143343465Y-54449500D01*
X143136535Y-54449500D01*
X143136530Y-54449500D01*
X142933587Y-54489868D01*
X142933579Y-54489870D01*
X142742403Y-54569058D01*
X142570342Y-54684024D01*
X142424024Y-54830342D01*
X142309058Y-55002403D01*
X142229870Y-55193579D01*
X142229868Y-55193587D01*
X142189500Y-55396530D01*
X141750499Y-55396530D01*
X141710130Y-55193580D01*
X141630941Y-55002402D01*
X141515977Y-54830345D01*
X141515975Y-54830342D01*
X141369657Y-54684024D01*
X141232032Y-54592067D01*
X141197598Y-54569059D01*
X141189952Y-54565892D01*
X141006420Y-54489870D01*
X141006412Y-54489868D01*
X140803469Y-54449500D01*
X140803465Y-54449500D01*
X140596535Y-54449500D01*
X140596530Y-54449500D01*
X140393587Y-54489868D01*
X140393579Y-54489870D01*
X140202403Y-54569058D01*
X140030342Y-54684024D01*
X139884024Y-54830342D01*
X139769058Y-55002403D01*
X139689870Y-55193579D01*
X139689868Y-55193587D01*
X139649500Y-55396530D01*
X139210499Y-55396530D01*
X139170130Y-55193580D01*
X139090941Y-55002402D01*
X138975977Y-54830345D01*
X138975975Y-54830342D01*
X138829657Y-54684024D01*
X138692032Y-54592067D01*
X138657598Y-54569059D01*
X138649952Y-54565892D01*
X138466420Y-54489870D01*
X138466412Y-54489868D01*
X138263469Y-54449500D01*
X138263465Y-54449500D01*
X138056535Y-54449500D01*
X138056530Y-54449500D01*
X137853587Y-54489868D01*
X137853579Y-54489870D01*
X137662403Y-54569058D01*
X137490342Y-54684024D01*
X137344024Y-54830342D01*
X137229058Y-55002403D01*
X137149870Y-55193579D01*
X137149868Y-55193587D01*
X137109500Y-55396530D01*
X136670499Y-55396530D01*
X136630130Y-55193580D01*
X136550941Y-55002402D01*
X136435977Y-54830345D01*
X136435975Y-54830342D01*
X136289657Y-54684024D01*
X136152032Y-54592067D01*
X136117598Y-54569059D01*
X136109952Y-54565892D01*
X135926420Y-54489870D01*
X135926412Y-54489868D01*
X135723469Y-54449500D01*
X135723465Y-54449500D01*
X135516535Y-54449500D01*
X135516530Y-54449500D01*
X135313587Y-54489868D01*
X135313579Y-54489870D01*
X135122403Y-54569058D01*
X134950342Y-54684024D01*
X134804024Y-54830342D01*
X134689058Y-55002403D01*
X134609870Y-55193579D01*
X134609868Y-55193587D01*
X134569500Y-55396530D01*
X134130499Y-55396530D01*
X134090130Y-55193580D01*
X134010941Y-55002402D01*
X133895977Y-54830345D01*
X133895975Y-54830342D01*
X133749657Y-54684024D01*
X133612032Y-54592067D01*
X133577598Y-54569059D01*
X133569952Y-54565892D01*
X133386420Y-54489870D01*
X133386412Y-54489868D01*
X133183469Y-54449500D01*
X133183465Y-54449500D01*
X132976535Y-54449500D01*
X132976530Y-54449500D01*
X132773587Y-54489868D01*
X132773579Y-54489870D01*
X132582403Y-54569058D01*
X132410342Y-54684024D01*
X132264024Y-54830342D01*
X132149058Y-55002403D01*
X132069870Y-55193579D01*
X132069868Y-55193587D01*
X132029500Y-55396530D01*
X131590499Y-55396530D01*
X131550130Y-55193580D01*
X131470941Y-55002402D01*
X131355977Y-54830345D01*
X131355975Y-54830342D01*
X131209657Y-54684024D01*
X131072032Y-54592067D01*
X131037598Y-54569059D01*
X131029952Y-54565892D01*
X130846420Y-54489870D01*
X130846412Y-54489868D01*
X130643469Y-54449500D01*
X130643465Y-54449500D01*
X130436535Y-54449500D01*
X130436530Y-54449500D01*
X130233587Y-54489868D01*
X130233579Y-54489870D01*
X130042403Y-54569058D01*
X129870342Y-54684024D01*
X129724024Y-54830342D01*
X129609058Y-55002403D01*
X129529870Y-55193579D01*
X129529868Y-55193587D01*
X129489500Y-55396530D01*
X129050499Y-55396530D01*
X129010130Y-55193580D01*
X128930941Y-55002402D01*
X128815977Y-54830345D01*
X128815975Y-54830342D01*
X128669657Y-54684024D01*
X128532032Y-54592067D01*
X128497598Y-54569059D01*
X128489952Y-54565892D01*
X128306420Y-54489870D01*
X128306412Y-54489868D01*
X128103469Y-54449500D01*
X128103465Y-54449500D01*
X127896535Y-54449500D01*
X127896530Y-54449500D01*
X127693587Y-54489868D01*
X127693579Y-54489870D01*
X127502403Y-54569058D01*
X127330342Y-54684024D01*
X127184024Y-54830342D01*
X127069058Y-55002403D01*
X126989870Y-55193579D01*
X126989868Y-55193587D01*
X126949500Y-55396530D01*
X126510499Y-55396530D01*
X126470130Y-55193580D01*
X126390941Y-55002402D01*
X126275977Y-54830345D01*
X126275975Y-54830342D01*
X126129657Y-54684024D01*
X125992032Y-54592067D01*
X125957598Y-54569059D01*
X125949952Y-54565892D01*
X125766420Y-54489870D01*
X125766412Y-54489868D01*
X125563469Y-54449500D01*
X125563465Y-54449500D01*
X125356535Y-54449500D01*
X125356530Y-54449500D01*
X125153587Y-54489868D01*
X125153579Y-54489870D01*
X124962403Y-54569058D01*
X124790342Y-54684024D01*
X124644024Y-54830342D01*
X124529058Y-55002403D01*
X124449870Y-55193579D01*
X124449868Y-55193587D01*
X124409500Y-55396530D01*
X123970499Y-55396530D01*
X123930130Y-55193580D01*
X123850941Y-55002402D01*
X123735977Y-54830345D01*
X123735975Y-54830342D01*
X123589657Y-54684024D01*
X123452032Y-54592067D01*
X123417598Y-54569059D01*
X123409952Y-54565892D01*
X123226420Y-54489870D01*
X123226412Y-54489868D01*
X123023469Y-54449500D01*
X123023465Y-54449500D01*
X122816535Y-54449500D01*
X122816530Y-54449500D01*
X122613587Y-54489868D01*
X122613579Y-54489870D01*
X122422403Y-54569058D01*
X122250342Y-54684024D01*
X122104024Y-54830342D01*
X121989058Y-55002403D01*
X121909870Y-55193579D01*
X121909868Y-55193587D01*
X121869500Y-55396530D01*
X121430500Y-55396530D01*
X121430500Y-54630249D01*
X121430499Y-54630247D01*
X121418868Y-54571770D01*
X121418867Y-54571769D01*
X121374552Y-54505447D01*
X121308230Y-54461132D01*
X121308229Y-54461131D01*
X121249752Y-54449500D01*
X121249748Y-54449500D01*
X119510252Y-54449500D01*
X119510247Y-54449500D01*
X119451770Y-54461131D01*
X119451769Y-54461132D01*
X119385447Y-54505447D01*
X119341132Y-54571769D01*
X119341131Y-54571770D01*
X119329500Y-54630247D01*
X88983256Y-54630247D01*
X89000500Y-54565892D01*
X89000500Y-54434108D01*
X88966392Y-54306814D01*
X88900500Y-54192686D01*
X88807314Y-54099500D01*
X88750250Y-54066554D01*
X88693187Y-54033608D01*
X88629539Y-54016554D01*
X88565892Y-53999500D01*
X88434108Y-53999500D01*
X88306812Y-54033608D01*
X88192686Y-54099500D01*
X88192683Y-54099502D01*
X88099502Y-54192683D01*
X88099500Y-54192686D01*
X88033608Y-54306812D01*
X87999500Y-54434108D01*
X50000000Y-54434108D01*
X50000000Y-53624000D01*
X50019685Y-53556961D01*
X50072489Y-53511206D01*
X50124000Y-53500000D01*
X147876000Y-53500000D01*
X147943039Y-53519685D01*
G37*
G04 #@! TD.AperFunction*
M02*
