M48
; DRILL file {KiCad 9.0.2} date 2025-08-11T21:07:54-0700
; FORMAT={-:-/ absolute / metric / decimal}
; #@! TF.CreationDate,2025-08-11T21:07:54-07:00
; #@! TF.GenerationSoftware,Kicad,Pcbnew,9.0.2
; #@! TF.FileFunction,Plated,1,4,PTH
FMAT,2
METRIC
; #@! TA.AperFunction,Plated,PTH,ComponentDrill
T1C0.250
; #@! TA.AperFunction,Plated,PTH,ViaDrill
T2C0.350
; #@! TA.AperFunction,Plated,PTH,ComponentDrill
T3C0.600
; #@! TA.AperFunction,Plated,PTH,ComponentDrill
T4C1.000
; #@! TA.AperFunction,Plated,PTH,ComponentDrill
T5C1.190
%
G90
G05
T1
X103.2Y-61.4
X103.2Y-62.8
X103.9Y-60.7
X103.9Y-62.1
X103.9Y-63.5
X104.6Y-61.4
X104.6Y-62.8
X105.3Y-60.7
X105.3Y-62.1
X105.3Y-63.5
X106.0Y-61.4
X106.0Y-62.8
T2
X55.5Y-61.0
X55.5Y-68.0
X57.5Y-84.0
X57.5Y-90.5
X62.0Y-93.0
X63.0Y-53.5
X63.0Y-60.5
X63.0Y-93.0
X63.0Y-147.0
X64.0Y-138.0
X64.5Y-118.5
X65.5Y-53.5
X65.5Y-60.5
X66.0Y-93.5
X68.5Y-111.0
X69.5Y-131.0
X70.0Y-118.5
X71.0Y-149.0
X72.0Y-149.0
X73.083Y-134.5
X74.0Y-119.0
X81.0Y-119.0
X81.0Y-131.5
X81.5Y-61.0
X82.5Y-129.0
X83.5Y-129.0
X84.0Y-127.0
X84.5Y-129.0
X86.0Y-61.5
X87.5Y-54.5
X88.5Y-54.5
X89.5Y-125.0
X90.5Y-125.0
X90.5Y-130.0
X91.5Y-57.5
X91.5Y-125.0
X92.776Y-54.017
X93.5Y-57.5
X93.5Y-96.5
X93.5Y-99.0
X93.5Y-101.5
X93.5Y-103.5
X93.5Y-105.5
X94.0Y-111.0
X94.0Y-113.5
X94.5Y-57.5
X95.0Y-133.5
X96.0Y-53.5
X96.0Y-54.5
X97.0Y-107.5
X97.5Y-126.5
X98.5Y-133.5
X99.0Y-58.5
X99.0Y-63.5
X99.0Y-64.5
X99.0Y-73.5
X100.0Y-129.0
X100.5Y-78.5
X100.5Y-107.5
X100.5Y-131.0
X101.0Y-102.0
X102.0Y-125.0
X104.0Y-101.5
X104.5Y-70.5
X104.5Y-108.0
X105.5Y-70.6
X106.5Y-73.5
X108.0Y-73.5
X111.0Y-106.0
X111.0Y-127.5
X111.0Y-132.5
X112.5Y-107.0
X113.5Y-57.0
X113.5Y-113.5
X115.0Y-104.0
X115.5Y-79.5
X116.5Y-54.0
X116.5Y-55.0
X116.5Y-56.0
X118.5Y-137.0
X118.5Y-151.0
X119.0Y-110.5
X120.0Y-66.0
X120.5Y-98.5
X120.5Y-134.5
X120.5Y-149.0
X121.0Y-111.0
X121.0Y-119.0
X121.5Y-62.5
X121.5Y-106.5
X122.5Y-124.5
X122.5Y-139.0
X124.0Y-76.0
X126.0Y-86.5
X126.0Y-119.0
X126.5Y-106.5
X127.0Y-74.0
X128.5Y-71.0
X129.376Y-66.5
X130.5Y-68.0
X131.0Y-77.5
X132.0Y-90.0
X133.0Y-64.5
X134.5Y-77.5
X135.5Y-132.0
X135.5Y-146.5
X136.0Y-104.5
X136.5Y-64.5
X138.0Y-81.5
X138.5Y-94.5
X144.0Y-115.5
T4
X76.0Y-68.92
X76.0Y-71.46
X76.0Y-74.0
X76.0Y-76.54
X76.0Y-79.08
X96.84Y-83.0
X99.38Y-83.0
X101.92Y-83.0
X104.46Y-83.0
X107.0Y-83.0
X109.54Y-83.0
X109.92Y-92.46
X109.92Y-95.0
X112.46Y-92.46
X112.46Y-95.0
X115.0Y-92.46
X115.0Y-95.0
X120.38Y-55.5
X122.92Y-55.5
X125.46Y-55.5
X128.0Y-55.5
X130.54Y-55.5
X133.08Y-55.5
X135.62Y-55.5
X138.16Y-55.5
X140.7Y-55.5
X143.24Y-55.5
T5
X55.237Y-106.208
X55.237Y-108.748
X55.48Y-134.725
X55.48Y-137.265
X55.52Y-63.725
X55.52Y-66.265
X55.54Y-56.725
X55.54Y-59.265
X142.488Y-87.46
X142.488Y-90.0
X142.5Y-64.5
X142.5Y-67.04
X142.5Y-75.0
X142.5Y-77.54
X142.5Y-105.0
X142.5Y-107.54
X142.5Y-134.0
X142.5Y-136.54
T3
G00X51.275Y-81.65
M15
G01X50.375Y-81.65
M16
G05
G00X51.275Y-92.85
M15
G01X50.375Y-92.85
M16
G05
G00X55.125Y-81.65
M15
G01X54.525Y-81.65
M16
G05
G00X55.125Y-92.85
M15
G01X54.525Y-92.85
M16
G05
M30
